%TF.GenerationSoftware,KiCad,Pcbnew,7.0.2*%
%TF.CreationDate,2023-06-20T04:45:02+07:00*%
%TF.ProjectId,STM32L431RCT6_prototype_board,53544d33-324c-4343-9331-524354365f70,rev?*%
%TF.SameCoordinates,Original*%
%TF.FileFunction,Drillmap*%
%TF.FilePolarity,Positive*%
%FSLAX45Y45*%
G04 Gerber Fmt 4.5, Leading zero omitted, Abs format (unit mm)*
G04 Created by KiCad (PCBNEW 7.0.2) date 2023-06-20 04:45:02*
%MOMM*%
%LPD*%
G01*
G04 APERTURE LIST*
%ADD10C,0.100000*%
%ADD11C,0.200000*%
%ADD12C,0.030000*%
%ADD13C,0.076200*%
G04 APERTURE END LIST*
D10*
X15730000Y-7150000D02*
G75*
G03*
X15830000Y-7250000I100000J0D01*
G01*
X15830000Y-5225000D02*
X20790000Y-5225000D01*
X20890000Y-5325000D02*
X20890000Y-7150000D01*
X20790000Y-7250000D02*
G75*
G03*
X20890000Y-7150000I0J100000D01*
G01*
X20890000Y-5325000D02*
G75*
G03*
X20790000Y-5225000I-100000J0D01*
G01*
X15730000Y-7150000D02*
X15730000Y-5325000D01*
X20790000Y-7250000D02*
X15830000Y-7250000D01*
X15830000Y-5225000D02*
G75*
G03*
X15730000Y-5325000I0J-100000D01*
G01*
D11*
D12*
X16010000Y-6210000D02*
X16040000Y-6240000D01*
X16040000Y-6210000D02*
X16010000Y-6240000D01*
X16125000Y-6210000D02*
X16155000Y-6240000D01*
X16155000Y-6210000D02*
X16125000Y-6240000D01*
X16240000Y-6210000D02*
X16270000Y-6240000D01*
X16270000Y-6210000D02*
X16240000Y-6240000D01*
X16325000Y-6420000D02*
X16355000Y-6450000D01*
X16355000Y-6420000D02*
X16325000Y-6450000D01*
X16355000Y-5895000D02*
X16385000Y-5925000D01*
X16385000Y-5895000D02*
X16355000Y-5925000D01*
X16355000Y-6690000D02*
X16385000Y-6720000D01*
X16385000Y-6690000D02*
X16355000Y-6720000D01*
X16629950Y-6514021D02*
X16659950Y-6544021D01*
X16659950Y-6514021D02*
X16629950Y-6544021D01*
X16635000Y-6165000D02*
X16665000Y-6195000D01*
X16665000Y-6165000D02*
X16635000Y-6195000D01*
X16650000Y-6685000D02*
X16680000Y-6715000D01*
X16680000Y-6685000D02*
X16650000Y-6715000D01*
X16795000Y-5845000D02*
X16825000Y-5875000D01*
X16825000Y-5845000D02*
X16795000Y-5875000D01*
X16845000Y-6515000D02*
X16875000Y-6545000D01*
X16875000Y-6515000D02*
X16845000Y-6545000D01*
X16930000Y-5875000D02*
X16960000Y-5905000D01*
X16960000Y-5875000D02*
X16930000Y-5905000D01*
X17072500Y-5995000D02*
X17102500Y-6025000D01*
X17102500Y-5995000D02*
X17072500Y-6025000D01*
X17235000Y-5830000D02*
X17265000Y-5860000D01*
X17265000Y-5830000D02*
X17235000Y-5860000D01*
X17235000Y-6155000D02*
X17265000Y-6185000D01*
X17265000Y-6155000D02*
X17235000Y-6185000D01*
X17245000Y-6335000D02*
X17275000Y-6365000D01*
X17275000Y-6335000D02*
X17245000Y-6365000D01*
X17245000Y-6430000D02*
X17275000Y-6460000D01*
X17275000Y-6430000D02*
X17245000Y-6460000D01*
X17245000Y-6525000D02*
X17275000Y-6555000D01*
X17275000Y-6525000D02*
X17245000Y-6555000D01*
X17490000Y-5670000D02*
X17520000Y-5700000D01*
X17520000Y-5670000D02*
X17490000Y-5700000D01*
X17813750Y-5795000D02*
X17843750Y-5825000D01*
X17843750Y-5795000D02*
X17813750Y-5825000D01*
X17990000Y-6113800D02*
X18020000Y-6143800D01*
X18020000Y-6113800D02*
X17990000Y-6143800D01*
X18015000Y-6035000D02*
X18045000Y-6065000D01*
X18045000Y-6035000D02*
X18015000Y-6065000D01*
X18095000Y-6435000D02*
X18125000Y-6465000D01*
X18125000Y-6435000D02*
X18095000Y-6465000D01*
X18105000Y-5975000D02*
X18135000Y-6005000D01*
X18135000Y-5975000D02*
X18105000Y-6005000D01*
X18175000Y-6615000D02*
X18205000Y-6645000D01*
X18205000Y-6615000D02*
X18175000Y-6645000D01*
X18280000Y-5695000D02*
X18310000Y-5725000D01*
X18310000Y-5695000D02*
X18280000Y-5725000D01*
X18360000Y-6385000D02*
X18390000Y-6415000D01*
X18390000Y-6385000D02*
X18360000Y-6415000D01*
X18375000Y-6530000D02*
X18405000Y-6560000D01*
X18405000Y-6530000D02*
X18375000Y-6560000D01*
X18380000Y-6110000D02*
X18410000Y-6140000D01*
X18410000Y-6110000D02*
X18380000Y-6140000D01*
X18390585Y-6225452D02*
X18420585Y-6255452D01*
X18420585Y-6225452D02*
X18390585Y-6255452D01*
X18415050Y-5946089D02*
X18445050Y-5976089D01*
X18445050Y-5946089D02*
X18415050Y-5976089D01*
X18500000Y-6535000D02*
X18530000Y-6565000D01*
X18530000Y-6535000D02*
X18500000Y-6565000D01*
X18515000Y-6370000D02*
X18545000Y-6400000D01*
X18545000Y-6370000D02*
X18515000Y-6400000D01*
X18520000Y-6150000D02*
X18550000Y-6180000D01*
X18550000Y-6150000D02*
X18520000Y-6180000D01*
X18590000Y-6540000D02*
X18620000Y-6570000D01*
X18620000Y-6540000D02*
X18590000Y-6570000D01*
X18595000Y-5965000D02*
X18625000Y-5995000D01*
X18625000Y-5965000D02*
X18595000Y-5995000D01*
X18680000Y-6055000D02*
X18710000Y-6085000D01*
X18710000Y-6055000D02*
X18680000Y-6085000D01*
X18730000Y-6340000D02*
X18760000Y-6370000D01*
X18760000Y-6340000D02*
X18730000Y-6370000D01*
X18755000Y-6490000D02*
X18785000Y-6520000D01*
X18785000Y-6490000D02*
X18755000Y-6520000D01*
X18771409Y-5966409D02*
X18801409Y-5996409D01*
X18801409Y-5966409D02*
X18771409Y-5996409D01*
X18860000Y-6250000D02*
X18890000Y-6280000D01*
X18890000Y-6250000D02*
X18860000Y-6280000D01*
X18920000Y-6405000D02*
X18950000Y-6435000D01*
X18950000Y-6405000D02*
X18920000Y-6435000D01*
X19085000Y-6710000D02*
X19115000Y-6740000D01*
X19115000Y-6710000D02*
X19085000Y-6740000D01*
X19165000Y-5670000D02*
X19195000Y-5700000D01*
X19195000Y-5670000D02*
X19165000Y-5700000D01*
X19165000Y-5840000D02*
X19195000Y-5870000D01*
X19195000Y-5840000D02*
X19165000Y-5870000D01*
X19218777Y-6220048D02*
X19248777Y-6250048D01*
X19248777Y-6220048D02*
X19218777Y-6250048D01*
X19238028Y-6142450D02*
X19268028Y-6172450D01*
X19268028Y-6142450D02*
X19238028Y-6172450D01*
X19300000Y-6272513D02*
X19330000Y-6302513D01*
X19330000Y-6272513D02*
X19300000Y-6302513D01*
X19322500Y-5842500D02*
X19352500Y-5872500D01*
X19352500Y-5842500D02*
X19322500Y-5872500D01*
X19355350Y-6332463D02*
X19385350Y-6362463D01*
X19385350Y-6332463D02*
X19355350Y-6362463D01*
X19365000Y-6710000D02*
X19395000Y-6740000D01*
X19395000Y-6710000D02*
X19365000Y-6740000D01*
X19390000Y-6000000D02*
X19420000Y-6030000D01*
X19420000Y-6000000D02*
X19390000Y-6030000D01*
X19390000Y-6080000D02*
X19420000Y-6110000D01*
X19420000Y-6080000D02*
X19390000Y-6110000D01*
X19470000Y-6400000D02*
X19500000Y-6430000D01*
X19500000Y-6400000D02*
X19470000Y-6430000D01*
X20485000Y-6185000D02*
X20515000Y-6215000D01*
X20515000Y-6185000D02*
X20485000Y-6215000D01*
X20490000Y-6445000D02*
X20520000Y-6475000D01*
X20520000Y-6445000D02*
X20490000Y-6475000D01*
D13*
X15938100Y-5476000D02*
G75*
G03*
X15938100Y-5476000I-38100J0D01*
G01*
X15938100Y-7000000D02*
G75*
G03*
X15938100Y-7000000I-38100J0D01*
G01*
X16192100Y-5476000D02*
G75*
G03*
X16192100Y-5476000I-38100J0D01*
G01*
X16192100Y-7000000D02*
G75*
G03*
X16192100Y-7000000I-38100J0D01*
G01*
X16446100Y-5476000D02*
G75*
G03*
X16446100Y-5476000I-38100J0D01*
G01*
X16446100Y-7000000D02*
G75*
G03*
X16446100Y-7000000I-38100J0D01*
G01*
X16700100Y-5476000D02*
G75*
G03*
X16700100Y-5476000I-38100J0D01*
G01*
X16700100Y-7000000D02*
G75*
G03*
X16700100Y-7000000I-38100J0D01*
G01*
X16954100Y-5476000D02*
G75*
G03*
X16954100Y-5476000I-38100J0D01*
G01*
X16954100Y-7000000D02*
G75*
G03*
X16954100Y-7000000I-38100J0D01*
G01*
X17208100Y-5476000D02*
G75*
G03*
X17208100Y-5476000I-38100J0D01*
G01*
X17208100Y-7000000D02*
G75*
G03*
X17208100Y-7000000I-38100J0D01*
G01*
X17462100Y-5476000D02*
G75*
G03*
X17462100Y-5476000I-38100J0D01*
G01*
X17462100Y-7000000D02*
G75*
G03*
X17462100Y-7000000I-38100J0D01*
G01*
X17716100Y-5476000D02*
G75*
G03*
X17716100Y-5476000I-38100J0D01*
G01*
X17716100Y-7000000D02*
G75*
G03*
X17716100Y-7000000I-38100J0D01*
G01*
X17970100Y-5476000D02*
G75*
G03*
X17970100Y-5476000I-38100J0D01*
G01*
X17970100Y-7000000D02*
G75*
G03*
X17970100Y-7000000I-38100J0D01*
G01*
X18224100Y-5476000D02*
G75*
G03*
X18224100Y-5476000I-38100J0D01*
G01*
X18224100Y-7000000D02*
G75*
G03*
X18224100Y-7000000I-38100J0D01*
G01*
X18478100Y-5476000D02*
G75*
G03*
X18478100Y-5476000I-38100J0D01*
G01*
X18478100Y-7000000D02*
G75*
G03*
X18478100Y-7000000I-38100J0D01*
G01*
X18732100Y-5476000D02*
G75*
G03*
X18732100Y-5476000I-38100J0D01*
G01*
X18732100Y-7000000D02*
G75*
G03*
X18732100Y-7000000I-38100J0D01*
G01*
X18986100Y-5476000D02*
G75*
G03*
X18986100Y-5476000I-38100J0D01*
G01*
X18986100Y-7000000D02*
G75*
G03*
X18986100Y-7000000I-38100J0D01*
G01*
X19240100Y-5476000D02*
G75*
G03*
X19240100Y-5476000I-38100J0D01*
G01*
X19240100Y-7000000D02*
G75*
G03*
X19240100Y-7000000I-38100J0D01*
G01*
X19494100Y-5476000D02*
G75*
G03*
X19494100Y-5476000I-38100J0D01*
G01*
X19494100Y-7000000D02*
G75*
G03*
X19494100Y-7000000I-38100J0D01*
G01*
X19748100Y-5476000D02*
G75*
G03*
X19748100Y-5476000I-38100J0D01*
G01*
X19748100Y-7000000D02*
G75*
G03*
X19748100Y-7000000I-38100J0D01*
G01*
X20002100Y-5476000D02*
G75*
G03*
X20002100Y-5476000I-38100J0D01*
G01*
X20002100Y-7000000D02*
G75*
G03*
X20002100Y-7000000I-38100J0D01*
G01*
X20256100Y-5476000D02*
G75*
G03*
X20256100Y-5476000I-38100J0D01*
G01*
X20256100Y-7000000D02*
G75*
G03*
X20256100Y-7000000I-38100J0D01*
G01*
X20510100Y-5476000D02*
G75*
G03*
X20510100Y-5476000I-38100J0D01*
G01*
X20510100Y-7000000D02*
G75*
G03*
X20510100Y-7000000I-38100J0D01*
G01*
X20764100Y-5476000D02*
G75*
G03*
X20764100Y-5476000I-38100J0D01*
G01*
X20764100Y-7000000D02*
G75*
G03*
X20764100Y-7000000I-38100J0D01*
G01*
D11*
X15972619Y-7567524D02*
X15972619Y-7367524D01*
X15972619Y-7367524D02*
X16020238Y-7367524D01*
X16020238Y-7367524D02*
X16048809Y-7377048D01*
X16048809Y-7377048D02*
X16067857Y-7396095D01*
X16067857Y-7396095D02*
X16077381Y-7415143D01*
X16077381Y-7415143D02*
X16086905Y-7453238D01*
X16086905Y-7453238D02*
X16086905Y-7481809D01*
X16086905Y-7481809D02*
X16077381Y-7519905D01*
X16077381Y-7519905D02*
X16067857Y-7538952D01*
X16067857Y-7538952D02*
X16048809Y-7558000D01*
X16048809Y-7558000D02*
X16020238Y-7567524D01*
X16020238Y-7567524D02*
X15972619Y-7567524D01*
X16172619Y-7567524D02*
X16172619Y-7434190D01*
X16172619Y-7472286D02*
X16182143Y-7453238D01*
X16182143Y-7453238D02*
X16191667Y-7443714D01*
X16191667Y-7443714D02*
X16210714Y-7434190D01*
X16210714Y-7434190D02*
X16229762Y-7434190D01*
X16296428Y-7567524D02*
X16296428Y-7434190D01*
X16296428Y-7367524D02*
X16286905Y-7377048D01*
X16286905Y-7377048D02*
X16296428Y-7386571D01*
X16296428Y-7386571D02*
X16305952Y-7377048D01*
X16305952Y-7377048D02*
X16296428Y-7367524D01*
X16296428Y-7367524D02*
X16296428Y-7386571D01*
X16420238Y-7567524D02*
X16401190Y-7558000D01*
X16401190Y-7558000D02*
X16391667Y-7538952D01*
X16391667Y-7538952D02*
X16391667Y-7367524D01*
X16525000Y-7567524D02*
X16505952Y-7558000D01*
X16505952Y-7558000D02*
X16496428Y-7538952D01*
X16496428Y-7538952D02*
X16496428Y-7367524D01*
X16753571Y-7567524D02*
X16753571Y-7367524D01*
X16753571Y-7367524D02*
X16820238Y-7510381D01*
X16820238Y-7510381D02*
X16886905Y-7367524D01*
X16886905Y-7367524D02*
X16886905Y-7567524D01*
X17067857Y-7567524D02*
X17067857Y-7462762D01*
X17067857Y-7462762D02*
X17058333Y-7443714D01*
X17058333Y-7443714D02*
X17039286Y-7434190D01*
X17039286Y-7434190D02*
X17001190Y-7434190D01*
X17001190Y-7434190D02*
X16982143Y-7443714D01*
X17067857Y-7558000D02*
X17048810Y-7567524D01*
X17048810Y-7567524D02*
X17001190Y-7567524D01*
X17001190Y-7567524D02*
X16982143Y-7558000D01*
X16982143Y-7558000D02*
X16972619Y-7538952D01*
X16972619Y-7538952D02*
X16972619Y-7519905D01*
X16972619Y-7519905D02*
X16982143Y-7500857D01*
X16982143Y-7500857D02*
X17001190Y-7491333D01*
X17001190Y-7491333D02*
X17048810Y-7491333D01*
X17048810Y-7491333D02*
X17067857Y-7481809D01*
X17163095Y-7434190D02*
X17163095Y-7634190D01*
X17163095Y-7443714D02*
X17182143Y-7434190D01*
X17182143Y-7434190D02*
X17220238Y-7434190D01*
X17220238Y-7434190D02*
X17239286Y-7443714D01*
X17239286Y-7443714D02*
X17248810Y-7453238D01*
X17248810Y-7453238D02*
X17258333Y-7472286D01*
X17258333Y-7472286D02*
X17258333Y-7529428D01*
X17258333Y-7529428D02*
X17248810Y-7548476D01*
X17248810Y-7548476D02*
X17239286Y-7558000D01*
X17239286Y-7558000D02*
X17220238Y-7567524D01*
X17220238Y-7567524D02*
X17182143Y-7567524D01*
X17182143Y-7567524D02*
X17163095Y-7558000D01*
X17344048Y-7548476D02*
X17353571Y-7558000D01*
X17353571Y-7558000D02*
X17344048Y-7567524D01*
X17344048Y-7567524D02*
X17334524Y-7558000D01*
X17334524Y-7558000D02*
X17344048Y-7548476D01*
X17344048Y-7548476D02*
X17344048Y-7567524D01*
X17344048Y-7443714D02*
X17353571Y-7453238D01*
X17353571Y-7453238D02*
X17344048Y-7462762D01*
X17344048Y-7462762D02*
X17334524Y-7453238D01*
X17334524Y-7453238D02*
X17344048Y-7443714D01*
X17344048Y-7443714D02*
X17344048Y-7462762D01*
D12*
X15695000Y-7880000D02*
X15725000Y-7910000D01*
X15725000Y-7880000D02*
X15695000Y-7910000D01*
D11*
X16010714Y-7787524D02*
X16029762Y-7787524D01*
X16029762Y-7787524D02*
X16048809Y-7797048D01*
X16048809Y-7797048D02*
X16058333Y-7806571D01*
X16058333Y-7806571D02*
X16067857Y-7825619D01*
X16067857Y-7825619D02*
X16077381Y-7863714D01*
X16077381Y-7863714D02*
X16077381Y-7911333D01*
X16077381Y-7911333D02*
X16067857Y-7949428D01*
X16067857Y-7949428D02*
X16058333Y-7968476D01*
X16058333Y-7968476D02*
X16048809Y-7978000D01*
X16048809Y-7978000D02*
X16029762Y-7987524D01*
X16029762Y-7987524D02*
X16010714Y-7987524D01*
X16010714Y-7987524D02*
X15991667Y-7978000D01*
X15991667Y-7978000D02*
X15982143Y-7968476D01*
X15982143Y-7968476D02*
X15972619Y-7949428D01*
X15972619Y-7949428D02*
X15963095Y-7911333D01*
X15963095Y-7911333D02*
X15963095Y-7863714D01*
X15963095Y-7863714D02*
X15972619Y-7825619D01*
X15972619Y-7825619D02*
X15982143Y-7806571D01*
X15982143Y-7806571D02*
X15991667Y-7797048D01*
X15991667Y-7797048D02*
X16010714Y-7787524D01*
X16163095Y-7968476D02*
X16172619Y-7978000D01*
X16172619Y-7978000D02*
X16163095Y-7987524D01*
X16163095Y-7987524D02*
X16153571Y-7978000D01*
X16153571Y-7978000D02*
X16163095Y-7968476D01*
X16163095Y-7968476D02*
X16163095Y-7987524D01*
X16239286Y-7787524D02*
X16363095Y-7787524D01*
X16363095Y-7787524D02*
X16296428Y-7863714D01*
X16296428Y-7863714D02*
X16325000Y-7863714D01*
X16325000Y-7863714D02*
X16344048Y-7873238D01*
X16344048Y-7873238D02*
X16353571Y-7882762D01*
X16353571Y-7882762D02*
X16363095Y-7901809D01*
X16363095Y-7901809D02*
X16363095Y-7949428D01*
X16363095Y-7949428D02*
X16353571Y-7968476D01*
X16353571Y-7968476D02*
X16344048Y-7978000D01*
X16344048Y-7978000D02*
X16325000Y-7987524D01*
X16325000Y-7987524D02*
X16267857Y-7987524D01*
X16267857Y-7987524D02*
X16248809Y-7978000D01*
X16248809Y-7978000D02*
X16239286Y-7968476D01*
X16486905Y-7787524D02*
X16505952Y-7787524D01*
X16505952Y-7787524D02*
X16525000Y-7797048D01*
X16525000Y-7797048D02*
X16534524Y-7806571D01*
X16534524Y-7806571D02*
X16544048Y-7825619D01*
X16544048Y-7825619D02*
X16553571Y-7863714D01*
X16553571Y-7863714D02*
X16553571Y-7911333D01*
X16553571Y-7911333D02*
X16544048Y-7949428D01*
X16544048Y-7949428D02*
X16534524Y-7968476D01*
X16534524Y-7968476D02*
X16525000Y-7978000D01*
X16525000Y-7978000D02*
X16505952Y-7987524D01*
X16505952Y-7987524D02*
X16486905Y-7987524D01*
X16486905Y-7987524D02*
X16467857Y-7978000D01*
X16467857Y-7978000D02*
X16458333Y-7968476D01*
X16458333Y-7968476D02*
X16448809Y-7949428D01*
X16448809Y-7949428D02*
X16439286Y-7911333D01*
X16439286Y-7911333D02*
X16439286Y-7863714D01*
X16439286Y-7863714D02*
X16448809Y-7825619D01*
X16448809Y-7825619D02*
X16458333Y-7806571D01*
X16458333Y-7806571D02*
X16467857Y-7797048D01*
X16467857Y-7797048D02*
X16486905Y-7787524D01*
X16677381Y-7787524D02*
X16696429Y-7787524D01*
X16696429Y-7787524D02*
X16715476Y-7797048D01*
X16715476Y-7797048D02*
X16725000Y-7806571D01*
X16725000Y-7806571D02*
X16734524Y-7825619D01*
X16734524Y-7825619D02*
X16744048Y-7863714D01*
X16744048Y-7863714D02*
X16744048Y-7911333D01*
X16744048Y-7911333D02*
X16734524Y-7949428D01*
X16734524Y-7949428D02*
X16725000Y-7968476D01*
X16725000Y-7968476D02*
X16715476Y-7978000D01*
X16715476Y-7978000D02*
X16696429Y-7987524D01*
X16696429Y-7987524D02*
X16677381Y-7987524D01*
X16677381Y-7987524D02*
X16658333Y-7978000D01*
X16658333Y-7978000D02*
X16648809Y-7968476D01*
X16648809Y-7968476D02*
X16639286Y-7949428D01*
X16639286Y-7949428D02*
X16629762Y-7911333D01*
X16629762Y-7911333D02*
X16629762Y-7863714D01*
X16629762Y-7863714D02*
X16639286Y-7825619D01*
X16639286Y-7825619D02*
X16648809Y-7806571D01*
X16648809Y-7806571D02*
X16658333Y-7797048D01*
X16658333Y-7797048D02*
X16677381Y-7787524D01*
X16829762Y-7987524D02*
X16829762Y-7854190D01*
X16829762Y-7873238D02*
X16839286Y-7863714D01*
X16839286Y-7863714D02*
X16858333Y-7854190D01*
X16858333Y-7854190D02*
X16886905Y-7854190D01*
X16886905Y-7854190D02*
X16905952Y-7863714D01*
X16905952Y-7863714D02*
X16915476Y-7882762D01*
X16915476Y-7882762D02*
X16915476Y-7987524D01*
X16915476Y-7882762D02*
X16925000Y-7863714D01*
X16925000Y-7863714D02*
X16944048Y-7854190D01*
X16944048Y-7854190D02*
X16972619Y-7854190D01*
X16972619Y-7854190D02*
X16991667Y-7863714D01*
X16991667Y-7863714D02*
X17001191Y-7882762D01*
X17001191Y-7882762D02*
X17001191Y-7987524D01*
X17096429Y-7987524D02*
X17096429Y-7854190D01*
X17096429Y-7873238D02*
X17105952Y-7863714D01*
X17105952Y-7863714D02*
X17125000Y-7854190D01*
X17125000Y-7854190D02*
X17153572Y-7854190D01*
X17153572Y-7854190D02*
X17172619Y-7863714D01*
X17172619Y-7863714D02*
X17182143Y-7882762D01*
X17182143Y-7882762D02*
X17182143Y-7987524D01*
X17182143Y-7882762D02*
X17191667Y-7863714D01*
X17191667Y-7863714D02*
X17210714Y-7854190D01*
X17210714Y-7854190D02*
X17239286Y-7854190D01*
X17239286Y-7854190D02*
X17258333Y-7863714D01*
X17258333Y-7863714D02*
X17267857Y-7882762D01*
X17267857Y-7882762D02*
X17267857Y-7987524D01*
X17658333Y-7778000D02*
X17486905Y-8035143D01*
X17915476Y-7787524D02*
X17934524Y-7787524D01*
X17934524Y-7787524D02*
X17953572Y-7797048D01*
X17953572Y-7797048D02*
X17963095Y-7806571D01*
X17963095Y-7806571D02*
X17972619Y-7825619D01*
X17972619Y-7825619D02*
X17982143Y-7863714D01*
X17982143Y-7863714D02*
X17982143Y-7911333D01*
X17982143Y-7911333D02*
X17972619Y-7949428D01*
X17972619Y-7949428D02*
X17963095Y-7968476D01*
X17963095Y-7968476D02*
X17953572Y-7978000D01*
X17953572Y-7978000D02*
X17934524Y-7987524D01*
X17934524Y-7987524D02*
X17915476Y-7987524D01*
X17915476Y-7987524D02*
X17896429Y-7978000D01*
X17896429Y-7978000D02*
X17886905Y-7968476D01*
X17886905Y-7968476D02*
X17877381Y-7949428D01*
X17877381Y-7949428D02*
X17867857Y-7911333D01*
X17867857Y-7911333D02*
X17867857Y-7863714D01*
X17867857Y-7863714D02*
X17877381Y-7825619D01*
X17877381Y-7825619D02*
X17886905Y-7806571D01*
X17886905Y-7806571D02*
X17896429Y-7797048D01*
X17896429Y-7797048D02*
X17915476Y-7787524D01*
X18067857Y-7968476D02*
X18077381Y-7978000D01*
X18077381Y-7978000D02*
X18067857Y-7987524D01*
X18067857Y-7987524D02*
X18058334Y-7978000D01*
X18058334Y-7978000D02*
X18067857Y-7968476D01*
X18067857Y-7968476D02*
X18067857Y-7987524D01*
X18201191Y-7787524D02*
X18220238Y-7787524D01*
X18220238Y-7787524D02*
X18239286Y-7797048D01*
X18239286Y-7797048D02*
X18248810Y-7806571D01*
X18248810Y-7806571D02*
X18258334Y-7825619D01*
X18258334Y-7825619D02*
X18267857Y-7863714D01*
X18267857Y-7863714D02*
X18267857Y-7911333D01*
X18267857Y-7911333D02*
X18258334Y-7949428D01*
X18258334Y-7949428D02*
X18248810Y-7968476D01*
X18248810Y-7968476D02*
X18239286Y-7978000D01*
X18239286Y-7978000D02*
X18220238Y-7987524D01*
X18220238Y-7987524D02*
X18201191Y-7987524D01*
X18201191Y-7987524D02*
X18182143Y-7978000D01*
X18182143Y-7978000D02*
X18172619Y-7968476D01*
X18172619Y-7968476D02*
X18163095Y-7949428D01*
X18163095Y-7949428D02*
X18153572Y-7911333D01*
X18153572Y-7911333D02*
X18153572Y-7863714D01*
X18153572Y-7863714D02*
X18163095Y-7825619D01*
X18163095Y-7825619D02*
X18172619Y-7806571D01*
X18172619Y-7806571D02*
X18182143Y-7797048D01*
X18182143Y-7797048D02*
X18201191Y-7787524D01*
X18458334Y-7987524D02*
X18344048Y-7987524D01*
X18401191Y-7987524D02*
X18401191Y-7787524D01*
X18401191Y-7787524D02*
X18382143Y-7816095D01*
X18382143Y-7816095D02*
X18363095Y-7835143D01*
X18363095Y-7835143D02*
X18344048Y-7844667D01*
X18648810Y-7987524D02*
X18534524Y-7987524D01*
X18591667Y-7987524D02*
X18591667Y-7787524D01*
X18591667Y-7787524D02*
X18572619Y-7816095D01*
X18572619Y-7816095D02*
X18553572Y-7835143D01*
X18553572Y-7835143D02*
X18534524Y-7844667D01*
X18763095Y-7873238D02*
X18744048Y-7863714D01*
X18744048Y-7863714D02*
X18734524Y-7854190D01*
X18734524Y-7854190D02*
X18725000Y-7835143D01*
X18725000Y-7835143D02*
X18725000Y-7825619D01*
X18725000Y-7825619D02*
X18734524Y-7806571D01*
X18734524Y-7806571D02*
X18744048Y-7797048D01*
X18744048Y-7797048D02*
X18763095Y-7787524D01*
X18763095Y-7787524D02*
X18801191Y-7787524D01*
X18801191Y-7787524D02*
X18820238Y-7797048D01*
X18820238Y-7797048D02*
X18829762Y-7806571D01*
X18829762Y-7806571D02*
X18839286Y-7825619D01*
X18839286Y-7825619D02*
X18839286Y-7835143D01*
X18839286Y-7835143D02*
X18829762Y-7854190D01*
X18829762Y-7854190D02*
X18820238Y-7863714D01*
X18820238Y-7863714D02*
X18801191Y-7873238D01*
X18801191Y-7873238D02*
X18763095Y-7873238D01*
X18763095Y-7873238D02*
X18744048Y-7882762D01*
X18744048Y-7882762D02*
X18734524Y-7892286D01*
X18734524Y-7892286D02*
X18725000Y-7911333D01*
X18725000Y-7911333D02*
X18725000Y-7949428D01*
X18725000Y-7949428D02*
X18734524Y-7968476D01*
X18734524Y-7968476D02*
X18744048Y-7978000D01*
X18744048Y-7978000D02*
X18763095Y-7987524D01*
X18763095Y-7987524D02*
X18801191Y-7987524D01*
X18801191Y-7987524D02*
X18820238Y-7978000D01*
X18820238Y-7978000D02*
X18829762Y-7968476D01*
X18829762Y-7968476D02*
X18839286Y-7949428D01*
X18839286Y-7949428D02*
X18839286Y-7911333D01*
X18839286Y-7911333D02*
X18829762Y-7892286D01*
X18829762Y-7892286D02*
X18820238Y-7882762D01*
X18820238Y-7882762D02*
X18801191Y-7873238D01*
X18915476Y-7787524D02*
X18915476Y-7825619D01*
X18991667Y-7787524D02*
X18991667Y-7825619D01*
X19286905Y-8063714D02*
X19277381Y-8054190D01*
X19277381Y-8054190D02*
X19258334Y-8025619D01*
X19258334Y-8025619D02*
X19248810Y-8006571D01*
X19248810Y-8006571D02*
X19239286Y-7978000D01*
X19239286Y-7978000D02*
X19229762Y-7930381D01*
X19229762Y-7930381D02*
X19229762Y-7892286D01*
X19229762Y-7892286D02*
X19239286Y-7844667D01*
X19239286Y-7844667D02*
X19248810Y-7816095D01*
X19248810Y-7816095D02*
X19258334Y-7797048D01*
X19258334Y-7797048D02*
X19277381Y-7768476D01*
X19277381Y-7768476D02*
X19286905Y-7758952D01*
X19458334Y-7787524D02*
X19363096Y-7787524D01*
X19363096Y-7787524D02*
X19353572Y-7882762D01*
X19353572Y-7882762D02*
X19363096Y-7873238D01*
X19363096Y-7873238D02*
X19382143Y-7863714D01*
X19382143Y-7863714D02*
X19429762Y-7863714D01*
X19429762Y-7863714D02*
X19448810Y-7873238D01*
X19448810Y-7873238D02*
X19458334Y-7882762D01*
X19458334Y-7882762D02*
X19467857Y-7901809D01*
X19467857Y-7901809D02*
X19467857Y-7949428D01*
X19467857Y-7949428D02*
X19458334Y-7968476D01*
X19458334Y-7968476D02*
X19448810Y-7978000D01*
X19448810Y-7978000D02*
X19429762Y-7987524D01*
X19429762Y-7987524D02*
X19382143Y-7987524D01*
X19382143Y-7987524D02*
X19363096Y-7978000D01*
X19363096Y-7978000D02*
X19353572Y-7968476D01*
X19639286Y-7787524D02*
X19601191Y-7787524D01*
X19601191Y-7787524D02*
X19582143Y-7797048D01*
X19582143Y-7797048D02*
X19572619Y-7806571D01*
X19572619Y-7806571D02*
X19553572Y-7835143D01*
X19553572Y-7835143D02*
X19544048Y-7873238D01*
X19544048Y-7873238D02*
X19544048Y-7949428D01*
X19544048Y-7949428D02*
X19553572Y-7968476D01*
X19553572Y-7968476D02*
X19563096Y-7978000D01*
X19563096Y-7978000D02*
X19582143Y-7987524D01*
X19582143Y-7987524D02*
X19620238Y-7987524D01*
X19620238Y-7987524D02*
X19639286Y-7978000D01*
X19639286Y-7978000D02*
X19648810Y-7968476D01*
X19648810Y-7968476D02*
X19658334Y-7949428D01*
X19658334Y-7949428D02*
X19658334Y-7901809D01*
X19658334Y-7901809D02*
X19648810Y-7882762D01*
X19648810Y-7882762D02*
X19639286Y-7873238D01*
X19639286Y-7873238D02*
X19620238Y-7863714D01*
X19620238Y-7863714D02*
X19582143Y-7863714D01*
X19582143Y-7863714D02*
X19563096Y-7873238D01*
X19563096Y-7873238D02*
X19553572Y-7882762D01*
X19553572Y-7882762D02*
X19544048Y-7901809D01*
X19896429Y-7987524D02*
X19896429Y-7787524D01*
X19982143Y-7987524D02*
X19982143Y-7882762D01*
X19982143Y-7882762D02*
X19972619Y-7863714D01*
X19972619Y-7863714D02*
X19953572Y-7854190D01*
X19953572Y-7854190D02*
X19925000Y-7854190D01*
X19925000Y-7854190D02*
X19905953Y-7863714D01*
X19905953Y-7863714D02*
X19896429Y-7873238D01*
X20105953Y-7987524D02*
X20086905Y-7978000D01*
X20086905Y-7978000D02*
X20077381Y-7968476D01*
X20077381Y-7968476D02*
X20067858Y-7949428D01*
X20067858Y-7949428D02*
X20067858Y-7892286D01*
X20067858Y-7892286D02*
X20077381Y-7873238D01*
X20077381Y-7873238D02*
X20086905Y-7863714D01*
X20086905Y-7863714D02*
X20105953Y-7854190D01*
X20105953Y-7854190D02*
X20134524Y-7854190D01*
X20134524Y-7854190D02*
X20153572Y-7863714D01*
X20153572Y-7863714D02*
X20163096Y-7873238D01*
X20163096Y-7873238D02*
X20172619Y-7892286D01*
X20172619Y-7892286D02*
X20172619Y-7949428D01*
X20172619Y-7949428D02*
X20163096Y-7968476D01*
X20163096Y-7968476D02*
X20153572Y-7978000D01*
X20153572Y-7978000D02*
X20134524Y-7987524D01*
X20134524Y-7987524D02*
X20105953Y-7987524D01*
X20286905Y-7987524D02*
X20267858Y-7978000D01*
X20267858Y-7978000D02*
X20258334Y-7958952D01*
X20258334Y-7958952D02*
X20258334Y-7787524D01*
X20439286Y-7978000D02*
X20420239Y-7987524D01*
X20420239Y-7987524D02*
X20382143Y-7987524D01*
X20382143Y-7987524D02*
X20363096Y-7978000D01*
X20363096Y-7978000D02*
X20353572Y-7958952D01*
X20353572Y-7958952D02*
X20353572Y-7882762D01*
X20353572Y-7882762D02*
X20363096Y-7863714D01*
X20363096Y-7863714D02*
X20382143Y-7854190D01*
X20382143Y-7854190D02*
X20420239Y-7854190D01*
X20420239Y-7854190D02*
X20439286Y-7863714D01*
X20439286Y-7863714D02*
X20448810Y-7882762D01*
X20448810Y-7882762D02*
X20448810Y-7901809D01*
X20448810Y-7901809D02*
X20353572Y-7920857D01*
X20525000Y-7978000D02*
X20544048Y-7987524D01*
X20544048Y-7987524D02*
X20582143Y-7987524D01*
X20582143Y-7987524D02*
X20601191Y-7978000D01*
X20601191Y-7978000D02*
X20610715Y-7958952D01*
X20610715Y-7958952D02*
X20610715Y-7949428D01*
X20610715Y-7949428D02*
X20601191Y-7930381D01*
X20601191Y-7930381D02*
X20582143Y-7920857D01*
X20582143Y-7920857D02*
X20553572Y-7920857D01*
X20553572Y-7920857D02*
X20534524Y-7911333D01*
X20534524Y-7911333D02*
X20525000Y-7892286D01*
X20525000Y-7892286D02*
X20525000Y-7882762D01*
X20525000Y-7882762D02*
X20534524Y-7863714D01*
X20534524Y-7863714D02*
X20553572Y-7854190D01*
X20553572Y-7854190D02*
X20582143Y-7854190D01*
X20582143Y-7854190D02*
X20601191Y-7863714D01*
X20677381Y-8063714D02*
X20686905Y-8054190D01*
X20686905Y-8054190D02*
X20705953Y-8025619D01*
X20705953Y-8025619D02*
X20715477Y-8006571D01*
X20715477Y-8006571D02*
X20725000Y-7978000D01*
X20725000Y-7978000D02*
X20734524Y-7930381D01*
X20734524Y-7930381D02*
X20734524Y-7892286D01*
X20734524Y-7892286D02*
X20725000Y-7844667D01*
X20725000Y-7844667D02*
X20715477Y-7816095D01*
X20715477Y-7816095D02*
X20705953Y-7797048D01*
X20705953Y-7797048D02*
X20686905Y-7768476D01*
X20686905Y-7768476D02*
X20677381Y-7758952D01*
D13*
X15725000Y-8159000D02*
G75*
G03*
X15725000Y-8159000I-38100J0D01*
G01*
D11*
X16010714Y-8051524D02*
X16029762Y-8051524D01*
X16029762Y-8051524D02*
X16048809Y-8061048D01*
X16048809Y-8061048D02*
X16058333Y-8070571D01*
X16058333Y-8070571D02*
X16067857Y-8089619D01*
X16067857Y-8089619D02*
X16077381Y-8127714D01*
X16077381Y-8127714D02*
X16077381Y-8175333D01*
X16077381Y-8175333D02*
X16067857Y-8213428D01*
X16067857Y-8213428D02*
X16058333Y-8232476D01*
X16058333Y-8232476D02*
X16048809Y-8242000D01*
X16048809Y-8242000D02*
X16029762Y-8251524D01*
X16029762Y-8251524D02*
X16010714Y-8251524D01*
X16010714Y-8251524D02*
X15991667Y-8242000D01*
X15991667Y-8242000D02*
X15982143Y-8232476D01*
X15982143Y-8232476D02*
X15972619Y-8213428D01*
X15972619Y-8213428D02*
X15963095Y-8175333D01*
X15963095Y-8175333D02*
X15963095Y-8127714D01*
X15963095Y-8127714D02*
X15972619Y-8089619D01*
X15972619Y-8089619D02*
X15982143Y-8070571D01*
X15982143Y-8070571D02*
X15991667Y-8061048D01*
X15991667Y-8061048D02*
X16010714Y-8051524D01*
X16163095Y-8232476D02*
X16172619Y-8242000D01*
X16172619Y-8242000D02*
X16163095Y-8251524D01*
X16163095Y-8251524D02*
X16153571Y-8242000D01*
X16153571Y-8242000D02*
X16163095Y-8232476D01*
X16163095Y-8232476D02*
X16163095Y-8251524D01*
X16239286Y-8051524D02*
X16372619Y-8051524D01*
X16372619Y-8051524D02*
X16286905Y-8251524D01*
X16534524Y-8051524D02*
X16496428Y-8051524D01*
X16496428Y-8051524D02*
X16477381Y-8061048D01*
X16477381Y-8061048D02*
X16467857Y-8070571D01*
X16467857Y-8070571D02*
X16448809Y-8099143D01*
X16448809Y-8099143D02*
X16439286Y-8137238D01*
X16439286Y-8137238D02*
X16439286Y-8213428D01*
X16439286Y-8213428D02*
X16448809Y-8232476D01*
X16448809Y-8232476D02*
X16458333Y-8242000D01*
X16458333Y-8242000D02*
X16477381Y-8251524D01*
X16477381Y-8251524D02*
X16515476Y-8251524D01*
X16515476Y-8251524D02*
X16534524Y-8242000D01*
X16534524Y-8242000D02*
X16544048Y-8232476D01*
X16544048Y-8232476D02*
X16553571Y-8213428D01*
X16553571Y-8213428D02*
X16553571Y-8165809D01*
X16553571Y-8165809D02*
X16544048Y-8146762D01*
X16544048Y-8146762D02*
X16534524Y-8137238D01*
X16534524Y-8137238D02*
X16515476Y-8127714D01*
X16515476Y-8127714D02*
X16477381Y-8127714D01*
X16477381Y-8127714D02*
X16458333Y-8137238D01*
X16458333Y-8137238D02*
X16448809Y-8146762D01*
X16448809Y-8146762D02*
X16439286Y-8165809D01*
X16629762Y-8070571D02*
X16639286Y-8061048D01*
X16639286Y-8061048D02*
X16658333Y-8051524D01*
X16658333Y-8051524D02*
X16705952Y-8051524D01*
X16705952Y-8051524D02*
X16725000Y-8061048D01*
X16725000Y-8061048D02*
X16734524Y-8070571D01*
X16734524Y-8070571D02*
X16744048Y-8089619D01*
X16744048Y-8089619D02*
X16744048Y-8108667D01*
X16744048Y-8108667D02*
X16734524Y-8137238D01*
X16734524Y-8137238D02*
X16620238Y-8251524D01*
X16620238Y-8251524D02*
X16744048Y-8251524D01*
X16829762Y-8251524D02*
X16829762Y-8118190D01*
X16829762Y-8137238D02*
X16839286Y-8127714D01*
X16839286Y-8127714D02*
X16858333Y-8118190D01*
X16858333Y-8118190D02*
X16886905Y-8118190D01*
X16886905Y-8118190D02*
X16905952Y-8127714D01*
X16905952Y-8127714D02*
X16915476Y-8146762D01*
X16915476Y-8146762D02*
X16915476Y-8251524D01*
X16915476Y-8146762D02*
X16925000Y-8127714D01*
X16925000Y-8127714D02*
X16944048Y-8118190D01*
X16944048Y-8118190D02*
X16972619Y-8118190D01*
X16972619Y-8118190D02*
X16991667Y-8127714D01*
X16991667Y-8127714D02*
X17001191Y-8146762D01*
X17001191Y-8146762D02*
X17001191Y-8251524D01*
X17096429Y-8251524D02*
X17096429Y-8118190D01*
X17096429Y-8137238D02*
X17105952Y-8127714D01*
X17105952Y-8127714D02*
X17125000Y-8118190D01*
X17125000Y-8118190D02*
X17153572Y-8118190D01*
X17153572Y-8118190D02*
X17172619Y-8127714D01*
X17172619Y-8127714D02*
X17182143Y-8146762D01*
X17182143Y-8146762D02*
X17182143Y-8251524D01*
X17182143Y-8146762D02*
X17191667Y-8127714D01*
X17191667Y-8127714D02*
X17210714Y-8118190D01*
X17210714Y-8118190D02*
X17239286Y-8118190D01*
X17239286Y-8118190D02*
X17258333Y-8127714D01*
X17258333Y-8127714D02*
X17267857Y-8146762D01*
X17267857Y-8146762D02*
X17267857Y-8251524D01*
X17658333Y-8042000D02*
X17486905Y-8299143D01*
X17915476Y-8051524D02*
X17934524Y-8051524D01*
X17934524Y-8051524D02*
X17953572Y-8061048D01*
X17953572Y-8061048D02*
X17963095Y-8070571D01*
X17963095Y-8070571D02*
X17972619Y-8089619D01*
X17972619Y-8089619D02*
X17982143Y-8127714D01*
X17982143Y-8127714D02*
X17982143Y-8175333D01*
X17982143Y-8175333D02*
X17972619Y-8213428D01*
X17972619Y-8213428D02*
X17963095Y-8232476D01*
X17963095Y-8232476D02*
X17953572Y-8242000D01*
X17953572Y-8242000D02*
X17934524Y-8251524D01*
X17934524Y-8251524D02*
X17915476Y-8251524D01*
X17915476Y-8251524D02*
X17896429Y-8242000D01*
X17896429Y-8242000D02*
X17886905Y-8232476D01*
X17886905Y-8232476D02*
X17877381Y-8213428D01*
X17877381Y-8213428D02*
X17867857Y-8175333D01*
X17867857Y-8175333D02*
X17867857Y-8127714D01*
X17867857Y-8127714D02*
X17877381Y-8089619D01*
X17877381Y-8089619D02*
X17886905Y-8070571D01*
X17886905Y-8070571D02*
X17896429Y-8061048D01*
X17896429Y-8061048D02*
X17915476Y-8051524D01*
X18067857Y-8232476D02*
X18077381Y-8242000D01*
X18077381Y-8242000D02*
X18067857Y-8251524D01*
X18067857Y-8251524D02*
X18058334Y-8242000D01*
X18058334Y-8242000D02*
X18067857Y-8232476D01*
X18067857Y-8232476D02*
X18067857Y-8251524D01*
X18201191Y-8051524D02*
X18220238Y-8051524D01*
X18220238Y-8051524D02*
X18239286Y-8061048D01*
X18239286Y-8061048D02*
X18248810Y-8070571D01*
X18248810Y-8070571D02*
X18258334Y-8089619D01*
X18258334Y-8089619D02*
X18267857Y-8127714D01*
X18267857Y-8127714D02*
X18267857Y-8175333D01*
X18267857Y-8175333D02*
X18258334Y-8213428D01*
X18258334Y-8213428D02*
X18248810Y-8232476D01*
X18248810Y-8232476D02*
X18239286Y-8242000D01*
X18239286Y-8242000D02*
X18220238Y-8251524D01*
X18220238Y-8251524D02*
X18201191Y-8251524D01*
X18201191Y-8251524D02*
X18182143Y-8242000D01*
X18182143Y-8242000D02*
X18172619Y-8232476D01*
X18172619Y-8232476D02*
X18163095Y-8213428D01*
X18163095Y-8213428D02*
X18153572Y-8175333D01*
X18153572Y-8175333D02*
X18153572Y-8127714D01*
X18153572Y-8127714D02*
X18163095Y-8089619D01*
X18163095Y-8089619D02*
X18172619Y-8070571D01*
X18172619Y-8070571D02*
X18182143Y-8061048D01*
X18182143Y-8061048D02*
X18201191Y-8051524D01*
X18334524Y-8051524D02*
X18458334Y-8051524D01*
X18458334Y-8051524D02*
X18391667Y-8127714D01*
X18391667Y-8127714D02*
X18420238Y-8127714D01*
X18420238Y-8127714D02*
X18439286Y-8137238D01*
X18439286Y-8137238D02*
X18448810Y-8146762D01*
X18448810Y-8146762D02*
X18458334Y-8165809D01*
X18458334Y-8165809D02*
X18458334Y-8213428D01*
X18458334Y-8213428D02*
X18448810Y-8232476D01*
X18448810Y-8232476D02*
X18439286Y-8242000D01*
X18439286Y-8242000D02*
X18420238Y-8251524D01*
X18420238Y-8251524D02*
X18363095Y-8251524D01*
X18363095Y-8251524D02*
X18344048Y-8242000D01*
X18344048Y-8242000D02*
X18334524Y-8232476D01*
X18582143Y-8051524D02*
X18601191Y-8051524D01*
X18601191Y-8051524D02*
X18620238Y-8061048D01*
X18620238Y-8061048D02*
X18629762Y-8070571D01*
X18629762Y-8070571D02*
X18639286Y-8089619D01*
X18639286Y-8089619D02*
X18648810Y-8127714D01*
X18648810Y-8127714D02*
X18648810Y-8175333D01*
X18648810Y-8175333D02*
X18639286Y-8213428D01*
X18639286Y-8213428D02*
X18629762Y-8232476D01*
X18629762Y-8232476D02*
X18620238Y-8242000D01*
X18620238Y-8242000D02*
X18601191Y-8251524D01*
X18601191Y-8251524D02*
X18582143Y-8251524D01*
X18582143Y-8251524D02*
X18563095Y-8242000D01*
X18563095Y-8242000D02*
X18553572Y-8232476D01*
X18553572Y-8232476D02*
X18544048Y-8213428D01*
X18544048Y-8213428D02*
X18534524Y-8175333D01*
X18534524Y-8175333D02*
X18534524Y-8127714D01*
X18534524Y-8127714D02*
X18544048Y-8089619D01*
X18544048Y-8089619D02*
X18553572Y-8070571D01*
X18553572Y-8070571D02*
X18563095Y-8061048D01*
X18563095Y-8061048D02*
X18582143Y-8051524D01*
X18772619Y-8051524D02*
X18791667Y-8051524D01*
X18791667Y-8051524D02*
X18810715Y-8061048D01*
X18810715Y-8061048D02*
X18820238Y-8070571D01*
X18820238Y-8070571D02*
X18829762Y-8089619D01*
X18829762Y-8089619D02*
X18839286Y-8127714D01*
X18839286Y-8127714D02*
X18839286Y-8175333D01*
X18839286Y-8175333D02*
X18829762Y-8213428D01*
X18829762Y-8213428D02*
X18820238Y-8232476D01*
X18820238Y-8232476D02*
X18810715Y-8242000D01*
X18810715Y-8242000D02*
X18791667Y-8251524D01*
X18791667Y-8251524D02*
X18772619Y-8251524D01*
X18772619Y-8251524D02*
X18753572Y-8242000D01*
X18753572Y-8242000D02*
X18744048Y-8232476D01*
X18744048Y-8232476D02*
X18734524Y-8213428D01*
X18734524Y-8213428D02*
X18725000Y-8175333D01*
X18725000Y-8175333D02*
X18725000Y-8127714D01*
X18725000Y-8127714D02*
X18734524Y-8089619D01*
X18734524Y-8089619D02*
X18744048Y-8070571D01*
X18744048Y-8070571D02*
X18753572Y-8061048D01*
X18753572Y-8061048D02*
X18772619Y-8051524D01*
X18915476Y-8051524D02*
X18915476Y-8089619D01*
X18991667Y-8051524D02*
X18991667Y-8089619D01*
X19286905Y-8327714D02*
X19277381Y-8318190D01*
X19277381Y-8318190D02*
X19258334Y-8289619D01*
X19258334Y-8289619D02*
X19248810Y-8270571D01*
X19248810Y-8270571D02*
X19239286Y-8242000D01*
X19239286Y-8242000D02*
X19229762Y-8194381D01*
X19229762Y-8194381D02*
X19229762Y-8156286D01*
X19229762Y-8156286D02*
X19239286Y-8108667D01*
X19239286Y-8108667D02*
X19248810Y-8080095D01*
X19248810Y-8080095D02*
X19258334Y-8061048D01*
X19258334Y-8061048D02*
X19277381Y-8032476D01*
X19277381Y-8032476D02*
X19286905Y-8022952D01*
X19448810Y-8118190D02*
X19448810Y-8251524D01*
X19401191Y-8042000D02*
X19353572Y-8184857D01*
X19353572Y-8184857D02*
X19477381Y-8184857D01*
X19591667Y-8051524D02*
X19610715Y-8051524D01*
X19610715Y-8051524D02*
X19629762Y-8061048D01*
X19629762Y-8061048D02*
X19639286Y-8070571D01*
X19639286Y-8070571D02*
X19648810Y-8089619D01*
X19648810Y-8089619D02*
X19658334Y-8127714D01*
X19658334Y-8127714D02*
X19658334Y-8175333D01*
X19658334Y-8175333D02*
X19648810Y-8213428D01*
X19648810Y-8213428D02*
X19639286Y-8232476D01*
X19639286Y-8232476D02*
X19629762Y-8242000D01*
X19629762Y-8242000D02*
X19610715Y-8251524D01*
X19610715Y-8251524D02*
X19591667Y-8251524D01*
X19591667Y-8251524D02*
X19572619Y-8242000D01*
X19572619Y-8242000D02*
X19563096Y-8232476D01*
X19563096Y-8232476D02*
X19553572Y-8213428D01*
X19553572Y-8213428D02*
X19544048Y-8175333D01*
X19544048Y-8175333D02*
X19544048Y-8127714D01*
X19544048Y-8127714D02*
X19553572Y-8089619D01*
X19553572Y-8089619D02*
X19563096Y-8070571D01*
X19563096Y-8070571D02*
X19572619Y-8061048D01*
X19572619Y-8061048D02*
X19591667Y-8051524D01*
X19896429Y-8251524D02*
X19896429Y-8051524D01*
X19982143Y-8251524D02*
X19982143Y-8146762D01*
X19982143Y-8146762D02*
X19972619Y-8127714D01*
X19972619Y-8127714D02*
X19953572Y-8118190D01*
X19953572Y-8118190D02*
X19925000Y-8118190D01*
X19925000Y-8118190D02*
X19905953Y-8127714D01*
X19905953Y-8127714D02*
X19896429Y-8137238D01*
X20105953Y-8251524D02*
X20086905Y-8242000D01*
X20086905Y-8242000D02*
X20077381Y-8232476D01*
X20077381Y-8232476D02*
X20067858Y-8213428D01*
X20067858Y-8213428D02*
X20067858Y-8156286D01*
X20067858Y-8156286D02*
X20077381Y-8137238D01*
X20077381Y-8137238D02*
X20086905Y-8127714D01*
X20086905Y-8127714D02*
X20105953Y-8118190D01*
X20105953Y-8118190D02*
X20134524Y-8118190D01*
X20134524Y-8118190D02*
X20153572Y-8127714D01*
X20153572Y-8127714D02*
X20163096Y-8137238D01*
X20163096Y-8137238D02*
X20172619Y-8156286D01*
X20172619Y-8156286D02*
X20172619Y-8213428D01*
X20172619Y-8213428D02*
X20163096Y-8232476D01*
X20163096Y-8232476D02*
X20153572Y-8242000D01*
X20153572Y-8242000D02*
X20134524Y-8251524D01*
X20134524Y-8251524D02*
X20105953Y-8251524D01*
X20286905Y-8251524D02*
X20267858Y-8242000D01*
X20267858Y-8242000D02*
X20258334Y-8222952D01*
X20258334Y-8222952D02*
X20258334Y-8051524D01*
X20439286Y-8242000D02*
X20420239Y-8251524D01*
X20420239Y-8251524D02*
X20382143Y-8251524D01*
X20382143Y-8251524D02*
X20363096Y-8242000D01*
X20363096Y-8242000D02*
X20353572Y-8222952D01*
X20353572Y-8222952D02*
X20353572Y-8146762D01*
X20353572Y-8146762D02*
X20363096Y-8127714D01*
X20363096Y-8127714D02*
X20382143Y-8118190D01*
X20382143Y-8118190D02*
X20420239Y-8118190D01*
X20420239Y-8118190D02*
X20439286Y-8127714D01*
X20439286Y-8127714D02*
X20448810Y-8146762D01*
X20448810Y-8146762D02*
X20448810Y-8165809D01*
X20448810Y-8165809D02*
X20353572Y-8184857D01*
X20525000Y-8242000D02*
X20544048Y-8251524D01*
X20544048Y-8251524D02*
X20582143Y-8251524D01*
X20582143Y-8251524D02*
X20601191Y-8242000D01*
X20601191Y-8242000D02*
X20610715Y-8222952D01*
X20610715Y-8222952D02*
X20610715Y-8213428D01*
X20610715Y-8213428D02*
X20601191Y-8194381D01*
X20601191Y-8194381D02*
X20582143Y-8184857D01*
X20582143Y-8184857D02*
X20553572Y-8184857D01*
X20553572Y-8184857D02*
X20534524Y-8175333D01*
X20534524Y-8175333D02*
X20525000Y-8156286D01*
X20525000Y-8156286D02*
X20525000Y-8146762D01*
X20525000Y-8146762D02*
X20534524Y-8127714D01*
X20534524Y-8127714D02*
X20553572Y-8118190D01*
X20553572Y-8118190D02*
X20582143Y-8118190D01*
X20582143Y-8118190D02*
X20601191Y-8127714D01*
X20677381Y-8327714D02*
X20686905Y-8318190D01*
X20686905Y-8318190D02*
X20705953Y-8289619D01*
X20705953Y-8289619D02*
X20715477Y-8270571D01*
X20715477Y-8270571D02*
X20725000Y-8242000D01*
X20725000Y-8242000D02*
X20734524Y-8194381D01*
X20734524Y-8194381D02*
X20734524Y-8156286D01*
X20734524Y-8156286D02*
X20725000Y-8108667D01*
X20725000Y-8108667D02*
X20715477Y-8080095D01*
X20715477Y-8080095D02*
X20705953Y-8061048D01*
X20705953Y-8061048D02*
X20686905Y-8032476D01*
X20686905Y-8032476D02*
X20677381Y-8022952D01*
M02*
