%TF.GenerationSoftware,KiCad,Pcbnew,7.0.2*%
%TF.CreationDate,2023-06-20T04:44:57+07:00*%
%TF.ProjectId,STM32L431RCT6_prototype_board,53544d33-324c-4343-9331-524354365f70,rev?*%
%TF.SameCoordinates,Original*%
%TF.FileFunction,Copper,L2,Inr*%
%TF.FilePolarity,Positive*%
%FSLAX46Y46*%
G04 Gerber Fmt 4.6, Leading zero omitted, Abs format (unit mm)*
G04 Created by KiCad (PCBNEW 7.0.2) date 2023-06-20 04:44:57*
%MOMM*%
%LPD*%
G01*
G04 APERTURE LIST*
%TA.AperFunction,ComponentPad*%
%ADD10C,1.524000*%
%TD*%
%TA.AperFunction,ViaPad*%
%ADD11C,0.600000*%
%TD*%
%TA.AperFunction,Conductor*%
%ADD12C,0.250000*%
%TD*%
G04 APERTURE END LIST*
D10*
%TO.N,unconnected-(J2-Pin_1-Pad1)*%
%TO.C,J2*%
X159000000Y-70000000D03*
%TO.N,unconnected-(J2-Pin_2-Pad2)*%
X161540000Y-70000000D03*
%TO.N,PA0*%
X164080000Y-70000000D03*
%TO.N,PA1*%
X166620000Y-70000000D03*
%TO.N,PA2*%
X169160000Y-70000000D03*
%TO.N,PA3*%
X171700000Y-70000000D03*
%TO.N,PA4*%
X174240000Y-70000000D03*
%TO.N,PA5*%
X176780000Y-70000000D03*
%TO.N,PA6*%
X179320000Y-70000000D03*
%TO.N,PA7*%
X181860000Y-70000000D03*
%TO.N,PB0*%
X184400000Y-70000000D03*
%TO.N,PB1*%
X186940000Y-70000000D03*
%TO.N,PB2*%
X189480000Y-70000000D03*
%TO.N,PB10*%
X192020000Y-70000000D03*
%TO.N,PB11*%
X194560000Y-70000000D03*
%TO.N,PB12*%
X197100000Y-70000000D03*
%TO.N,PB13*%
X199640000Y-70000000D03*
%TO.N,PB14*%
X202180000Y-70000000D03*
%TO.N,PB15*%
X204720000Y-70000000D03*
%TO.N,GND*%
X207260000Y-70000000D03*
%TO.N,unconnected-(J2-Pin_21-Pad21)*%
X207260000Y-54760000D03*
%TO.N,BOOT0*%
X204720000Y-54760000D03*
%TO.N,PA8*%
X202180000Y-54760000D03*
%TO.N,PA9*%
X199640000Y-54760000D03*
%TO.N,PA10*%
X197100000Y-54760000D03*
%TO.N,PA11*%
X194560000Y-54760000D03*
%TO.N,PA12*%
X192020000Y-54760000D03*
%TO.N,PA15*%
X189480000Y-54760000D03*
%TO.N,PB4*%
X186940000Y-54760000D03*
%TO.N,PB5*%
X184400000Y-54760000D03*
%TO.N,PB6*%
X181860000Y-54760000D03*
%TO.N,PB7*%
X179320000Y-54760000D03*
%TO.N,PB8*%
X176780000Y-54760000D03*
%TO.N,PB9*%
X174240000Y-54760000D03*
%TO.N,PC14*%
X171700000Y-54760000D03*
%TO.N,PC15*%
X169160000Y-54760000D03*
%TO.N,+3V3*%
X166620000Y-54760000D03*
%TO.N,NRST*%
X164080000Y-54760000D03*
%TO.N,unconnected-(J2-Pin_39-Pad39)*%
X161540000Y-54760000D03*
%TO.N,+5V*%
X159000000Y-54760000D03*
%TD*%
D11*
%TO.N,GND*%
X193375000Y-58575000D03*
X187700000Y-65050000D03*
X193800000Y-67250000D03*
X187450000Y-63550000D03*
X188750000Y-62650000D03*
X172500000Y-61700000D03*
X169450000Y-58900000D03*
X175050000Y-56850000D03*
X163400000Y-64350000D03*
X185300000Y-63850000D03*
X186950000Y-60700000D03*
X183900000Y-65450000D03*
X205000000Y-62000000D03*
X184300500Y-59610893D03*
%TO.N,+3V3*%
X182950000Y-57100000D03*
X205050000Y-64600000D03*
X172600000Y-65400000D03*
X172500000Y-58450000D03*
X191800000Y-58550000D03*
X172600000Y-63500000D03*
X168100000Y-58600000D03*
X172600000Y-64450000D03*
X191000000Y-67250000D03*
%TO.N,NRST*%
X184055849Y-62404523D03*
X166650000Y-67000000D03*
X163700000Y-59100000D03*
X163700000Y-67050000D03*
X194050000Y-60950000D03*
%TO.N,/+5.0V*%
X166500000Y-61800000D03*
X168600000Y-65300000D03*
X160250000Y-62250000D03*
X161400000Y-62250000D03*
X162550000Y-62250000D03*
%TO.N,Net-(U2-FB)*%
X166449500Y-65290215D03*
X170875000Y-60100000D03*
%TO.N,BOOT0*%
X191800000Y-56850000D03*
X186100000Y-59800000D03*
%TO.N,SYS_JTDO-SWO*%
X194050000Y-60150000D03*
X187864092Y-59814092D03*
%TO.N,SYS_JTCK-SWCLK*%
X194850000Y-64150000D03*
X189350000Y-64200000D03*
%TO.N,HEART_BEAT*%
X181200000Y-59900000D03*
X178287500Y-58100000D03*
%TO.N,PC15*%
X180050000Y-61288000D03*
%TO.N,PC14*%
X180300000Y-60500000D03*
%TO.N,PB8*%
X185350000Y-61650000D03*
%TO.N,PB9*%
X183950000Y-61250000D03*
%TO.N,PA0*%
X181100000Y-64500000D03*
%TO.N,PA1*%
X183750000Y-64000000D03*
%TO.N,PA2*%
X181900000Y-66300000D03*
%TO.N,PA6*%
X185150000Y-65500000D03*
%TO.N,PA7*%
X186050000Y-65550000D03*
%TO.N,PA8*%
X193703497Y-63474632D03*
%TO.N,PA9*%
X193150000Y-62875132D03*
%TO.N,PA10*%
X192337772Y-62350481D03*
%TO.N,PA11*%
X192530276Y-61574500D03*
%TD*%
D12*
%TO.N,NRST*%
X164550000Y-59400000D02*
X164550000Y-66600000D01*
X164100000Y-67050000D02*
X163700000Y-67050000D01*
X164250000Y-59100000D02*
X164550000Y-59400000D01*
X163700000Y-59100000D02*
X164250000Y-59100000D01*
X164550000Y-66600000D02*
X164100000Y-67050000D01*
%TD*%
%TA.AperFunction,Conductor*%
%TO.N,GND*%
G36*
X207903139Y-52250835D02*
G01*
X207907548Y-52251160D01*
X207945490Y-52254479D01*
X208043081Y-52264092D01*
X208049071Y-52264831D01*
X208088605Y-52270695D01*
X208100525Y-52273067D01*
X208109181Y-52275235D01*
X208109558Y-52275330D01*
X208156514Y-52287911D01*
X208160170Y-52288957D01*
X208232640Y-52310940D01*
X208238404Y-52312844D01*
X208245204Y-52315276D01*
X208266848Y-52323020D01*
X208277440Y-52327373D01*
X208330148Y-52351951D01*
X208333856Y-52353681D01*
X208339901Y-52356704D01*
X208409466Y-52393887D01*
X208414729Y-52396868D01*
X208430514Y-52406329D01*
X208437878Y-52411106D01*
X208461017Y-52427308D01*
X208492902Y-52449634D01*
X208500426Y-52455343D01*
X208540181Y-52487968D01*
X208566688Y-52509723D01*
X208571290Y-52513693D01*
X208574682Y-52516767D01*
X208579095Y-52520968D01*
X208629021Y-52570894D01*
X208633223Y-52575307D01*
X208636316Y-52578720D01*
X208640286Y-52583323D01*
X208694647Y-52649562D01*
X208700368Y-52657103D01*
X208738890Y-52712117D01*
X208743670Y-52719486D01*
X208753128Y-52735266D01*
X208756107Y-52740524D01*
X208788014Y-52800217D01*
X208793295Y-52810097D01*
X208796317Y-52816143D01*
X208822616Y-52872539D01*
X208826984Y-52883166D01*
X208826987Y-52883174D01*
X208826988Y-52883175D01*
X208837146Y-52911568D01*
X208839054Y-52917342D01*
X208861018Y-52989747D01*
X208862132Y-52993651D01*
X208874669Y-53040442D01*
X208874896Y-53041346D01*
X208876983Y-53049680D01*
X208879293Y-53061326D01*
X208885165Y-53100909D01*
X208885910Y-53106950D01*
X208895525Y-53204568D01*
X208898836Y-53242419D01*
X208899185Y-53247146D01*
X208899500Y-53255898D01*
X208899500Y-71494014D01*
X208899163Y-71503149D01*
X208898834Y-71507603D01*
X208895522Y-71545468D01*
X208885910Y-71643053D01*
X208885166Y-71649086D01*
X208879305Y-71688593D01*
X208876932Y-71700521D01*
X208874672Y-71709545D01*
X208862125Y-71756376D01*
X208861022Y-71760239D01*
X208839059Y-71832643D01*
X208837149Y-71838424D01*
X208826984Y-71866832D01*
X208822615Y-71877462D01*
X208796321Y-71933848D01*
X208793298Y-71939894D01*
X208756118Y-72009454D01*
X208753117Y-72014752D01*
X208743673Y-72030508D01*
X208738890Y-72037882D01*
X208700370Y-72092894D01*
X208694649Y-72100434D01*
X208640273Y-72166692D01*
X208636293Y-72171305D01*
X208633232Y-72174682D01*
X208629039Y-72179086D01*
X208579086Y-72229039D01*
X208574682Y-72233232D01*
X208571305Y-72236293D01*
X208566692Y-72240273D01*
X208500434Y-72294649D01*
X208492894Y-72300370D01*
X208437882Y-72338890D01*
X208430508Y-72343673D01*
X208414752Y-72353117D01*
X208409454Y-72356118D01*
X208339894Y-72393298D01*
X208333848Y-72396321D01*
X208277462Y-72422615D01*
X208266832Y-72426984D01*
X208238424Y-72437149D01*
X208232641Y-72439059D01*
X208160257Y-72461015D01*
X208156358Y-72462129D01*
X208109559Y-72474669D01*
X208108924Y-72474828D01*
X208100319Y-72476983D01*
X208088668Y-72479294D01*
X208049088Y-72485165D01*
X208043049Y-72485910D01*
X207945431Y-72495525D01*
X207907580Y-72498836D01*
X207907204Y-72498864D01*
X207902854Y-72499185D01*
X207894101Y-72499500D01*
X158305984Y-72499500D01*
X158296849Y-72499163D01*
X158292395Y-72498834D01*
X158254580Y-72495526D01*
X158193210Y-72489482D01*
X158156946Y-72485910D01*
X158150913Y-72485166D01*
X158111400Y-72479304D01*
X158099472Y-72476931D01*
X158090452Y-72474672D01*
X158062140Y-72467086D01*
X158043613Y-72462122D01*
X158039769Y-72461024D01*
X157967343Y-72439054D01*
X157961568Y-72437146D01*
X157949147Y-72432702D01*
X157933166Y-72426984D01*
X157922539Y-72422616D01*
X157866143Y-72396317D01*
X157860097Y-72393295D01*
X157850217Y-72388014D01*
X157790524Y-72356107D01*
X157785266Y-72353128D01*
X157769486Y-72343670D01*
X157762117Y-72338890D01*
X157707103Y-72300368D01*
X157699562Y-72294647D01*
X157633323Y-72240286D01*
X157628720Y-72236316D01*
X157625307Y-72233223D01*
X157620894Y-72229021D01*
X157570968Y-72179095D01*
X157566767Y-72174682D01*
X157563693Y-72171290D01*
X157559723Y-72166688D01*
X157537968Y-72140181D01*
X157505343Y-72100426D01*
X157499628Y-72092894D01*
X157478216Y-72062315D01*
X157461106Y-72037878D01*
X157456325Y-72030507D01*
X157446868Y-72014729D01*
X157443881Y-72009455D01*
X157443880Y-72009454D01*
X157406700Y-71939894D01*
X157403681Y-71933856D01*
X157399292Y-71924445D01*
X157377373Y-71877440D01*
X157373020Y-71866848D01*
X157362844Y-71838404D01*
X157360938Y-71832634D01*
X157338962Y-71760187D01*
X157337897Y-71756459D01*
X157325322Y-71709530D01*
X157323012Y-71700304D01*
X157320706Y-71688674D01*
X157314834Y-71649091D01*
X157314089Y-71643056D01*
X157304475Y-71545438D01*
X157301163Y-71507588D01*
X157300811Y-71502813D01*
X157300500Y-71494109D01*
X157300500Y-70000000D01*
X157732676Y-70000000D01*
X157751929Y-70220065D01*
X157809106Y-70433451D01*
X157902347Y-70633406D01*
X157902466Y-70633662D01*
X158029174Y-70814620D01*
X158185380Y-70970826D01*
X158366338Y-71097534D01*
X158566550Y-71190894D01*
X158779932Y-71248070D01*
X159000000Y-71267323D01*
X159220068Y-71248070D01*
X159433450Y-71190894D01*
X159633662Y-71097534D01*
X159814620Y-70970826D01*
X159970826Y-70814620D01*
X160097534Y-70633662D01*
X160155185Y-70510027D01*
X160157618Y-70504811D01*
X160203790Y-70452372D01*
X160270984Y-70433220D01*
X160337865Y-70453436D01*
X160382382Y-70504811D01*
X160442347Y-70633406D01*
X160442466Y-70633662D01*
X160569174Y-70814620D01*
X160725380Y-70970826D01*
X160906338Y-71097534D01*
X161106550Y-71190894D01*
X161319932Y-71248070D01*
X161466644Y-71260905D01*
X161539999Y-71267323D01*
X161539999Y-71267322D01*
X161540000Y-71267323D01*
X161760068Y-71248070D01*
X161973450Y-71190894D01*
X162173662Y-71097534D01*
X162354620Y-70970826D01*
X162510826Y-70814620D01*
X162637534Y-70633662D01*
X162695185Y-70510027D01*
X162697618Y-70504811D01*
X162743790Y-70452372D01*
X162810984Y-70433220D01*
X162877865Y-70453436D01*
X162922382Y-70504811D01*
X162982347Y-70633406D01*
X162982466Y-70633662D01*
X163109174Y-70814620D01*
X163265380Y-70970826D01*
X163446338Y-71097534D01*
X163646550Y-71190894D01*
X163859932Y-71248070D01*
X164080000Y-71267323D01*
X164300068Y-71248070D01*
X164513450Y-71190894D01*
X164713662Y-71097534D01*
X164894620Y-70970826D01*
X165050826Y-70814620D01*
X165177534Y-70633662D01*
X165235185Y-70510027D01*
X165237618Y-70504811D01*
X165283790Y-70452372D01*
X165350984Y-70433220D01*
X165417865Y-70453436D01*
X165462382Y-70504811D01*
X165522347Y-70633406D01*
X165522466Y-70633662D01*
X165649174Y-70814620D01*
X165805380Y-70970826D01*
X165986338Y-71097534D01*
X166186550Y-71190894D01*
X166399932Y-71248070D01*
X166620000Y-71267323D01*
X166840068Y-71248070D01*
X167053450Y-71190894D01*
X167253662Y-71097534D01*
X167434620Y-70970826D01*
X167590826Y-70814620D01*
X167717534Y-70633662D01*
X167775185Y-70510027D01*
X167777618Y-70504811D01*
X167823790Y-70452372D01*
X167890984Y-70433220D01*
X167957865Y-70453436D01*
X168002382Y-70504811D01*
X168062347Y-70633406D01*
X168062466Y-70633662D01*
X168189174Y-70814620D01*
X168345380Y-70970826D01*
X168526338Y-71097534D01*
X168726550Y-71190894D01*
X168939932Y-71248070D01*
X169160000Y-71267323D01*
X169380068Y-71248070D01*
X169593450Y-71190894D01*
X169793662Y-71097534D01*
X169974620Y-70970826D01*
X170130826Y-70814620D01*
X170257534Y-70633662D01*
X170315185Y-70510027D01*
X170317618Y-70504811D01*
X170363790Y-70452372D01*
X170430984Y-70433220D01*
X170497865Y-70453436D01*
X170542382Y-70504811D01*
X170602347Y-70633406D01*
X170602466Y-70633662D01*
X170729174Y-70814620D01*
X170885380Y-70970826D01*
X171066338Y-71097534D01*
X171266550Y-71190894D01*
X171479932Y-71248070D01*
X171626644Y-71260905D01*
X171699999Y-71267323D01*
X171699999Y-71267322D01*
X171700000Y-71267323D01*
X171920068Y-71248070D01*
X172133450Y-71190894D01*
X172333662Y-71097534D01*
X172514620Y-70970826D01*
X172670826Y-70814620D01*
X172797534Y-70633662D01*
X172855185Y-70510027D01*
X172857618Y-70504811D01*
X172903790Y-70452372D01*
X172970984Y-70433220D01*
X173037865Y-70453436D01*
X173082382Y-70504811D01*
X173142347Y-70633406D01*
X173142466Y-70633662D01*
X173269174Y-70814620D01*
X173425380Y-70970826D01*
X173606338Y-71097534D01*
X173806550Y-71190894D01*
X174019932Y-71248070D01*
X174240000Y-71267323D01*
X174460068Y-71248070D01*
X174673450Y-71190894D01*
X174873662Y-71097534D01*
X175054620Y-70970826D01*
X175210826Y-70814620D01*
X175337534Y-70633662D01*
X175395185Y-70510027D01*
X175397618Y-70504811D01*
X175443790Y-70452372D01*
X175510984Y-70433220D01*
X175577865Y-70453436D01*
X175622382Y-70504811D01*
X175682347Y-70633406D01*
X175682466Y-70633662D01*
X175809174Y-70814620D01*
X175965380Y-70970826D01*
X176146338Y-71097534D01*
X176346550Y-71190894D01*
X176559932Y-71248070D01*
X176780000Y-71267323D01*
X177000068Y-71248070D01*
X177213450Y-71190894D01*
X177413662Y-71097534D01*
X177594620Y-70970826D01*
X177750826Y-70814620D01*
X177877534Y-70633662D01*
X177935185Y-70510027D01*
X177937618Y-70504811D01*
X177983790Y-70452372D01*
X178050984Y-70433220D01*
X178117865Y-70453436D01*
X178162382Y-70504811D01*
X178222347Y-70633406D01*
X178222466Y-70633662D01*
X178349174Y-70814620D01*
X178505380Y-70970826D01*
X178686338Y-71097534D01*
X178886550Y-71190894D01*
X179099932Y-71248070D01*
X179320000Y-71267323D01*
X179540068Y-71248070D01*
X179753450Y-71190894D01*
X179953662Y-71097534D01*
X180134620Y-70970826D01*
X180290826Y-70814620D01*
X180417534Y-70633662D01*
X180477618Y-70504810D01*
X180523789Y-70452372D01*
X180590982Y-70433220D01*
X180657863Y-70453435D01*
X180702381Y-70504811D01*
X180762347Y-70633406D01*
X180762466Y-70633662D01*
X180889174Y-70814620D01*
X181045380Y-70970826D01*
X181226338Y-71097534D01*
X181426550Y-71190894D01*
X181639932Y-71248070D01*
X181786643Y-71260905D01*
X181859999Y-71267323D01*
X181859999Y-71267322D01*
X181860000Y-71267323D01*
X182080068Y-71248070D01*
X182293450Y-71190894D01*
X182493662Y-71097534D01*
X182674620Y-70970826D01*
X182830826Y-70814620D01*
X182957534Y-70633662D01*
X183015185Y-70510027D01*
X183017618Y-70504811D01*
X183063790Y-70452372D01*
X183130984Y-70433220D01*
X183197865Y-70453436D01*
X183242382Y-70504811D01*
X183302347Y-70633406D01*
X183302466Y-70633662D01*
X183429174Y-70814620D01*
X183585380Y-70970826D01*
X183766338Y-71097534D01*
X183966550Y-71190894D01*
X184179932Y-71248070D01*
X184400000Y-71267323D01*
X184620068Y-71248070D01*
X184833450Y-71190894D01*
X185033662Y-71097534D01*
X185214620Y-70970826D01*
X185370826Y-70814620D01*
X185497534Y-70633662D01*
X185555185Y-70510027D01*
X185557618Y-70504811D01*
X185603790Y-70452372D01*
X185670984Y-70433220D01*
X185737865Y-70453436D01*
X185782382Y-70504811D01*
X185842347Y-70633406D01*
X185842466Y-70633662D01*
X185969174Y-70814620D01*
X186125380Y-70970826D01*
X186306338Y-71097534D01*
X186506550Y-71190894D01*
X186719932Y-71248070D01*
X186940000Y-71267323D01*
X187160068Y-71248070D01*
X187373450Y-71190894D01*
X187573662Y-71097534D01*
X187754620Y-70970826D01*
X187910826Y-70814620D01*
X188037534Y-70633662D01*
X188095185Y-70510027D01*
X188097618Y-70504811D01*
X188143790Y-70452372D01*
X188210984Y-70433220D01*
X188277865Y-70453436D01*
X188322382Y-70504811D01*
X188382347Y-70633406D01*
X188382466Y-70633662D01*
X188509174Y-70814620D01*
X188665380Y-70970826D01*
X188846338Y-71097534D01*
X189046550Y-71190894D01*
X189259932Y-71248070D01*
X189480000Y-71267323D01*
X189700068Y-71248070D01*
X189913450Y-71190894D01*
X190113662Y-71097534D01*
X190294620Y-70970826D01*
X190450826Y-70814620D01*
X190577534Y-70633662D01*
X190637618Y-70504810D01*
X190683789Y-70452372D01*
X190750982Y-70433220D01*
X190817863Y-70453435D01*
X190862381Y-70504811D01*
X190922347Y-70633406D01*
X190922466Y-70633662D01*
X191049174Y-70814620D01*
X191205380Y-70970826D01*
X191386338Y-71097534D01*
X191586550Y-71190894D01*
X191799932Y-71248070D01*
X191946643Y-71260905D01*
X192019999Y-71267323D01*
X192019999Y-71267322D01*
X192020000Y-71267323D01*
X192240068Y-71248070D01*
X192453450Y-71190894D01*
X192653662Y-71097534D01*
X192834620Y-70970826D01*
X192990826Y-70814620D01*
X193117534Y-70633662D01*
X193175185Y-70510027D01*
X193177618Y-70504811D01*
X193223790Y-70452372D01*
X193290984Y-70433220D01*
X193357865Y-70453436D01*
X193402382Y-70504811D01*
X193462347Y-70633406D01*
X193462466Y-70633662D01*
X193589174Y-70814620D01*
X193745380Y-70970826D01*
X193926338Y-71097534D01*
X194126550Y-71190894D01*
X194339932Y-71248070D01*
X194560000Y-71267323D01*
X194780068Y-71248070D01*
X194993450Y-71190894D01*
X195193662Y-71097534D01*
X195374620Y-70970826D01*
X195530826Y-70814620D01*
X195657534Y-70633662D01*
X195715185Y-70510027D01*
X195717618Y-70504811D01*
X195763790Y-70452372D01*
X195830984Y-70433220D01*
X195897865Y-70453436D01*
X195942382Y-70504811D01*
X196002347Y-70633406D01*
X196002466Y-70633662D01*
X196129174Y-70814620D01*
X196285380Y-70970826D01*
X196466338Y-71097534D01*
X196666550Y-71190894D01*
X196879932Y-71248070D01*
X197100000Y-71267323D01*
X197320068Y-71248070D01*
X197533450Y-71190894D01*
X197733662Y-71097534D01*
X197914620Y-70970826D01*
X198070826Y-70814620D01*
X198197534Y-70633662D01*
X198255185Y-70510027D01*
X198257618Y-70504811D01*
X198303790Y-70452372D01*
X198370984Y-70433220D01*
X198437865Y-70453436D01*
X198482382Y-70504811D01*
X198542347Y-70633406D01*
X198542466Y-70633662D01*
X198669174Y-70814620D01*
X198825380Y-70970826D01*
X199006338Y-71097534D01*
X199206550Y-71190894D01*
X199419932Y-71248070D01*
X199640000Y-71267323D01*
X199860068Y-71248070D01*
X200073450Y-71190894D01*
X200273662Y-71097534D01*
X200454620Y-70970826D01*
X200610826Y-70814620D01*
X200737534Y-70633662D01*
X200797618Y-70504810D01*
X200843789Y-70452372D01*
X200910982Y-70433220D01*
X200977863Y-70453435D01*
X201022381Y-70504811D01*
X201082347Y-70633406D01*
X201082466Y-70633662D01*
X201209174Y-70814620D01*
X201365380Y-70970826D01*
X201546338Y-71097534D01*
X201746550Y-71190894D01*
X201959932Y-71248070D01*
X202106644Y-71260905D01*
X202179999Y-71267323D01*
X202179999Y-71267322D01*
X202180000Y-71267323D01*
X202400068Y-71248070D01*
X202613450Y-71190894D01*
X202813662Y-71097534D01*
X202994620Y-70970826D01*
X203150826Y-70814620D01*
X203277534Y-70633662D01*
X203335185Y-70510027D01*
X203337618Y-70504811D01*
X203383790Y-70452372D01*
X203450984Y-70433220D01*
X203517865Y-70453436D01*
X203562382Y-70504811D01*
X203622347Y-70633406D01*
X203622466Y-70633662D01*
X203749174Y-70814620D01*
X203905380Y-70970826D01*
X204086338Y-71097534D01*
X204286550Y-71190894D01*
X204499932Y-71248070D01*
X204720000Y-71267323D01*
X204940068Y-71248070D01*
X205153450Y-71190894D01*
X205353662Y-71097534D01*
X205534620Y-70970826D01*
X205690826Y-70814620D01*
X205817534Y-70633662D01*
X205877894Y-70504218D01*
X205924066Y-70451779D01*
X205991259Y-70432627D01*
X206058141Y-70452842D01*
X206102658Y-70504219D01*
X206162898Y-70633406D01*
X206208258Y-70698187D01*
X206875096Y-70031349D01*
X206875051Y-70031898D01*
X206906266Y-70155162D01*
X206975813Y-70261612D01*
X207076157Y-70339713D01*
X207196422Y-70381000D01*
X207232553Y-70381000D01*
X206561812Y-71051740D01*
X206626593Y-71097101D01*
X206826718Y-71190420D01*
X207040021Y-71247575D01*
X207260000Y-71266821D01*
X207479978Y-71247575D01*
X207693281Y-71190420D01*
X207893408Y-71097100D01*
X207958187Y-71051740D01*
X207287448Y-70381000D01*
X207291569Y-70381000D01*
X207385421Y-70365339D01*
X207497251Y-70304820D01*
X207583371Y-70211269D01*
X207634448Y-70094823D01*
X207640105Y-70026552D01*
X208311740Y-70698186D01*
X208357100Y-70633408D01*
X208450420Y-70433281D01*
X208507575Y-70219978D01*
X208526821Y-70000000D01*
X208507575Y-69780021D01*
X208450421Y-69566720D01*
X208357098Y-69366589D01*
X208311740Y-69301811D01*
X207644903Y-69968648D01*
X207644949Y-69968102D01*
X207613734Y-69844838D01*
X207544187Y-69738388D01*
X207443843Y-69660287D01*
X207323578Y-69619000D01*
X207287447Y-69619000D01*
X207958187Y-68948258D01*
X207893406Y-68902898D01*
X207693281Y-68809579D01*
X207479978Y-68752424D01*
X207260000Y-68733178D01*
X207040021Y-68752424D01*
X206826719Y-68809578D01*
X206626589Y-68902900D01*
X206561812Y-68948258D01*
X206561811Y-68948258D01*
X207232554Y-69619000D01*
X207228431Y-69619000D01*
X207134579Y-69634661D01*
X207022749Y-69695180D01*
X206936629Y-69788731D01*
X206885552Y-69905177D01*
X206879894Y-69973447D01*
X206208258Y-69301811D01*
X206208258Y-69301812D01*
X206162900Y-69366590D01*
X206102657Y-69495781D01*
X206056484Y-69548220D01*
X205989291Y-69567372D01*
X205922409Y-69547156D01*
X205877893Y-69495780D01*
X205877617Y-69495189D01*
X205817534Y-69366339D01*
X205690826Y-69185380D01*
X205534620Y-69029174D01*
X205353662Y-68902466D01*
X205353661Y-68902466D01*
X205153451Y-68809106D01*
X204940065Y-68751929D01*
X204720000Y-68732676D01*
X204499934Y-68751929D01*
X204286548Y-68809106D01*
X204086338Y-68902466D01*
X203905379Y-69029174D01*
X203749174Y-69185379D01*
X203622467Y-69366336D01*
X203562381Y-69495190D01*
X203516208Y-69547629D01*
X203449014Y-69566780D01*
X203382133Y-69546564D01*
X203337617Y-69495188D01*
X203277534Y-69366339D01*
X203150825Y-69185379D01*
X202994620Y-69029174D01*
X202813662Y-68902466D01*
X202613451Y-68809106D01*
X202400065Y-68751929D01*
X202180000Y-68732676D01*
X201959934Y-68751929D01*
X201746548Y-68809106D01*
X201546338Y-68902466D01*
X201365379Y-69029174D01*
X201209174Y-69185379D01*
X201082466Y-69366338D01*
X201022382Y-69495189D01*
X200976209Y-69547628D01*
X200909016Y-69566780D01*
X200842135Y-69546564D01*
X200797618Y-69495189D01*
X200737651Y-69366590D01*
X200737534Y-69366339D01*
X200610826Y-69185380D01*
X200454620Y-69029174D01*
X200273662Y-68902466D01*
X200273661Y-68902466D01*
X200073451Y-68809106D01*
X199860065Y-68751929D01*
X199640000Y-68732676D01*
X199419934Y-68751929D01*
X199206548Y-68809106D01*
X199006338Y-68902466D01*
X198825379Y-69029174D01*
X198669174Y-69185379D01*
X198542466Y-69366338D01*
X198482382Y-69495189D01*
X198436209Y-69547628D01*
X198369016Y-69566780D01*
X198302135Y-69546564D01*
X198257618Y-69495189D01*
X198197651Y-69366590D01*
X198197534Y-69366339D01*
X198070826Y-69185380D01*
X197914620Y-69029174D01*
X197733662Y-68902466D01*
X197733661Y-68902466D01*
X197533451Y-68809106D01*
X197320065Y-68751929D01*
X197099999Y-68732676D01*
X196879934Y-68751929D01*
X196666548Y-68809106D01*
X196466338Y-68902466D01*
X196285379Y-69029174D01*
X196129174Y-69185379D01*
X196002466Y-69366338D01*
X195942382Y-69495189D01*
X195896209Y-69547628D01*
X195829016Y-69566780D01*
X195762135Y-69546564D01*
X195717618Y-69495189D01*
X195657651Y-69366590D01*
X195657534Y-69366339D01*
X195530826Y-69185380D01*
X195374620Y-69029174D01*
X195193662Y-68902466D01*
X195193661Y-68902466D01*
X194993451Y-68809106D01*
X194780065Y-68751929D01*
X194560000Y-68732676D01*
X194339934Y-68751929D01*
X194126548Y-68809106D01*
X193926338Y-68902466D01*
X193745379Y-69029174D01*
X193589174Y-69185379D01*
X193462466Y-69366338D01*
X193402382Y-69495189D01*
X193356209Y-69547628D01*
X193289016Y-69566780D01*
X193222135Y-69546564D01*
X193177618Y-69495189D01*
X193117651Y-69366590D01*
X193117534Y-69366339D01*
X192990826Y-69185380D01*
X192834620Y-69029174D01*
X192653662Y-68902466D01*
X192653661Y-68902466D01*
X192453451Y-68809106D01*
X192240065Y-68751929D01*
X192020000Y-68732676D01*
X191799934Y-68751929D01*
X191586548Y-68809106D01*
X191386338Y-68902466D01*
X191205379Y-69029174D01*
X191049174Y-69185379D01*
X190922466Y-69366338D01*
X190862382Y-69495189D01*
X190816209Y-69547628D01*
X190749016Y-69566780D01*
X190682135Y-69546564D01*
X190637618Y-69495189D01*
X190577651Y-69366590D01*
X190577534Y-69366339D01*
X190450826Y-69185380D01*
X190294620Y-69029174D01*
X190113662Y-68902466D01*
X190113661Y-68902466D01*
X189913451Y-68809106D01*
X189700065Y-68751929D01*
X189480000Y-68732676D01*
X189259934Y-68751929D01*
X189046548Y-68809106D01*
X188846338Y-68902466D01*
X188665379Y-69029174D01*
X188509174Y-69185379D01*
X188382466Y-69366338D01*
X188322382Y-69495189D01*
X188276209Y-69547628D01*
X188209016Y-69566780D01*
X188142135Y-69546564D01*
X188097618Y-69495189D01*
X188037651Y-69366590D01*
X188037534Y-69366339D01*
X187910826Y-69185380D01*
X187754620Y-69029174D01*
X187573662Y-68902466D01*
X187573661Y-68902466D01*
X187373451Y-68809106D01*
X187160065Y-68751929D01*
X186939999Y-68732676D01*
X186719934Y-68751929D01*
X186506548Y-68809106D01*
X186306338Y-68902466D01*
X186125379Y-69029174D01*
X185969174Y-69185379D01*
X185842466Y-69366338D01*
X185782382Y-69495189D01*
X185736209Y-69547628D01*
X185669016Y-69566780D01*
X185602135Y-69546564D01*
X185557618Y-69495189D01*
X185497651Y-69366590D01*
X185497534Y-69366339D01*
X185370826Y-69185380D01*
X185214620Y-69029174D01*
X185033662Y-68902466D01*
X185033661Y-68902466D01*
X184833451Y-68809106D01*
X184620065Y-68751929D01*
X184400000Y-68732676D01*
X184179934Y-68751929D01*
X183966548Y-68809106D01*
X183766338Y-68902466D01*
X183585379Y-69029174D01*
X183429174Y-69185379D01*
X183302467Y-69366336D01*
X183242381Y-69495190D01*
X183196208Y-69547629D01*
X183129014Y-69566780D01*
X183062133Y-69546564D01*
X183017617Y-69495188D01*
X182957534Y-69366339D01*
X182830825Y-69185379D01*
X182674620Y-69029174D01*
X182493662Y-68902466D01*
X182293451Y-68809106D01*
X182080065Y-68751929D01*
X181860000Y-68732676D01*
X181639934Y-68751929D01*
X181426548Y-68809106D01*
X181226338Y-68902466D01*
X181045379Y-69029174D01*
X180889174Y-69185379D01*
X180762466Y-69366338D01*
X180702382Y-69495189D01*
X180656209Y-69547628D01*
X180589016Y-69566780D01*
X180522135Y-69546564D01*
X180477618Y-69495189D01*
X180417651Y-69366590D01*
X180417534Y-69366339D01*
X180290826Y-69185380D01*
X180134620Y-69029174D01*
X179953662Y-68902466D01*
X179953661Y-68902466D01*
X179753451Y-68809106D01*
X179540065Y-68751929D01*
X179320000Y-68732676D01*
X179099934Y-68751929D01*
X178886548Y-68809106D01*
X178686338Y-68902466D01*
X178505379Y-69029174D01*
X178349174Y-69185379D01*
X178222466Y-69366338D01*
X178162382Y-69495189D01*
X178116209Y-69547628D01*
X178049016Y-69566780D01*
X177982135Y-69546564D01*
X177937618Y-69495189D01*
X177877651Y-69366590D01*
X177877534Y-69366339D01*
X177750826Y-69185380D01*
X177594620Y-69029174D01*
X177413662Y-68902466D01*
X177413661Y-68902466D01*
X177213451Y-68809106D01*
X177000065Y-68751929D01*
X176779999Y-68732676D01*
X176559934Y-68751929D01*
X176346548Y-68809106D01*
X176146338Y-68902466D01*
X175965379Y-69029174D01*
X175809174Y-69185379D01*
X175682466Y-69366338D01*
X175622382Y-69495189D01*
X175576209Y-69547628D01*
X175509016Y-69566780D01*
X175442135Y-69546564D01*
X175397618Y-69495189D01*
X175337651Y-69366590D01*
X175337534Y-69366339D01*
X175210826Y-69185380D01*
X175054620Y-69029174D01*
X174873662Y-68902466D01*
X174873661Y-68902466D01*
X174673451Y-68809106D01*
X174460065Y-68751929D01*
X174240000Y-68732676D01*
X174019934Y-68751929D01*
X173806548Y-68809106D01*
X173606338Y-68902466D01*
X173425379Y-69029174D01*
X173269174Y-69185379D01*
X173142466Y-69366338D01*
X173082382Y-69495189D01*
X173036209Y-69547628D01*
X172969016Y-69566780D01*
X172902135Y-69546564D01*
X172857618Y-69495189D01*
X172797651Y-69366590D01*
X172797534Y-69366339D01*
X172670826Y-69185380D01*
X172514620Y-69029174D01*
X172333662Y-68902466D01*
X172333661Y-68902466D01*
X172133451Y-68809106D01*
X171920065Y-68751929D01*
X171700000Y-68732676D01*
X171479934Y-68751929D01*
X171266548Y-68809106D01*
X171066338Y-68902466D01*
X170885379Y-69029174D01*
X170729174Y-69185379D01*
X170602466Y-69366338D01*
X170542382Y-69495189D01*
X170496209Y-69547628D01*
X170429016Y-69566780D01*
X170362135Y-69546564D01*
X170317618Y-69495189D01*
X170257651Y-69366590D01*
X170257534Y-69366339D01*
X170130826Y-69185380D01*
X169974620Y-69029174D01*
X169793662Y-68902466D01*
X169793661Y-68902466D01*
X169593451Y-68809106D01*
X169380065Y-68751929D01*
X169160000Y-68732676D01*
X168939934Y-68751929D01*
X168726548Y-68809106D01*
X168526338Y-68902466D01*
X168345379Y-69029174D01*
X168189174Y-69185379D01*
X168062466Y-69366338D01*
X168002382Y-69495189D01*
X167956209Y-69547628D01*
X167889016Y-69566780D01*
X167822135Y-69546564D01*
X167777618Y-69495189D01*
X167717651Y-69366590D01*
X167717534Y-69366339D01*
X167590826Y-69185380D01*
X167434620Y-69029174D01*
X167253662Y-68902466D01*
X167253661Y-68902466D01*
X167053451Y-68809106D01*
X166840065Y-68751929D01*
X166619999Y-68732676D01*
X166399934Y-68751929D01*
X166186548Y-68809106D01*
X165986338Y-68902466D01*
X165805379Y-69029174D01*
X165649174Y-69185379D01*
X165522466Y-69366338D01*
X165462382Y-69495189D01*
X165416209Y-69547628D01*
X165349016Y-69566780D01*
X165282135Y-69546564D01*
X165237618Y-69495189D01*
X165177651Y-69366590D01*
X165177534Y-69366339D01*
X165050826Y-69185380D01*
X164894620Y-69029174D01*
X164713662Y-68902466D01*
X164713661Y-68902466D01*
X164513451Y-68809106D01*
X164300065Y-68751929D01*
X164080000Y-68732676D01*
X163859934Y-68751929D01*
X163646548Y-68809106D01*
X163446338Y-68902466D01*
X163265379Y-69029174D01*
X163109174Y-69185379D01*
X162982466Y-69366338D01*
X162922382Y-69495189D01*
X162876209Y-69547628D01*
X162809016Y-69566780D01*
X162742135Y-69546564D01*
X162697618Y-69495189D01*
X162637651Y-69366590D01*
X162637534Y-69366339D01*
X162510826Y-69185380D01*
X162354620Y-69029174D01*
X162173662Y-68902466D01*
X161973451Y-68809106D01*
X161760065Y-68751929D01*
X161540000Y-68732676D01*
X161319934Y-68751929D01*
X161106548Y-68809106D01*
X160906338Y-68902466D01*
X160725379Y-69029174D01*
X160569174Y-69185379D01*
X160442466Y-69366338D01*
X160382382Y-69495189D01*
X160336209Y-69547628D01*
X160269016Y-69566780D01*
X160202135Y-69546564D01*
X160157618Y-69495189D01*
X160097651Y-69366590D01*
X160097534Y-69366339D01*
X159970826Y-69185380D01*
X159814620Y-69029174D01*
X159633662Y-68902466D01*
X159433451Y-68809106D01*
X159220065Y-68751929D01*
X159000000Y-68732676D01*
X158779934Y-68751929D01*
X158566548Y-68809106D01*
X158366338Y-68902466D01*
X158185379Y-69029174D01*
X158029174Y-69185379D01*
X157902466Y-69366338D01*
X157809106Y-69566548D01*
X157751929Y-69779934D01*
X157732676Y-70000000D01*
X157300500Y-70000000D01*
X157300500Y-67049999D01*
X162894434Y-67049999D01*
X162914631Y-67229251D01*
X162914631Y-67229253D01*
X162914632Y-67229255D01*
X162974211Y-67399522D01*
X162974212Y-67399523D01*
X163070185Y-67552264D01*
X163197735Y-67679814D01*
X163197737Y-67679815D01*
X163197738Y-67679816D01*
X163350478Y-67775789D01*
X163520745Y-67835368D01*
X163700000Y-67855565D01*
X163879255Y-67835368D01*
X164049522Y-67775789D01*
X164202262Y-67679816D01*
X164202265Y-67679812D01*
X164203466Y-67679058D01*
X164253904Y-67661028D01*
X164256792Y-67660664D01*
X164297407Y-67644582D01*
X164308444Y-67640803D01*
X164350390Y-67628618D01*
X164367629Y-67618422D01*
X164385102Y-67609862D01*
X164403732Y-67602486D01*
X164439064Y-67576814D01*
X164448830Y-67570400D01*
X164479497Y-67552264D01*
X164486420Y-67548170D01*
X164500585Y-67534004D01*
X164515373Y-67521373D01*
X164531587Y-67509594D01*
X164559438Y-67475926D01*
X164567279Y-67467309D01*
X164933786Y-67100802D01*
X164949881Y-67087910D01*
X164951873Y-67085788D01*
X164951877Y-67085786D01*
X164997949Y-67036723D01*
X165000534Y-67034055D01*
X165020120Y-67014471D01*
X165022585Y-67011292D01*
X165030167Y-67002416D01*
X165032436Y-67000000D01*
X165060062Y-66970582D01*
X165069717Y-66953018D01*
X165080394Y-66936764D01*
X165092673Y-66920936D01*
X165110018Y-66880852D01*
X165115160Y-66870356D01*
X165136197Y-66832092D01*
X165141179Y-66812684D01*
X165147481Y-66794280D01*
X165155437Y-66775896D01*
X165162269Y-66732752D01*
X165164633Y-66721338D01*
X165175500Y-66679019D01*
X165175500Y-66658983D01*
X165177027Y-66639584D01*
X165180160Y-66619804D01*
X165176050Y-66576324D01*
X165175500Y-66564655D01*
X165175500Y-65290215D01*
X165643934Y-65290215D01*
X165664131Y-65469466D01*
X165664131Y-65469468D01*
X165664132Y-65469470D01*
X165723711Y-65639737D01*
X165748542Y-65679255D01*
X165819685Y-65792479D01*
X165947235Y-65920029D01*
X165947237Y-65920030D01*
X165947238Y-65920031D01*
X166074183Y-65999796D01*
X166099980Y-66016005D01*
X166249667Y-66068383D01*
X166306443Y-66109104D01*
X166332190Y-66174057D01*
X166318734Y-66242619D01*
X166274684Y-66290418D01*
X166147736Y-66370184D01*
X166020185Y-66497735D01*
X165924811Y-66649523D01*
X165924211Y-66650478D01*
X165871099Y-66802264D01*
X165864631Y-66820748D01*
X165844434Y-67000000D01*
X165864631Y-67179251D01*
X165864631Y-67179253D01*
X165864632Y-67179255D01*
X165924211Y-67349522D01*
X165924212Y-67349523D01*
X166020185Y-67502264D01*
X166147735Y-67629814D01*
X166147737Y-67629815D01*
X166147738Y-67629816D01*
X166300478Y-67725789D01*
X166470745Y-67785368D01*
X166650000Y-67805565D01*
X166829255Y-67785368D01*
X166999522Y-67725789D01*
X167152262Y-67629816D01*
X167279816Y-67502262D01*
X167375789Y-67349522D01*
X167410613Y-67250000D01*
X190194434Y-67250000D01*
X190214631Y-67429251D01*
X190214631Y-67429253D01*
X190214632Y-67429255D01*
X190274211Y-67599522D01*
X190301174Y-67642433D01*
X190370185Y-67752264D01*
X190497735Y-67879814D01*
X190497737Y-67879815D01*
X190497738Y-67879816D01*
X190650478Y-67975789D01*
X190820745Y-68035368D01*
X190955186Y-68050515D01*
X190999999Y-68055565D01*
X190999999Y-68055564D01*
X191000000Y-68055565D01*
X191179255Y-68035368D01*
X191349522Y-67975789D01*
X191502262Y-67879816D01*
X191629816Y-67752262D01*
X191725789Y-67599522D01*
X191785368Y-67429255D01*
X191805565Y-67250000D01*
X191785368Y-67070745D01*
X191725789Y-66900478D01*
X191629816Y-66747738D01*
X191629815Y-66747737D01*
X191629814Y-66747735D01*
X191502264Y-66620185D01*
X191432459Y-66576324D01*
X191349522Y-66524211D01*
X191179255Y-66464632D01*
X191179253Y-66464631D01*
X191179251Y-66464631D01*
X191000000Y-66444434D01*
X190820748Y-66464631D01*
X190820745Y-66464631D01*
X190820745Y-66464632D01*
X190650478Y-66524211D01*
X190650476Y-66524211D01*
X190650476Y-66524212D01*
X190497735Y-66620185D01*
X190370185Y-66747735D01*
X190289913Y-66875488D01*
X190274211Y-66900478D01*
X190227012Y-67035364D01*
X190214631Y-67070748D01*
X190194434Y-67250000D01*
X167410613Y-67250000D01*
X167435368Y-67179255D01*
X167455565Y-67000000D01*
X167435368Y-66820745D01*
X167375789Y-66650478D01*
X167279816Y-66497738D01*
X167279815Y-66497737D01*
X167279814Y-66497735D01*
X167152264Y-66370185D01*
X167040565Y-66300000D01*
X181094434Y-66300000D01*
X181114631Y-66479251D01*
X181114631Y-66479253D01*
X181114632Y-66479255D01*
X181174211Y-66649522D01*
X181230978Y-66739867D01*
X181270185Y-66802264D01*
X181397735Y-66929814D01*
X181397737Y-66929815D01*
X181397738Y-66929816D01*
X181550478Y-67025789D01*
X181720745Y-67085368D01*
X181900000Y-67105565D01*
X182079255Y-67085368D01*
X182249522Y-67025789D01*
X182402262Y-66929816D01*
X182529816Y-66802262D01*
X182625789Y-66649522D01*
X182685368Y-66479255D01*
X182705565Y-66300000D01*
X182685368Y-66120745D01*
X182625789Y-65950478D01*
X182529816Y-65797738D01*
X182529815Y-65797737D01*
X182529814Y-65797735D01*
X182402264Y-65670185D01*
X182257543Y-65579251D01*
X182249522Y-65574211D01*
X182079255Y-65514632D01*
X182079253Y-65514631D01*
X182079251Y-65514631D01*
X181949398Y-65500000D01*
X184344434Y-65500000D01*
X184364631Y-65679251D01*
X184364631Y-65679253D01*
X184364632Y-65679255D01*
X184424211Y-65849522D01*
X184424212Y-65849523D01*
X184520185Y-66002264D01*
X184647735Y-66129814D01*
X184647737Y-66129815D01*
X184647738Y-66129816D01*
X184800478Y-66225789D01*
X184970745Y-66285368D01*
X185150000Y-66305565D01*
X185329255Y-66285368D01*
X185499522Y-66225789D01*
X185499522Y-66225788D01*
X185512711Y-66221174D01*
X185513575Y-66223645D01*
X185561460Y-66210107D01*
X185626184Y-66229107D01*
X185700478Y-66275789D01*
X185870745Y-66335368D01*
X186050000Y-66355565D01*
X186229255Y-66335368D01*
X186399522Y-66275789D01*
X186552262Y-66179816D01*
X186679816Y-66052262D01*
X186775789Y-65899522D01*
X186835368Y-65729255D01*
X186855565Y-65550000D01*
X186835368Y-65370745D01*
X186775789Y-65200478D01*
X186679816Y-65047738D01*
X186679815Y-65047737D01*
X186679814Y-65047735D01*
X186552264Y-64920185D01*
X186472689Y-64870185D01*
X186399522Y-64824211D01*
X186229255Y-64764632D01*
X186229253Y-64764631D01*
X186229251Y-64764631D01*
X186050000Y-64744434D01*
X185870748Y-64764631D01*
X185870745Y-64764631D01*
X185870745Y-64764632D01*
X185700478Y-64824211D01*
X185700475Y-64824212D01*
X185687291Y-64828826D01*
X185686426Y-64826356D01*
X185638509Y-64839891D01*
X185573816Y-64820892D01*
X185508439Y-64779814D01*
X185499522Y-64774211D01*
X185329255Y-64714632D01*
X185329253Y-64714631D01*
X185329251Y-64714631D01*
X185150000Y-64694434D01*
X184970748Y-64714631D01*
X184970745Y-64714631D01*
X184970745Y-64714632D01*
X184800478Y-64774211D01*
X184800476Y-64774211D01*
X184800476Y-64774212D01*
X184647735Y-64870185D01*
X184520185Y-64997735D01*
X184424212Y-65150476D01*
X184424211Y-65150478D01*
X184377011Y-65285368D01*
X184364631Y-65320748D01*
X184344434Y-65500000D01*
X181949398Y-65500000D01*
X181899999Y-65494434D01*
X181720748Y-65514631D01*
X181720745Y-65514631D01*
X181720745Y-65514632D01*
X181550478Y-65574211D01*
X181550476Y-65574211D01*
X181550476Y-65574212D01*
X181397735Y-65670185D01*
X181270185Y-65797735D01*
X181174212Y-65950476D01*
X181174211Y-65950478D01*
X181140228Y-66047595D01*
X181114631Y-66120748D01*
X181094434Y-66300000D01*
X167040565Y-66300000D01*
X166999519Y-66274209D01*
X166849832Y-66221831D01*
X166793056Y-66181109D01*
X166767309Y-66116157D01*
X166780766Y-66047595D01*
X166824814Y-65999797D01*
X166951762Y-65920031D01*
X167079316Y-65792477D01*
X167175289Y-65639737D01*
X167234868Y-65469470D01*
X167253963Y-65299999D01*
X167794434Y-65299999D01*
X167814631Y-65479251D01*
X167814631Y-65479253D01*
X167814632Y-65479255D01*
X167874211Y-65649522D01*
X167892891Y-65679251D01*
X167970185Y-65802264D01*
X168097735Y-65929814D01*
X168097737Y-65929815D01*
X168097738Y-65929816D01*
X168250478Y-66025789D01*
X168420745Y-66085368D01*
X168600000Y-66105565D01*
X168779255Y-66085368D01*
X168949522Y-66025789D01*
X169102262Y-65929816D01*
X169229816Y-65802262D01*
X169325789Y-65649522D01*
X169385368Y-65479255D01*
X169394298Y-65400000D01*
X171794434Y-65400000D01*
X171814631Y-65579251D01*
X171814631Y-65579253D01*
X171814632Y-65579255D01*
X171874211Y-65749522D01*
X171901203Y-65792479D01*
X171970185Y-65902264D01*
X172097735Y-66029814D01*
X172097737Y-66029815D01*
X172097738Y-66029816D01*
X172250478Y-66125789D01*
X172420745Y-66185368D01*
X172600000Y-66205565D01*
X172779255Y-66185368D01*
X172949522Y-66125789D01*
X173102262Y-66029816D01*
X173229816Y-65902262D01*
X173325789Y-65749522D01*
X173385368Y-65579255D01*
X173405565Y-65400000D01*
X173385368Y-65220745D01*
X173325789Y-65050478D01*
X173288398Y-64990972D01*
X173269398Y-64923736D01*
X173288399Y-64859027D01*
X173294371Y-64849523D01*
X173325789Y-64799522D01*
X173385368Y-64629255D01*
X173399932Y-64499999D01*
X180294434Y-64499999D01*
X180314631Y-64679251D01*
X180314631Y-64679253D01*
X180314632Y-64679255D01*
X180374211Y-64849522D01*
X180390716Y-64875789D01*
X180470185Y-65002264D01*
X180597735Y-65129814D01*
X180597737Y-65129815D01*
X180597738Y-65129816D01*
X180750478Y-65225789D01*
X180920745Y-65285368D01*
X181100000Y-65305565D01*
X181279255Y-65285368D01*
X181449522Y-65225789D01*
X181602262Y-65129816D01*
X181729816Y-65002262D01*
X181825789Y-64849522D01*
X181885368Y-64679255D01*
X181905565Y-64500000D01*
X181885368Y-64320745D01*
X181825789Y-64150478D01*
X181731237Y-64000000D01*
X182944434Y-64000000D01*
X182964631Y-64179251D01*
X182964631Y-64179253D01*
X182964632Y-64179255D01*
X183024211Y-64349522D01*
X183068965Y-64420748D01*
X183120185Y-64502264D01*
X183247735Y-64629814D01*
X183247737Y-64629815D01*
X183247738Y-64629816D01*
X183400478Y-64725789D01*
X183570745Y-64785368D01*
X183750000Y-64805565D01*
X183929255Y-64785368D01*
X184099522Y-64725789D01*
X184252262Y-64629816D01*
X184379816Y-64502262D01*
X184475789Y-64349522D01*
X184528109Y-64199999D01*
X188544434Y-64199999D01*
X188564631Y-64379251D01*
X188564631Y-64379253D01*
X188564632Y-64379255D01*
X188624211Y-64549522D01*
X188674308Y-64629251D01*
X188720185Y-64702264D01*
X188847735Y-64829814D01*
X188847737Y-64829815D01*
X188847738Y-64829816D01*
X189000478Y-64925789D01*
X189170745Y-64985368D01*
X189350000Y-65005565D01*
X189529255Y-64985368D01*
X189699522Y-64925789D01*
X189852262Y-64829816D01*
X189979816Y-64702262D01*
X190075789Y-64549522D01*
X190135368Y-64379255D01*
X190155565Y-64200000D01*
X190135368Y-64020745D01*
X190075789Y-63850478D01*
X189979816Y-63697738D01*
X189979815Y-63697737D01*
X189979814Y-63697735D01*
X189852264Y-63570185D01*
X189772689Y-63520185D01*
X189699522Y-63474211D01*
X189529255Y-63414632D01*
X189529253Y-63414631D01*
X189529251Y-63414631D01*
X189350000Y-63394434D01*
X189170748Y-63414631D01*
X189170745Y-63414631D01*
X189170745Y-63414632D01*
X189000478Y-63474211D01*
X189000476Y-63474211D01*
X189000476Y-63474212D01*
X188847735Y-63570185D01*
X188720185Y-63697735D01*
X188624811Y-63849523D01*
X188624211Y-63850478D01*
X188571891Y-64000000D01*
X188564631Y-64020748D01*
X188544434Y-64199999D01*
X184528109Y-64199999D01*
X184535368Y-64179255D01*
X184555565Y-64000000D01*
X184535368Y-63820745D01*
X184475789Y-63650478D01*
X184379816Y-63497738D01*
X184379815Y-63497737D01*
X184379814Y-63497735D01*
X184253800Y-63371721D01*
X184220315Y-63310398D01*
X184225299Y-63240706D01*
X184267171Y-63184773D01*
X184300524Y-63166999D01*
X184405371Y-63130312D01*
X184558111Y-63034339D01*
X184685665Y-62906785D01*
X184781638Y-62754045D01*
X184841217Y-62583778D01*
X184852394Y-62484577D01*
X184879460Y-62420164D01*
X184937055Y-62380609D01*
X185006892Y-62378471D01*
X185016565Y-62381418D01*
X185170745Y-62435368D01*
X185350000Y-62455565D01*
X185529255Y-62435368D01*
X185699522Y-62375789D01*
X185739801Y-62350480D01*
X191532206Y-62350480D01*
X191552403Y-62529732D01*
X191552403Y-62529734D01*
X191552404Y-62529736D01*
X191611983Y-62700003D01*
X191642671Y-62748842D01*
X191707957Y-62852745D01*
X191835507Y-62980295D01*
X191835509Y-62980296D01*
X191835510Y-62980297D01*
X191988250Y-63076270D01*
X192158517Y-63135849D01*
X192224887Y-63143327D01*
X192325342Y-63154646D01*
X192389756Y-63181713D01*
X192413184Y-63215083D01*
X192416778Y-63212825D01*
X192520184Y-63377395D01*
X192647735Y-63504946D01*
X192647737Y-63504947D01*
X192647738Y-63504948D01*
X192800478Y-63600921D01*
X192857059Y-63620719D01*
X192913835Y-63661441D01*
X192933146Y-63696806D01*
X192977706Y-63824151D01*
X193073682Y-63976896D01*
X193201232Y-64104446D01*
X193201234Y-64104447D01*
X193201235Y-64104448D01*
X193353975Y-64200421D01*
X193524242Y-64260000D01*
X193703497Y-64280197D01*
X193882752Y-64260000D01*
X193906160Y-64251808D01*
X193975936Y-64248246D01*
X194036564Y-64282974D01*
X194064155Y-64327895D01*
X194124209Y-64499519D01*
X194220185Y-64652264D01*
X194347735Y-64779814D01*
X194347737Y-64779815D01*
X194347738Y-64779816D01*
X194500478Y-64875789D01*
X194670745Y-64935368D01*
X194850000Y-64955565D01*
X195029255Y-64935368D01*
X195199522Y-64875789D01*
X195352262Y-64779816D01*
X195479816Y-64652262D01*
X195512654Y-64600000D01*
X204244434Y-64600000D01*
X204264631Y-64779251D01*
X204264631Y-64779253D01*
X204264632Y-64779255D01*
X204324211Y-64949522D01*
X204354505Y-64997735D01*
X204420185Y-65102264D01*
X204547735Y-65229814D01*
X204547737Y-65229815D01*
X204547738Y-65229816D01*
X204700478Y-65325789D01*
X204870745Y-65385368D01*
X205050000Y-65405565D01*
X205229255Y-65385368D01*
X205399522Y-65325789D01*
X205552262Y-65229816D01*
X205679816Y-65102262D01*
X205775789Y-64949522D01*
X205835368Y-64779255D01*
X205855565Y-64600000D01*
X205835368Y-64420745D01*
X205775789Y-64250478D01*
X205679816Y-64097738D01*
X205679815Y-64097737D01*
X205679814Y-64097735D01*
X205552264Y-63970185D01*
X205454928Y-63909025D01*
X205399522Y-63874211D01*
X205229255Y-63814632D01*
X205229253Y-63814631D01*
X205229251Y-63814631D01*
X205050000Y-63794434D01*
X204870748Y-63814631D01*
X204870745Y-63814631D01*
X204870745Y-63814632D01*
X204700478Y-63874211D01*
X204700476Y-63874211D01*
X204700476Y-63874212D01*
X204547735Y-63970185D01*
X204420185Y-64097735D01*
X204355050Y-64201398D01*
X204324211Y-64250478D01*
X204297122Y-64327895D01*
X204264631Y-64420748D01*
X204244434Y-64600000D01*
X195512654Y-64600000D01*
X195575789Y-64499522D01*
X195635368Y-64329255D01*
X195655565Y-64150000D01*
X195635368Y-63970745D01*
X195575789Y-63800478D01*
X195479816Y-63647738D01*
X195479815Y-63647737D01*
X195479814Y-63647735D01*
X195352264Y-63520185D01*
X195279096Y-63474211D01*
X195199522Y-63424211D01*
X195029255Y-63364632D01*
X195029253Y-63364631D01*
X195029251Y-63364631D01*
X194850000Y-63344434D01*
X194670743Y-63364631D01*
X194647333Y-63372823D01*
X194577554Y-63376384D01*
X194516928Y-63341654D01*
X194489339Y-63296735D01*
X194488865Y-63295381D01*
X194488865Y-63295377D01*
X194429286Y-63125110D01*
X194333313Y-62972370D01*
X194333312Y-62972369D01*
X194333311Y-62972367D01*
X194205761Y-62844817D01*
X194093392Y-62774211D01*
X194053019Y-62748843D01*
X194053018Y-62748842D01*
X194053017Y-62748842D01*
X193996434Y-62729042D01*
X193939658Y-62688320D01*
X193920350Y-62652959D01*
X193875789Y-62525610D01*
X193779816Y-62372870D01*
X193779815Y-62372869D01*
X193779814Y-62372867D01*
X193652264Y-62245317D01*
X193499519Y-62149341D01*
X193329420Y-62089821D01*
X193272644Y-62049100D01*
X193246897Y-61984147D01*
X193253334Y-61931825D01*
X193256063Y-61924024D01*
X193256065Y-61924022D01*
X193315644Y-61753755D01*
X193322498Y-61692922D01*
X193327931Y-61644708D01*
X193354998Y-61580294D01*
X193412593Y-61540739D01*
X193482429Y-61538602D01*
X193538832Y-61570911D01*
X193547735Y-61579814D01*
X193547737Y-61579815D01*
X193547738Y-61579816D01*
X193700478Y-61675789D01*
X193870745Y-61735368D01*
X194050000Y-61755565D01*
X194229255Y-61735368D01*
X194399522Y-61675789D01*
X194552262Y-61579816D01*
X194679816Y-61452262D01*
X194775789Y-61299522D01*
X194835368Y-61129255D01*
X194855565Y-60950000D01*
X194835368Y-60770745D01*
X194775789Y-60600478D01*
X194775788Y-60600477D01*
X194772456Y-60590953D01*
X194768895Y-60521175D01*
X194772457Y-60509044D01*
X194787998Y-60464632D01*
X194835368Y-60329255D01*
X194855565Y-60150000D01*
X194835368Y-59970745D01*
X194775789Y-59800478D01*
X194679816Y-59647738D01*
X194679815Y-59647737D01*
X194679814Y-59647735D01*
X194552264Y-59520185D01*
X194472689Y-59470185D01*
X194399522Y-59424211D01*
X194229255Y-59364632D01*
X194229253Y-59364631D01*
X194229251Y-59364631D01*
X194050000Y-59344434D01*
X193870748Y-59364631D01*
X193870745Y-59364631D01*
X193870745Y-59364632D01*
X193700478Y-59424211D01*
X193700476Y-59424211D01*
X193700476Y-59424212D01*
X193547735Y-59520185D01*
X193420185Y-59647735D01*
X193340715Y-59774212D01*
X193324211Y-59800478D01*
X193264632Y-59970745D01*
X193264631Y-59970748D01*
X193244434Y-60150000D01*
X193264631Y-60329251D01*
X193264631Y-60329253D01*
X193264632Y-60329255D01*
X193324211Y-60499522D01*
X193324212Y-60499524D01*
X193327544Y-60509045D01*
X193331105Y-60578824D01*
X193327544Y-60590955D01*
X193324212Y-60600475D01*
X193324211Y-60600478D01*
X193264632Y-60770745D01*
X193264631Y-60770749D01*
X193252344Y-60879792D01*
X193225277Y-60944206D01*
X193167681Y-60983760D01*
X193097844Y-60985897D01*
X193041443Y-60953588D01*
X193032540Y-60944685D01*
X192905136Y-60864632D01*
X192879798Y-60848711D01*
X192709531Y-60789132D01*
X192709529Y-60789131D01*
X192709527Y-60789131D01*
X192530276Y-60768934D01*
X192351024Y-60789131D01*
X192351021Y-60789131D01*
X192351021Y-60789132D01*
X192180754Y-60848711D01*
X192180752Y-60848711D01*
X192180752Y-60848712D01*
X192028011Y-60944685D01*
X191900461Y-61072235D01*
X191804488Y-61224976D01*
X191804487Y-61224978D01*
X191744908Y-61395245D01*
X191744907Y-61395248D01*
X191724710Y-61574500D01*
X191744045Y-61746104D01*
X191731990Y-61814926D01*
X191708510Y-61847664D01*
X191707958Y-61848215D01*
X191612886Y-61999522D01*
X191611983Y-62000959D01*
X191607494Y-62013789D01*
X191552403Y-62171229D01*
X191532206Y-62350480D01*
X185739801Y-62350480D01*
X185852262Y-62279816D01*
X185979816Y-62152262D01*
X186075789Y-61999522D01*
X186135368Y-61829255D01*
X186155565Y-61650000D01*
X186135368Y-61470745D01*
X186075789Y-61300478D01*
X185979816Y-61147738D01*
X185979815Y-61147737D01*
X185979814Y-61147735D01*
X185852264Y-61020185D01*
X185732106Y-60944685D01*
X185699522Y-60924211D01*
X185529255Y-60864632D01*
X185529253Y-60864631D01*
X185529251Y-60864631D01*
X185350000Y-60844434D01*
X185170748Y-60864631D01*
X185170745Y-60864631D01*
X185170745Y-60864632D01*
X185000478Y-60924211D01*
X185000477Y-60924211D01*
X185000473Y-60924213D01*
X184872774Y-61004451D01*
X184805537Y-61023451D01*
X184738702Y-61003083D01*
X184693489Y-60949814D01*
X184689767Y-60940427D01*
X184675789Y-60900478D01*
X184579816Y-60747738D01*
X184579815Y-60747737D01*
X184579814Y-60747735D01*
X184452264Y-60620185D01*
X184340563Y-60549999D01*
X184299522Y-60524211D01*
X184129255Y-60464632D01*
X184129253Y-60464631D01*
X184129251Y-60464631D01*
X183950000Y-60444434D01*
X183770748Y-60464631D01*
X183770745Y-60464631D01*
X183770745Y-60464632D01*
X183600478Y-60524211D01*
X183600476Y-60524211D01*
X183600476Y-60524212D01*
X183447735Y-60620185D01*
X183320185Y-60747735D01*
X183237209Y-60879792D01*
X183224211Y-60900478D01*
X183191334Y-60994435D01*
X183164631Y-61070748D01*
X183144434Y-61249999D01*
X183164631Y-61429251D01*
X183164631Y-61429253D01*
X183164632Y-61429255D01*
X183224211Y-61599522D01*
X183272132Y-61675787D01*
X183320185Y-61752264D01*
X183373145Y-61805224D01*
X183406630Y-61866547D01*
X183401646Y-61936239D01*
X183390458Y-61958876D01*
X183330062Y-62054996D01*
X183330060Y-62055000D01*
X183330060Y-62055001D01*
X183323633Y-62073368D01*
X183270480Y-62225271D01*
X183250283Y-62404523D01*
X183270480Y-62583774D01*
X183270480Y-62583776D01*
X183270481Y-62583778D01*
X183330060Y-62754045D01*
X183330061Y-62754046D01*
X183426034Y-62906787D01*
X183552048Y-63032801D01*
X183585533Y-63094124D01*
X183580549Y-63163816D01*
X183538677Y-63219749D01*
X183505323Y-63237523D01*
X183400479Y-63274210D01*
X183247735Y-63370185D01*
X183120185Y-63497735D01*
X183024212Y-63650476D01*
X183024211Y-63650478D01*
X182971724Y-63800478D01*
X182964631Y-63820748D01*
X182944434Y-64000000D01*
X181731237Y-64000000D01*
X181729816Y-63997738D01*
X181729815Y-63997737D01*
X181729814Y-63997735D01*
X181602264Y-63870185D01*
X181523580Y-63820745D01*
X181449522Y-63774211D01*
X181279255Y-63714632D01*
X181279253Y-63714631D01*
X181279251Y-63714631D01*
X181100000Y-63694434D01*
X180920748Y-63714631D01*
X180920745Y-63714631D01*
X180920745Y-63714632D01*
X180750478Y-63774211D01*
X180750476Y-63774211D01*
X180750476Y-63774212D01*
X180597735Y-63870185D01*
X180470185Y-63997735D01*
X180374511Y-64150000D01*
X180374211Y-64150478D01*
X180338754Y-64251809D01*
X180314631Y-64320748D01*
X180294434Y-64499999D01*
X173399932Y-64499999D01*
X173405565Y-64450000D01*
X173385368Y-64270745D01*
X173325789Y-64100478D01*
X173288397Y-64040970D01*
X173269398Y-63973734D01*
X173288398Y-63909028D01*
X173325789Y-63849522D01*
X173385368Y-63679255D01*
X173405565Y-63500000D01*
X173385368Y-63320745D01*
X173325789Y-63150478D01*
X173229816Y-62997738D01*
X173229815Y-62997737D01*
X173229814Y-62997735D01*
X173102264Y-62870185D01*
X173001829Y-62807078D01*
X172949522Y-62774211D01*
X172779255Y-62714632D01*
X172779253Y-62714631D01*
X172779251Y-62714631D01*
X172600000Y-62694434D01*
X172420748Y-62714631D01*
X172420745Y-62714631D01*
X172420745Y-62714632D01*
X172250478Y-62774211D01*
X172250476Y-62774211D01*
X172250476Y-62774212D01*
X172097735Y-62870185D01*
X171970185Y-62997735D01*
X171886882Y-63130312D01*
X171874211Y-63150478D01*
X171818253Y-63310398D01*
X171814631Y-63320748D01*
X171794434Y-63500000D01*
X171814631Y-63679251D01*
X171814631Y-63679253D01*
X171814632Y-63679255D01*
X171874211Y-63849522D01*
X171911601Y-63909027D01*
X171930601Y-63976263D01*
X171911601Y-64040970D01*
X171874213Y-64100473D01*
X171874212Y-64100476D01*
X171874211Y-64100478D01*
X171821724Y-64250478D01*
X171814631Y-64270748D01*
X171794434Y-64449999D01*
X171814631Y-64629251D01*
X171814631Y-64629253D01*
X171814632Y-64629255D01*
X171874211Y-64799522D01*
X171911601Y-64859028D01*
X171930601Y-64926263D01*
X171911601Y-64990970D01*
X171874213Y-65050473D01*
X171874211Y-65050477D01*
X171874211Y-65050478D01*
X171821724Y-65200478D01*
X171814631Y-65220748D01*
X171794434Y-65400000D01*
X169394298Y-65400000D01*
X169405565Y-65300000D01*
X169385368Y-65120745D01*
X169325789Y-64950478D01*
X169229816Y-64797738D01*
X169229815Y-64797737D01*
X169229814Y-64797735D01*
X169102264Y-64670185D01*
X168990565Y-64600000D01*
X168949522Y-64574211D01*
X168779255Y-64514632D01*
X168779253Y-64514631D01*
X168779251Y-64514631D01*
X168600000Y-64494434D01*
X168420748Y-64514631D01*
X168420745Y-64514631D01*
X168420745Y-64514632D01*
X168250478Y-64574211D01*
X168250476Y-64574211D01*
X168250476Y-64574212D01*
X168097735Y-64670185D01*
X167970185Y-64797735D01*
X167874811Y-64949523D01*
X167874211Y-64950478D01*
X167821099Y-65102264D01*
X167814631Y-65120748D01*
X167794434Y-65299999D01*
X167253963Y-65299999D01*
X167255065Y-65290215D01*
X167234868Y-65110960D01*
X167175289Y-64940693D01*
X167079316Y-64787953D01*
X167079315Y-64787952D01*
X167079314Y-64787950D01*
X166951764Y-64660400D01*
X166889367Y-64621194D01*
X166799022Y-64564426D01*
X166628755Y-64504847D01*
X166628753Y-64504846D01*
X166628751Y-64504846D01*
X166449499Y-64484649D01*
X166270248Y-64504846D01*
X166270245Y-64504846D01*
X166270245Y-64504847D01*
X166099978Y-64564426D01*
X166099976Y-64564426D01*
X166099976Y-64564427D01*
X165947235Y-64660400D01*
X165819685Y-64787950D01*
X165732778Y-64926263D01*
X165723711Y-64940693D01*
X165686254Y-65047738D01*
X165664131Y-65110963D01*
X165643934Y-65290215D01*
X165175500Y-65290215D01*
X165175500Y-61799999D01*
X165694434Y-61799999D01*
X165714631Y-61979251D01*
X165714631Y-61979253D01*
X165714632Y-61979255D01*
X165774211Y-62149522D01*
X165821805Y-62225268D01*
X165870185Y-62302264D01*
X165997735Y-62429814D01*
X165997737Y-62429815D01*
X165997738Y-62429816D01*
X166150478Y-62525789D01*
X166320745Y-62585368D01*
X166500000Y-62605565D01*
X166679255Y-62585368D01*
X166849522Y-62525789D01*
X167002262Y-62429816D01*
X167129816Y-62302262D01*
X167225789Y-62149522D01*
X167285368Y-61979255D01*
X167305565Y-61800000D01*
X167285368Y-61620745D01*
X167225789Y-61450478D01*
X167129816Y-61297738D01*
X167129815Y-61297737D01*
X167129814Y-61297735D01*
X167120079Y-61288000D01*
X179244434Y-61288000D01*
X179264631Y-61467251D01*
X179264631Y-61467253D01*
X179264632Y-61467255D01*
X179324211Y-61637522D01*
X179348255Y-61675787D01*
X179420185Y-61790264D01*
X179547735Y-61917814D01*
X179547737Y-61917815D01*
X179547738Y-61917816D01*
X179700478Y-62013789D01*
X179870745Y-62073368D01*
X180050000Y-62093565D01*
X180229255Y-62073368D01*
X180399522Y-62013789D01*
X180552262Y-61917816D01*
X180679816Y-61790262D01*
X180775789Y-61637522D01*
X180835368Y-61467255D01*
X180855565Y-61288000D01*
X180840835Y-61157267D01*
X180852889Y-61088446D01*
X180876370Y-61055707D01*
X180929816Y-61002262D01*
X181025789Y-60849522D01*
X181048198Y-60785477D01*
X181088918Y-60728704D01*
X181153870Y-60702955D01*
X181179124Y-60703213D01*
X181190920Y-60704542D01*
X181200000Y-60705565D01*
X181200000Y-60705564D01*
X181200001Y-60705565D01*
X181253376Y-60699551D01*
X181379255Y-60685368D01*
X181549522Y-60625789D01*
X181702262Y-60529816D01*
X181829816Y-60402262D01*
X181925789Y-60249522D01*
X181985368Y-60079255D01*
X182005565Y-59900000D01*
X182005092Y-59895806D01*
X182000515Y-59855186D01*
X181994297Y-59799999D01*
X185294434Y-59799999D01*
X185314631Y-59979251D01*
X185314631Y-59979253D01*
X185314632Y-59979255D01*
X185374211Y-60149522D01*
X185430978Y-60239867D01*
X185470185Y-60302264D01*
X185597735Y-60429814D01*
X185597737Y-60429815D01*
X185597738Y-60429816D01*
X185750478Y-60525789D01*
X185920745Y-60585368D01*
X186100000Y-60605565D01*
X186279255Y-60585368D01*
X186449522Y-60525789D01*
X186602262Y-60429816D01*
X186729816Y-60302262D01*
X186825789Y-60149522D01*
X186862539Y-60044494D01*
X186903260Y-59987721D01*
X186968212Y-59961973D01*
X187036774Y-59975429D01*
X187087177Y-60023816D01*
X187096621Y-60044496D01*
X187138301Y-60163611D01*
X187234277Y-60316356D01*
X187361827Y-60443906D01*
X187361829Y-60443907D01*
X187361830Y-60443908D01*
X187514570Y-60539881D01*
X187684837Y-60599460D01*
X187864092Y-60619657D01*
X188043347Y-60599460D01*
X188213614Y-60539881D01*
X188366354Y-60443908D01*
X188493908Y-60316354D01*
X188589881Y-60163614D01*
X188649460Y-59993347D01*
X188669657Y-59814092D01*
X188649460Y-59634837D01*
X188589881Y-59464570D01*
X188493908Y-59311830D01*
X188493907Y-59311829D01*
X188493906Y-59311827D01*
X188366356Y-59184277D01*
X188255516Y-59114632D01*
X188213614Y-59088303D01*
X188043347Y-59028724D01*
X188043345Y-59028723D01*
X188043343Y-59028723D01*
X187864091Y-59008526D01*
X187684840Y-59028723D01*
X187684837Y-59028723D01*
X187684837Y-59028724D01*
X187514570Y-59088303D01*
X187514568Y-59088303D01*
X187514568Y-59088304D01*
X187361827Y-59184277D01*
X187234277Y-59311827D01*
X187138301Y-59464572D01*
X187101552Y-59569595D01*
X187060830Y-59626371D01*
X186995877Y-59652118D01*
X186927316Y-59638661D01*
X186876913Y-59590274D01*
X186867471Y-59569598D01*
X186825789Y-59450478D01*
X186729816Y-59297738D01*
X186729815Y-59297737D01*
X186729814Y-59297735D01*
X186602264Y-59170185D01*
X186514270Y-59114895D01*
X186449522Y-59074211D01*
X186279255Y-59014632D01*
X186279253Y-59014631D01*
X186279251Y-59014631D01*
X186100000Y-58994434D01*
X185920748Y-59014631D01*
X185920745Y-59014631D01*
X185920745Y-59014632D01*
X185750478Y-59074211D01*
X185750476Y-59074211D01*
X185750476Y-59074212D01*
X185597735Y-59170185D01*
X185470185Y-59297735D01*
X185374811Y-59449523D01*
X185374211Y-59450478D01*
X185321099Y-59602264D01*
X185314631Y-59620748D01*
X185294434Y-59799999D01*
X181994297Y-59799999D01*
X181985368Y-59720745D01*
X181925789Y-59550478D01*
X181829816Y-59397738D01*
X181829815Y-59397737D01*
X181829814Y-59397735D01*
X181702264Y-59270185D01*
X181586048Y-59197162D01*
X181549522Y-59174211D01*
X181379255Y-59114632D01*
X181379253Y-59114631D01*
X181379251Y-59114631D01*
X181200000Y-59094434D01*
X181020748Y-59114631D01*
X181020745Y-59114631D01*
X181020745Y-59114632D01*
X180850478Y-59174211D01*
X180850476Y-59174211D01*
X180850476Y-59174212D01*
X180697735Y-59270185D01*
X180570185Y-59397735D01*
X180474210Y-59550479D01*
X180451800Y-59614522D01*
X180411078Y-59671298D01*
X180346125Y-59697044D01*
X180320877Y-59696786D01*
X180300001Y-59694434D01*
X180120748Y-59714631D01*
X180120745Y-59714631D01*
X180120745Y-59714632D01*
X179950478Y-59774211D01*
X179950476Y-59774211D01*
X179950476Y-59774212D01*
X179797735Y-59870185D01*
X179670185Y-59997735D01*
X179574811Y-60149523D01*
X179574211Y-60150478D01*
X179516168Y-60316356D01*
X179514631Y-60320748D01*
X179494434Y-60500000D01*
X179509164Y-60630729D01*
X179497110Y-60699551D01*
X179473627Y-60732293D01*
X179420183Y-60785737D01*
X179333175Y-60924212D01*
X179324211Y-60938478D01*
X179277406Y-61072238D01*
X179264631Y-61108748D01*
X179244434Y-61288000D01*
X167120079Y-61288000D01*
X167002264Y-61170185D01*
X166904482Y-61108745D01*
X166849522Y-61074211D01*
X166679255Y-61014632D01*
X166679253Y-61014631D01*
X166679251Y-61014631D01*
X166500000Y-60994434D01*
X166320748Y-61014631D01*
X166320745Y-61014631D01*
X166320745Y-61014632D01*
X166150478Y-61074211D01*
X166150476Y-61074211D01*
X166150476Y-61074212D01*
X165997735Y-61170185D01*
X165870185Y-61297735D01*
X165778008Y-61444435D01*
X165774211Y-61450478D01*
X165722058Y-61599522D01*
X165714631Y-61620748D01*
X165694434Y-61799999D01*
X165175500Y-61799999D01*
X165175500Y-60099999D01*
X170069434Y-60099999D01*
X170089631Y-60279251D01*
X170089631Y-60279253D01*
X170089632Y-60279255D01*
X170149211Y-60449522D01*
X170186611Y-60509044D01*
X170245185Y-60602264D01*
X170372735Y-60729814D01*
X170372737Y-60729815D01*
X170372738Y-60729816D01*
X170525478Y-60825789D01*
X170695745Y-60885368D01*
X170875000Y-60905565D01*
X171054255Y-60885368D01*
X171224522Y-60825789D01*
X171377262Y-60729816D01*
X171504816Y-60602262D01*
X171600789Y-60449522D01*
X171660368Y-60279255D01*
X171680565Y-60100000D01*
X171660368Y-59920745D01*
X171600789Y-59750478D01*
X171504816Y-59597738D01*
X171504815Y-59597737D01*
X171504814Y-59597735D01*
X171377264Y-59470185D01*
X171304096Y-59424211D01*
X171224522Y-59374211D01*
X171054255Y-59314632D01*
X171054253Y-59314631D01*
X171054251Y-59314631D01*
X170874999Y-59294434D01*
X170695748Y-59314631D01*
X170695745Y-59314631D01*
X170695745Y-59314632D01*
X170525478Y-59374211D01*
X170525476Y-59374211D01*
X170525476Y-59374212D01*
X170372735Y-59470185D01*
X170245185Y-59597735D01*
X170149212Y-59750476D01*
X170149211Y-59750478D01*
X170122859Y-59825787D01*
X170089631Y-59920748D01*
X170069434Y-60099999D01*
X165175500Y-60099999D01*
X165175500Y-59482740D01*
X165177763Y-59462239D01*
X165177393Y-59450476D01*
X165175561Y-59392144D01*
X165175500Y-59388250D01*
X165175500Y-59364544D01*
X165175500Y-59360650D01*
X165174998Y-59356681D01*
X165174080Y-59345024D01*
X165172709Y-59301373D01*
X165167120Y-59282140D01*
X165163174Y-59263082D01*
X165160664Y-59243206D01*
X165144588Y-59202604D01*
X165140804Y-59191553D01*
X165134595Y-59170184D01*
X165128618Y-59149610D01*
X165118414Y-59132355D01*
X165109861Y-59114895D01*
X165109757Y-59114632D01*
X165102486Y-59096268D01*
X165076808Y-59060925D01*
X165070401Y-59051171D01*
X165048792Y-59014632D01*
X165048170Y-59013580D01*
X165034006Y-58999416D01*
X165021374Y-58984627D01*
X165009594Y-58968413D01*
X165009591Y-58968410D01*
X165009590Y-58968409D01*
X164975941Y-58940572D01*
X164967301Y-58932710D01*
X164750803Y-58716212D01*
X164737903Y-58700111D01*
X164686774Y-58652097D01*
X164683977Y-58649386D01*
X164667227Y-58632636D01*
X164664471Y-58629880D01*
X164661290Y-58627412D01*
X164652422Y-58619837D01*
X164631296Y-58599999D01*
X167294434Y-58599999D01*
X167314631Y-58779251D01*
X167314631Y-58779253D01*
X167314632Y-58779255D01*
X167374211Y-58949522D01*
X167402431Y-58994434D01*
X167470185Y-59102264D01*
X167597735Y-59229814D01*
X167597737Y-59229815D01*
X167597738Y-59229816D01*
X167750478Y-59325789D01*
X167920745Y-59385368D01*
X168100000Y-59405565D01*
X168279255Y-59385368D01*
X168449522Y-59325789D01*
X168602262Y-59229816D01*
X168729816Y-59102262D01*
X168825789Y-58949522D01*
X168885368Y-58779255D01*
X168905565Y-58600000D01*
X168888664Y-58449999D01*
X171694434Y-58449999D01*
X171714631Y-58629251D01*
X171714631Y-58629253D01*
X171714632Y-58629255D01*
X171774211Y-58799522D01*
X171790716Y-58825789D01*
X171870185Y-58952264D01*
X171997735Y-59079814D01*
X171997737Y-59079815D01*
X171997738Y-59079816D01*
X172150478Y-59175789D01*
X172320745Y-59235368D01*
X172500000Y-59255565D01*
X172679255Y-59235368D01*
X172849522Y-59175789D01*
X173002262Y-59079816D01*
X173129816Y-58952262D01*
X173225789Y-58799522D01*
X173285368Y-58629255D01*
X173305565Y-58450000D01*
X173285368Y-58270745D01*
X173225789Y-58100478D01*
X173225488Y-58099999D01*
X177481934Y-58099999D01*
X177502131Y-58279251D01*
X177502131Y-58279253D01*
X177502132Y-58279255D01*
X177561711Y-58449522D01*
X177615321Y-58534841D01*
X177657685Y-58602264D01*
X177785235Y-58729814D01*
X177785237Y-58729815D01*
X177785238Y-58729816D01*
X177937978Y-58825789D01*
X178108245Y-58885368D01*
X178287500Y-58905565D01*
X178466755Y-58885368D01*
X178637022Y-58825789D01*
X178789762Y-58729816D01*
X178917316Y-58602262D01*
X179013289Y-58449522D01*
X179072868Y-58279255D01*
X179093065Y-58100000D01*
X179072868Y-57920745D01*
X179013289Y-57750478D01*
X178917316Y-57597738D01*
X178917315Y-57597737D01*
X178917314Y-57597735D01*
X178789764Y-57470185D01*
X178727367Y-57430979D01*
X178637022Y-57374211D01*
X178466755Y-57314632D01*
X178466753Y-57314631D01*
X178466751Y-57314631D01*
X178287500Y-57294434D01*
X178108248Y-57314631D01*
X178108245Y-57314631D01*
X178108245Y-57314632D01*
X177937978Y-57374211D01*
X177937976Y-57374211D01*
X177937976Y-57374212D01*
X177785235Y-57470185D01*
X177657685Y-57597735D01*
X177565508Y-57744435D01*
X177561711Y-57750478D01*
X177535911Y-57824211D01*
X177502131Y-57920748D01*
X177481934Y-58099999D01*
X173225488Y-58099999D01*
X173129816Y-57947738D01*
X173129815Y-57947737D01*
X173129814Y-57947735D01*
X173002264Y-57820185D01*
X172932453Y-57776320D01*
X172849522Y-57724211D01*
X172679255Y-57664632D01*
X172679253Y-57664631D01*
X172679251Y-57664631D01*
X172500000Y-57644434D01*
X172320748Y-57664631D01*
X172320745Y-57664631D01*
X172320745Y-57664632D01*
X172150478Y-57724211D01*
X172150476Y-57724211D01*
X172150476Y-57724212D01*
X171997735Y-57820185D01*
X171870185Y-57947735D01*
X171774512Y-58099999D01*
X171774211Y-58100478D01*
X171721724Y-58250478D01*
X171714631Y-58270748D01*
X171694434Y-58449999D01*
X168888664Y-58449999D01*
X168885368Y-58420745D01*
X168825789Y-58250478D01*
X168729816Y-58097738D01*
X168729815Y-58097737D01*
X168729814Y-58097735D01*
X168602264Y-57970185D01*
X168522689Y-57920185D01*
X168449522Y-57874211D01*
X168279255Y-57814632D01*
X168279253Y-57814631D01*
X168279251Y-57814631D01*
X168100000Y-57794434D01*
X167920748Y-57814631D01*
X167920745Y-57814631D01*
X167920745Y-57814632D01*
X167750478Y-57874211D01*
X167750476Y-57874211D01*
X167750476Y-57874212D01*
X167597735Y-57970185D01*
X167470185Y-58097735D01*
X167405629Y-58200476D01*
X167374211Y-58250478D01*
X167358830Y-58294434D01*
X167314631Y-58420748D01*
X167294434Y-58599999D01*
X164631296Y-58599999D01*
X164620582Y-58589938D01*
X164603024Y-58580285D01*
X164586764Y-58569604D01*
X164570936Y-58557327D01*
X164530851Y-58539980D01*
X164520361Y-58534841D01*
X164482091Y-58513802D01*
X164462691Y-58508821D01*
X164444284Y-58502519D01*
X164425897Y-58494562D01*
X164382758Y-58487729D01*
X164371324Y-58485361D01*
X164329019Y-58474500D01*
X164308984Y-58474500D01*
X164289586Y-58472973D01*
X164287576Y-58472654D01*
X164269803Y-58469839D01*
X164252573Y-58471468D01*
X164183978Y-58458178D01*
X164174934Y-58453012D01*
X164094608Y-58402541D01*
X164049522Y-58374211D01*
X163879255Y-58314632D01*
X163879253Y-58314631D01*
X163879251Y-58314631D01*
X163700000Y-58294434D01*
X163520748Y-58314631D01*
X163520745Y-58314631D01*
X163520745Y-58314632D01*
X163350478Y-58374211D01*
X163350476Y-58374211D01*
X163350476Y-58374212D01*
X163197735Y-58470185D01*
X163070185Y-58597735D01*
X162974212Y-58750476D01*
X162974211Y-58750478D01*
X162947859Y-58825787D01*
X162914631Y-58920748D01*
X162894434Y-59100000D01*
X162914631Y-59279251D01*
X162914631Y-59279253D01*
X162914632Y-59279255D01*
X162974211Y-59449522D01*
X163018611Y-59520184D01*
X163070185Y-59602264D01*
X163197735Y-59729814D01*
X163197737Y-59729815D01*
X163197738Y-59729816D01*
X163350478Y-59825789D01*
X163520745Y-59885368D01*
X163650600Y-59899999D01*
X163699999Y-59905565D01*
X163699999Y-59905564D01*
X163700000Y-59905565D01*
X163732392Y-59901915D01*
X163786616Y-59895806D01*
X163855438Y-59907860D01*
X163906817Y-59955209D01*
X163924500Y-60019026D01*
X163924500Y-66130973D01*
X163904815Y-66198012D01*
X163852011Y-66243767D01*
X163786617Y-66254193D01*
X163700000Y-66244434D01*
X163520748Y-66264631D01*
X163520745Y-66264631D01*
X163520745Y-66264632D01*
X163350478Y-66324211D01*
X163350476Y-66324211D01*
X163350476Y-66324212D01*
X163197735Y-66420185D01*
X163070185Y-66547735D01*
X162974212Y-66700476D01*
X162974211Y-66700478D01*
X162932128Y-66820745D01*
X162914631Y-66870748D01*
X162894434Y-67049999D01*
X157300500Y-67049999D01*
X157300500Y-62250000D01*
X159444434Y-62250000D01*
X159464631Y-62429251D01*
X159464631Y-62429253D01*
X159464632Y-62429255D01*
X159524211Y-62599522D01*
X159524212Y-62599523D01*
X159620185Y-62752264D01*
X159747735Y-62879814D01*
X159747737Y-62879815D01*
X159747738Y-62879816D01*
X159900478Y-62975789D01*
X160070745Y-63035368D01*
X160250000Y-63055565D01*
X160429255Y-63035368D01*
X160599522Y-62975789D01*
X160752262Y-62879816D01*
X160752265Y-62879812D01*
X160759027Y-62875564D01*
X160826263Y-62856564D01*
X160890971Y-62875564D01*
X160897737Y-62879815D01*
X160897738Y-62879816D01*
X161050478Y-62975789D01*
X161220745Y-63035368D01*
X161400000Y-63055565D01*
X161579255Y-63035368D01*
X161749522Y-62975789D01*
X161902262Y-62879816D01*
X161902263Y-62879814D01*
X161909028Y-62875564D01*
X161976265Y-62856564D01*
X162040972Y-62875564D01*
X162047736Y-62879814D01*
X162047738Y-62879816D01*
X162200478Y-62975789D01*
X162370745Y-63035368D01*
X162550000Y-63055565D01*
X162729255Y-63035368D01*
X162899522Y-62975789D01*
X163052262Y-62879816D01*
X163179816Y-62752262D01*
X163275789Y-62599522D01*
X163335368Y-62429255D01*
X163355565Y-62250000D01*
X163335368Y-62070745D01*
X163275789Y-61900478D01*
X163179816Y-61747738D01*
X163179815Y-61747737D01*
X163179814Y-61747735D01*
X163052264Y-61620185D01*
X162979556Y-61574500D01*
X162899522Y-61524211D01*
X162729255Y-61464632D01*
X162729253Y-61464631D01*
X162729251Y-61464631D01*
X162550000Y-61444434D01*
X162370748Y-61464631D01*
X162370745Y-61464631D01*
X162370745Y-61464632D01*
X162200478Y-61524211D01*
X162200476Y-61524211D01*
X162200476Y-61524212D01*
X162040972Y-61624435D01*
X161973735Y-61643435D01*
X161909028Y-61624435D01*
X161749525Y-61524213D01*
X161749522Y-61524211D01*
X161579255Y-61464632D01*
X161579253Y-61464631D01*
X161579251Y-61464631D01*
X161399999Y-61444434D01*
X161220748Y-61464631D01*
X161220745Y-61464631D01*
X161220745Y-61464632D01*
X161050478Y-61524211D01*
X161050475Y-61524212D01*
X161050474Y-61524213D01*
X160890970Y-61624435D01*
X160823734Y-61643435D01*
X160759027Y-61624435D01*
X160719380Y-61599523D01*
X160599522Y-61524211D01*
X160429255Y-61464632D01*
X160429253Y-61464631D01*
X160429251Y-61464631D01*
X160250000Y-61444434D01*
X160070748Y-61464631D01*
X160070745Y-61464631D01*
X160070745Y-61464632D01*
X159900478Y-61524211D01*
X159900476Y-61524211D01*
X159900476Y-61524212D01*
X159747735Y-61620185D01*
X159620185Y-61747735D01*
X159524212Y-61900476D01*
X159524211Y-61900478D01*
X159484562Y-62013789D01*
X159464631Y-62070748D01*
X159444434Y-62250000D01*
X157300500Y-62250000D01*
X157300500Y-57100000D01*
X182144434Y-57100000D01*
X182164631Y-57279251D01*
X182164631Y-57279253D01*
X182164632Y-57279255D01*
X182224211Y-57449522D01*
X182243245Y-57479814D01*
X182320185Y-57602264D01*
X182447735Y-57729814D01*
X182447737Y-57729815D01*
X182447738Y-57729816D01*
X182600478Y-57825789D01*
X182770745Y-57885368D01*
X182950000Y-57905565D01*
X183129255Y-57885368D01*
X183299522Y-57825789D01*
X183452262Y-57729816D01*
X183579816Y-57602262D01*
X183675789Y-57449522D01*
X183735368Y-57279255D01*
X183755565Y-57100000D01*
X183735368Y-56920745D01*
X183675789Y-56750478D01*
X183579816Y-56597738D01*
X183579815Y-56597737D01*
X183579814Y-56597735D01*
X183452264Y-56470185D01*
X183389867Y-56430979D01*
X183299522Y-56374211D01*
X183129255Y-56314632D01*
X183129253Y-56314631D01*
X183129251Y-56314631D01*
X182950000Y-56294434D01*
X182770748Y-56314631D01*
X182770745Y-56314631D01*
X182770745Y-56314632D01*
X182600478Y-56374211D01*
X182600476Y-56374211D01*
X182600476Y-56374212D01*
X182447735Y-56470185D01*
X182320185Y-56597735D01*
X182224212Y-56750476D01*
X182164631Y-56920748D01*
X182144434Y-57100000D01*
X157300500Y-57100000D01*
X157300500Y-54759999D01*
X157732676Y-54759999D01*
X157751929Y-54980065D01*
X157809106Y-55193451D01*
X157902466Y-55393661D01*
X157902466Y-55393662D01*
X158029174Y-55574620D01*
X158185380Y-55730826D01*
X158366338Y-55857534D01*
X158566550Y-55950894D01*
X158779932Y-56008070D01*
X159000000Y-56027323D01*
X159220068Y-56008070D01*
X159433450Y-55950894D01*
X159633662Y-55857534D01*
X159814620Y-55730826D01*
X159970826Y-55574620D01*
X160097534Y-55393662D01*
X160157618Y-55264810D01*
X160203789Y-55212372D01*
X160270982Y-55193220D01*
X160337863Y-55213435D01*
X160382381Y-55264811D01*
X160442466Y-55393661D01*
X160442466Y-55393662D01*
X160569174Y-55574620D01*
X160725380Y-55730826D01*
X160906338Y-55857534D01*
X161106550Y-55950894D01*
X161319932Y-56008070D01*
X161540000Y-56027323D01*
X161760068Y-56008070D01*
X161973450Y-55950894D01*
X162173662Y-55857534D01*
X162354620Y-55730826D01*
X162510826Y-55574620D01*
X162637534Y-55393662D01*
X162695185Y-55270027D01*
X162697618Y-55264811D01*
X162743790Y-55212372D01*
X162810984Y-55193220D01*
X162877865Y-55213436D01*
X162922382Y-55264811D01*
X162982466Y-55393661D01*
X162982466Y-55393662D01*
X163109174Y-55574620D01*
X163265380Y-55730826D01*
X163446338Y-55857534D01*
X163646550Y-55950894D01*
X163859932Y-56008070D01*
X164080000Y-56027323D01*
X164300068Y-56008070D01*
X164513450Y-55950894D01*
X164713662Y-55857534D01*
X164894620Y-55730826D01*
X165050826Y-55574620D01*
X165177534Y-55393662D01*
X165235185Y-55270027D01*
X165237618Y-55264811D01*
X165283790Y-55212372D01*
X165350984Y-55193220D01*
X165417865Y-55213436D01*
X165462382Y-55264811D01*
X165522466Y-55393661D01*
X165522466Y-55393662D01*
X165649174Y-55574620D01*
X165805380Y-55730826D01*
X165986338Y-55857534D01*
X166186550Y-55950894D01*
X166399932Y-56008070D01*
X166620000Y-56027323D01*
X166840068Y-56008070D01*
X167053450Y-55950894D01*
X167253662Y-55857534D01*
X167434620Y-55730826D01*
X167590826Y-55574620D01*
X167717534Y-55393662D01*
X167775185Y-55270027D01*
X167777618Y-55264811D01*
X167823790Y-55212372D01*
X167890984Y-55193220D01*
X167957865Y-55213436D01*
X168002382Y-55264811D01*
X168062466Y-55393661D01*
X168062466Y-55393662D01*
X168189174Y-55574620D01*
X168345380Y-55730826D01*
X168526338Y-55857534D01*
X168726550Y-55950894D01*
X168939932Y-56008070D01*
X169160000Y-56027323D01*
X169380068Y-56008070D01*
X169593450Y-55950894D01*
X169793662Y-55857534D01*
X169974620Y-55730826D01*
X170130826Y-55574620D01*
X170257534Y-55393662D01*
X170317618Y-55264810D01*
X170363789Y-55212372D01*
X170430982Y-55193220D01*
X170497863Y-55213435D01*
X170542381Y-55264811D01*
X170602466Y-55393661D01*
X170602466Y-55393662D01*
X170729174Y-55574620D01*
X170885380Y-55730826D01*
X171066338Y-55857534D01*
X171266550Y-55950894D01*
X171479932Y-56008070D01*
X171700000Y-56027323D01*
X171920068Y-56008070D01*
X172133450Y-55950894D01*
X172333662Y-55857534D01*
X172514620Y-55730826D01*
X172670826Y-55574620D01*
X172797534Y-55393662D01*
X172855185Y-55270027D01*
X172857618Y-55264811D01*
X172903790Y-55212372D01*
X172970984Y-55193220D01*
X173037865Y-55213436D01*
X173082382Y-55264811D01*
X173142466Y-55393661D01*
X173142466Y-55393662D01*
X173269174Y-55574620D01*
X173425380Y-55730826D01*
X173606338Y-55857534D01*
X173806550Y-55950894D01*
X174019932Y-56008070D01*
X174240000Y-56027323D01*
X174460068Y-56008070D01*
X174673450Y-55950894D01*
X174873662Y-55857534D01*
X175054620Y-55730826D01*
X175210826Y-55574620D01*
X175337534Y-55393662D01*
X175395185Y-55270027D01*
X175397618Y-55264811D01*
X175443790Y-55212372D01*
X175510984Y-55193220D01*
X175577865Y-55213436D01*
X175622382Y-55264811D01*
X175682466Y-55393661D01*
X175682466Y-55393662D01*
X175809174Y-55574620D01*
X175965380Y-55730826D01*
X176146338Y-55857534D01*
X176346550Y-55950894D01*
X176559932Y-56008070D01*
X176780000Y-56027323D01*
X177000068Y-56008070D01*
X177213450Y-55950894D01*
X177413662Y-55857534D01*
X177594620Y-55730826D01*
X177750826Y-55574620D01*
X177877534Y-55393662D01*
X177935185Y-55270027D01*
X177937618Y-55264811D01*
X177983790Y-55212372D01*
X178050984Y-55193220D01*
X178117865Y-55213436D01*
X178162382Y-55264811D01*
X178222466Y-55393661D01*
X178222466Y-55393662D01*
X178349174Y-55574620D01*
X178505380Y-55730826D01*
X178686338Y-55857534D01*
X178886550Y-55950894D01*
X179099932Y-56008070D01*
X179320000Y-56027323D01*
X179540068Y-56008070D01*
X179753450Y-55950894D01*
X179953662Y-55857534D01*
X180134620Y-55730826D01*
X180290826Y-55574620D01*
X180417534Y-55393662D01*
X180477618Y-55264810D01*
X180523789Y-55212372D01*
X180590982Y-55193220D01*
X180657863Y-55213435D01*
X180702381Y-55264811D01*
X180762466Y-55393661D01*
X180762466Y-55393662D01*
X180889174Y-55574620D01*
X181045380Y-55730826D01*
X181226338Y-55857534D01*
X181426550Y-55950894D01*
X181639932Y-56008070D01*
X181860000Y-56027323D01*
X182080068Y-56008070D01*
X182293450Y-55950894D01*
X182493662Y-55857534D01*
X182674620Y-55730826D01*
X182830826Y-55574620D01*
X182957534Y-55393662D01*
X183015185Y-55270027D01*
X183017618Y-55264811D01*
X183063790Y-55212372D01*
X183130984Y-55193220D01*
X183197865Y-55213436D01*
X183242382Y-55264811D01*
X183302466Y-55393661D01*
X183302466Y-55393662D01*
X183429174Y-55574620D01*
X183585380Y-55730826D01*
X183766338Y-55857534D01*
X183966550Y-55950894D01*
X184179932Y-56008070D01*
X184400000Y-56027323D01*
X184620068Y-56008070D01*
X184833450Y-55950894D01*
X185033662Y-55857534D01*
X185214620Y-55730826D01*
X185370826Y-55574620D01*
X185497534Y-55393662D01*
X185555185Y-55270027D01*
X185557618Y-55264811D01*
X185603790Y-55212372D01*
X185670984Y-55193220D01*
X185737865Y-55213436D01*
X185782382Y-55264811D01*
X185842466Y-55393661D01*
X185842466Y-55393662D01*
X185969174Y-55574620D01*
X186125380Y-55730826D01*
X186306338Y-55857534D01*
X186506550Y-55950894D01*
X186719932Y-56008070D01*
X186940000Y-56027323D01*
X187160068Y-56008070D01*
X187373450Y-55950894D01*
X187573662Y-55857534D01*
X187754620Y-55730826D01*
X187910826Y-55574620D01*
X188037534Y-55393662D01*
X188095185Y-55270027D01*
X188097618Y-55264811D01*
X188143790Y-55212372D01*
X188210984Y-55193220D01*
X188277865Y-55213436D01*
X188322382Y-55264811D01*
X188382466Y-55393661D01*
X188382466Y-55393662D01*
X188509174Y-55574620D01*
X188665380Y-55730826D01*
X188846338Y-55857534D01*
X189046550Y-55950894D01*
X189259932Y-56008070D01*
X189480000Y-56027323D01*
X189700068Y-56008070D01*
X189913450Y-55950894D01*
X190113662Y-55857534D01*
X190294620Y-55730826D01*
X190450826Y-55574620D01*
X190577534Y-55393662D01*
X190637618Y-55264810D01*
X190683789Y-55212372D01*
X190750982Y-55193220D01*
X190817863Y-55213435D01*
X190862381Y-55264811D01*
X190922466Y-55393661D01*
X190922466Y-55393662D01*
X191049174Y-55574620D01*
X191205380Y-55730826D01*
X191386338Y-55857534D01*
X191464384Y-55893927D01*
X191516824Y-55940099D01*
X191535976Y-56007292D01*
X191515761Y-56074173D01*
X191462596Y-56119508D01*
X191452941Y-56123348D01*
X191450482Y-56124208D01*
X191297735Y-56220185D01*
X191170185Y-56347735D01*
X191074212Y-56500476D01*
X191014631Y-56670748D01*
X190994434Y-56850000D01*
X191014631Y-57029251D01*
X191014631Y-57029253D01*
X191014632Y-57029255D01*
X191074211Y-57199522D01*
X191074212Y-57199523D01*
X191170185Y-57352264D01*
X191297735Y-57479814D01*
X191297737Y-57479815D01*
X191297738Y-57479816D01*
X191450476Y-57575788D01*
X191450480Y-57575790D01*
X191470967Y-57582959D01*
X191527743Y-57623681D01*
X191553490Y-57688634D01*
X191540033Y-57757195D01*
X191491646Y-57807598D01*
X191470967Y-57817041D01*
X191450480Y-57824209D01*
X191297735Y-57920185D01*
X191170185Y-58047735D01*
X191137046Y-58100476D01*
X191074211Y-58200478D01*
X191041334Y-58294435D01*
X191014631Y-58370748D01*
X190994434Y-58550000D01*
X191014631Y-58729251D01*
X191014631Y-58729253D01*
X191014632Y-58729255D01*
X191074211Y-58899522D01*
X191105628Y-58949522D01*
X191170185Y-59052264D01*
X191297735Y-59179814D01*
X191297737Y-59179815D01*
X191297738Y-59179816D01*
X191450478Y-59275789D01*
X191620745Y-59335368D01*
X191800000Y-59355565D01*
X191979255Y-59335368D01*
X192149522Y-59275789D01*
X192302262Y-59179816D01*
X192429816Y-59052262D01*
X192525789Y-58899522D01*
X192585368Y-58729255D01*
X192605565Y-58550000D01*
X192585368Y-58370745D01*
X192525789Y-58200478D01*
X192429816Y-58047738D01*
X192429815Y-58047737D01*
X192429814Y-58047735D01*
X192302264Y-57920185D01*
X192149522Y-57824211D01*
X192138013Y-57820184D01*
X192129031Y-57817041D01*
X192072257Y-57776320D01*
X192046509Y-57711367D01*
X192059965Y-57642806D01*
X192108352Y-57592403D01*
X192129029Y-57582959D01*
X192149522Y-57575789D01*
X192302262Y-57479816D01*
X192429816Y-57352262D01*
X192525789Y-57199522D01*
X192585368Y-57029255D01*
X192605565Y-56850000D01*
X192585368Y-56670745D01*
X192525789Y-56500478D01*
X192429816Y-56347738D01*
X192429815Y-56347737D01*
X192429814Y-56347735D01*
X192302263Y-56220184D01*
X192287658Y-56211007D01*
X192241368Y-56158671D01*
X192230721Y-56089618D01*
X192259097Y-56025770D01*
X192317488Y-55987399D01*
X192321499Y-55986250D01*
X192453450Y-55950894D01*
X192653662Y-55857534D01*
X192834620Y-55730826D01*
X192990826Y-55574620D01*
X193117534Y-55393662D01*
X193175185Y-55270027D01*
X193177618Y-55264811D01*
X193223790Y-55212372D01*
X193290984Y-55193220D01*
X193357865Y-55213436D01*
X193402382Y-55264811D01*
X193462466Y-55393661D01*
X193462466Y-55393662D01*
X193589174Y-55574620D01*
X193745380Y-55730826D01*
X193926338Y-55857534D01*
X194126550Y-55950894D01*
X194339932Y-56008070D01*
X194560000Y-56027323D01*
X194780068Y-56008070D01*
X194993450Y-55950894D01*
X195193662Y-55857534D01*
X195374620Y-55730826D01*
X195530826Y-55574620D01*
X195657534Y-55393662D01*
X195715185Y-55270027D01*
X195717618Y-55264811D01*
X195763790Y-55212372D01*
X195830984Y-55193220D01*
X195897865Y-55213436D01*
X195942382Y-55264811D01*
X196002466Y-55393661D01*
X196002466Y-55393662D01*
X196129174Y-55574620D01*
X196285380Y-55730826D01*
X196466338Y-55857534D01*
X196666550Y-55950894D01*
X196879932Y-56008070D01*
X197100000Y-56027323D01*
X197320068Y-56008070D01*
X197533450Y-55950894D01*
X197733662Y-55857534D01*
X197914620Y-55730826D01*
X198070826Y-55574620D01*
X198197534Y-55393662D01*
X198255185Y-55270027D01*
X198257618Y-55264811D01*
X198303790Y-55212372D01*
X198370984Y-55193220D01*
X198437865Y-55213436D01*
X198482382Y-55264811D01*
X198542466Y-55393661D01*
X198542466Y-55393662D01*
X198669174Y-55574620D01*
X198825380Y-55730826D01*
X199006338Y-55857534D01*
X199206550Y-55950894D01*
X199419932Y-56008070D01*
X199640000Y-56027323D01*
X199860068Y-56008070D01*
X200073450Y-55950894D01*
X200273662Y-55857534D01*
X200454620Y-55730826D01*
X200610826Y-55574620D01*
X200737534Y-55393662D01*
X200797618Y-55264810D01*
X200843789Y-55212372D01*
X200910982Y-55193220D01*
X200977863Y-55213435D01*
X201022381Y-55264811D01*
X201082466Y-55393661D01*
X201082466Y-55393662D01*
X201209174Y-55574620D01*
X201365380Y-55730826D01*
X201546338Y-55857534D01*
X201746550Y-55950894D01*
X201959932Y-56008070D01*
X202180000Y-56027323D01*
X202400068Y-56008070D01*
X202613450Y-55950894D01*
X202813662Y-55857534D01*
X202994620Y-55730826D01*
X203150826Y-55574620D01*
X203277534Y-55393662D01*
X203335185Y-55270027D01*
X203337618Y-55264811D01*
X203383790Y-55212372D01*
X203450984Y-55193220D01*
X203517865Y-55213436D01*
X203562382Y-55264811D01*
X203622466Y-55393661D01*
X203622466Y-55393662D01*
X203749174Y-55574620D01*
X203905380Y-55730826D01*
X204086338Y-55857534D01*
X204286550Y-55950894D01*
X204499932Y-56008070D01*
X204720000Y-56027323D01*
X204940068Y-56008070D01*
X205153450Y-55950894D01*
X205353662Y-55857534D01*
X205534620Y-55730826D01*
X205690826Y-55574620D01*
X205817534Y-55393662D01*
X205875185Y-55270027D01*
X205877618Y-55264811D01*
X205923790Y-55212372D01*
X205990984Y-55193220D01*
X206057865Y-55213436D01*
X206102382Y-55264811D01*
X206162466Y-55393661D01*
X206162466Y-55393662D01*
X206289174Y-55574620D01*
X206445380Y-55730826D01*
X206626338Y-55857534D01*
X206826550Y-55950894D01*
X207039932Y-56008070D01*
X207260000Y-56027323D01*
X207480068Y-56008070D01*
X207693450Y-55950894D01*
X207893662Y-55857534D01*
X208074620Y-55730826D01*
X208230826Y-55574620D01*
X208357534Y-55393662D01*
X208450894Y-55193450D01*
X208508070Y-54980068D01*
X208527323Y-54760000D01*
X208508070Y-54539932D01*
X208450894Y-54326550D01*
X208357534Y-54126339D01*
X208230826Y-53945380D01*
X208074620Y-53789174D01*
X207893662Y-53662466D01*
X207693451Y-53569106D01*
X207480065Y-53511929D01*
X207260000Y-53492676D01*
X207039934Y-53511929D01*
X206826548Y-53569106D01*
X206626338Y-53662466D01*
X206445379Y-53789174D01*
X206289174Y-53945379D01*
X206162466Y-54126338D01*
X206102382Y-54255189D01*
X206056209Y-54307628D01*
X205989016Y-54326780D01*
X205922135Y-54306564D01*
X205877618Y-54255189D01*
X205860744Y-54219004D01*
X205817534Y-54126339D01*
X205690826Y-53945380D01*
X205534620Y-53789174D01*
X205353662Y-53662466D01*
X205153451Y-53569106D01*
X204940065Y-53511929D01*
X204720000Y-53492676D01*
X204499934Y-53511929D01*
X204286548Y-53569106D01*
X204086338Y-53662466D01*
X203905379Y-53789174D01*
X203749174Y-53945379D01*
X203622466Y-54126338D01*
X203562382Y-54255189D01*
X203516209Y-54307628D01*
X203449016Y-54326780D01*
X203382135Y-54306564D01*
X203337618Y-54255189D01*
X203320744Y-54219004D01*
X203277534Y-54126339D01*
X203150826Y-53945380D01*
X202994620Y-53789174D01*
X202813662Y-53662466D01*
X202613451Y-53569106D01*
X202400065Y-53511929D01*
X202180000Y-53492676D01*
X201959934Y-53511929D01*
X201746548Y-53569106D01*
X201546338Y-53662466D01*
X201365379Y-53789174D01*
X201209174Y-53945379D01*
X201082466Y-54126338D01*
X201022382Y-54255189D01*
X200976209Y-54307628D01*
X200909016Y-54326780D01*
X200842135Y-54306564D01*
X200797618Y-54255189D01*
X200780744Y-54219004D01*
X200737534Y-54126339D01*
X200610826Y-53945380D01*
X200454620Y-53789174D01*
X200273662Y-53662466D01*
X200073451Y-53569106D01*
X199860065Y-53511929D01*
X199640000Y-53492676D01*
X199419934Y-53511929D01*
X199206548Y-53569106D01*
X199006338Y-53662466D01*
X198825379Y-53789174D01*
X198669174Y-53945379D01*
X198542466Y-54126338D01*
X198482382Y-54255189D01*
X198436209Y-54307628D01*
X198369016Y-54326780D01*
X198302135Y-54306564D01*
X198257618Y-54255189D01*
X198240744Y-54219004D01*
X198197534Y-54126339D01*
X198070826Y-53945380D01*
X197914620Y-53789174D01*
X197733662Y-53662466D01*
X197533451Y-53569106D01*
X197320065Y-53511929D01*
X197100000Y-53492676D01*
X196879934Y-53511929D01*
X196666548Y-53569106D01*
X196466338Y-53662466D01*
X196285379Y-53789174D01*
X196129174Y-53945379D01*
X196002466Y-54126338D01*
X195942382Y-54255189D01*
X195896209Y-54307628D01*
X195829016Y-54326780D01*
X195762135Y-54306564D01*
X195717618Y-54255189D01*
X195700744Y-54219004D01*
X195657534Y-54126339D01*
X195530826Y-53945380D01*
X195374620Y-53789174D01*
X195193662Y-53662466D01*
X194993451Y-53569106D01*
X194780065Y-53511929D01*
X194560000Y-53492676D01*
X194339934Y-53511929D01*
X194126548Y-53569106D01*
X193926338Y-53662466D01*
X193745379Y-53789174D01*
X193589174Y-53945379D01*
X193462466Y-54126338D01*
X193402382Y-54255189D01*
X193356209Y-54307628D01*
X193289016Y-54326780D01*
X193222135Y-54306564D01*
X193177618Y-54255189D01*
X193160744Y-54219004D01*
X193117534Y-54126339D01*
X192990826Y-53945380D01*
X192834620Y-53789174D01*
X192653662Y-53662466D01*
X192453451Y-53569106D01*
X192240065Y-53511929D01*
X192020000Y-53492676D01*
X191799934Y-53511929D01*
X191586548Y-53569106D01*
X191386338Y-53662466D01*
X191205379Y-53789174D01*
X191049174Y-53945379D01*
X190922466Y-54126338D01*
X190862382Y-54255189D01*
X190816209Y-54307628D01*
X190749016Y-54326780D01*
X190682135Y-54306564D01*
X190637618Y-54255189D01*
X190620744Y-54219004D01*
X190577534Y-54126339D01*
X190450826Y-53945380D01*
X190294620Y-53789174D01*
X190113662Y-53662466D01*
X189913451Y-53569106D01*
X189700065Y-53511929D01*
X189480000Y-53492676D01*
X189259934Y-53511929D01*
X189046548Y-53569106D01*
X188846338Y-53662466D01*
X188665379Y-53789174D01*
X188509174Y-53945379D01*
X188382466Y-54126338D01*
X188322382Y-54255189D01*
X188276209Y-54307628D01*
X188209016Y-54326780D01*
X188142135Y-54306564D01*
X188097618Y-54255189D01*
X188080744Y-54219004D01*
X188037534Y-54126339D01*
X187910826Y-53945380D01*
X187754620Y-53789174D01*
X187573662Y-53662466D01*
X187373451Y-53569106D01*
X187160065Y-53511929D01*
X186940000Y-53492676D01*
X186719934Y-53511929D01*
X186506548Y-53569106D01*
X186306338Y-53662466D01*
X186125379Y-53789174D01*
X185969174Y-53945379D01*
X185842466Y-54126338D01*
X185782382Y-54255189D01*
X185736209Y-54307628D01*
X185669016Y-54326780D01*
X185602135Y-54306564D01*
X185557618Y-54255189D01*
X185540744Y-54219004D01*
X185497534Y-54126339D01*
X185370826Y-53945380D01*
X185214620Y-53789174D01*
X185033662Y-53662466D01*
X184833451Y-53569106D01*
X184620065Y-53511929D01*
X184400000Y-53492676D01*
X184179934Y-53511929D01*
X183966548Y-53569106D01*
X183766338Y-53662466D01*
X183585379Y-53789174D01*
X183429174Y-53945379D01*
X183302466Y-54126338D01*
X183242382Y-54255189D01*
X183196209Y-54307628D01*
X183129016Y-54326780D01*
X183062135Y-54306564D01*
X183017618Y-54255189D01*
X183000744Y-54219004D01*
X182957534Y-54126339D01*
X182830826Y-53945380D01*
X182674620Y-53789174D01*
X182493662Y-53662466D01*
X182293451Y-53569106D01*
X182080065Y-53511929D01*
X181860000Y-53492676D01*
X181639934Y-53511929D01*
X181426548Y-53569106D01*
X181226338Y-53662466D01*
X181045379Y-53789174D01*
X180889174Y-53945379D01*
X180762466Y-54126338D01*
X180702382Y-54255189D01*
X180656209Y-54307628D01*
X180589016Y-54326780D01*
X180522135Y-54306564D01*
X180477618Y-54255189D01*
X180460744Y-54219004D01*
X180417534Y-54126339D01*
X180290826Y-53945380D01*
X180134620Y-53789174D01*
X179953662Y-53662466D01*
X179753451Y-53569106D01*
X179540065Y-53511929D01*
X179320000Y-53492676D01*
X179099934Y-53511929D01*
X178886548Y-53569106D01*
X178686338Y-53662466D01*
X178505379Y-53789174D01*
X178349174Y-53945379D01*
X178222466Y-54126338D01*
X178162382Y-54255189D01*
X178116209Y-54307628D01*
X178049016Y-54326780D01*
X177982135Y-54306564D01*
X177937618Y-54255189D01*
X177920744Y-54219004D01*
X177877534Y-54126339D01*
X177750826Y-53945380D01*
X177594620Y-53789174D01*
X177413662Y-53662466D01*
X177213451Y-53569106D01*
X177000065Y-53511929D01*
X176780000Y-53492676D01*
X176559934Y-53511929D01*
X176346548Y-53569106D01*
X176146338Y-53662466D01*
X175965379Y-53789174D01*
X175809174Y-53945379D01*
X175682466Y-54126338D01*
X175622382Y-54255189D01*
X175576209Y-54307628D01*
X175509016Y-54326780D01*
X175442135Y-54306564D01*
X175397618Y-54255189D01*
X175380744Y-54219004D01*
X175337534Y-54126339D01*
X175210826Y-53945380D01*
X175054620Y-53789174D01*
X174873662Y-53662466D01*
X174873661Y-53662466D01*
X174673451Y-53569106D01*
X174460065Y-53511929D01*
X174240000Y-53492676D01*
X174019934Y-53511929D01*
X173806548Y-53569106D01*
X173606338Y-53662466D01*
X173425379Y-53789174D01*
X173269174Y-53945379D01*
X173142466Y-54126338D01*
X173082382Y-54255189D01*
X173036209Y-54307628D01*
X172969016Y-54326780D01*
X172902135Y-54306564D01*
X172857618Y-54255189D01*
X172840744Y-54219004D01*
X172797534Y-54126339D01*
X172670826Y-53945380D01*
X172514620Y-53789174D01*
X172333662Y-53662466D01*
X172333661Y-53662466D01*
X172133451Y-53569106D01*
X171920065Y-53511929D01*
X171700000Y-53492676D01*
X171479934Y-53511929D01*
X171266548Y-53569106D01*
X171066338Y-53662466D01*
X170885379Y-53789174D01*
X170729174Y-53945379D01*
X170602466Y-54126338D01*
X170542382Y-54255189D01*
X170496209Y-54307628D01*
X170429016Y-54326780D01*
X170362135Y-54306564D01*
X170317618Y-54255189D01*
X170300744Y-54219004D01*
X170257534Y-54126339D01*
X170130826Y-53945380D01*
X169974620Y-53789174D01*
X169793662Y-53662466D01*
X169793661Y-53662466D01*
X169593451Y-53569106D01*
X169380065Y-53511929D01*
X169160000Y-53492676D01*
X168939934Y-53511929D01*
X168726548Y-53569106D01*
X168526338Y-53662466D01*
X168345379Y-53789174D01*
X168189174Y-53945379D01*
X168062466Y-54126338D01*
X168002382Y-54255189D01*
X167956209Y-54307628D01*
X167889016Y-54326780D01*
X167822135Y-54306564D01*
X167777618Y-54255189D01*
X167760744Y-54219004D01*
X167717534Y-54126339D01*
X167590826Y-53945380D01*
X167434620Y-53789174D01*
X167253662Y-53662466D01*
X167253661Y-53662466D01*
X167053451Y-53569106D01*
X166840065Y-53511929D01*
X166620000Y-53492676D01*
X166399934Y-53511929D01*
X166186548Y-53569106D01*
X165986338Y-53662466D01*
X165805379Y-53789174D01*
X165649174Y-53945379D01*
X165522466Y-54126338D01*
X165462382Y-54255189D01*
X165416209Y-54307628D01*
X165349016Y-54326780D01*
X165282135Y-54306564D01*
X165237618Y-54255189D01*
X165220744Y-54219004D01*
X165177534Y-54126339D01*
X165050826Y-53945380D01*
X164894620Y-53789174D01*
X164713662Y-53662466D01*
X164713661Y-53662466D01*
X164513451Y-53569106D01*
X164300065Y-53511929D01*
X164080000Y-53492676D01*
X163859934Y-53511929D01*
X163646548Y-53569106D01*
X163446338Y-53662466D01*
X163265379Y-53789174D01*
X163109174Y-53945379D01*
X162982466Y-54126338D01*
X162922382Y-54255189D01*
X162876209Y-54307628D01*
X162809016Y-54326780D01*
X162742135Y-54306564D01*
X162697618Y-54255189D01*
X162680744Y-54219004D01*
X162637534Y-54126339D01*
X162510826Y-53945380D01*
X162354620Y-53789174D01*
X162173662Y-53662466D01*
X162173661Y-53662466D01*
X161973451Y-53569106D01*
X161760065Y-53511929D01*
X161540000Y-53492676D01*
X161319934Y-53511929D01*
X161106548Y-53569106D01*
X160906338Y-53662466D01*
X160725379Y-53789174D01*
X160569174Y-53945379D01*
X160442466Y-54126338D01*
X160382382Y-54255189D01*
X160336209Y-54307628D01*
X160269016Y-54326780D01*
X160202135Y-54306564D01*
X160157618Y-54255189D01*
X160140744Y-54219004D01*
X160097534Y-54126339D01*
X159970826Y-53945380D01*
X159814620Y-53789174D01*
X159633662Y-53662466D01*
X159633661Y-53662466D01*
X159433451Y-53569106D01*
X159220065Y-53511929D01*
X159000000Y-53492676D01*
X158779934Y-53511929D01*
X158566548Y-53569106D01*
X158366338Y-53662466D01*
X158185379Y-53789174D01*
X158029174Y-53945379D01*
X157902466Y-54126338D01*
X157809106Y-54326548D01*
X157751929Y-54539934D01*
X157732676Y-54759999D01*
X157300500Y-54759999D01*
X157300500Y-53255975D01*
X157300836Y-53246855D01*
X157301163Y-53242419D01*
X157304482Y-53204481D01*
X157314092Y-53106913D01*
X157314829Y-53100938D01*
X157320697Y-53061383D01*
X157323065Y-53049482D01*
X157325330Y-53040442D01*
X157337906Y-52993507D01*
X157338952Y-52989844D01*
X157360945Y-52917342D01*
X157362846Y-52911589D01*
X157362854Y-52911568D01*
X157373024Y-52883140D01*
X157377372Y-52872563D01*
X157403686Y-52816132D01*
X157406683Y-52810136D01*
X157443903Y-52740504D01*
X157446848Y-52735303D01*
X157456354Y-52719443D01*
X157461093Y-52712138D01*
X157499645Y-52657081D01*
X157505317Y-52649604D01*
X157559741Y-52583288D01*
X157563669Y-52578734D01*
X157566805Y-52575274D01*
X157570925Y-52570947D01*
X157620947Y-52520925D01*
X157625274Y-52516805D01*
X157628734Y-52513669D01*
X157633293Y-52509738D01*
X157633311Y-52509723D01*
X157699604Y-52455317D01*
X157707081Y-52449645D01*
X157762138Y-52411093D01*
X157769443Y-52406354D01*
X157785303Y-52396848D01*
X157790504Y-52393903D01*
X157860136Y-52356683D01*
X157866132Y-52353686D01*
X157922563Y-52327372D01*
X157933140Y-52323024D01*
X157961594Y-52312844D01*
X157967342Y-52310945D01*
X158039844Y-52288952D01*
X158043523Y-52287901D01*
X158090456Y-52275326D01*
X158099698Y-52273011D01*
X158111309Y-52270708D01*
X158150913Y-52264833D01*
X158156938Y-52264090D01*
X158254533Y-52254477D01*
X158292416Y-52251163D01*
X158297190Y-52250811D01*
X158305889Y-52250500D01*
X207894023Y-52250500D01*
X207903139Y-52250835D01*
G37*
%TD.AperFunction*%
%TD*%
M02*
