%TF.GenerationSoftware,KiCad,Pcbnew,7.0.2*%
%TF.CreationDate,2023-06-20T04:44:57+07:00*%
%TF.ProjectId,STM32L431RCT6_prototype_board,53544d33-324c-4343-9331-524354365f70,rev?*%
%TF.SameCoordinates,Original*%
%TF.FileFunction,Copper,L1,Top*%
%TF.FilePolarity,Positive*%
%FSLAX46Y46*%
G04 Gerber Fmt 4.6, Leading zero omitted, Abs format (unit mm)*
G04 Created by KiCad (PCBNEW 7.0.2) date 2023-06-20 04:44:57*
%MOMM*%
%LPD*%
G01*
G04 APERTURE LIST*
G04 Aperture macros list*
%AMRoundRect*
0 Rectangle with rounded corners*
0 $1 Rounding radius*
0 $2 $3 $4 $5 $6 $7 $8 $9 X,Y pos of 4 corners*
0 Add a 4 corners polygon primitive as box body*
4,1,4,$2,$3,$4,$5,$6,$7,$8,$9,$2,$3,0*
0 Add four circle primitives for the rounded corners*
1,1,$1+$1,$2,$3*
1,1,$1+$1,$4,$5*
1,1,$1+$1,$6,$7*
1,1,$1+$1,$8,$9*
0 Add four rect primitives between the rounded corners*
20,1,$1+$1,$2,$3,$4,$5,0*
20,1,$1+$1,$4,$5,$6,$7,0*
20,1,$1+$1,$6,$7,$8,$9,0*
20,1,$1+$1,$8,$9,$2,$3,0*%
G04 Aperture macros list end*
%TA.AperFunction,SMDPad,CuDef*%
%ADD10RoundRect,0.225000X0.225000X0.250000X-0.225000X0.250000X-0.225000X-0.250000X0.225000X-0.250000X0*%
%TD*%
%TA.AperFunction,SMDPad,CuDef*%
%ADD11RoundRect,0.225000X-0.225000X-0.250000X0.225000X-0.250000X0.225000X0.250000X-0.225000X0.250000X0*%
%TD*%
%TA.AperFunction,SMDPad,CuDef*%
%ADD12RoundRect,0.200000X0.200000X0.275000X-0.200000X0.275000X-0.200000X-0.275000X0.200000X-0.275000X0*%
%TD*%
%TA.AperFunction,SMDPad,CuDef*%
%ADD13R,0.800000X0.500000*%
%TD*%
%TA.AperFunction,SMDPad,CuDef*%
%ADD14R,0.800000X0.400000*%
%TD*%
%TA.AperFunction,SMDPad,CuDef*%
%ADD15RoundRect,0.225000X-0.250000X0.225000X-0.250000X-0.225000X0.250000X-0.225000X0.250000X0.225000X0*%
%TD*%
%TA.AperFunction,SMDPad,CuDef*%
%ADD16R,1.000000X2.700000*%
%TD*%
%TA.AperFunction,SMDPad,CuDef*%
%ADD17RoundRect,0.200000X-0.200000X-0.275000X0.200000X-0.275000X0.200000X0.275000X-0.200000X0.275000X0*%
%TD*%
%TA.AperFunction,SMDPad,CuDef*%
%ADD18R,1.400000X1.200000*%
%TD*%
%TA.AperFunction,SMDPad,CuDef*%
%ADD19RoundRect,0.225000X0.250000X-0.225000X0.250000X0.225000X-0.250000X0.225000X-0.250000X-0.225000X0*%
%TD*%
%TA.AperFunction,ComponentPad*%
%ADD20C,1.524000*%
%TD*%
%TA.AperFunction,SMDPad,CuDef*%
%ADD21R,3.150000X1.000000*%
%TD*%
%TA.AperFunction,SMDPad,CuDef*%
%ADD22RoundRect,0.200000X0.275000X-0.200000X0.275000X0.200000X-0.275000X0.200000X-0.275000X-0.200000X0*%
%TD*%
%TA.AperFunction,SMDPad,CuDef*%
%ADD23RoundRect,0.150000X0.512500X0.150000X-0.512500X0.150000X-0.512500X-0.150000X0.512500X-0.150000X0*%
%TD*%
%TA.AperFunction,SMDPad,CuDef*%
%ADD24RoundRect,0.218750X0.218750X0.256250X-0.218750X0.256250X-0.218750X-0.256250X0.218750X-0.256250X0*%
%TD*%
%TA.AperFunction,SMDPad,CuDef*%
%ADD25RoundRect,0.075000X-0.662500X-0.075000X0.662500X-0.075000X0.662500X0.075000X-0.662500X0.075000X0*%
%TD*%
%TA.AperFunction,SMDPad,CuDef*%
%ADD26RoundRect,0.075000X-0.075000X-0.662500X0.075000X-0.662500X0.075000X0.662500X-0.075000X0.662500X0*%
%TD*%
%TA.AperFunction,SMDPad,CuDef*%
%ADD27RoundRect,0.218750X-0.218750X-0.256250X0.218750X-0.256250X0.218750X0.256250X-0.218750X0.256250X0*%
%TD*%
%TA.AperFunction,SMDPad,CuDef*%
%ADD28R,1.300000X1.550000*%
%TD*%
%TA.AperFunction,ViaPad*%
%ADD29C,0.600000*%
%TD*%
%TA.AperFunction,Conductor*%
%ADD30C,0.200000*%
%TD*%
%TA.AperFunction,Conductor*%
%ADD31C,0.250000*%
%TD*%
%TA.AperFunction,Conductor*%
%ADD32C,0.300000*%
%TD*%
%TA.AperFunction,Conductor*%
%ADD33C,0.400000*%
%TD*%
%TA.AperFunction,Conductor*%
%ADD34C,0.500000*%
%TD*%
G04 APERTURE END LIST*
D10*
%TO.P,C10,1*%
%TO.N,+3V3*%
X172475000Y-58500000D03*
%TO.P,C10,2*%
%TO.N,Net-(U2-FB)*%
X170925000Y-58500000D03*
%TD*%
D11*
%TO.P,C11,1*%
%TO.N,+3V3*%
X170925000Y-67000000D03*
%TO.P,C11,2*%
%TO.N,GND*%
X172475000Y-67000000D03*
%TD*%
D12*
%TO.P,R4,1*%
%TO.N,+3V3*%
X172525000Y-60100000D03*
%TO.P,R4,2*%
%TO.N,Net-(U2-FB)*%
X170875000Y-60100000D03*
%TD*%
D10*
%TO.P,C6,1*%
%TO.N,+3V3*%
X181875000Y-57075000D03*
%TO.P,C6,2*%
%TO.N,GND*%
X180325000Y-57075000D03*
%TD*%
D13*
%TO.P,RN1,1,R1.1*%
%TO.N,Net-(J1-Pin_2)*%
X195850000Y-62550000D03*
D14*
%TO.P,RN1,2,R2.1*%
%TO.N,Net-(J1-Pin_4)*%
X195850000Y-61750000D03*
%TO.P,RN1,3,R3.1*%
%TO.N,Net-(J1-Pin_5)*%
X195850000Y-60950000D03*
D13*
%TO.P,RN1,4,R4.1*%
%TO.N,Net-(J1-Pin_6)*%
X195850000Y-60150000D03*
%TO.P,RN1,5,R4.2*%
%TO.N,SYS_JTDO-SWO*%
X194050000Y-60150000D03*
D14*
%TO.P,RN1,6,R3.2*%
%TO.N,NRST*%
X194050000Y-60950000D03*
%TO.P,RN1,7,R2.2*%
%TO.N,SYS_JTMS-SWDIO*%
X194050000Y-61750000D03*
D13*
%TO.P,RN1,8,R1.2*%
%TO.N,SYS_JTCK-SWCLK*%
X194050000Y-62550000D03*
%TD*%
D11*
%TO.P,C5,1*%
%TO.N,+3V3*%
X191825000Y-58575000D03*
%TO.P,C5,2*%
%TO.N,GND*%
X193375000Y-58575000D03*
%TD*%
D15*
%TO.P,C12,1*%
%TO.N,+3V3*%
X174300000Y-65425000D03*
%TO.P,C12,2*%
%TO.N,GND*%
X174300000Y-66975000D03*
%TD*%
D16*
%TO.P,L1,1*%
%TO.N,Net-(U2-LX)*%
X170400000Y-64400000D03*
%TO.P,L1,2*%
%TO.N,+3V3*%
X172600000Y-64400000D03*
%TD*%
D17*
%TO.P,R2,1*%
%TO.N,BOOT0*%
X191775000Y-56900000D03*
%TO.P,R2,2*%
%TO.N,GND*%
X193425000Y-56900000D03*
%TD*%
D18*
%TO.P,Y1,1,1*%
%TO.N,Net-(C2-Pad1)*%
X176400000Y-63125000D03*
%TO.P,Y1,2,2*%
%TO.N,GND*%
X178600000Y-63125000D03*
%TO.P,Y1,3,3*%
%TO.N,HSE_IN*%
X178600000Y-61425000D03*
%TO.P,Y1,4,4*%
%TO.N,GND*%
X176400000Y-61425000D03*
%TD*%
D19*
%TO.P,C2,1*%
%TO.N,Net-(C2-Pad1)*%
X174500000Y-63050000D03*
%TO.P,C2,2*%
%TO.N,GND*%
X174500000Y-61500000D03*
%TD*%
D12*
%TO.P,R6,1,1*%
%TO.N,GND*%
X168125000Y-60200000D03*
%TO.P,R6,2,2*%
%TO.N,Net-(LED1-K)*%
X166475000Y-60200000D03*
%TD*%
D20*
%TO.P,J2,1,Pin_1*%
%TO.N,unconnected-(J2-Pin_1-Pad1)*%
X159000000Y-70000000D03*
%TO.P,J2,2,Pin_2*%
%TO.N,unconnected-(J2-Pin_2-Pad2)*%
X161540000Y-70000000D03*
%TO.P,J2,3,Pin_3*%
%TO.N,PA0*%
X164080000Y-70000000D03*
%TO.P,J2,4,Pin_4*%
%TO.N,PA1*%
X166620000Y-70000000D03*
%TO.P,J2,5,Pin_5*%
%TO.N,PA2*%
X169160000Y-70000000D03*
%TO.P,J2,6,Pin_6*%
%TO.N,PA3*%
X171700000Y-70000000D03*
%TO.P,J2,7,Pin_7*%
%TO.N,PA4*%
X174240000Y-70000000D03*
%TO.P,J2,8,Pin_8*%
%TO.N,PA5*%
X176780000Y-70000000D03*
%TO.P,J2,9,Pin_9*%
%TO.N,PA6*%
X179320000Y-70000000D03*
%TO.P,J2,10,Pin_10*%
%TO.N,PA7*%
X181860000Y-70000000D03*
%TO.P,J2,11,Pin_11*%
%TO.N,PB0*%
X184400000Y-70000000D03*
%TO.P,J2,12,Pin_12*%
%TO.N,PB1*%
X186940000Y-70000000D03*
%TO.P,J2,13,Pin_13*%
%TO.N,PB2*%
X189480000Y-70000000D03*
%TO.P,J2,14,Pin_14*%
%TO.N,PB10*%
X192020000Y-70000000D03*
%TO.P,J2,15,Pin_15*%
%TO.N,PB11*%
X194560000Y-70000000D03*
%TO.P,J2,16,Pin_16*%
%TO.N,PB12*%
X197100000Y-70000000D03*
%TO.P,J2,17,Pin_17*%
%TO.N,PB13*%
X199640000Y-70000000D03*
%TO.P,J2,18,Pin_18*%
%TO.N,PB14*%
X202180000Y-70000000D03*
%TO.P,J2,19,Pin_19*%
%TO.N,PB15*%
X204720000Y-70000000D03*
%TO.P,J2,20,Pin_20*%
%TO.N,GND*%
X207260000Y-70000000D03*
%TO.P,J2,21,Pin_21*%
%TO.N,unconnected-(J2-Pin_21-Pad21)*%
X207260000Y-54760000D03*
%TO.P,J2,22,Pin_22*%
%TO.N,BOOT0*%
X204720000Y-54760000D03*
%TO.P,J2,23,Pin_23*%
%TO.N,PA8*%
X202180000Y-54760000D03*
%TO.P,J2,24,Pin_24*%
%TO.N,PA9*%
X199640000Y-54760000D03*
%TO.P,J2,25,Pin_25*%
%TO.N,PA10*%
X197100000Y-54760000D03*
%TO.P,J2,26,Pin_26*%
%TO.N,PA11*%
X194560000Y-54760000D03*
%TO.P,J2,27,Pin_27*%
%TO.N,PA12*%
X192020000Y-54760000D03*
%TO.P,J2,28,Pin_28*%
%TO.N,PA15*%
X189480000Y-54760000D03*
%TO.P,J2,29,Pin_29*%
%TO.N,PB4*%
X186940000Y-54760000D03*
%TO.P,J2,30,Pin_30*%
%TO.N,PB5*%
X184400000Y-54760000D03*
%TO.P,J2,31,Pin_31*%
%TO.N,PB6*%
X181860000Y-54760000D03*
%TO.P,J2,32,Pin_32*%
%TO.N,PB7*%
X179320000Y-54760000D03*
%TO.P,J2,33,Pin_33*%
%TO.N,PB8*%
X176780000Y-54760000D03*
%TO.P,J2,34,Pin_34*%
%TO.N,PB9*%
X174240000Y-54760000D03*
%TO.P,J2,35,Pin_35*%
%TO.N,PC14*%
X171700000Y-54760000D03*
%TO.P,J2,36,Pin_36*%
%TO.N,PC15*%
X169160000Y-54760000D03*
%TO.P,J2,37,Pin_37*%
%TO.N,+3V3*%
X166620000Y-54760000D03*
%TO.P,J2,38,Pin_38*%
%TO.N,NRST*%
X164080000Y-54760000D03*
%TO.P,J2,39,Pin_39*%
%TO.N,unconnected-(J2-Pin_39-Pad39)*%
X161540000Y-54760000D03*
%TO.P,J2,40,Pin_40*%
%TO.N,+5V*%
X159000000Y-54760000D03*
%TD*%
D21*
%TO.P,J1,1,Pin_1*%
%TO.N,+3V3*%
X205025000Y-64580000D03*
%TO.P,J1,2,Pin_2*%
%TO.N,Net-(J1-Pin_2)*%
X199975000Y-64580000D03*
%TO.P,J1,3,Pin_3*%
%TO.N,GND*%
X205025000Y-62040000D03*
%TO.P,J1,4,Pin_4*%
%TO.N,Net-(J1-Pin_4)*%
X199975000Y-62040000D03*
%TO.P,J1,5,Pin_5*%
%TO.N,Net-(J1-Pin_5)*%
X205025000Y-59500000D03*
%TO.P,J1,6,Pin_6*%
%TO.N,Net-(J1-Pin_6)*%
X199975000Y-59500000D03*
%TD*%
D11*
%TO.P,C9,1*%
%TO.N,/+5.0V*%
X166525000Y-61800000D03*
%TO.P,C9,2*%
%TO.N,GND*%
X168075000Y-61800000D03*
%TD*%
D22*
%TO.P,R7,1,1*%
%TO.N,GND*%
X174500000Y-59825000D03*
%TO.P,R7,2,2*%
%TO.N,Net-(LED2-K)*%
X174500000Y-58175000D03*
%TD*%
D10*
%TO.P,C1,1*%
%TO.N,HSE_IN*%
X178275000Y-59675000D03*
%TO.P,C1,2*%
%TO.N,GND*%
X176725000Y-59675000D03*
%TD*%
D23*
%TO.P,U2,1,EN*%
%TO.N,/+5.0V*%
X168600000Y-65300000D03*
%TO.P,U2,2,GND*%
%TO.N,GND*%
X168600000Y-64350000D03*
%TO.P,U2,3,LX*%
%TO.N,Net-(U2-LX)*%
X168600000Y-63400000D03*
%TO.P,U2,4,IN*%
%TO.N,/+5.0V*%
X166325000Y-63400000D03*
%TO.P,U2,5,FB*%
%TO.N,Net-(U2-FB)*%
X166325000Y-65300000D03*
%TD*%
D17*
%TO.P,R3,1,1*%
%TO.N,NRST*%
X162525000Y-57050000D03*
%TO.P,R3,2,2*%
%TO.N,+3V3*%
X164175000Y-57050000D03*
%TD*%
D11*
%TO.P,C8,1*%
%TO.N,NRST*%
X166625000Y-67000000D03*
%TO.P,C8,2*%
%TO.N,GND*%
X168175000Y-67000000D03*
%TD*%
D24*
%TO.P,LED1,1,K*%
%TO.N,Net-(LED1-K)*%
X166512500Y-58600000D03*
%TO.P,LED1,2,A*%
%TO.N,+3V3*%
X168087500Y-58600000D03*
%TD*%
D11*
%TO.P,C4,1*%
%TO.N,+3V3*%
X191025000Y-67275000D03*
%TO.P,C4,2*%
%TO.N,GND*%
X192575000Y-67275000D03*
%TD*%
D15*
%TO.P,C7,1*%
%TO.N,+3.3VA*%
X180400000Y-65300000D03*
%TO.P,C7,2*%
%TO.N,GND*%
X180400000Y-66850000D03*
%TD*%
D10*
%TO.P,C3,1*%
%TO.N,+BATT*%
X181875000Y-58575000D03*
%TO.P,C3,2*%
%TO.N,GND*%
X180325000Y-58575000D03*
%TD*%
D12*
%TO.P,R1,1*%
%TO.N,HSE_OUT*%
X178325000Y-64975000D03*
%TO.P,R1,2*%
%TO.N,Net-(C2-Pad1)*%
X176675000Y-64975000D03*
%TD*%
D25*
%TO.P,U1,1,VBAT*%
%TO.N,+BATT*%
X182487500Y-59887500D03*
%TO.P,U1,2,PC13*%
%TO.N,HEART_BEAT*%
X182487500Y-60387500D03*
%TO.P,U1,3,PC14*%
%TO.N,PC14*%
X182487500Y-60887500D03*
%TO.P,U1,4,PC15*%
%TO.N,PC15*%
X182487500Y-61387500D03*
%TO.P,U1,5,PH0*%
%TO.N,HSE_IN*%
X182487500Y-61887500D03*
%TO.P,U1,6,PH1*%
%TO.N,HSE_OUT*%
X182487500Y-62387500D03*
%TO.P,U1,7,NRST*%
%TO.N,NRST*%
X182487500Y-62887500D03*
%TO.P,U1,8,VSSA*%
%TO.N,GND*%
X182487500Y-63387500D03*
%TO.P,U1,9,VDDA*%
%TO.N,+3.3VA*%
X182487500Y-63887500D03*
%TO.P,U1,10,PA0*%
%TO.N,PA0*%
X182487500Y-64387500D03*
%TO.P,U1,11,PA1*%
%TO.N,PA1*%
X182487500Y-64887500D03*
%TO.P,U1,12,PA2*%
%TO.N,PA2*%
X182487500Y-65387500D03*
D26*
%TO.P,U1,13,PA3*%
%TO.N,PA3*%
X183900000Y-66800000D03*
%TO.P,U1,14,PA4*%
%TO.N,PA4*%
X184400000Y-66800000D03*
%TO.P,U1,15,PA5*%
%TO.N,PA5*%
X184900000Y-66800000D03*
%TO.P,U1,16,PA6*%
%TO.N,PA6*%
X185400000Y-66800000D03*
%TO.P,U1,17,PA7*%
%TO.N,PA7*%
X185900000Y-66800000D03*
%TO.P,U1,18,PB0*%
%TO.N,PB0*%
X186400000Y-66800000D03*
%TO.P,U1,19,PB1*%
%TO.N,PB1*%
X186900000Y-66800000D03*
%TO.P,U1,20,PB2*%
%TO.N,PB2*%
X187400000Y-66800000D03*
%TO.P,U1,21,PB10*%
%TO.N,PB10*%
X187900000Y-66800000D03*
%TO.P,U1,22,PB11*%
%TO.N,PB11*%
X188400000Y-66800000D03*
%TO.P,U1,23,VSS*%
%TO.N,GND*%
X188900000Y-66800000D03*
%TO.P,U1,24,VDD*%
%TO.N,+3V3*%
X189400000Y-66800000D03*
D25*
%TO.P,U1,25,PB12*%
%TO.N,PB12*%
X190812500Y-65387500D03*
%TO.P,U1,26,PB13*%
%TO.N,PB13*%
X190812500Y-64887500D03*
%TO.P,U1,27,PB14*%
%TO.N,PB14*%
X190812500Y-64387500D03*
%TO.P,U1,28,PB15*%
%TO.N,PB15*%
X190812500Y-63887500D03*
%TO.P,U1,29,PA8*%
%TO.N,PA8*%
X190812500Y-63387500D03*
%TO.P,U1,30,PA9*%
%TO.N,PA9*%
X190812500Y-62887500D03*
%TO.P,U1,31,PA10*%
%TO.N,PA10*%
X190812500Y-62387500D03*
%TO.P,U1,32,PA11*%
%TO.N,PA11*%
X190812500Y-61887500D03*
%TO.P,U1,33,PA12*%
%TO.N,PA12*%
X190812500Y-61387500D03*
%TO.P,U1,34,PA13*%
%TO.N,SYS_JTMS-SWDIO*%
X190812500Y-60887500D03*
%TO.P,U1,35,VSS*%
%TO.N,GND*%
X190812500Y-60387500D03*
%TO.P,U1,36,VDD*%
%TO.N,+3V3*%
X190812500Y-59887500D03*
D26*
%TO.P,U1,37,PA14*%
%TO.N,SYS_JTCK-SWCLK*%
X189400000Y-58475000D03*
%TO.P,U1,38,PA15*%
%TO.N,PA15*%
X188900000Y-58475000D03*
%TO.P,U1,39,PB3*%
%TO.N,SYS_JTDO-SWO*%
X188400000Y-58475000D03*
%TO.P,U1,40,PB4*%
%TO.N,PB4*%
X187900000Y-58475000D03*
%TO.P,U1,41,PB5*%
%TO.N,PB5*%
X187400000Y-58475000D03*
%TO.P,U1,42,PB6*%
%TO.N,PB6*%
X186900000Y-58475000D03*
%TO.P,U1,43,PB7*%
%TO.N,PB7*%
X186400000Y-58475000D03*
%TO.P,U1,44,PH3*%
%TO.N,BOOT0*%
X185900000Y-58475000D03*
%TO.P,U1,45,PB8*%
%TO.N,PB8*%
X185400000Y-58475000D03*
%TO.P,U1,46,PB9*%
%TO.N,PB9*%
X184900000Y-58475000D03*
%TO.P,U1,47,VSS*%
%TO.N,GND*%
X184400000Y-58475000D03*
%TO.P,U1,48,VDD*%
%TO.N,+3V3*%
X183900000Y-58475000D03*
%TD*%
D17*
%TO.P,R5,1*%
%TO.N,Net-(U2-FB)*%
X170875000Y-61700000D03*
%TO.P,R5,2*%
%TO.N,GND*%
X172525000Y-61700000D03*
%TD*%
D27*
%TO.P,FB1,1*%
%TO.N,+3V3*%
X176712500Y-66575000D03*
%TO.P,FB1,2*%
%TO.N,+3.3VA*%
X178287500Y-66575000D03*
%TD*%
D24*
%TO.P,LED2,1,K*%
%TO.N,Net-(LED2-K)*%
X176712500Y-58100000D03*
%TO.P,LED2,2,A*%
%TO.N,HEART_BEAT*%
X178287500Y-58100000D03*
%TD*%
D28*
%TO.P,S1,1,1*%
%TO.N,GND*%
X159200140Y-67049950D03*
%TO.P,S1,2,2*%
X159200140Y-59100000D03*
%TO.P,S1,3,3*%
%TO.N,NRST*%
X163700000Y-67049950D03*
%TO.P,S1,4,4*%
X163700000Y-59100000D03*
%TD*%
D29*
%TO.N,GND*%
X193375000Y-58575000D03*
X187700000Y-65050000D03*
X193800000Y-67250000D03*
X187450000Y-63550000D03*
X188750000Y-62650000D03*
X172500000Y-61700000D03*
X169450000Y-58900000D03*
X175050000Y-56850000D03*
X163400000Y-64350000D03*
X185300000Y-63850000D03*
X186950000Y-60700000D03*
X183900000Y-65450000D03*
X205000000Y-62000000D03*
X184300500Y-59610893D03*
%TO.N,+3V3*%
X182950000Y-57100000D03*
X205050000Y-64600000D03*
X172600000Y-65400000D03*
X172500000Y-58450000D03*
X191800000Y-58550000D03*
X172600000Y-63500000D03*
X168100000Y-58600000D03*
X172600000Y-64450000D03*
X191000000Y-67250000D03*
%TO.N,NRST*%
X184055849Y-62404523D03*
X166650000Y-67000000D03*
X163700000Y-59100000D03*
X163700000Y-67050000D03*
X194050000Y-60950000D03*
%TO.N,/+5.0V*%
X166500000Y-61800000D03*
X168600000Y-65300000D03*
X160250000Y-62250000D03*
X161400000Y-62250000D03*
X162550000Y-62250000D03*
%TO.N,Net-(U2-FB)*%
X166449500Y-65290215D03*
X170875000Y-60100000D03*
%TO.N,BOOT0*%
X191800000Y-56850000D03*
X186100000Y-59800000D03*
%TO.N,SYS_JTDO-SWO*%
X194050000Y-60150000D03*
X187864092Y-59814092D03*
%TO.N,SYS_JTCK-SWCLK*%
X194850000Y-64150000D03*
X189350000Y-64200000D03*
%TO.N,HEART_BEAT*%
X181200000Y-59900000D03*
X178287500Y-58100000D03*
%TO.N,PC15*%
X180050000Y-61288000D03*
%TO.N,PC14*%
X180300000Y-60500000D03*
%TO.N,PB8*%
X185350000Y-61650000D03*
%TO.N,PB9*%
X183950000Y-61250000D03*
%TO.N,PA0*%
X181100000Y-64500000D03*
%TO.N,PA1*%
X183750000Y-64000000D03*
%TO.N,PA2*%
X181900000Y-66300000D03*
%TO.N,PA6*%
X185150000Y-65500000D03*
%TO.N,PA7*%
X186050000Y-65550000D03*
%TO.N,PA8*%
X193703497Y-63474632D03*
%TO.N,PA9*%
X193150000Y-62875132D03*
%TO.N,PA10*%
X192337772Y-62350481D03*
%TO.N,PA11*%
X192530276Y-61574500D03*
%TD*%
D30*
%TO.N,HSE_IN*%
X178275000Y-59675000D02*
X178275000Y-61100000D01*
X182487500Y-61887500D02*
X179787500Y-61887500D01*
X179325000Y-61425000D02*
X178600000Y-61425000D01*
X179787500Y-61887500D02*
X179325000Y-61425000D01*
%TO.N,GND*%
X174500000Y-59825000D02*
X174500000Y-61500000D01*
X191862500Y-60387500D02*
X193375000Y-58875000D01*
D31*
X188900000Y-65450000D02*
X188500000Y-65050000D01*
D30*
X176725000Y-59675000D02*
X174650000Y-59675000D01*
D32*
X169450000Y-58900000D02*
X169450000Y-59800000D01*
X169450000Y-59800000D02*
X169050000Y-60200000D01*
X163400000Y-64350000D02*
X168600000Y-64350000D01*
D30*
X182487500Y-63387500D02*
X184837500Y-63387500D01*
D31*
X180400000Y-66850000D02*
X179875000Y-67375000D01*
D30*
X184300500Y-59610893D02*
X184400000Y-59511393D01*
X184400000Y-59511393D02*
X184400000Y-58475000D01*
D32*
X168125000Y-61750000D02*
X168075000Y-61800000D01*
D30*
X184837500Y-63387500D02*
X185300000Y-63850000D01*
D31*
X179875000Y-67375000D02*
X175925000Y-67375000D01*
X175525000Y-66975000D02*
X174300000Y-66975000D01*
D30*
X176500000Y-61425000D02*
X178200000Y-63125000D01*
D32*
X169050000Y-60200000D02*
X168125000Y-60200000D01*
D31*
X175925000Y-67375000D02*
X175525000Y-66975000D01*
D30*
X193375000Y-58575000D02*
X193375000Y-56950000D01*
X193800000Y-67250000D02*
X192600000Y-67250000D01*
D32*
X168125000Y-60200000D02*
X168125000Y-61750000D01*
D30*
X172525000Y-61700000D02*
X174300000Y-61700000D01*
D31*
X188500000Y-65050000D02*
X187700000Y-65050000D01*
X188900000Y-66800000D02*
X188900000Y-65450000D01*
D30*
X190812500Y-60387500D02*
X191862500Y-60387500D01*
X180325000Y-57075000D02*
X180325000Y-58575000D01*
X174500000Y-61500000D02*
X176325000Y-61500000D01*
%TO.N,Net-(C2-Pad1)*%
X174500000Y-63050000D02*
X176325000Y-63050000D01*
X176650000Y-63375000D02*
X176650000Y-64950000D01*
X176650000Y-64950000D02*
X176675000Y-64975000D01*
X176400000Y-63125000D02*
X176650000Y-63375000D01*
%TO.N,+BATT*%
X182500000Y-58975000D02*
X182487500Y-58987500D01*
X182487500Y-58987500D02*
X182487500Y-59887500D01*
X182100000Y-58575000D02*
X182500000Y-58975000D01*
%TO.N,+3V3*%
X172525000Y-60100000D02*
X172525000Y-58525000D01*
D33*
X176712500Y-66575000D02*
X176275000Y-66575000D01*
X171500000Y-66425000D02*
X170925000Y-67000000D01*
D30*
X191200000Y-58375000D02*
X191825000Y-58375000D01*
X190812500Y-58762500D02*
X191200000Y-58375000D01*
X189600000Y-66000000D02*
X190700000Y-66000000D01*
D31*
X182925000Y-57075000D02*
X182950000Y-57100000D01*
D33*
X173850000Y-64400000D02*
X174300000Y-64850000D01*
D31*
X164175000Y-57025000D02*
X166440000Y-54760000D01*
D30*
X190812500Y-59887500D02*
X190812500Y-58762500D01*
X182950000Y-57525000D02*
X183900000Y-58475000D01*
D33*
X175125000Y-65425000D02*
X174300000Y-65425000D01*
X176275000Y-66575000D02*
X175125000Y-65425000D01*
D30*
X190700000Y-66000000D02*
X191000000Y-66300000D01*
D33*
X172600000Y-64400000D02*
X173850000Y-64400000D01*
X172550000Y-64450000D02*
X172050000Y-64450000D01*
D31*
X181875000Y-57075000D02*
X182925000Y-57075000D01*
D30*
X182950000Y-57100000D02*
X182950000Y-57525000D01*
X191000000Y-66300000D02*
X191000000Y-67250000D01*
D33*
X171500000Y-65000000D02*
X171500000Y-66425000D01*
X172050000Y-64450000D02*
X171500000Y-65000000D01*
X174300000Y-64850000D02*
X174300000Y-65425000D01*
D30*
X189400000Y-66200000D02*
X189600000Y-66000000D01*
%TO.N,+3.3VA*%
X179775000Y-65300000D02*
X180400000Y-65300000D01*
X180762500Y-63887500D02*
X180400000Y-64250000D01*
X182487500Y-63887500D02*
X180762500Y-63887500D01*
X178500000Y-66575000D02*
X179775000Y-65300000D01*
X180400000Y-64250000D02*
X180400000Y-65300000D01*
D31*
%TO.N,NRST*%
X163700000Y-57950000D02*
X163700000Y-59100000D01*
X182487500Y-62887500D02*
X183290685Y-62887500D01*
X162525000Y-57050000D02*
X162800000Y-57050000D01*
D30*
X163700000Y-67050000D02*
X163700000Y-67049950D01*
D31*
X162525000Y-57050000D02*
X162525000Y-56315000D01*
X162800000Y-57050000D02*
X163700000Y-57950000D01*
X183773662Y-62404523D02*
X184055849Y-62404523D01*
X162525000Y-56315000D02*
X164080000Y-54760000D01*
X183290685Y-62887500D02*
X183773662Y-62404523D01*
D34*
%TO.N,/+5.0V*%
X166500000Y-63225000D02*
X166500000Y-61825000D01*
X166325000Y-63400000D02*
X166500000Y-63225000D01*
D30*
%TO.N,Net-(U2-FB)*%
X170925000Y-58500000D02*
X170925000Y-61575000D01*
%TO.N,Net-(J1-Pin_2)*%
X199975000Y-63875000D02*
X199975000Y-64580000D01*
X199350000Y-63250000D02*
X199975000Y-63875000D01*
X196550000Y-63250000D02*
X199350000Y-63250000D01*
X195850000Y-62550000D02*
X196550000Y-63250000D01*
%TO.N,Net-(J1-Pin_4)*%
X195850000Y-61750000D02*
X197450000Y-61750000D01*
X197740000Y-62040000D02*
X197450000Y-61750000D01*
X199975000Y-62040000D02*
X197740000Y-62040000D01*
%TO.N,Net-(J1-Pin_5)*%
X202900000Y-59500000D02*
X205025000Y-59500000D01*
X201450000Y-60950000D02*
X202900000Y-59500000D01*
X195850000Y-60950000D02*
X201450000Y-60950000D01*
%TO.N,Net-(J1-Pin_6)*%
X196950000Y-60150000D02*
X197600000Y-59500000D01*
X197600000Y-59500000D02*
X199975000Y-59500000D01*
X195850000Y-60150000D02*
X196950000Y-60150000D01*
D33*
%TO.N,Net-(U2-LX)*%
X168600000Y-63400000D02*
X169400000Y-63400000D01*
X169400000Y-63400000D02*
X170400000Y-64400000D01*
D30*
%TO.N,Net-(LED1-K)*%
X166512500Y-58600000D02*
X166512500Y-60162500D01*
%TO.N,HSE_OUT*%
X181162500Y-62387500D02*
X182487500Y-62387500D01*
X178575000Y-64975000D02*
X181162500Y-62387500D01*
%TO.N,BOOT0*%
X185900000Y-58475000D02*
X185900000Y-59600000D01*
X203530000Y-55950000D02*
X204720000Y-54760000D01*
X191800000Y-56450000D02*
X192300000Y-55950000D01*
X192300000Y-55950000D02*
X203530000Y-55950000D01*
X185900000Y-59600000D02*
X186100000Y-59800000D01*
X191800000Y-56850000D02*
X191800000Y-56450000D01*
%TO.N,SYS_JTDO-SWO*%
X188400000Y-59278185D02*
X187864092Y-59814092D01*
X188400000Y-58475000D02*
X188400000Y-59278185D01*
%TO.N,SYS_JTMS-SWDIO*%
X192837500Y-60887500D02*
X193700000Y-61750000D01*
X190812500Y-60887500D02*
X192837500Y-60887500D01*
X193700000Y-61750000D02*
X194050000Y-61750000D01*
%TO.N,SYS_JTCK-SWCLK*%
X189650000Y-61627480D02*
X189650000Y-63900000D01*
X189650000Y-63900000D02*
X189350000Y-64200000D01*
X194850000Y-63350000D02*
X194850000Y-64150000D01*
X189350000Y-61327480D02*
X189650000Y-61627480D01*
X189350000Y-58525000D02*
X189350000Y-61327480D01*
X194050000Y-62550000D02*
X194850000Y-63350000D01*
%TO.N,HEART_BEAT*%
X182487500Y-60387500D02*
X181687500Y-60387500D01*
X181687500Y-60387500D02*
X181200000Y-59900000D01*
%TO.N,Net-(LED2-K)*%
X176712500Y-58000000D02*
X174675000Y-58000000D01*
%TO.N,PC15*%
X180050000Y-61288000D02*
X180149500Y-61387500D01*
X180149500Y-61387500D02*
X182487500Y-61387500D01*
%TO.N,PC14*%
X180300000Y-60500000D02*
X180687500Y-60887500D01*
X180687500Y-60887500D02*
X182487500Y-60887500D01*
%TO.N,PB8*%
X185350000Y-61650000D02*
X185400000Y-61600000D01*
X185400000Y-61600000D02*
X185400000Y-58475000D01*
%TO.N,PB9*%
X184900000Y-60300000D02*
X184900000Y-58475000D01*
X183950000Y-61250000D02*
X184900000Y-60300000D01*
%TO.N,PB7*%
X185892830Y-57200000D02*
X183898529Y-57200000D01*
X183898529Y-57200000D02*
X182998529Y-56300000D01*
X182998529Y-56300000D02*
X180860000Y-56300000D01*
X180860000Y-56300000D02*
X179320000Y-54760000D01*
X186400000Y-58475000D02*
X186400000Y-57707170D01*
X186400000Y-57707170D02*
X185892830Y-57200000D01*
%TO.N,PB6*%
X184100000Y-56600000D02*
X182260000Y-54760000D01*
X185858515Y-56600000D02*
X184100000Y-56600000D01*
X186900000Y-58475000D02*
X186900000Y-57641485D01*
X186900000Y-57641485D02*
X185858515Y-56600000D01*
%TO.N,PB4*%
X187900000Y-58475000D02*
X187900000Y-57200000D01*
X187900000Y-57200000D02*
X186940000Y-56240000D01*
X186940000Y-56240000D02*
X186940000Y-54760000D01*
%TO.N,PB5*%
X187300000Y-57607170D02*
X187300000Y-57475799D01*
X184750000Y-56200000D02*
X184400000Y-55850000D01*
X187350000Y-58475000D02*
X187350000Y-57657170D01*
X187350000Y-57657170D02*
X187300000Y-57607170D01*
X186024200Y-56200000D02*
X184750000Y-56200000D01*
X184400000Y-55850000D02*
X184400000Y-54760000D01*
X187300000Y-57475799D02*
X186024200Y-56200000D01*
%TO.N,PA15*%
X189480000Y-56570000D02*
X189480000Y-54760000D01*
X188900000Y-58475000D02*
X188900000Y-57150000D01*
X188900000Y-57150000D02*
X189480000Y-56570000D01*
D31*
%TO.N,PA0*%
X181212500Y-64387500D02*
X181100000Y-64500000D01*
X182487500Y-64387500D02*
X181212500Y-64387500D01*
%TO.N,PA1*%
X182487500Y-64887500D02*
X183290685Y-64887500D01*
X183750000Y-64428185D02*
X183750000Y-64000000D01*
X183290685Y-64887500D02*
X183750000Y-64428185D01*
%TO.N,PA2*%
X182487500Y-65387500D02*
X182487500Y-65712500D01*
X182487500Y-65712500D02*
X181900000Y-66300000D01*
D30*
%TO.N,PA3*%
X183900000Y-66800000D02*
X183900000Y-67700000D01*
X173600000Y-68100000D02*
X171700000Y-70000000D01*
X183500000Y-68100000D02*
X173600000Y-68100000D01*
X183900000Y-67700000D02*
X183500000Y-68100000D01*
%TO.N,PA4*%
X183665479Y-68499501D02*
X175740499Y-68499501D01*
X184400000Y-67764980D02*
X183665479Y-68499501D01*
X184400000Y-66800000D02*
X184400000Y-67764980D01*
X175740499Y-68499501D02*
X174240000Y-70000000D01*
%TO.N,PA5*%
X184900000Y-68050000D02*
X184050998Y-68899002D01*
X184050998Y-68899002D02*
X177880998Y-68899002D01*
X184900000Y-66800000D02*
X184900000Y-68050000D01*
X177880998Y-68899002D02*
X176780000Y-70000000D01*
D31*
%TO.N,PA6*%
X185400000Y-66800000D02*
X185400000Y-65750000D01*
X185400000Y-65750000D02*
X185150000Y-65500000D01*
%TO.N,PA7*%
X185900000Y-66800000D02*
X185900000Y-65700000D01*
X185900000Y-65700000D02*
X186050000Y-65550000D01*
D30*
%TO.N,PA8*%
X192901678Y-63474632D02*
X193703497Y-63474632D01*
X190812500Y-63387500D02*
X192814546Y-63387500D01*
X192814546Y-63387500D02*
X192901678Y-63474632D01*
%TO.N,PA9*%
X192089450Y-62949981D02*
X193075151Y-62949981D01*
X193075151Y-62949981D02*
X193150000Y-62875132D01*
X190812500Y-62887500D02*
X192026969Y-62887500D01*
X192026969Y-62887500D02*
X192089450Y-62949981D01*
%TO.N,PA10*%
X192300753Y-62387500D02*
X192337772Y-62350481D01*
X190812500Y-62387500D02*
X192300753Y-62387500D01*
%TO.N,PA11*%
X191893330Y-61574500D02*
X192530276Y-61574500D01*
X190812500Y-61887500D02*
X191580330Y-61887500D01*
X191580330Y-61887500D02*
X191893330Y-61574500D01*
%TO.N,PA12*%
X190812500Y-61387500D02*
X190044670Y-61387500D01*
X189775000Y-59657170D02*
X190350000Y-59082170D01*
X190044670Y-61387500D02*
X189775000Y-61117830D01*
X189775000Y-61117830D02*
X189775000Y-59657170D01*
X190350000Y-59082170D02*
X190350000Y-56430000D01*
X190350000Y-56430000D02*
X192020000Y-54760000D01*
%TO.N,PB0*%
X186400000Y-67850000D02*
X184400000Y-69850000D01*
X186400000Y-66800000D02*
X186400000Y-67850000D01*
%TO.N,PB1*%
X186900000Y-66800000D02*
X186900000Y-69960000D01*
%TO.N,PB2*%
X187400000Y-68400000D02*
X189000000Y-70000000D01*
X187400000Y-66800000D02*
X187400000Y-68400000D01*
%TO.N,PB10*%
X187900000Y-68100000D02*
X188550000Y-68750000D01*
X190770000Y-68750000D02*
X192020000Y-70000000D01*
X188550000Y-68750000D02*
X190770000Y-68750000D01*
X187900000Y-66800000D02*
X187900000Y-68100000D01*
%TO.N,PB11*%
X192910499Y-68350499D02*
X194560000Y-70000000D01*
X188400000Y-67603185D02*
X189147314Y-68350499D01*
X189147314Y-68350499D02*
X192910499Y-68350499D01*
X188400000Y-66800000D02*
X188400000Y-67603185D01*
%TO.N,PB12*%
X192905060Y-65400000D02*
X197100000Y-69594940D01*
X190825000Y-65400000D02*
X192905060Y-65400000D01*
%TO.N,PB13*%
X197989002Y-68349002D02*
X199640000Y-70000000D01*
X192957540Y-64887500D02*
X196419042Y-68349002D01*
X190812500Y-64887500D02*
X192957540Y-64887500D01*
X196419042Y-68349002D02*
X197989002Y-68349002D01*
%TO.N,PB14*%
X190812500Y-64387500D02*
X193022520Y-64387500D01*
X200129501Y-67949501D02*
X202180000Y-70000000D01*
X196584521Y-67949501D02*
X200129501Y-67949501D01*
X193022520Y-64387500D02*
X196584521Y-67949501D01*
%TO.N,PB15*%
X202270000Y-67550000D02*
X204720000Y-70000000D01*
X190812500Y-63887500D02*
X193087500Y-63887500D01*
X196750000Y-67550000D02*
X202270000Y-67550000D01*
X193087500Y-63887500D02*
X196750000Y-67550000D01*
%TD*%
%TA.AperFunction,Conductor*%
%TO.N,GND*%
G36*
X192672002Y-66020185D02*
G01*
X192692644Y-66036819D01*
X195407734Y-68751909D01*
X195441219Y-68813232D01*
X195436235Y-68882924D01*
X195394363Y-68938857D01*
X195328899Y-68963274D01*
X195260626Y-68948422D01*
X195248930Y-68941165D01*
X195193662Y-68902466D01*
X194993451Y-68809106D01*
X194780065Y-68751929D01*
X194560000Y-68732676D01*
X194339932Y-68751929D01*
X194268093Y-68771178D01*
X194198243Y-68769515D01*
X194148319Y-68739084D01*
X193368698Y-67959463D01*
X193358002Y-67947267D01*
X193338780Y-67922215D01*
X193213339Y-67825962D01*
X193067261Y-67765455D01*
X192970627Y-67752733D01*
X192910499Y-67744816D01*
X192882662Y-67748481D01*
X192879196Y-67748938D01*
X192863012Y-67749999D01*
X192094766Y-67749999D01*
X192027727Y-67730314D01*
X191981972Y-67677510D01*
X191971408Y-67613396D01*
X191971476Y-67612736D01*
X191975500Y-67573345D01*
X191975499Y-66976656D01*
X191965349Y-66877292D01*
X191912003Y-66716303D01*
X191912002Y-66716302D01*
X191912002Y-66716300D01*
X191822970Y-66571958D01*
X191777789Y-66526777D01*
X191703044Y-66452032D01*
X191662799Y-66427208D01*
X191616076Y-66375260D01*
X191604855Y-66306298D01*
X191604938Y-66305644D01*
X191605682Y-66300000D01*
X191585044Y-66143238D01*
X191584708Y-66140685D01*
X191595474Y-66071650D01*
X191641854Y-66019394D01*
X191707647Y-66000500D01*
X192604963Y-66000500D01*
X192672002Y-66020185D01*
G37*
%TD.AperFunction*%
%TA.AperFunction,Conductor*%
G36*
X183192539Y-66057685D02*
G01*
X183238294Y-66110489D01*
X183249500Y-66162000D01*
X183249500Y-67375500D01*
X183229815Y-67442539D01*
X183177011Y-67488294D01*
X183125500Y-67499500D01*
X179154535Y-67499500D01*
X179087496Y-67479815D01*
X179041741Y-67427011D01*
X179031797Y-67357853D01*
X179060822Y-67294297D01*
X179066854Y-67287819D01*
X179074279Y-67280393D01*
X179074278Y-67280393D01*
X179074281Y-67280391D01*
X179162549Y-67137287D01*
X179215436Y-66977685D01*
X179225500Y-66879174D01*
X179225500Y-66750096D01*
X179245185Y-66683057D01*
X179261815Y-66662419D01*
X179709053Y-66215180D01*
X179770374Y-66181697D01*
X179835736Y-66185157D01*
X179841298Y-66187000D01*
X179841303Y-66187003D01*
X179972265Y-66230399D01*
X180002292Y-66240349D01*
X180098522Y-66250180D01*
X180098523Y-66250180D01*
X180101655Y-66250500D01*
X180698344Y-66250499D01*
X180797708Y-66240349D01*
X180932167Y-66195793D01*
X181001996Y-66193392D01*
X181062037Y-66229124D01*
X181093230Y-66291645D01*
X181094391Y-66299616D01*
X181114631Y-66479251D01*
X181114631Y-66479253D01*
X181114632Y-66479255D01*
X181174211Y-66649522D01*
X181216172Y-66716303D01*
X181270185Y-66802264D01*
X181397735Y-66929814D01*
X181397737Y-66929815D01*
X181397738Y-66929816D01*
X181550478Y-67025789D01*
X181720745Y-67085368D01*
X181900000Y-67105565D01*
X182079255Y-67085368D01*
X182249522Y-67025789D01*
X182402262Y-66929816D01*
X182529816Y-66802262D01*
X182625789Y-66649522D01*
X182685368Y-66479255D01*
X182690672Y-66432173D01*
X182717737Y-66367763D01*
X182726201Y-66358388D01*
X182871289Y-66213300D01*
X182887385Y-66200406D01*
X182889373Y-66198287D01*
X182889377Y-66198286D01*
X182935449Y-66149223D01*
X182938034Y-66146555D01*
X182957620Y-66126971D01*
X182960085Y-66123792D01*
X182967666Y-66114917D01*
X182997562Y-66083082D01*
X182997562Y-66083080D01*
X183003164Y-66077116D01*
X183063406Y-66041721D01*
X183093556Y-66038000D01*
X183125500Y-66038000D01*
X183192539Y-66057685D01*
G37*
%TD.AperFunction*%
%TA.AperFunction,Conductor*%
G36*
X184259994Y-59720826D02*
G01*
X184295648Y-59780914D01*
X184299500Y-59811583D01*
X184299500Y-59999901D01*
X184279815Y-60066940D01*
X184263181Y-60087582D01*
X183937181Y-60413583D01*
X183875858Y-60447068D01*
X183806167Y-60442084D01*
X183750233Y-60400213D01*
X183725816Y-60334748D01*
X183725500Y-60325902D01*
X183725500Y-60278833D01*
X183725500Y-60274780D01*
X183710687Y-60162264D01*
X183710686Y-60162261D01*
X183709557Y-60153685D01*
X183709557Y-60121313D01*
X183710685Y-60112738D01*
X183710687Y-60112736D01*
X183725500Y-60000220D01*
X183725500Y-59837000D01*
X183745185Y-59769961D01*
X183797989Y-59724206D01*
X183849500Y-59713000D01*
X184008667Y-59713000D01*
X184012720Y-59713000D01*
X184125236Y-59698187D01*
X184128046Y-59697022D01*
X184197514Y-59689553D01*
X184259994Y-59720826D01*
G37*
%TD.AperFunction*%
%TA.AperFunction,Conductor*%
G36*
X187036774Y-59975429D02*
G01*
X187087177Y-60023816D01*
X187096621Y-60044496D01*
X187138301Y-60163611D01*
X187234277Y-60316356D01*
X187361827Y-60443906D01*
X187361829Y-60443907D01*
X187361830Y-60443908D01*
X187514570Y-60539881D01*
X187684837Y-60599460D01*
X187864092Y-60619657D01*
X188043347Y-60599460D01*
X188213614Y-60539881D01*
X188366354Y-60443908D01*
X188493908Y-60316354D01*
X188500685Y-60305568D01*
X188520506Y-60274024D01*
X188572840Y-60227732D01*
X188641893Y-60217083D01*
X188705742Y-60245458D01*
X188744114Y-60303847D01*
X188749500Y-60339995D01*
X188749500Y-61279991D01*
X188748439Y-61296176D01*
X188744317Y-61327479D01*
X188747283Y-61350000D01*
X188749500Y-61366841D01*
X188764956Y-61484241D01*
X188764956Y-61484242D01*
X188825463Y-61630320D01*
X188921716Y-61755761D01*
X188937207Y-61767647D01*
X188946035Y-61774421D01*
X188946768Y-61774983D01*
X188958964Y-61785679D01*
X189013180Y-61839895D01*
X189046665Y-61901218D01*
X189049499Y-61927576D01*
X189049499Y-63374876D01*
X189029814Y-63441915D01*
X188991471Y-63479870D01*
X188847736Y-63570184D01*
X188720185Y-63697735D01*
X188635518Y-63832483D01*
X188624211Y-63850478D01*
X188569822Y-64005913D01*
X188564631Y-64020748D01*
X188544434Y-64199999D01*
X188564631Y-64379251D01*
X188564631Y-64379253D01*
X188564632Y-64379255D01*
X188624211Y-64549522D01*
X188675985Y-64631919D01*
X188720185Y-64702264D01*
X188847735Y-64829814D01*
X188847737Y-64829815D01*
X188847738Y-64829816D01*
X189000478Y-64925789D01*
X189170745Y-64985368D01*
X189280533Y-64997738D01*
X189349999Y-65005565D01*
X189349999Y-65005564D01*
X189350000Y-65005565D01*
X189450973Y-64994188D01*
X189519795Y-65006242D01*
X189571174Y-65053591D01*
X189587796Y-65101224D01*
X189590441Y-65121316D01*
X189590441Y-65153684D01*
X189575029Y-65270757D01*
X189575028Y-65270766D01*
X189574500Y-65274780D01*
X189574500Y-65278833D01*
X189574500Y-65288930D01*
X189554815Y-65355969D01*
X189502011Y-65401724D01*
X189466686Y-65411869D01*
X189443237Y-65414956D01*
X189297159Y-65475463D01*
X189166668Y-65575592D01*
X189138637Y-65591776D01*
X189034767Y-65634802D01*
X188975486Y-65680290D01*
X188910317Y-65705484D01*
X188841872Y-65691445D01*
X188824517Y-65680293D01*
X188765233Y-65634802D01*
X188754487Y-65630351D01*
X188724228Y-65617817D01*
X188625236Y-65576813D01*
X188557968Y-65567957D01*
X188516739Y-65562529D01*
X188516737Y-65562528D01*
X188512720Y-65562000D01*
X188287280Y-65562000D01*
X188283266Y-65562528D01*
X188283257Y-65562529D01*
X188166184Y-65577941D01*
X188133816Y-65577941D01*
X188016742Y-65562529D01*
X188016734Y-65562528D01*
X188012720Y-65562000D01*
X187787280Y-65562000D01*
X187783266Y-65562528D01*
X187783257Y-65562529D01*
X187666181Y-65577942D01*
X187633812Y-65577942D01*
X187516740Y-65562529D01*
X187516736Y-65562528D01*
X187512720Y-65562000D01*
X187287280Y-65562000D01*
X187283266Y-65562528D01*
X187283257Y-65562529D01*
X187166184Y-65577941D01*
X187133816Y-65577941D01*
X187016742Y-65562529D01*
X187016734Y-65562528D01*
X187012720Y-65562000D01*
X187008667Y-65562000D01*
X186967731Y-65562000D01*
X186900692Y-65542315D01*
X186854937Y-65489511D01*
X186844511Y-65451884D01*
X186835368Y-65370749D01*
X186835368Y-65370745D01*
X186775789Y-65200478D01*
X186679816Y-65047738D01*
X186679815Y-65047737D01*
X186679814Y-65047735D01*
X186552264Y-64920185D01*
X186472689Y-64870185D01*
X186399522Y-64824211D01*
X186229255Y-64764632D01*
X186229253Y-64764631D01*
X186229251Y-64764631D01*
X186050000Y-64744434D01*
X185870748Y-64764631D01*
X185870745Y-64764631D01*
X185870745Y-64764632D01*
X185700478Y-64824211D01*
X185700475Y-64824212D01*
X185687291Y-64828826D01*
X185686426Y-64826356D01*
X185638509Y-64839891D01*
X185573816Y-64820892D01*
X185508439Y-64779814D01*
X185499522Y-64774211D01*
X185329255Y-64714632D01*
X185329253Y-64714631D01*
X185329251Y-64714631D01*
X185150000Y-64694434D01*
X184970748Y-64714631D01*
X184970745Y-64714631D01*
X184970745Y-64714632D01*
X184800478Y-64774211D01*
X184800476Y-64774211D01*
X184800476Y-64774212D01*
X184647735Y-64870185D01*
X184520185Y-64997735D01*
X184424212Y-65150476D01*
X184424211Y-65150478D01*
X184411262Y-65187484D01*
X184364631Y-65320748D01*
X184349065Y-65458902D01*
X184321998Y-65523316D01*
X184264403Y-65562871D01*
X184242028Y-65567957D01*
X184166183Y-65577941D01*
X184133816Y-65577941D01*
X184016742Y-65562529D01*
X184016734Y-65562528D01*
X184012720Y-65562000D01*
X183849500Y-65562000D01*
X183782461Y-65542315D01*
X183736706Y-65489511D01*
X183725500Y-65438000D01*
X183725500Y-65388635D01*
X183745185Y-65321596D01*
X183761814Y-65300959D01*
X184133786Y-64928987D01*
X184149886Y-64916090D01*
X184151874Y-64913972D01*
X184151877Y-64913971D01*
X184197964Y-64864892D01*
X184200549Y-64862224D01*
X184220120Y-64842655D01*
X184222565Y-64839501D01*
X184230154Y-64830614D01*
X184260062Y-64798767D01*
X184269713Y-64781211D01*
X184280393Y-64764952D01*
X184292674Y-64749121D01*
X184310018Y-64709036D01*
X184315160Y-64698541D01*
X184336197Y-64660277D01*
X184341178Y-64640873D01*
X184347480Y-64622468D01*
X184355438Y-64604080D01*
X184362270Y-64560933D01*
X184364635Y-64549515D01*
X184369850Y-64529203D01*
X184384957Y-64494079D01*
X184475789Y-64349522D01*
X184535368Y-64179255D01*
X184555565Y-64000000D01*
X184535368Y-63820745D01*
X184475789Y-63650478D01*
X184379816Y-63497738D01*
X184379815Y-63497737D01*
X184379814Y-63497735D01*
X184253800Y-63371721D01*
X184220315Y-63310398D01*
X184225299Y-63240706D01*
X184267171Y-63184773D01*
X184300524Y-63166999D01*
X184405371Y-63130312D01*
X184558111Y-63034339D01*
X184685665Y-62906785D01*
X184781638Y-62754045D01*
X184841217Y-62583778D01*
X184852394Y-62484577D01*
X184879460Y-62420164D01*
X184937055Y-62380609D01*
X185006892Y-62378471D01*
X185016565Y-62381418D01*
X185170745Y-62435368D01*
X185350000Y-62455565D01*
X185529255Y-62435368D01*
X185699522Y-62375789D01*
X185852262Y-62279816D01*
X185979816Y-62152262D01*
X186075789Y-61999522D01*
X186135368Y-61829255D01*
X186155565Y-61650000D01*
X186135368Y-61470745D01*
X186075789Y-61300478D01*
X186019505Y-61210903D01*
X186000500Y-61144932D01*
X186000500Y-60727589D01*
X186020185Y-60660550D01*
X186072989Y-60614795D01*
X186110617Y-60604369D01*
X186160622Y-60598734D01*
X186279255Y-60585368D01*
X186449522Y-60525789D01*
X186602262Y-60429816D01*
X186729816Y-60302262D01*
X186825789Y-60149522D01*
X186862539Y-60044494D01*
X186903260Y-59987721D01*
X186968212Y-59961973D01*
X187036774Y-59975429D01*
G37*
%TD.AperFunction*%
%TA.AperFunction,Conductor*%
G36*
X175797173Y-58620185D02*
G01*
X175835673Y-58659403D01*
X175837450Y-58662283D01*
X175837451Y-58662287D01*
X175902214Y-58767284D01*
X175925720Y-58805393D01*
X176044606Y-58924279D01*
X176044608Y-58924280D01*
X176044609Y-58924281D01*
X176187713Y-59012549D01*
X176267514Y-59038992D01*
X176347314Y-59065436D01*
X176442693Y-59075180D01*
X176442694Y-59075180D01*
X176445826Y-59075500D01*
X176448975Y-59075500D01*
X176976025Y-59075500D01*
X176979174Y-59075500D01*
X177077685Y-59065436D01*
X177210836Y-59021313D01*
X177280662Y-59018912D01*
X177340704Y-59054643D01*
X177371897Y-59117164D01*
X177367544Y-59178023D01*
X177334650Y-59277290D01*
X177324819Y-59373522D01*
X177324817Y-59373542D01*
X177324500Y-59376655D01*
X177324500Y-59379802D01*
X177324500Y-59379803D01*
X177324500Y-59970194D01*
X177324500Y-59970213D01*
X177324501Y-59973344D01*
X177324820Y-59976476D01*
X177324821Y-59976477D01*
X177334650Y-60072707D01*
X177387997Y-60233699D01*
X177484640Y-60390380D01*
X177483890Y-60390842D01*
X177510231Y-60439082D01*
X177505247Y-60508774D01*
X177488333Y-60539750D01*
X177456204Y-60582669D01*
X177425644Y-60664606D01*
X177405909Y-60717517D01*
X177399500Y-60777127D01*
X177399500Y-60780448D01*
X177399500Y-60780449D01*
X177399500Y-61923933D01*
X177379815Y-61990972D01*
X177327011Y-62036727D01*
X177257853Y-62046671D01*
X177232167Y-62040115D01*
X177207485Y-62030909D01*
X177151166Y-62024854D01*
X177151165Y-62024853D01*
X177147873Y-62024500D01*
X177144550Y-62024500D01*
X175655439Y-62024500D01*
X175655420Y-62024500D01*
X175652128Y-62024501D01*
X175648848Y-62024853D01*
X175648840Y-62024854D01*
X175592515Y-62030909D01*
X175457669Y-62081204D01*
X175342451Y-62167455D01*
X175323012Y-62193423D01*
X175267078Y-62235293D01*
X175197386Y-62240276D01*
X175158650Y-62224649D01*
X175058696Y-62162996D01*
X174897707Y-62109650D01*
X174801477Y-62099819D01*
X174801458Y-62099818D01*
X174798345Y-62099500D01*
X174795196Y-62099500D01*
X174204805Y-62099500D01*
X174204785Y-62099500D01*
X174201656Y-62099501D01*
X174198524Y-62099820D01*
X174198522Y-62099821D01*
X174102292Y-62109650D01*
X173941300Y-62162997D01*
X173796955Y-62252031D01*
X173677031Y-62371955D01*
X173587995Y-62516303D01*
X173569463Y-62572230D01*
X173529690Y-62629675D01*
X173465174Y-62656497D01*
X173396398Y-62644181D01*
X173377448Y-62632492D01*
X173342333Y-62606205D01*
X173342331Y-62606204D01*
X173207483Y-62555909D01*
X173147873Y-62549500D01*
X173144550Y-62549500D01*
X172055439Y-62549500D01*
X172055420Y-62549500D01*
X172052128Y-62549501D01*
X172048848Y-62549853D01*
X172048840Y-62549854D01*
X171992515Y-62555909D01*
X171857669Y-62606204D01*
X171742454Y-62692454D01*
X171656202Y-62807671D01*
X171616180Y-62914974D01*
X171574309Y-62970908D01*
X171508844Y-62995324D01*
X171440571Y-62980472D01*
X171391166Y-62931066D01*
X171383821Y-62914982D01*
X171343796Y-62807669D01*
X171334820Y-62795678D01*
X171310404Y-62730217D01*
X171325255Y-62661944D01*
X171369936Y-62615255D01*
X171510185Y-62530472D01*
X171630472Y-62410185D01*
X171718478Y-62264606D01*
X171769086Y-62102196D01*
X171775500Y-62031616D01*
X171775500Y-61368384D01*
X171769086Y-61297804D01*
X171718478Y-61135394D01*
X171671656Y-61057942D01*
X171653821Y-60990390D01*
X171675338Y-60923916D01*
X171729379Y-60879628D01*
X171798784Y-60871587D01*
X171861519Y-60902346D01*
X171865455Y-60906113D01*
X171889813Y-60930471D01*
X171889815Y-60930472D01*
X172035394Y-61018478D01*
X172197804Y-61069086D01*
X172268384Y-61075500D01*
X172271203Y-61075500D01*
X172778797Y-61075500D01*
X172781616Y-61075500D01*
X172852196Y-61069086D01*
X173014606Y-61018478D01*
X173160185Y-60930472D01*
X173280472Y-60810185D01*
X173368478Y-60664606D01*
X173419086Y-60502196D01*
X173425500Y-60431616D01*
X173425500Y-59768384D01*
X173419086Y-59697804D01*
X173368478Y-59535394D01*
X173280472Y-59389815D01*
X173271016Y-59380359D01*
X173237530Y-59319038D01*
X173242513Y-59249346D01*
X173271014Y-59204997D01*
X173272968Y-59203044D01*
X173362003Y-59058697D01*
X173415349Y-58897708D01*
X173422064Y-58831975D01*
X173448460Y-58767284D01*
X173505640Y-58727133D01*
X173575451Y-58724269D01*
X173635728Y-58759603D01*
X173651539Y-58780428D01*
X173669528Y-58810186D01*
X173789813Y-58930471D01*
X173789815Y-58930472D01*
X173935394Y-59018478D01*
X174097804Y-59069086D01*
X174168384Y-59075500D01*
X174171203Y-59075500D01*
X174828797Y-59075500D01*
X174831616Y-59075500D01*
X174902196Y-59069086D01*
X175064606Y-59018478D01*
X175210185Y-58930472D01*
X175330472Y-58810185D01*
X175418478Y-58664606D01*
X175418477Y-58664606D01*
X175421051Y-58660350D01*
X175472579Y-58613162D01*
X175527168Y-58600500D01*
X175730134Y-58600500D01*
X175797173Y-58620185D01*
G37*
%TD.AperFunction*%
%TA.AperFunction,Conductor*%
G36*
X179629160Y-62471890D02*
G01*
X179630738Y-62472544D01*
X179709119Y-62482863D01*
X179787499Y-62493182D01*
X179787499Y-62493181D01*
X179787500Y-62493182D01*
X179818802Y-62489060D01*
X179834987Y-62488000D01*
X179913403Y-62488000D01*
X179980442Y-62507685D01*
X180026197Y-62560489D01*
X180036141Y-62629647D01*
X180007116Y-62693203D01*
X180001084Y-62699681D01*
X178732362Y-63968401D01*
X178671039Y-64001886D01*
X178633459Y-64004211D01*
X178584425Y-63999755D01*
X178584419Y-63999754D01*
X178581616Y-63999500D01*
X178068384Y-63999500D01*
X178065580Y-63999754D01*
X178065575Y-63999755D01*
X177997806Y-64005913D01*
X177950199Y-64020748D01*
X177835394Y-64056522D01*
X177835392Y-64056522D01*
X177835392Y-64056523D01*
X177720754Y-64125824D01*
X177653199Y-64143660D01*
X177586725Y-64122142D01*
X177542438Y-64068102D01*
X177534397Y-63998696D01*
X177540422Y-63976373D01*
X177543792Y-63967335D01*
X177543796Y-63967331D01*
X177594091Y-63832483D01*
X177600500Y-63772873D01*
X177600499Y-62626065D01*
X177620184Y-62559027D01*
X177672987Y-62513272D01*
X177742146Y-62503328D01*
X177767834Y-62509885D01*
X177776915Y-62513272D01*
X177792517Y-62519091D01*
X177852127Y-62525500D01*
X179347872Y-62525499D01*
X179407483Y-62519091D01*
X179538379Y-62470269D01*
X179608068Y-62465286D01*
X179629160Y-62471890D01*
G37*
%TD.AperFunction*%
%TA.AperFunction,Conductor*%
G36*
X207903139Y-52250835D02*
G01*
X207907548Y-52251160D01*
X207945490Y-52254479D01*
X208043081Y-52264092D01*
X208049071Y-52264831D01*
X208088605Y-52270695D01*
X208100525Y-52273067D01*
X208109181Y-52275235D01*
X208109558Y-52275330D01*
X208156514Y-52287911D01*
X208160170Y-52288957D01*
X208232640Y-52310940D01*
X208238404Y-52312844D01*
X208245204Y-52315276D01*
X208266848Y-52323020D01*
X208277440Y-52327373D01*
X208330148Y-52351951D01*
X208333856Y-52353681D01*
X208339901Y-52356704D01*
X208409466Y-52393887D01*
X208414729Y-52396868D01*
X208430514Y-52406329D01*
X208437878Y-52411106D01*
X208461017Y-52427308D01*
X208492902Y-52449634D01*
X208500426Y-52455343D01*
X208540181Y-52487968D01*
X208566688Y-52509723D01*
X208571290Y-52513693D01*
X208574682Y-52516767D01*
X208579095Y-52520968D01*
X208629021Y-52570894D01*
X208633223Y-52575307D01*
X208636316Y-52578720D01*
X208640286Y-52583323D01*
X208694647Y-52649562D01*
X208700368Y-52657103D01*
X208738890Y-52712117D01*
X208743670Y-52719486D01*
X208753128Y-52735266D01*
X208756107Y-52740524D01*
X208788014Y-52800217D01*
X208793295Y-52810097D01*
X208796317Y-52816143D01*
X208822616Y-52872539D01*
X208826984Y-52883166D01*
X208826987Y-52883174D01*
X208826988Y-52883175D01*
X208837146Y-52911568D01*
X208839054Y-52917342D01*
X208861018Y-52989747D01*
X208862132Y-52993651D01*
X208874669Y-53040442D01*
X208874896Y-53041346D01*
X208876983Y-53049680D01*
X208879293Y-53061326D01*
X208885165Y-53100909D01*
X208885910Y-53106950D01*
X208895525Y-53204568D01*
X208898836Y-53242419D01*
X208899185Y-53247146D01*
X208899500Y-53255898D01*
X208899500Y-71494014D01*
X208899163Y-71503149D01*
X208898834Y-71507603D01*
X208895522Y-71545468D01*
X208885910Y-71643053D01*
X208885166Y-71649086D01*
X208879305Y-71688593D01*
X208876932Y-71700521D01*
X208874672Y-71709545D01*
X208862125Y-71756376D01*
X208861022Y-71760239D01*
X208839059Y-71832643D01*
X208837149Y-71838424D01*
X208826984Y-71866832D01*
X208822615Y-71877462D01*
X208796321Y-71933848D01*
X208793298Y-71939894D01*
X208756118Y-72009454D01*
X208753117Y-72014752D01*
X208743673Y-72030508D01*
X208738890Y-72037882D01*
X208700370Y-72092894D01*
X208694649Y-72100434D01*
X208640273Y-72166692D01*
X208636293Y-72171305D01*
X208633232Y-72174682D01*
X208629039Y-72179086D01*
X208579086Y-72229039D01*
X208574682Y-72233232D01*
X208571305Y-72236293D01*
X208566692Y-72240273D01*
X208500434Y-72294649D01*
X208492894Y-72300370D01*
X208437882Y-72338890D01*
X208430508Y-72343673D01*
X208414752Y-72353117D01*
X208409454Y-72356118D01*
X208339894Y-72393298D01*
X208333848Y-72396321D01*
X208277462Y-72422615D01*
X208266832Y-72426984D01*
X208238424Y-72437149D01*
X208232641Y-72439059D01*
X208160257Y-72461015D01*
X208156358Y-72462129D01*
X208109559Y-72474669D01*
X208108924Y-72474828D01*
X208100319Y-72476983D01*
X208088668Y-72479294D01*
X208049088Y-72485165D01*
X208043049Y-72485910D01*
X207945431Y-72495525D01*
X207907580Y-72498836D01*
X207907204Y-72498864D01*
X207902854Y-72499185D01*
X207894101Y-72499500D01*
X158305984Y-72499500D01*
X158296849Y-72499163D01*
X158292395Y-72498834D01*
X158254580Y-72495526D01*
X158193210Y-72489482D01*
X158156946Y-72485910D01*
X158150913Y-72485166D01*
X158111400Y-72479304D01*
X158099472Y-72476931D01*
X158090452Y-72474672D01*
X158062140Y-72467086D01*
X158043613Y-72462122D01*
X158039769Y-72461024D01*
X157967343Y-72439054D01*
X157961568Y-72437146D01*
X157949147Y-72432702D01*
X157933166Y-72426984D01*
X157922539Y-72422616D01*
X157866143Y-72396317D01*
X157860097Y-72393295D01*
X157850217Y-72388014D01*
X157790524Y-72356107D01*
X157785266Y-72353128D01*
X157769486Y-72343670D01*
X157762117Y-72338890D01*
X157707103Y-72300368D01*
X157699562Y-72294647D01*
X157633323Y-72240286D01*
X157628720Y-72236316D01*
X157625307Y-72233223D01*
X157620894Y-72229021D01*
X157570968Y-72179095D01*
X157566767Y-72174682D01*
X157563693Y-72171290D01*
X157559723Y-72166688D01*
X157537968Y-72140181D01*
X157505343Y-72100426D01*
X157499628Y-72092894D01*
X157478216Y-72062315D01*
X157461106Y-72037878D01*
X157456325Y-72030507D01*
X157446868Y-72014729D01*
X157443881Y-72009455D01*
X157443880Y-72009454D01*
X157406700Y-71939894D01*
X157403681Y-71933856D01*
X157399292Y-71924445D01*
X157377373Y-71877440D01*
X157373020Y-71866848D01*
X157362844Y-71838404D01*
X157360938Y-71832634D01*
X157338962Y-71760187D01*
X157337897Y-71756459D01*
X157325322Y-71709530D01*
X157323012Y-71700304D01*
X157320706Y-71688674D01*
X157314834Y-71649091D01*
X157314089Y-71643056D01*
X157304475Y-71545438D01*
X157301163Y-71507588D01*
X157300811Y-71502813D01*
X157300500Y-71494109D01*
X157300500Y-70000000D01*
X157732676Y-70000000D01*
X157751929Y-70220065D01*
X157809106Y-70433451D01*
X157902347Y-70633406D01*
X157902466Y-70633662D01*
X158029174Y-70814620D01*
X158185380Y-70970826D01*
X158366338Y-71097534D01*
X158566550Y-71190894D01*
X158779932Y-71248070D01*
X159000000Y-71267323D01*
X159220068Y-71248070D01*
X159433450Y-71190894D01*
X159633662Y-71097534D01*
X159814620Y-70970826D01*
X159970826Y-70814620D01*
X160097534Y-70633662D01*
X160155185Y-70510027D01*
X160157618Y-70504811D01*
X160203790Y-70452372D01*
X160270984Y-70433220D01*
X160337865Y-70453436D01*
X160382382Y-70504811D01*
X160442347Y-70633406D01*
X160442466Y-70633662D01*
X160569174Y-70814620D01*
X160725380Y-70970826D01*
X160906338Y-71097534D01*
X161106550Y-71190894D01*
X161319932Y-71248070D01*
X161466644Y-71260905D01*
X161539999Y-71267323D01*
X161539999Y-71267322D01*
X161540000Y-71267323D01*
X161760068Y-71248070D01*
X161973450Y-71190894D01*
X162173662Y-71097534D01*
X162354620Y-70970826D01*
X162510826Y-70814620D01*
X162637534Y-70633662D01*
X162695185Y-70510027D01*
X162697618Y-70504811D01*
X162743790Y-70452372D01*
X162810984Y-70433220D01*
X162877865Y-70453436D01*
X162922382Y-70504811D01*
X162982347Y-70633406D01*
X162982466Y-70633662D01*
X163109174Y-70814620D01*
X163265380Y-70970826D01*
X163446338Y-71097534D01*
X163646550Y-71190894D01*
X163859932Y-71248070D01*
X164080000Y-71267323D01*
X164300068Y-71248070D01*
X164513450Y-71190894D01*
X164713662Y-71097534D01*
X164894620Y-70970826D01*
X165050826Y-70814620D01*
X165177534Y-70633662D01*
X165235185Y-70510027D01*
X165237618Y-70504811D01*
X165283790Y-70452372D01*
X165350984Y-70433220D01*
X165417865Y-70453436D01*
X165462382Y-70504811D01*
X165522347Y-70633406D01*
X165522466Y-70633662D01*
X165649174Y-70814620D01*
X165805380Y-70970826D01*
X165986338Y-71097534D01*
X166186550Y-71190894D01*
X166399932Y-71248070D01*
X166620000Y-71267323D01*
X166840068Y-71248070D01*
X167053450Y-71190894D01*
X167253662Y-71097534D01*
X167434620Y-70970826D01*
X167590826Y-70814620D01*
X167717534Y-70633662D01*
X167775185Y-70510027D01*
X167777618Y-70504811D01*
X167823790Y-70452372D01*
X167890984Y-70433220D01*
X167957865Y-70453436D01*
X168002382Y-70504811D01*
X168062347Y-70633406D01*
X168062466Y-70633662D01*
X168189174Y-70814620D01*
X168345380Y-70970826D01*
X168526338Y-71097534D01*
X168726550Y-71190894D01*
X168939932Y-71248070D01*
X169160000Y-71267323D01*
X169380068Y-71248070D01*
X169593450Y-71190894D01*
X169793662Y-71097534D01*
X169974620Y-70970826D01*
X170130826Y-70814620D01*
X170257534Y-70633662D01*
X170315185Y-70510027D01*
X170317618Y-70504811D01*
X170363790Y-70452372D01*
X170430984Y-70433220D01*
X170497865Y-70453436D01*
X170542382Y-70504811D01*
X170602347Y-70633406D01*
X170602466Y-70633662D01*
X170729174Y-70814620D01*
X170885380Y-70970826D01*
X171066338Y-71097534D01*
X171266550Y-71190894D01*
X171479932Y-71248070D01*
X171626644Y-71260905D01*
X171699999Y-71267323D01*
X171699999Y-71267322D01*
X171700000Y-71267323D01*
X171920068Y-71248070D01*
X172133450Y-71190894D01*
X172333662Y-71097534D01*
X172514620Y-70970826D01*
X172670826Y-70814620D01*
X172797534Y-70633662D01*
X172855185Y-70510027D01*
X172857618Y-70504811D01*
X172903790Y-70452372D01*
X172970984Y-70433220D01*
X173037865Y-70453436D01*
X173082382Y-70504811D01*
X173142347Y-70633406D01*
X173142466Y-70633662D01*
X173269174Y-70814620D01*
X173425380Y-70970826D01*
X173606338Y-71097534D01*
X173806550Y-71190894D01*
X174019932Y-71248070D01*
X174240000Y-71267323D01*
X174460068Y-71248070D01*
X174673450Y-71190894D01*
X174873662Y-71097534D01*
X175054620Y-70970826D01*
X175210826Y-70814620D01*
X175337534Y-70633662D01*
X175395185Y-70510027D01*
X175397618Y-70504811D01*
X175443790Y-70452372D01*
X175510984Y-70433220D01*
X175577865Y-70453436D01*
X175622382Y-70504811D01*
X175682347Y-70633406D01*
X175682466Y-70633662D01*
X175809174Y-70814620D01*
X175965380Y-70970826D01*
X176146338Y-71097534D01*
X176346550Y-71190894D01*
X176559932Y-71248070D01*
X176780000Y-71267323D01*
X177000068Y-71248070D01*
X177213450Y-71190894D01*
X177413662Y-71097534D01*
X177594620Y-70970826D01*
X177750826Y-70814620D01*
X177877534Y-70633662D01*
X177935185Y-70510027D01*
X177937618Y-70504811D01*
X177983790Y-70452372D01*
X178050984Y-70433220D01*
X178117865Y-70453436D01*
X178162382Y-70504811D01*
X178222347Y-70633406D01*
X178222466Y-70633662D01*
X178349174Y-70814620D01*
X178505380Y-70970826D01*
X178686338Y-71097534D01*
X178886550Y-71190894D01*
X179099932Y-71248070D01*
X179320000Y-71267323D01*
X179540068Y-71248070D01*
X179753450Y-71190894D01*
X179953662Y-71097534D01*
X180134620Y-70970826D01*
X180290826Y-70814620D01*
X180417534Y-70633662D01*
X180477618Y-70504810D01*
X180523789Y-70452372D01*
X180590982Y-70433220D01*
X180657863Y-70453435D01*
X180702381Y-70504811D01*
X180762347Y-70633406D01*
X180762466Y-70633662D01*
X180889174Y-70814620D01*
X181045380Y-70970826D01*
X181226338Y-71097534D01*
X181426550Y-71190894D01*
X181639932Y-71248070D01*
X181786643Y-71260905D01*
X181859999Y-71267323D01*
X181859999Y-71267322D01*
X181860000Y-71267323D01*
X182080068Y-71248070D01*
X182293450Y-71190894D01*
X182493662Y-71097534D01*
X182674620Y-70970826D01*
X182830826Y-70814620D01*
X182957534Y-70633662D01*
X183015185Y-70510027D01*
X183017618Y-70504811D01*
X183063790Y-70452372D01*
X183130984Y-70433220D01*
X183197865Y-70453436D01*
X183242382Y-70504811D01*
X183302347Y-70633406D01*
X183302466Y-70633662D01*
X183429174Y-70814620D01*
X183585380Y-70970826D01*
X183766338Y-71097534D01*
X183966550Y-71190894D01*
X184179932Y-71248070D01*
X184400000Y-71267323D01*
X184620068Y-71248070D01*
X184833450Y-71190894D01*
X185033662Y-71097534D01*
X185214620Y-70970826D01*
X185370826Y-70814620D01*
X185497534Y-70633662D01*
X185555185Y-70510027D01*
X185557618Y-70504811D01*
X185603790Y-70452372D01*
X185670984Y-70433220D01*
X185737865Y-70453436D01*
X185782382Y-70504811D01*
X185842347Y-70633406D01*
X185842466Y-70633662D01*
X185969174Y-70814620D01*
X186125380Y-70970826D01*
X186306338Y-71097534D01*
X186506550Y-71190894D01*
X186719932Y-71248070D01*
X186940000Y-71267323D01*
X187160068Y-71248070D01*
X187373450Y-71190894D01*
X187573662Y-71097534D01*
X187754620Y-70970826D01*
X187910826Y-70814620D01*
X188037534Y-70633662D01*
X188095185Y-70510027D01*
X188097618Y-70504811D01*
X188143790Y-70452372D01*
X188210984Y-70433220D01*
X188277865Y-70453436D01*
X188322382Y-70504811D01*
X188382347Y-70633406D01*
X188382466Y-70633662D01*
X188509174Y-70814620D01*
X188665380Y-70970826D01*
X188846338Y-71097534D01*
X189046550Y-71190894D01*
X189259932Y-71248070D01*
X189480000Y-71267323D01*
X189700068Y-71248070D01*
X189913450Y-71190894D01*
X190113662Y-71097534D01*
X190294620Y-70970826D01*
X190450826Y-70814620D01*
X190577534Y-70633662D01*
X190637618Y-70504810D01*
X190683789Y-70452372D01*
X190750982Y-70433220D01*
X190817863Y-70453435D01*
X190862381Y-70504811D01*
X190922347Y-70633406D01*
X190922466Y-70633662D01*
X191049174Y-70814620D01*
X191205380Y-70970826D01*
X191386338Y-71097534D01*
X191586550Y-71190894D01*
X191799932Y-71248070D01*
X191946643Y-71260905D01*
X192019999Y-71267323D01*
X192019999Y-71267322D01*
X192020000Y-71267323D01*
X192240068Y-71248070D01*
X192453450Y-71190894D01*
X192653662Y-71097534D01*
X192834620Y-70970826D01*
X192990826Y-70814620D01*
X193117534Y-70633662D01*
X193175185Y-70510027D01*
X193177618Y-70504811D01*
X193223790Y-70452372D01*
X193290984Y-70433220D01*
X193357865Y-70453436D01*
X193402382Y-70504811D01*
X193462347Y-70633406D01*
X193462466Y-70633662D01*
X193589174Y-70814620D01*
X193745380Y-70970826D01*
X193926338Y-71097534D01*
X194126550Y-71190894D01*
X194339932Y-71248070D01*
X194560000Y-71267323D01*
X194780068Y-71248070D01*
X194993450Y-71190894D01*
X195193662Y-71097534D01*
X195374620Y-70970826D01*
X195530826Y-70814620D01*
X195657534Y-70633662D01*
X195715185Y-70510027D01*
X195717618Y-70504811D01*
X195763790Y-70452372D01*
X195830984Y-70433220D01*
X195897865Y-70453436D01*
X195942382Y-70504811D01*
X196002347Y-70633406D01*
X196002466Y-70633662D01*
X196129174Y-70814620D01*
X196285380Y-70970826D01*
X196466338Y-71097534D01*
X196666550Y-71190894D01*
X196879932Y-71248070D01*
X197100000Y-71267323D01*
X197320068Y-71248070D01*
X197533450Y-71190894D01*
X197733662Y-71097534D01*
X197914620Y-70970826D01*
X198070826Y-70814620D01*
X198197534Y-70633662D01*
X198255185Y-70510027D01*
X198257618Y-70504811D01*
X198303790Y-70452372D01*
X198370984Y-70433220D01*
X198437865Y-70453436D01*
X198482382Y-70504811D01*
X198542347Y-70633406D01*
X198542466Y-70633662D01*
X198669174Y-70814620D01*
X198825380Y-70970826D01*
X199006338Y-71097534D01*
X199206550Y-71190894D01*
X199419932Y-71248070D01*
X199640000Y-71267323D01*
X199860068Y-71248070D01*
X200073450Y-71190894D01*
X200273662Y-71097534D01*
X200454620Y-70970826D01*
X200610826Y-70814620D01*
X200737534Y-70633662D01*
X200797618Y-70504810D01*
X200843789Y-70452372D01*
X200910982Y-70433220D01*
X200977863Y-70453435D01*
X201022381Y-70504811D01*
X201082347Y-70633406D01*
X201082466Y-70633662D01*
X201209174Y-70814620D01*
X201365380Y-70970826D01*
X201546338Y-71097534D01*
X201746550Y-71190894D01*
X201959932Y-71248070D01*
X202106644Y-71260905D01*
X202179999Y-71267323D01*
X202179999Y-71267322D01*
X202180000Y-71267323D01*
X202400068Y-71248070D01*
X202613450Y-71190894D01*
X202813662Y-71097534D01*
X202994620Y-70970826D01*
X203150826Y-70814620D01*
X203277534Y-70633662D01*
X203335185Y-70510027D01*
X203337618Y-70504811D01*
X203383790Y-70452372D01*
X203450984Y-70433220D01*
X203517865Y-70453436D01*
X203562382Y-70504811D01*
X203622347Y-70633406D01*
X203622466Y-70633662D01*
X203749174Y-70814620D01*
X203905380Y-70970826D01*
X204086338Y-71097534D01*
X204286550Y-71190894D01*
X204499932Y-71248070D01*
X204720000Y-71267323D01*
X204940068Y-71248070D01*
X205153450Y-71190894D01*
X205353662Y-71097534D01*
X205534620Y-70970826D01*
X205690826Y-70814620D01*
X205817534Y-70633662D01*
X205877894Y-70504218D01*
X205924066Y-70451779D01*
X205991259Y-70432627D01*
X206058141Y-70452842D01*
X206102658Y-70504219D01*
X206162898Y-70633406D01*
X206208258Y-70698187D01*
X206875096Y-70031349D01*
X206875051Y-70031898D01*
X206906266Y-70155162D01*
X206975813Y-70261612D01*
X207076157Y-70339713D01*
X207196422Y-70381000D01*
X207232553Y-70381000D01*
X206561812Y-71051740D01*
X206626593Y-71097101D01*
X206826718Y-71190420D01*
X207040021Y-71247575D01*
X207260000Y-71266821D01*
X207479978Y-71247575D01*
X207693281Y-71190420D01*
X207893408Y-71097100D01*
X207958187Y-71051740D01*
X207287448Y-70381000D01*
X207291569Y-70381000D01*
X207385421Y-70365339D01*
X207497251Y-70304820D01*
X207583371Y-70211269D01*
X207634448Y-70094823D01*
X207640105Y-70026552D01*
X208311740Y-70698186D01*
X208357100Y-70633408D01*
X208450420Y-70433281D01*
X208507575Y-70219978D01*
X208526821Y-70000000D01*
X208507575Y-69780021D01*
X208450421Y-69566720D01*
X208357098Y-69366589D01*
X208311740Y-69301811D01*
X207644903Y-69968648D01*
X207644949Y-69968102D01*
X207613734Y-69844838D01*
X207544187Y-69738388D01*
X207443843Y-69660287D01*
X207323578Y-69619000D01*
X207287447Y-69619000D01*
X207958187Y-68948258D01*
X207893406Y-68902898D01*
X207693281Y-68809579D01*
X207479978Y-68752424D01*
X207260000Y-68733178D01*
X207040021Y-68752424D01*
X206826719Y-68809578D01*
X206626589Y-68902900D01*
X206561812Y-68948258D01*
X206561811Y-68948258D01*
X207232554Y-69619000D01*
X207228431Y-69619000D01*
X207134579Y-69634661D01*
X207022749Y-69695180D01*
X206936629Y-69788731D01*
X206885552Y-69905177D01*
X206879894Y-69973447D01*
X206208258Y-69301811D01*
X206208258Y-69301812D01*
X206162900Y-69366590D01*
X206102657Y-69495781D01*
X206056484Y-69548220D01*
X205989291Y-69567372D01*
X205922409Y-69547156D01*
X205877893Y-69495780D01*
X205877617Y-69495189D01*
X205817534Y-69366339D01*
X205690826Y-69185380D01*
X205534620Y-69029174D01*
X205353662Y-68902466D01*
X205277903Y-68867139D01*
X205153451Y-68809106D01*
X204940065Y-68751929D01*
X204720000Y-68732676D01*
X204499932Y-68751929D01*
X204428093Y-68771178D01*
X204358243Y-68769515D01*
X204308319Y-68739084D01*
X202728199Y-67158964D01*
X202717503Y-67146768D01*
X202698281Y-67121716D01*
X202572841Y-67025464D01*
X202520629Y-67003837D01*
X202430512Y-66966509D01*
X202427213Y-66965014D01*
X202270001Y-66944317D01*
X202242623Y-66947922D01*
X202238697Y-66948439D01*
X202222513Y-66949500D01*
X197050097Y-66949500D01*
X196983058Y-66929815D01*
X196962416Y-66913181D01*
X195135721Y-65086486D01*
X195102236Y-65025163D01*
X195107220Y-64955471D01*
X195149092Y-64899538D01*
X195182445Y-64881764D01*
X195199522Y-64875789D01*
X195352262Y-64779816D01*
X195479816Y-64652262D01*
X195575789Y-64499522D01*
X195635368Y-64329255D01*
X195655565Y-64150000D01*
X195635368Y-63970745D01*
X195575789Y-63800478D01*
X195483269Y-63653233D01*
X195472383Y-63635908D01*
X195475475Y-63633965D01*
X195453334Y-63593417D01*
X195450500Y-63567059D01*
X195450500Y-63424499D01*
X195470185Y-63357460D01*
X195522989Y-63311705D01*
X195574500Y-63300499D01*
X195699902Y-63300499D01*
X195766941Y-63320184D01*
X195787582Y-63336817D01*
X195948499Y-63497735D01*
X196091802Y-63641038D01*
X196102497Y-63653233D01*
X196121718Y-63678282D01*
X196153212Y-63702448D01*
X196153214Y-63702450D01*
X196247159Y-63774536D01*
X196393238Y-63835044D01*
X196518698Y-63851561D01*
X196549999Y-63855682D01*
X196549999Y-63855681D01*
X196550000Y-63855682D01*
X196581302Y-63851560D01*
X196597487Y-63850500D01*
X197780981Y-63850500D01*
X197848020Y-63870185D01*
X197893775Y-63922989D01*
X197904270Y-63987753D01*
X197899500Y-64032127D01*
X197899500Y-64035448D01*
X197899500Y-64035449D01*
X197899500Y-65124560D01*
X197899500Y-65124578D01*
X197899501Y-65127872D01*
X197899853Y-65131152D01*
X197899854Y-65131159D01*
X197903198Y-65162264D01*
X197905909Y-65187483D01*
X197956204Y-65322331D01*
X198042454Y-65437546D01*
X198157669Y-65523796D01*
X198292517Y-65574091D01*
X198352127Y-65580500D01*
X201597872Y-65580499D01*
X201657483Y-65574091D01*
X201792331Y-65523796D01*
X201907546Y-65437546D01*
X201993796Y-65322331D01*
X202044091Y-65187483D01*
X202050500Y-65127873D01*
X202050500Y-65124578D01*
X202949500Y-65124578D01*
X202949501Y-65127872D01*
X202949853Y-65131152D01*
X202949854Y-65131159D01*
X202953198Y-65162264D01*
X202955909Y-65187483D01*
X203006204Y-65322331D01*
X203092454Y-65437546D01*
X203207669Y-65523796D01*
X203342517Y-65574091D01*
X203402127Y-65580500D01*
X206647872Y-65580499D01*
X206707483Y-65574091D01*
X206842331Y-65523796D01*
X206957546Y-65437546D01*
X207043796Y-65322331D01*
X207094091Y-65187483D01*
X207100500Y-65127873D01*
X207100499Y-64032128D01*
X207094091Y-63972517D01*
X207043796Y-63837669D01*
X206957546Y-63722454D01*
X206842331Y-63636204D01*
X206707483Y-63585909D01*
X206647873Y-63579500D01*
X206644550Y-63579500D01*
X203405439Y-63579500D01*
X203405420Y-63579500D01*
X203402128Y-63579501D01*
X203398848Y-63579853D01*
X203398840Y-63579854D01*
X203342515Y-63585909D01*
X203207669Y-63636204D01*
X203092454Y-63722454D01*
X203006204Y-63837668D01*
X202955909Y-63972516D01*
X202952867Y-64000815D01*
X202949500Y-64032127D01*
X202949500Y-64035448D01*
X202949500Y-64035449D01*
X202949500Y-65124560D01*
X202949500Y-65124578D01*
X202050500Y-65124578D01*
X202050499Y-64032128D01*
X202044091Y-63972517D01*
X201993796Y-63837669D01*
X201907546Y-63722454D01*
X201792331Y-63636204D01*
X201657483Y-63585909D01*
X201597873Y-63579500D01*
X201594551Y-63579500D01*
X200566319Y-63579500D01*
X200499280Y-63559815D01*
X200467943Y-63530986D01*
X200427450Y-63478214D01*
X200427448Y-63478212D01*
X200403281Y-63446717D01*
X200378233Y-63427497D01*
X200366038Y-63416802D01*
X200201416Y-63252180D01*
X200167931Y-63190857D01*
X200172915Y-63121165D01*
X200214787Y-63065232D01*
X200280251Y-63040815D01*
X200289097Y-63040499D01*
X201594561Y-63040499D01*
X201597872Y-63040499D01*
X201657483Y-63034091D01*
X201792331Y-62983796D01*
X201907546Y-62897546D01*
X201993796Y-62782331D01*
X202044091Y-62647483D01*
X202050500Y-62587873D01*
X202050499Y-61492128D01*
X202044091Y-61432517D01*
X202010170Y-61341571D01*
X202005187Y-61271884D01*
X202038668Y-61210565D01*
X202905316Y-60343917D01*
X202966637Y-60310434D01*
X203036329Y-60315418D01*
X203092262Y-60357290D01*
X203092454Y-60357546D01*
X203207669Y-60443796D01*
X203342517Y-60494091D01*
X203402127Y-60500500D01*
X206647872Y-60500499D01*
X206707483Y-60494091D01*
X206842331Y-60443796D01*
X206957546Y-60357546D01*
X207043796Y-60242331D01*
X207094091Y-60107483D01*
X207100500Y-60047873D01*
X207100499Y-58952128D01*
X207094091Y-58892517D01*
X207043796Y-58757669D01*
X206957546Y-58642454D01*
X206842331Y-58556204D01*
X206707483Y-58505909D01*
X206677497Y-58502685D01*
X206651166Y-58499854D01*
X206651165Y-58499853D01*
X206647873Y-58499500D01*
X206644550Y-58499500D01*
X203405439Y-58499500D01*
X203405420Y-58499500D01*
X203402128Y-58499501D01*
X203398848Y-58499853D01*
X203398840Y-58499854D01*
X203342515Y-58505909D01*
X203207669Y-58556204D01*
X203092454Y-58642454D01*
X203006204Y-58757669D01*
X202984150Y-58816799D01*
X202942278Y-58872732D01*
X202884154Y-58896404D01*
X202851907Y-58900649D01*
X202825136Y-58904174D01*
X202801346Y-58907306D01*
X202743237Y-58914956D01*
X202597161Y-58975462D01*
X202561684Y-59002685D01*
X202471718Y-59071718D01*
X202471716Y-59071719D01*
X202471715Y-59071721D01*
X202452490Y-59096774D01*
X202441798Y-59108965D01*
X202262180Y-59288584D01*
X202200857Y-59322069D01*
X202131166Y-59317085D01*
X202075232Y-59275214D01*
X202050815Y-59209749D01*
X202050499Y-59200903D01*
X202050499Y-58955439D01*
X202050499Y-58952128D01*
X202044091Y-58892517D01*
X201993796Y-58757669D01*
X201907546Y-58642454D01*
X201792331Y-58556204D01*
X201657483Y-58505909D01*
X201627497Y-58502685D01*
X201601166Y-58499854D01*
X201601165Y-58499853D01*
X201597873Y-58499500D01*
X201594550Y-58499500D01*
X198355439Y-58499500D01*
X198355420Y-58499500D01*
X198352128Y-58499501D01*
X198348848Y-58499853D01*
X198348840Y-58499854D01*
X198292515Y-58505909D01*
X198183102Y-58546718D01*
X198157669Y-58556204D01*
X198042454Y-58642454D01*
X197956204Y-58757669D01*
X197933390Y-58818834D01*
X197891521Y-58874767D01*
X197826057Y-58899184D01*
X197817210Y-58899500D01*
X197647487Y-58899500D01*
X197631302Y-58898439D01*
X197627376Y-58897922D01*
X197599999Y-58894317D01*
X197525136Y-58904174D01*
X197443237Y-58914956D01*
X197297161Y-58975462D01*
X197261684Y-59002685D01*
X197171718Y-59071718D01*
X197171716Y-59071719D01*
X197171715Y-59071721D01*
X197152490Y-59096774D01*
X197141798Y-59108965D01*
X196741148Y-59509616D01*
X196679825Y-59543101D01*
X196610134Y-59538117D01*
X196579159Y-59521204D01*
X196492331Y-59456204D01*
X196357483Y-59405909D01*
X196297873Y-59399500D01*
X196294550Y-59399500D01*
X195405439Y-59399500D01*
X195405420Y-59399500D01*
X195402128Y-59399501D01*
X195398848Y-59399853D01*
X195398840Y-59399854D01*
X195342515Y-59405909D01*
X195207669Y-59456204D01*
X195092453Y-59542454D01*
X195049267Y-59600144D01*
X194993333Y-59642015D01*
X194923641Y-59646999D01*
X194862318Y-59613514D01*
X194850733Y-59600144D01*
X194807546Y-59542454D01*
X194692331Y-59456204D01*
X194557483Y-59405909D01*
X194501166Y-59399854D01*
X194501165Y-59399853D01*
X194497873Y-59399500D01*
X194494551Y-59399500D01*
X194349972Y-59399500D01*
X194309018Y-59392542D01*
X194229252Y-59364631D01*
X194050000Y-59344434D01*
X193870745Y-59364631D01*
X193790979Y-59392542D01*
X193750027Y-59399500D01*
X193605439Y-59399500D01*
X193605420Y-59399500D01*
X193602128Y-59399501D01*
X193598848Y-59399853D01*
X193598840Y-59399854D01*
X193542515Y-59405909D01*
X193407669Y-59456204D01*
X193292454Y-59542454D01*
X193206204Y-59657668D01*
X193155909Y-59792516D01*
X193150000Y-59847481D01*
X193149500Y-59852127D01*
X193149500Y-59855449D01*
X193149500Y-60181498D01*
X193129815Y-60248537D01*
X193077011Y-60294292D01*
X193009316Y-60304437D01*
X192876862Y-60287000D01*
X192837500Y-60281817D01*
X192809663Y-60285482D01*
X192806197Y-60285939D01*
X192790013Y-60287000D01*
X192149083Y-60287000D01*
X192082044Y-60267315D01*
X192036289Y-60214511D01*
X192026345Y-60145353D01*
X192034523Y-60115545D01*
X192035687Y-60112736D01*
X192050500Y-60000220D01*
X192050500Y-59774780D01*
X192038662Y-59684864D01*
X192049427Y-59615833D01*
X192095807Y-59563577D01*
X192148999Y-59545324D01*
X192197708Y-59540349D01*
X192358697Y-59487003D01*
X192388564Y-59468581D01*
X192503044Y-59397968D01*
X192622968Y-59278044D01*
X192712002Y-59133699D01*
X192714262Y-59126881D01*
X192765349Y-58972708D01*
X192775500Y-58873345D01*
X192775499Y-58276656D01*
X192765349Y-58177292D01*
X192712003Y-58016303D01*
X192712002Y-58016302D01*
X192712002Y-58016300D01*
X192622970Y-57871958D01*
X192578307Y-57827295D01*
X192533513Y-57782501D01*
X192500030Y-57721181D01*
X192505014Y-57651489D01*
X192523112Y-57623330D01*
X192522682Y-57623070D01*
X192530470Y-57610186D01*
X192530472Y-57610185D01*
X192618478Y-57464606D01*
X192669086Y-57302196D01*
X192675500Y-57231616D01*
X192675499Y-56674500D01*
X192695185Y-56607461D01*
X192747989Y-56561706D01*
X192799500Y-56550500D01*
X203482513Y-56550500D01*
X203498697Y-56551560D01*
X203530000Y-56555682D01*
X203686762Y-56535044D01*
X203832841Y-56474536D01*
X203846134Y-56464336D01*
X203858527Y-56454827D01*
X203872227Y-56444314D01*
X203958282Y-56378282D01*
X203977509Y-56353223D01*
X203988190Y-56341043D01*
X204308321Y-56020912D01*
X204369642Y-55987429D01*
X204428095Y-55988821D01*
X204499930Y-56008070D01*
X204720000Y-56027323D01*
X204940068Y-56008070D01*
X205153450Y-55950894D01*
X205353662Y-55857534D01*
X205534620Y-55730826D01*
X205690826Y-55574620D01*
X205817534Y-55393662D01*
X205875185Y-55270027D01*
X205877618Y-55264811D01*
X205923790Y-55212372D01*
X205990984Y-55193220D01*
X206057865Y-55213436D01*
X206102382Y-55264811D01*
X206127140Y-55317905D01*
X206162466Y-55393662D01*
X206289174Y-55574620D01*
X206445380Y-55730826D01*
X206626338Y-55857534D01*
X206826550Y-55950894D01*
X207039932Y-56008070D01*
X207260000Y-56027323D01*
X207480068Y-56008070D01*
X207693450Y-55950894D01*
X207893662Y-55857534D01*
X208074620Y-55730826D01*
X208230826Y-55574620D01*
X208357534Y-55393662D01*
X208450894Y-55193450D01*
X208508070Y-54980068D01*
X208527323Y-54760000D01*
X208508070Y-54539932D01*
X208450894Y-54326550D01*
X208357534Y-54126339D01*
X208230826Y-53945380D01*
X208074620Y-53789174D01*
X207893662Y-53662466D01*
X207693451Y-53569106D01*
X207480065Y-53511929D01*
X207260000Y-53492676D01*
X207039934Y-53511929D01*
X206826548Y-53569106D01*
X206626338Y-53662466D01*
X206445379Y-53789174D01*
X206289174Y-53945379D01*
X206162466Y-54126338D01*
X206102382Y-54255189D01*
X206056209Y-54307628D01*
X205989016Y-54326780D01*
X205922135Y-54306564D01*
X205877618Y-54255189D01*
X205860744Y-54219004D01*
X205817534Y-54126339D01*
X205690826Y-53945380D01*
X205534620Y-53789174D01*
X205353662Y-53662466D01*
X205153451Y-53569106D01*
X204940065Y-53511929D01*
X204720000Y-53492676D01*
X204499934Y-53511929D01*
X204286548Y-53569106D01*
X204086338Y-53662466D01*
X203905379Y-53789174D01*
X203749174Y-53945379D01*
X203622466Y-54126338D01*
X203562382Y-54255189D01*
X203516209Y-54307628D01*
X203449016Y-54326780D01*
X203382135Y-54306564D01*
X203337618Y-54255189D01*
X203320744Y-54219004D01*
X203277534Y-54126339D01*
X203150826Y-53945380D01*
X202994620Y-53789174D01*
X202813662Y-53662466D01*
X202613451Y-53569106D01*
X202400065Y-53511929D01*
X202180000Y-53492676D01*
X201959934Y-53511929D01*
X201746548Y-53569106D01*
X201546338Y-53662466D01*
X201365379Y-53789174D01*
X201209174Y-53945379D01*
X201082466Y-54126338D01*
X201022382Y-54255189D01*
X200976209Y-54307628D01*
X200909016Y-54326780D01*
X200842135Y-54306564D01*
X200797618Y-54255189D01*
X200780744Y-54219004D01*
X200737534Y-54126339D01*
X200610826Y-53945380D01*
X200454620Y-53789174D01*
X200273662Y-53662466D01*
X200073451Y-53569106D01*
X199860065Y-53511929D01*
X199640000Y-53492676D01*
X199419934Y-53511929D01*
X199206548Y-53569106D01*
X199006338Y-53662466D01*
X198825379Y-53789174D01*
X198669174Y-53945379D01*
X198542466Y-54126338D01*
X198482382Y-54255189D01*
X198436209Y-54307628D01*
X198369016Y-54326780D01*
X198302135Y-54306564D01*
X198257618Y-54255189D01*
X198240744Y-54219004D01*
X198197534Y-54126339D01*
X198070826Y-53945380D01*
X197914620Y-53789174D01*
X197733662Y-53662466D01*
X197533451Y-53569106D01*
X197320065Y-53511929D01*
X197100000Y-53492676D01*
X196879934Y-53511929D01*
X196666548Y-53569106D01*
X196466338Y-53662466D01*
X196285379Y-53789174D01*
X196129174Y-53945379D01*
X196002466Y-54126338D01*
X195942382Y-54255189D01*
X195896209Y-54307628D01*
X195829016Y-54326780D01*
X195762135Y-54306564D01*
X195717618Y-54255189D01*
X195700744Y-54219004D01*
X195657534Y-54126339D01*
X195530826Y-53945380D01*
X195374620Y-53789174D01*
X195193662Y-53662466D01*
X194993451Y-53569106D01*
X194780065Y-53511929D01*
X194560000Y-53492676D01*
X194339934Y-53511929D01*
X194126548Y-53569106D01*
X193926338Y-53662466D01*
X193745379Y-53789174D01*
X193589174Y-53945379D01*
X193462466Y-54126338D01*
X193402382Y-54255189D01*
X193356209Y-54307628D01*
X193289016Y-54326780D01*
X193222135Y-54306564D01*
X193177618Y-54255189D01*
X193160744Y-54219004D01*
X193117534Y-54126339D01*
X192990826Y-53945380D01*
X192834620Y-53789174D01*
X192653662Y-53662466D01*
X192453451Y-53569106D01*
X192240065Y-53511929D01*
X192020000Y-53492676D01*
X191799934Y-53511929D01*
X191586548Y-53569106D01*
X191386338Y-53662466D01*
X191205379Y-53789174D01*
X191049174Y-53945379D01*
X190922466Y-54126338D01*
X190862382Y-54255189D01*
X190816209Y-54307628D01*
X190749016Y-54326780D01*
X190682135Y-54306564D01*
X190637618Y-54255189D01*
X190620744Y-54219004D01*
X190577534Y-54126339D01*
X190450826Y-53945380D01*
X190294620Y-53789174D01*
X190113662Y-53662466D01*
X189913451Y-53569106D01*
X189700065Y-53511929D01*
X189480000Y-53492676D01*
X189259934Y-53511929D01*
X189046548Y-53569106D01*
X188846338Y-53662466D01*
X188665379Y-53789174D01*
X188509174Y-53945379D01*
X188382466Y-54126338D01*
X188322382Y-54255189D01*
X188276209Y-54307628D01*
X188209016Y-54326780D01*
X188142135Y-54306564D01*
X188097618Y-54255189D01*
X188080744Y-54219004D01*
X188037534Y-54126339D01*
X187910826Y-53945380D01*
X187754620Y-53789174D01*
X187573662Y-53662466D01*
X187373451Y-53569106D01*
X187160065Y-53511929D01*
X186940000Y-53492676D01*
X186719934Y-53511929D01*
X186506548Y-53569106D01*
X186306338Y-53662466D01*
X186125379Y-53789174D01*
X185969174Y-53945379D01*
X185842466Y-54126338D01*
X185782382Y-54255189D01*
X185736209Y-54307628D01*
X185669016Y-54326780D01*
X185602135Y-54306564D01*
X185557618Y-54255189D01*
X185540744Y-54219004D01*
X185497534Y-54126339D01*
X185370826Y-53945380D01*
X185214620Y-53789174D01*
X185033662Y-53662466D01*
X184833451Y-53569106D01*
X184620065Y-53511929D01*
X184400000Y-53492676D01*
X184179934Y-53511929D01*
X183966548Y-53569106D01*
X183766338Y-53662466D01*
X183585379Y-53789174D01*
X183429174Y-53945379D01*
X183302466Y-54126338D01*
X183242382Y-54255189D01*
X183196209Y-54307628D01*
X183129016Y-54326780D01*
X183062135Y-54306564D01*
X183017618Y-54255189D01*
X183000744Y-54219004D01*
X182957534Y-54126339D01*
X182830826Y-53945380D01*
X182674620Y-53789174D01*
X182493662Y-53662466D01*
X182293451Y-53569106D01*
X182080065Y-53511929D01*
X181860000Y-53492676D01*
X181639934Y-53511929D01*
X181426548Y-53569106D01*
X181226338Y-53662466D01*
X181045379Y-53789174D01*
X180889174Y-53945379D01*
X180762466Y-54126338D01*
X180702382Y-54255189D01*
X180656209Y-54307628D01*
X180589016Y-54326780D01*
X180522135Y-54306564D01*
X180477618Y-54255189D01*
X180460744Y-54219004D01*
X180417534Y-54126339D01*
X180290826Y-53945380D01*
X180134620Y-53789174D01*
X179953662Y-53662466D01*
X179753451Y-53569106D01*
X179540065Y-53511929D01*
X179320000Y-53492676D01*
X179099934Y-53511929D01*
X178886548Y-53569106D01*
X178686338Y-53662466D01*
X178505379Y-53789174D01*
X178349174Y-53945379D01*
X178222466Y-54126338D01*
X178162382Y-54255189D01*
X178116209Y-54307628D01*
X178049016Y-54326780D01*
X177982135Y-54306564D01*
X177937618Y-54255189D01*
X177920744Y-54219004D01*
X177877534Y-54126339D01*
X177750826Y-53945380D01*
X177594620Y-53789174D01*
X177413662Y-53662466D01*
X177213451Y-53569106D01*
X177000065Y-53511929D01*
X176780000Y-53492676D01*
X176559934Y-53511929D01*
X176346548Y-53569106D01*
X176146338Y-53662466D01*
X175965379Y-53789174D01*
X175809174Y-53945379D01*
X175682466Y-54126338D01*
X175622382Y-54255189D01*
X175576209Y-54307628D01*
X175509016Y-54326780D01*
X175442135Y-54306564D01*
X175397618Y-54255189D01*
X175380744Y-54219004D01*
X175337534Y-54126339D01*
X175210826Y-53945380D01*
X175054620Y-53789174D01*
X174873662Y-53662466D01*
X174873661Y-53662466D01*
X174673451Y-53569106D01*
X174460065Y-53511929D01*
X174240000Y-53492676D01*
X174019934Y-53511929D01*
X173806548Y-53569106D01*
X173606338Y-53662466D01*
X173425379Y-53789174D01*
X173269174Y-53945379D01*
X173142466Y-54126338D01*
X173082382Y-54255189D01*
X173036209Y-54307628D01*
X172969016Y-54326780D01*
X172902135Y-54306564D01*
X172857618Y-54255189D01*
X172840744Y-54219004D01*
X172797534Y-54126339D01*
X172670826Y-53945380D01*
X172514620Y-53789174D01*
X172333662Y-53662466D01*
X172333661Y-53662466D01*
X172133451Y-53569106D01*
X171920065Y-53511929D01*
X171700000Y-53492676D01*
X171479934Y-53511929D01*
X171266548Y-53569106D01*
X171066338Y-53662466D01*
X170885379Y-53789174D01*
X170729174Y-53945379D01*
X170602466Y-54126338D01*
X170542382Y-54255189D01*
X170496209Y-54307628D01*
X170429016Y-54326780D01*
X170362135Y-54306564D01*
X170317618Y-54255189D01*
X170300744Y-54219004D01*
X170257534Y-54126339D01*
X170130826Y-53945380D01*
X169974620Y-53789174D01*
X169793662Y-53662466D01*
X169793661Y-53662466D01*
X169593451Y-53569106D01*
X169380065Y-53511929D01*
X169160000Y-53492676D01*
X168939934Y-53511929D01*
X168726548Y-53569106D01*
X168526338Y-53662466D01*
X168345379Y-53789174D01*
X168189174Y-53945379D01*
X168062466Y-54126338D01*
X168002382Y-54255189D01*
X167956209Y-54307628D01*
X167889016Y-54326780D01*
X167822135Y-54306564D01*
X167777618Y-54255189D01*
X167760744Y-54219004D01*
X167717534Y-54126339D01*
X167590826Y-53945380D01*
X167434620Y-53789174D01*
X167253662Y-53662466D01*
X167253661Y-53662466D01*
X167053451Y-53569106D01*
X166840065Y-53511929D01*
X166620000Y-53492676D01*
X166399934Y-53511929D01*
X166186548Y-53569106D01*
X165986338Y-53662466D01*
X165805379Y-53789174D01*
X165649174Y-53945379D01*
X165522466Y-54126338D01*
X165462382Y-54255189D01*
X165416209Y-54307628D01*
X165349016Y-54326780D01*
X165282135Y-54306564D01*
X165237618Y-54255189D01*
X165220744Y-54219004D01*
X165177534Y-54126339D01*
X165050826Y-53945380D01*
X164894620Y-53789174D01*
X164713662Y-53662466D01*
X164713661Y-53662466D01*
X164513451Y-53569106D01*
X164300065Y-53511929D01*
X164080000Y-53492676D01*
X163859934Y-53511929D01*
X163646548Y-53569106D01*
X163446338Y-53662466D01*
X163265379Y-53789174D01*
X163109174Y-53945379D01*
X162982466Y-54126338D01*
X162922382Y-54255189D01*
X162876209Y-54307628D01*
X162809016Y-54326780D01*
X162742135Y-54306564D01*
X162697618Y-54255189D01*
X162680744Y-54219004D01*
X162637534Y-54126339D01*
X162510826Y-53945380D01*
X162354620Y-53789174D01*
X162173662Y-53662466D01*
X162173661Y-53662466D01*
X161973451Y-53569106D01*
X161760065Y-53511929D01*
X161540000Y-53492676D01*
X161319934Y-53511929D01*
X161106548Y-53569106D01*
X160906338Y-53662466D01*
X160725379Y-53789174D01*
X160569174Y-53945379D01*
X160442466Y-54126338D01*
X160382382Y-54255189D01*
X160336209Y-54307628D01*
X160269016Y-54326780D01*
X160202135Y-54306564D01*
X160157618Y-54255189D01*
X160140744Y-54219004D01*
X160097534Y-54126339D01*
X159970826Y-53945380D01*
X159814620Y-53789174D01*
X159633662Y-53662466D01*
X159633661Y-53662466D01*
X159433451Y-53569106D01*
X159220065Y-53511929D01*
X159000000Y-53492676D01*
X158779934Y-53511929D01*
X158566548Y-53569106D01*
X158366338Y-53662466D01*
X158185379Y-53789174D01*
X158029174Y-53945379D01*
X157902466Y-54126338D01*
X157809106Y-54326548D01*
X157751929Y-54539934D01*
X157732676Y-54759999D01*
X157751929Y-54980065D01*
X157809106Y-55193451D01*
X157867140Y-55317905D01*
X157902466Y-55393662D01*
X158029174Y-55574620D01*
X158185380Y-55730826D01*
X158366338Y-55857534D01*
X158566550Y-55950894D01*
X158779932Y-56008070D01*
X159000000Y-56027323D01*
X159220068Y-56008070D01*
X159433450Y-55950894D01*
X159633662Y-55857534D01*
X159814620Y-55730826D01*
X159970826Y-55574620D01*
X160097534Y-55393662D01*
X160157618Y-55264810D01*
X160203789Y-55212372D01*
X160270982Y-55193220D01*
X160337863Y-55213435D01*
X160382381Y-55264811D01*
X160421873Y-55349500D01*
X160442466Y-55393662D01*
X160569174Y-55574620D01*
X160725380Y-55730826D01*
X160906338Y-55857534D01*
X161106550Y-55950894D01*
X161319932Y-56008070D01*
X161540000Y-56027323D01*
X161760068Y-56008070D01*
X161763863Y-56007053D01*
X161770024Y-56007199D01*
X161770876Y-56007125D01*
X161770884Y-56007219D01*
X161833713Y-56008714D01*
X161891576Y-56047874D01*
X161919083Y-56112102D01*
X161918432Y-56146231D01*
X161916325Y-56159530D01*
X161886393Y-56222663D01*
X161881535Y-56227807D01*
X161769527Y-56339815D01*
X161681523Y-56485392D01*
X161630913Y-56647806D01*
X161626985Y-56691034D01*
X161624500Y-56718384D01*
X161624500Y-57381616D01*
X161624754Y-57384420D01*
X161624755Y-57384424D01*
X161630913Y-57452193D01*
X161630914Y-57452196D01*
X161681522Y-57614606D01*
X161693587Y-57634564D01*
X161769528Y-57760186D01*
X161889813Y-57880471D01*
X161907427Y-57891119D01*
X162035394Y-57968478D01*
X162197804Y-58019086D01*
X162268384Y-58025500D01*
X162448933Y-58025500D01*
X162515972Y-58045185D01*
X162561727Y-58097989D01*
X162571671Y-58167147D01*
X162565115Y-58192833D01*
X162555909Y-58217514D01*
X162549854Y-58273833D01*
X162549500Y-58277127D01*
X162549500Y-58280448D01*
X162549500Y-58280449D01*
X162549500Y-59919560D01*
X162549500Y-59919578D01*
X162549501Y-59922872D01*
X162549853Y-59926152D01*
X162549854Y-59926159D01*
X162555909Y-59982484D01*
X162564023Y-60004239D01*
X162606204Y-60117331D01*
X162692454Y-60232546D01*
X162807669Y-60318796D01*
X162942517Y-60369091D01*
X163002127Y-60375500D01*
X164397872Y-60375499D01*
X164457483Y-60369091D01*
X164592331Y-60318796D01*
X164707546Y-60232546D01*
X164793796Y-60117331D01*
X164844091Y-59982483D01*
X164850500Y-59922873D01*
X164850499Y-58277128D01*
X164844091Y-58217517D01*
X164793796Y-58082669D01*
X164776741Y-58059886D01*
X164752324Y-57994425D01*
X164767175Y-57926151D01*
X164800133Y-57891713D01*
X164799539Y-57891119D01*
X164930471Y-57760186D01*
X164930642Y-57759903D01*
X165018478Y-57614606D01*
X165069086Y-57452196D01*
X165075500Y-57381616D01*
X165075500Y-57060450D01*
X165095185Y-56993412D01*
X165111814Y-56972774D01*
X166094243Y-55990345D01*
X166155564Y-55956862D01*
X166214013Y-55958252D01*
X166399932Y-56008070D01*
X166620000Y-56027323D01*
X166840068Y-56008070D01*
X167053450Y-55950894D01*
X167253662Y-55857534D01*
X167434620Y-55730826D01*
X167590826Y-55574620D01*
X167717534Y-55393662D01*
X167775185Y-55270027D01*
X167777618Y-55264811D01*
X167823790Y-55212372D01*
X167890984Y-55193220D01*
X167957865Y-55213436D01*
X168002382Y-55264811D01*
X168027140Y-55317905D01*
X168062466Y-55393662D01*
X168189174Y-55574620D01*
X168345380Y-55730826D01*
X168526338Y-55857534D01*
X168726550Y-55950894D01*
X168939932Y-56008070D01*
X169160000Y-56027323D01*
X169380068Y-56008070D01*
X169593450Y-55950894D01*
X169793662Y-55857534D01*
X169974620Y-55730826D01*
X170130826Y-55574620D01*
X170257534Y-55393662D01*
X170317618Y-55264810D01*
X170363789Y-55212372D01*
X170430982Y-55193220D01*
X170497863Y-55213435D01*
X170542381Y-55264811D01*
X170581873Y-55349500D01*
X170602466Y-55393662D01*
X170729174Y-55574620D01*
X170885380Y-55730826D01*
X171066338Y-55857534D01*
X171266550Y-55950894D01*
X171479932Y-56008070D01*
X171700000Y-56027323D01*
X171920068Y-56008070D01*
X172133450Y-55950894D01*
X172333662Y-55857534D01*
X172514620Y-55730826D01*
X172670826Y-55574620D01*
X172797534Y-55393662D01*
X172855185Y-55270027D01*
X172857618Y-55264811D01*
X172903790Y-55212372D01*
X172970984Y-55193220D01*
X173037865Y-55213436D01*
X173082382Y-55264811D01*
X173107140Y-55317905D01*
X173142466Y-55393662D01*
X173269174Y-55574620D01*
X173425380Y-55730826D01*
X173606338Y-55857534D01*
X173806550Y-55950894D01*
X174019932Y-56008070D01*
X174240000Y-56027323D01*
X174460068Y-56008070D01*
X174673450Y-55950894D01*
X174873662Y-55857534D01*
X175054620Y-55730826D01*
X175210826Y-55574620D01*
X175337534Y-55393662D01*
X175395185Y-55270027D01*
X175397618Y-55264811D01*
X175443790Y-55212372D01*
X175510984Y-55193220D01*
X175577865Y-55213436D01*
X175622382Y-55264811D01*
X175647140Y-55317905D01*
X175682466Y-55393662D01*
X175809174Y-55574620D01*
X175965380Y-55730826D01*
X176146338Y-55857534D01*
X176346550Y-55950894D01*
X176559932Y-56008070D01*
X176780000Y-56027323D01*
X177000068Y-56008070D01*
X177213450Y-55950894D01*
X177413662Y-55857534D01*
X177594620Y-55730826D01*
X177750826Y-55574620D01*
X177877534Y-55393662D01*
X177935185Y-55270027D01*
X177937618Y-55264811D01*
X177983790Y-55212372D01*
X178050984Y-55193220D01*
X178117865Y-55213436D01*
X178162382Y-55264811D01*
X178187140Y-55317905D01*
X178222466Y-55393662D01*
X178349174Y-55574620D01*
X178505380Y-55730826D01*
X178686338Y-55857534D01*
X178886550Y-55950894D01*
X179099932Y-56008070D01*
X179320000Y-56027323D01*
X179540068Y-56008070D01*
X179611903Y-55988821D01*
X179681752Y-55990482D01*
X179731679Y-56020914D01*
X180401799Y-56691034D01*
X180412494Y-56703229D01*
X180431717Y-56728282D01*
X180488325Y-56771718D01*
X180557159Y-56824536D01*
X180703238Y-56885044D01*
X180816686Y-56899979D01*
X180880582Y-56928245D01*
X180919053Y-56986570D01*
X180924500Y-57022918D01*
X180924500Y-57370194D01*
X180924500Y-57370213D01*
X180924501Y-57373344D01*
X180924820Y-57376476D01*
X180924821Y-57376477D01*
X180934650Y-57472707D01*
X180987996Y-57633696D01*
X181065842Y-57759903D01*
X181084282Y-57827295D01*
X181065842Y-57890097D01*
X180987996Y-58016303D01*
X180934650Y-58177292D01*
X180924819Y-58273522D01*
X180924817Y-58273542D01*
X180924500Y-58276655D01*
X180924500Y-58279802D01*
X180924500Y-58279803D01*
X180924500Y-58870194D01*
X180924500Y-58870213D01*
X180924501Y-58873344D01*
X180924820Y-58876476D01*
X180924821Y-58876477D01*
X180934650Y-58972706D01*
X180947378Y-59011117D01*
X180949778Y-59080945D01*
X180914046Y-59140987D01*
X180870627Y-59167160D01*
X180850479Y-59174210D01*
X180697735Y-59270185D01*
X180570185Y-59397735D01*
X180474210Y-59550479D01*
X180451800Y-59614522D01*
X180411078Y-59671298D01*
X180346125Y-59697044D01*
X180320877Y-59696786D01*
X180300001Y-59694434D01*
X180120748Y-59714631D01*
X180120745Y-59714631D01*
X180120745Y-59714632D01*
X179950478Y-59774211D01*
X179950476Y-59774211D01*
X179950476Y-59774212D01*
X179797735Y-59870185D01*
X179670185Y-59997735D01*
X179574210Y-60150479D01*
X179539808Y-60248793D01*
X179499086Y-60305568D01*
X179434133Y-60331315D01*
X179409514Y-60331127D01*
X179351168Y-60324854D01*
X179351163Y-60324853D01*
X179347873Y-60324500D01*
X179344551Y-60324500D01*
X179303634Y-60324500D01*
X179236595Y-60304815D01*
X179190840Y-60252011D01*
X179180896Y-60182853D01*
X179185928Y-60161497D01*
X179215349Y-60072709D01*
X179225180Y-59976477D01*
X179225179Y-59976477D01*
X179225500Y-59973345D01*
X179225499Y-59376656D01*
X179215349Y-59277292D01*
X179162003Y-59116303D01*
X179162002Y-59116302D01*
X179162002Y-59116300D01*
X179065360Y-58959620D01*
X179067729Y-58958158D01*
X179044538Y-58915687D01*
X179049522Y-58845995D01*
X179067402Y-58818177D01*
X179066672Y-58817727D01*
X179078627Y-58798345D01*
X179162549Y-58662287D01*
X179215436Y-58502685D01*
X179225500Y-58404174D01*
X179225500Y-57795826D01*
X179215436Y-57697315D01*
X179212167Y-57687451D01*
X179186564Y-57610185D01*
X179162549Y-57537713D01*
X179074281Y-57394609D01*
X179074280Y-57394608D01*
X179074279Y-57394606D01*
X178955393Y-57275720D01*
X178812285Y-57187450D01*
X178652685Y-57134563D01*
X178557306Y-57124819D01*
X178557287Y-57124818D01*
X178554174Y-57124500D01*
X178020826Y-57124500D01*
X178017713Y-57124817D01*
X178017693Y-57124819D01*
X177922314Y-57134563D01*
X177762714Y-57187450D01*
X177619606Y-57275720D01*
X177587681Y-57307646D01*
X177526358Y-57341131D01*
X177456666Y-57336147D01*
X177412319Y-57307646D01*
X177380393Y-57275720D01*
X177237285Y-57187450D01*
X177077685Y-57134563D01*
X176982306Y-57124819D01*
X176982287Y-57124818D01*
X176979174Y-57124500D01*
X176445826Y-57124500D01*
X176442713Y-57124817D01*
X176442693Y-57124819D01*
X176347314Y-57134563D01*
X176187714Y-57187450D01*
X176044609Y-57275718D01*
X176018135Y-57302193D01*
X175957145Y-57363182D01*
X175895825Y-57396666D01*
X175869466Y-57399500D01*
X175211623Y-57399500D01*
X175147473Y-57381617D01*
X175146971Y-57381313D01*
X175064606Y-57331522D01*
X174902196Y-57280914D01*
X174902193Y-57280913D01*
X174834424Y-57274755D01*
X174834420Y-57274754D01*
X174831616Y-57274500D01*
X174168384Y-57274500D01*
X174165580Y-57274754D01*
X174165575Y-57274755D01*
X174097806Y-57280913D01*
X174016598Y-57306217D01*
X173935394Y-57331522D01*
X173935392Y-57331522D01*
X173935392Y-57331523D01*
X173789813Y-57419528D01*
X173669528Y-57539813D01*
X173581520Y-57685396D01*
X173535860Y-57831927D01*
X173497123Y-57890075D01*
X173433097Y-57918049D01*
X173364112Y-57906967D01*
X173312070Y-57860350D01*
X173272968Y-57796956D01*
X173272967Y-57796954D01*
X173153044Y-57677031D01*
X173008699Y-57587997D01*
X172847707Y-57534650D01*
X172751477Y-57524819D01*
X172751458Y-57524818D01*
X172748345Y-57524500D01*
X172745196Y-57524500D01*
X172204805Y-57524500D01*
X172204785Y-57524500D01*
X172201656Y-57524501D01*
X172198524Y-57524820D01*
X172198522Y-57524821D01*
X172102292Y-57534650D01*
X171941300Y-57587997D01*
X171796954Y-57677031D01*
X171787679Y-57686307D01*
X171726355Y-57719791D01*
X171656663Y-57714805D01*
X171612321Y-57686307D01*
X171603045Y-57677031D01*
X171458699Y-57587997D01*
X171297707Y-57534650D01*
X171201477Y-57524819D01*
X171201458Y-57524818D01*
X171198345Y-57524500D01*
X171195196Y-57524500D01*
X170654805Y-57524500D01*
X170654785Y-57524500D01*
X170651656Y-57524501D01*
X170648524Y-57524820D01*
X170648522Y-57524821D01*
X170552292Y-57534650D01*
X170391300Y-57587997D01*
X170246955Y-57677031D01*
X170127031Y-57796955D01*
X170037997Y-57941300D01*
X169984650Y-58102292D01*
X169974819Y-58198522D01*
X169974817Y-58198542D01*
X169974500Y-58201655D01*
X169974500Y-58204802D01*
X169974500Y-58204803D01*
X169974500Y-58795194D01*
X169974500Y-58795213D01*
X169974501Y-58798344D01*
X169974820Y-58801476D01*
X169974821Y-58801477D01*
X169984650Y-58897707D01*
X170037997Y-59058699D01*
X170127031Y-59203044D01*
X170128983Y-59204996D01*
X170162468Y-59266319D01*
X170157484Y-59336011D01*
X170128985Y-59380356D01*
X170119529Y-59389811D01*
X170050000Y-59504827D01*
X170031522Y-59535394D01*
X170007179Y-59613514D01*
X169980913Y-59697806D01*
X169974755Y-59765575D01*
X169974500Y-59768384D01*
X169974500Y-60431616D01*
X169974754Y-60434420D01*
X169974755Y-60434424D01*
X169980913Y-60502193D01*
X169980914Y-60502196D01*
X170031522Y-60664606D01*
X170119528Y-60810185D01*
X170121659Y-60812316D01*
X170155145Y-60873636D01*
X170150163Y-60943328D01*
X170121665Y-60987677D01*
X170119528Y-60989813D01*
X170031523Y-61135392D01*
X170031522Y-61135394D01*
X170007993Y-61210904D01*
X169980913Y-61297806D01*
X169974755Y-61365575D01*
X169974500Y-61368384D01*
X169974500Y-62031616D01*
X169974754Y-62034420D01*
X169974755Y-62034424D01*
X169980913Y-62102193D01*
X169980914Y-62102196D01*
X170031522Y-62264606D01*
X170031523Y-62264607D01*
X170090006Y-62361350D01*
X170107842Y-62428905D01*
X170086324Y-62495379D01*
X170032284Y-62539666D01*
X169983890Y-62549500D01*
X169855439Y-62549500D01*
X169855420Y-62549500D01*
X169852128Y-62549501D01*
X169848848Y-62549853D01*
X169848840Y-62549854D01*
X169792515Y-62555909D01*
X169657667Y-62606204D01*
X169566830Y-62674205D01*
X169501366Y-62698622D01*
X169433093Y-62683770D01*
X169429399Y-62681670D01*
X169372897Y-62648255D01*
X169215072Y-62602402D01*
X169180628Y-62599691D01*
X169180614Y-62599690D01*
X169178194Y-62599500D01*
X168021806Y-62599500D01*
X168019386Y-62599690D01*
X168019371Y-62599691D01*
X167984927Y-62602402D01*
X167827102Y-62648255D01*
X167685634Y-62731919D01*
X167569419Y-62848134D01*
X167569231Y-62848453D01*
X167567271Y-62850282D01*
X167558342Y-62859212D01*
X167558035Y-62858905D01*
X167518161Y-62896135D01*
X167449419Y-62908638D01*
X167384830Y-62881991D01*
X167355769Y-62848453D01*
X167355582Y-62848136D01*
X167286818Y-62779372D01*
X167253334Y-62718048D01*
X167250500Y-62691691D01*
X167250500Y-62626874D01*
X167270185Y-62559835D01*
X167286820Y-62539192D01*
X167322969Y-62503043D01*
X167412002Y-62358699D01*
X167438282Y-62279393D01*
X167465349Y-62197708D01*
X167475500Y-62098345D01*
X167475499Y-61501656D01*
X167465349Y-61402292D01*
X167412003Y-61241303D01*
X167412002Y-61241302D01*
X167412002Y-61241300D01*
X167322968Y-61096955D01*
X167263646Y-61037633D01*
X167230161Y-60976310D01*
X167235145Y-60906618D01*
X167245204Y-60885815D01*
X167318478Y-60764606D01*
X167369086Y-60602196D01*
X167375500Y-60531616D01*
X167375500Y-59868384D01*
X167369086Y-59797804D01*
X167318478Y-59635394D01*
X167318476Y-59635391D01*
X167313998Y-59621019D01*
X167315534Y-59620540D01*
X167302380Y-59570712D01*
X167323899Y-59504239D01*
X167377940Y-59459952D01*
X167447346Y-59451912D01*
X167491428Y-59468580D01*
X167550194Y-59504827D01*
X167562713Y-59512549D01*
X167722314Y-59565436D01*
X167817693Y-59575180D01*
X167817694Y-59575180D01*
X167820826Y-59575500D01*
X167823975Y-59575500D01*
X168351025Y-59575500D01*
X168354174Y-59575500D01*
X168452685Y-59565436D01*
X168612287Y-59512549D01*
X168755391Y-59424281D01*
X168874281Y-59305391D01*
X168962549Y-59162287D01*
X169015436Y-59002685D01*
X169025500Y-58904174D01*
X169025500Y-58295826D01*
X169023542Y-58276656D01*
X169015436Y-58197314D01*
X168983948Y-58102292D01*
X168962549Y-58037713D01*
X168874281Y-57894609D01*
X168874280Y-57894608D01*
X168874279Y-57894606D01*
X168755393Y-57775720D01*
X168682035Y-57730472D01*
X168612287Y-57687451D01*
X168612286Y-57687450D01*
X168612285Y-57687450D01*
X168452685Y-57634563D01*
X168357306Y-57624819D01*
X168357287Y-57624818D01*
X168354174Y-57624500D01*
X167820826Y-57624500D01*
X167817713Y-57624817D01*
X167817693Y-57624819D01*
X167722314Y-57634563D01*
X167562714Y-57687450D01*
X167419606Y-57775720D01*
X167387681Y-57807646D01*
X167326358Y-57841131D01*
X167256666Y-57836147D01*
X167212319Y-57807646D01*
X167180393Y-57775720D01*
X167107035Y-57730472D01*
X167037287Y-57687451D01*
X167037286Y-57687450D01*
X167037285Y-57687450D01*
X166877685Y-57634563D01*
X166782306Y-57624819D01*
X166782287Y-57624818D01*
X166779174Y-57624500D01*
X166245826Y-57624500D01*
X166242713Y-57624817D01*
X166242693Y-57624819D01*
X166147314Y-57634563D01*
X165987714Y-57687450D01*
X165844606Y-57775720D01*
X165725720Y-57894606D01*
X165637450Y-58037714D01*
X165584563Y-58197314D01*
X165574819Y-58292693D01*
X165574817Y-58292713D01*
X165574500Y-58295826D01*
X165574500Y-58904174D01*
X165574818Y-58907287D01*
X165574819Y-58907306D01*
X165584563Y-59002685D01*
X165637450Y-59162285D01*
X165725720Y-59305393D01*
X165727153Y-59306826D01*
X165731387Y-59314581D01*
X165733328Y-59317727D01*
X165733161Y-59317829D01*
X165760638Y-59368149D01*
X165755654Y-59437841D01*
X165727156Y-59482186D01*
X165719528Y-59489814D01*
X165640212Y-59621019D01*
X165631522Y-59635394D01*
X165612075Y-59697804D01*
X165580913Y-59797806D01*
X165575977Y-59852127D01*
X165574500Y-59868384D01*
X165574500Y-60531616D01*
X165574754Y-60534420D01*
X165574755Y-60534424D01*
X165580913Y-60602193D01*
X165580914Y-60602196D01*
X165631522Y-60764606D01*
X165659074Y-60810182D01*
X165719528Y-60910186D01*
X165728983Y-60919641D01*
X165762468Y-60980964D01*
X165757484Y-61050656D01*
X165728987Y-61095000D01*
X165727030Y-61096956D01*
X165637997Y-61241300D01*
X165584650Y-61402292D01*
X165574819Y-61498522D01*
X165574817Y-61498542D01*
X165574500Y-61501655D01*
X165574500Y-61504802D01*
X165574500Y-61504803D01*
X165574500Y-62095194D01*
X165574500Y-62095213D01*
X165574501Y-62098344D01*
X165574820Y-62101476D01*
X165574821Y-62101477D01*
X165584650Y-62197707D01*
X165637996Y-62358696D01*
X165690849Y-62444383D01*
X165709289Y-62511775D01*
X165688367Y-62578439D01*
X165634725Y-62623209D01*
X165619906Y-62628556D01*
X165552102Y-62648255D01*
X165410634Y-62731919D01*
X165294419Y-62848134D01*
X165210755Y-62989602D01*
X165164902Y-63147427D01*
X165162191Y-63181871D01*
X165162190Y-63181886D01*
X165162000Y-63184306D01*
X165162000Y-63615694D01*
X165162190Y-63618114D01*
X165162191Y-63618128D01*
X165164902Y-63652572D01*
X165210755Y-63810397D01*
X165285630Y-63937003D01*
X165294419Y-63951865D01*
X165410635Y-64068081D01*
X165538433Y-64143660D01*
X165552102Y-64151744D01*
X165709927Y-64197597D01*
X165709931Y-64197598D01*
X165746806Y-64200500D01*
X165749251Y-64200500D01*
X166900749Y-64200500D01*
X166903194Y-64200500D01*
X166940069Y-64197598D01*
X167097898Y-64151744D01*
X167239365Y-64068081D01*
X167355581Y-63951865D01*
X167355765Y-63951552D01*
X167357697Y-63949748D01*
X167366658Y-63940788D01*
X167366964Y-63941094D01*
X167406828Y-63903868D01*
X167475569Y-63891360D01*
X167540160Y-63918001D01*
X167569229Y-63951544D01*
X167569235Y-63951555D01*
X167569419Y-63951865D01*
X167685635Y-64068081D01*
X167813433Y-64143660D01*
X167827102Y-64151744D01*
X167984927Y-64197597D01*
X167984931Y-64197598D01*
X168021806Y-64200500D01*
X168024251Y-64200500D01*
X169158482Y-64200500D01*
X169225521Y-64220185D01*
X169246164Y-64236820D01*
X169299419Y-64290076D01*
X169332903Y-64351399D01*
X169327918Y-64421091D01*
X169286046Y-64477024D01*
X169220582Y-64501440D01*
X169202009Y-64501374D01*
X169180631Y-64499691D01*
X169180611Y-64499690D01*
X169178194Y-64499500D01*
X169175749Y-64499500D01*
X168651915Y-64499500D01*
X168638032Y-64498720D01*
X168633591Y-64498219D01*
X168600000Y-64494434D01*
X168566408Y-64498219D01*
X168561967Y-64498720D01*
X168548085Y-64499500D01*
X168021806Y-64499500D01*
X168019386Y-64499690D01*
X168019371Y-64499691D01*
X167984927Y-64502402D01*
X167827102Y-64548255D01*
X167685634Y-64631919D01*
X167569418Y-64748135D01*
X167569227Y-64748459D01*
X167567240Y-64750313D01*
X167558342Y-64759212D01*
X167558036Y-64758906D01*
X167518154Y-64796138D01*
X167449412Y-64808637D01*
X167384824Y-64781987D01*
X167355766Y-64748448D01*
X167355581Y-64748135D01*
X167239365Y-64631919D01*
X167238528Y-64631424D01*
X167097897Y-64548255D01*
X166940072Y-64502402D01*
X166905628Y-64499691D01*
X166905614Y-64499690D01*
X166903194Y-64499500D01*
X166900749Y-64499500D01*
X166588260Y-64499500D01*
X166574376Y-64498720D01*
X166449500Y-64484649D01*
X166324624Y-64498720D01*
X166310740Y-64499500D01*
X165746806Y-64499500D01*
X165744386Y-64499690D01*
X165744371Y-64499691D01*
X165709927Y-64502402D01*
X165552102Y-64548255D01*
X165410634Y-64631919D01*
X165294419Y-64748134D01*
X165210755Y-64889602D01*
X165164902Y-65047427D01*
X165162191Y-65081871D01*
X165162190Y-65081886D01*
X165162000Y-65084306D01*
X165162000Y-65515694D01*
X165162190Y-65518114D01*
X165162191Y-65518128D01*
X165164902Y-65552572D01*
X165210755Y-65710397D01*
X165288049Y-65841094D01*
X165294419Y-65851865D01*
X165410635Y-65968081D01*
X165526865Y-66036819D01*
X165552102Y-66051744D01*
X165709927Y-66097597D01*
X165709931Y-66097598D01*
X165736496Y-66099688D01*
X165801784Y-66124571D01*
X165843256Y-66180801D01*
X165847743Y-66250527D01*
X165832307Y-66288403D01*
X165737996Y-66441303D01*
X165684650Y-66602292D01*
X165674819Y-66698522D01*
X165674817Y-66698542D01*
X165674500Y-66701655D01*
X165674500Y-66704802D01*
X165674500Y-66704803D01*
X165674500Y-67295194D01*
X165674500Y-67295213D01*
X165674501Y-67298344D01*
X165674820Y-67301476D01*
X165674821Y-67301477D01*
X165684650Y-67397707D01*
X165737997Y-67558699D01*
X165827031Y-67703044D01*
X165946955Y-67822968D01*
X166091300Y-67912002D01*
X166252292Y-67965349D01*
X166348522Y-67975180D01*
X166348523Y-67975180D01*
X166351655Y-67975500D01*
X166898344Y-67975499D01*
X166997708Y-67965349D01*
X167158697Y-67912003D01*
X167216879Y-67876116D01*
X167303044Y-67822968D01*
X167422968Y-67703044D01*
X167512002Y-67558699D01*
X167531619Y-67499500D01*
X167565349Y-67397708D01*
X167575500Y-67298345D01*
X167575499Y-66701656D01*
X167565349Y-66602292D01*
X167512003Y-66441303D01*
X167512002Y-66441302D01*
X167512002Y-66441300D01*
X167422968Y-66296955D01*
X167303045Y-66177032D01*
X167267897Y-66155353D01*
X167221172Y-66103405D01*
X167209949Y-66034443D01*
X167237792Y-65970361D01*
X167245290Y-65962155D01*
X167355581Y-65851865D01*
X167355765Y-65851552D01*
X167357681Y-65849763D01*
X167366658Y-65840787D01*
X167366965Y-65841094D01*
X167406828Y-65803868D01*
X167475569Y-65791360D01*
X167540160Y-65818001D01*
X167569229Y-65851544D01*
X167569235Y-65851555D01*
X167569419Y-65851865D01*
X167685635Y-65968081D01*
X167801865Y-66036819D01*
X167827102Y-66051744D01*
X167984927Y-66097597D01*
X167984931Y-66097598D01*
X168021806Y-66100500D01*
X168548085Y-66100500D01*
X168561967Y-66101279D01*
X168600000Y-66105565D01*
X168638032Y-66101279D01*
X168651915Y-66100500D01*
X169175749Y-66100500D01*
X169178194Y-66100500D01*
X169215069Y-66097598D01*
X169304382Y-66071650D01*
X169387941Y-66047374D01*
X169388745Y-66050142D01*
X169433444Y-66038797D01*
X169499709Y-66060949D01*
X169528122Y-66088401D01*
X169537035Y-66100308D01*
X169542454Y-66107546D01*
X169657669Y-66193796D01*
X169792517Y-66244091D01*
X169852127Y-66250500D01*
X169933510Y-66250499D01*
X170000548Y-66270183D01*
X170046304Y-66322986D01*
X170056248Y-66392145D01*
X170039053Y-66439589D01*
X170037998Y-66441299D01*
X169984650Y-66602292D01*
X169974819Y-66698522D01*
X169974817Y-66698542D01*
X169974500Y-66701655D01*
X169974500Y-66704802D01*
X169974500Y-66704803D01*
X169974500Y-67295194D01*
X169974500Y-67295213D01*
X169974501Y-67298344D01*
X169974820Y-67301476D01*
X169974821Y-67301477D01*
X169984650Y-67397707D01*
X170037997Y-67558699D01*
X170127031Y-67703044D01*
X170246955Y-67822968D01*
X170391300Y-67912002D01*
X170552292Y-67965349D01*
X170648522Y-67975180D01*
X170648523Y-67975180D01*
X170651655Y-67975500D01*
X171198344Y-67975499D01*
X171297708Y-67965349D01*
X171458697Y-67912003D01*
X171516879Y-67876116D01*
X171603044Y-67822968D01*
X171722968Y-67703044D01*
X171812002Y-67558699D01*
X171831619Y-67499500D01*
X171865349Y-67397708D01*
X171875500Y-67298345D01*
X171875499Y-67091518D01*
X171895183Y-67024479D01*
X171911813Y-67003842D01*
X171977731Y-66937924D01*
X171983150Y-66932823D01*
X172028183Y-66892929D01*
X172062377Y-66843389D01*
X172066770Y-66837419D01*
X172103878Y-66790056D01*
X172108035Y-66780818D01*
X172119061Y-66761268D01*
X172124818Y-66752930D01*
X172146152Y-66696674D01*
X172148994Y-66689811D01*
X172173695Y-66634931D01*
X172175522Y-66624956D01*
X172181549Y-66603339D01*
X172185140Y-66593872D01*
X172192387Y-66534179D01*
X172193514Y-66526777D01*
X172204358Y-66467606D01*
X172200726Y-66407566D01*
X172200500Y-66400079D01*
X172200500Y-66374499D01*
X172220185Y-66307460D01*
X172272989Y-66261705D01*
X172324500Y-66250499D01*
X173144561Y-66250499D01*
X173147872Y-66250499D01*
X173207483Y-66244091D01*
X173342331Y-66193796D01*
X173385249Y-66161666D01*
X173450711Y-66137250D01*
X173518985Y-66152101D01*
X173547240Y-66173253D01*
X173596955Y-66222968D01*
X173741300Y-66312002D01*
X173902292Y-66365349D01*
X173998522Y-66375180D01*
X173998523Y-66375180D01*
X174001655Y-66375500D01*
X174598344Y-66375499D01*
X174697708Y-66365349D01*
X174858697Y-66312003D01*
X174875845Y-66301425D01*
X174943235Y-66282983D01*
X175009899Y-66303903D01*
X175028619Y-66319276D01*
X175371759Y-66662415D01*
X175762051Y-67052707D01*
X175767171Y-67058145D01*
X175807071Y-67103183D01*
X175807073Y-67103184D01*
X175817057Y-67114454D01*
X175816482Y-67114962D01*
X175837013Y-67136576D01*
X175837450Y-67137285D01*
X175837451Y-67137287D01*
X175843299Y-67146768D01*
X175925720Y-67280393D01*
X175933146Y-67287819D01*
X175966631Y-67349142D01*
X175961647Y-67418834D01*
X175919775Y-67474767D01*
X175854311Y-67499184D01*
X175845465Y-67499500D01*
X173647487Y-67499500D01*
X173631302Y-67498439D01*
X173627376Y-67497922D01*
X173599999Y-67494317D01*
X173564741Y-67498959D01*
X173560639Y-67499500D01*
X173501938Y-67507228D01*
X173443237Y-67514956D01*
X173297159Y-67575463D01*
X173171716Y-67671718D01*
X173152494Y-67696770D01*
X173141800Y-67708964D01*
X172111679Y-68739084D01*
X172050356Y-68772569D01*
X171991905Y-68771178D01*
X171920067Y-68751929D01*
X171700000Y-68732676D01*
X171479934Y-68751929D01*
X171266548Y-68809106D01*
X171066338Y-68902466D01*
X170885379Y-69029174D01*
X170729174Y-69185379D01*
X170602466Y-69366338D01*
X170542382Y-69495189D01*
X170496209Y-69547628D01*
X170429016Y-69566780D01*
X170362135Y-69546564D01*
X170317618Y-69495189D01*
X170257651Y-69366590D01*
X170257534Y-69366339D01*
X170130826Y-69185380D01*
X169974620Y-69029174D01*
X169793662Y-68902466D01*
X169717903Y-68867139D01*
X169593451Y-68809106D01*
X169380065Y-68751929D01*
X169160000Y-68732676D01*
X168939934Y-68751929D01*
X168726548Y-68809106D01*
X168526338Y-68902466D01*
X168345379Y-69029174D01*
X168189174Y-69185379D01*
X168062466Y-69366338D01*
X168002382Y-69495189D01*
X167956209Y-69547628D01*
X167889016Y-69566780D01*
X167822135Y-69546564D01*
X167777618Y-69495189D01*
X167717651Y-69366590D01*
X167717534Y-69366339D01*
X167590826Y-69185380D01*
X167434620Y-69029174D01*
X167253662Y-68902466D01*
X167177903Y-68867139D01*
X167053451Y-68809106D01*
X166840065Y-68751929D01*
X166619999Y-68732676D01*
X166399934Y-68751929D01*
X166186548Y-68809106D01*
X165986338Y-68902466D01*
X165805379Y-69029174D01*
X165649174Y-69185379D01*
X165522466Y-69366338D01*
X165462382Y-69495189D01*
X165416209Y-69547628D01*
X165349016Y-69566780D01*
X165282135Y-69546564D01*
X165237618Y-69495189D01*
X165177651Y-69366590D01*
X165177534Y-69366339D01*
X165050826Y-69185380D01*
X164894620Y-69029174D01*
X164713662Y-68902466D01*
X164637903Y-68867139D01*
X164513451Y-68809106D01*
X164300065Y-68751929D01*
X164080000Y-68732676D01*
X163859934Y-68751929D01*
X163646548Y-68809106D01*
X163446338Y-68902466D01*
X163265379Y-69029174D01*
X163109174Y-69185379D01*
X162982466Y-69366338D01*
X162922382Y-69495189D01*
X162876209Y-69547628D01*
X162809016Y-69566780D01*
X162742135Y-69546564D01*
X162697618Y-69495189D01*
X162637651Y-69366590D01*
X162637534Y-69366339D01*
X162510826Y-69185380D01*
X162354620Y-69029174D01*
X162173662Y-68902466D01*
X162097903Y-68867139D01*
X161973451Y-68809106D01*
X161760065Y-68751929D01*
X161540000Y-68732676D01*
X161319934Y-68751929D01*
X161106548Y-68809106D01*
X160906338Y-68902466D01*
X160725379Y-69029174D01*
X160569174Y-69185379D01*
X160442466Y-69366338D01*
X160382382Y-69495189D01*
X160336209Y-69547628D01*
X160269016Y-69566780D01*
X160202135Y-69546564D01*
X160157618Y-69495189D01*
X160097651Y-69366590D01*
X160097534Y-69366339D01*
X159970826Y-69185380D01*
X159814620Y-69029174D01*
X159633662Y-68902466D01*
X159557903Y-68867139D01*
X159433451Y-68809106D01*
X159220065Y-68751929D01*
X159000000Y-68732676D01*
X158779934Y-68751929D01*
X158566548Y-68809106D01*
X158366338Y-68902466D01*
X158185379Y-69029174D01*
X158029174Y-69185379D01*
X157902466Y-69366338D01*
X157809106Y-69566548D01*
X157751929Y-69779934D01*
X157732676Y-70000000D01*
X157300500Y-70000000D01*
X157300500Y-67869528D01*
X162549500Y-67869528D01*
X162549501Y-67872822D01*
X162549853Y-67876102D01*
X162549854Y-67876109D01*
X162555909Y-67932434D01*
X162571972Y-67975500D01*
X162606204Y-68067281D01*
X162692454Y-68182496D01*
X162807669Y-68268746D01*
X162942517Y-68319041D01*
X163002127Y-68325450D01*
X164397872Y-68325449D01*
X164457483Y-68319041D01*
X164592331Y-68268746D01*
X164707546Y-68182496D01*
X164793796Y-68067281D01*
X164844091Y-67932433D01*
X164850500Y-67872823D01*
X164850499Y-66227078D01*
X164844091Y-66167467D01*
X164793796Y-66032619D01*
X164707546Y-65917404D01*
X164592331Y-65831154D01*
X164457483Y-65780859D01*
X164397873Y-65774450D01*
X164394550Y-65774450D01*
X163005439Y-65774450D01*
X163005420Y-65774450D01*
X163002128Y-65774451D01*
X162998848Y-65774803D01*
X162998840Y-65774804D01*
X162942515Y-65780859D01*
X162807669Y-65831154D01*
X162692454Y-65917404D01*
X162606204Y-66032618D01*
X162555909Y-66167466D01*
X162552368Y-66200406D01*
X162549500Y-66227077D01*
X162549500Y-66230398D01*
X162549500Y-66230399D01*
X162549500Y-67869510D01*
X162549500Y-67869528D01*
X157300500Y-67869528D01*
X157300500Y-62250000D01*
X159444434Y-62250000D01*
X159464631Y-62429251D01*
X159464631Y-62429253D01*
X159464632Y-62429255D01*
X159524211Y-62599522D01*
X159573077Y-62677292D01*
X159620185Y-62752264D01*
X159747735Y-62879814D01*
X159747737Y-62879815D01*
X159747738Y-62879816D01*
X159900478Y-62975789D01*
X160070745Y-63035368D01*
X160250000Y-63055565D01*
X160429255Y-63035368D01*
X160599522Y-62975789D01*
X160752262Y-62879816D01*
X160752265Y-62879812D01*
X160759027Y-62875564D01*
X160826263Y-62856564D01*
X160890971Y-62875564D01*
X160897737Y-62879815D01*
X160897738Y-62879816D01*
X161050478Y-62975789D01*
X161220745Y-63035368D01*
X161400000Y-63055565D01*
X161579255Y-63035368D01*
X161749522Y-62975789D01*
X161902262Y-62879816D01*
X161902263Y-62879814D01*
X161909028Y-62875564D01*
X161976265Y-62856564D01*
X162040972Y-62875564D01*
X162047736Y-62879814D01*
X162047738Y-62879816D01*
X162200478Y-62975789D01*
X162370745Y-63035368D01*
X162550000Y-63055565D01*
X162729255Y-63035368D01*
X162899522Y-62975789D01*
X163052262Y-62879816D01*
X163179816Y-62752262D01*
X163275789Y-62599522D01*
X163335368Y-62429255D01*
X163355565Y-62250000D01*
X163335368Y-62070745D01*
X163275789Y-61900478D01*
X163179816Y-61747738D01*
X163179815Y-61747737D01*
X163179814Y-61747735D01*
X163052264Y-61620185D01*
X162899525Y-61524213D01*
X162899522Y-61524211D01*
X162729255Y-61464632D01*
X162729253Y-61464631D01*
X162729251Y-61464631D01*
X162550000Y-61444434D01*
X162370748Y-61464631D01*
X162370745Y-61464631D01*
X162370745Y-61464632D01*
X162200478Y-61524211D01*
X162200476Y-61524211D01*
X162200476Y-61524212D01*
X162040972Y-61624435D01*
X161973735Y-61643435D01*
X161909028Y-61624435D01*
X161749525Y-61524213D01*
X161749522Y-61524211D01*
X161579255Y-61464632D01*
X161579253Y-61464631D01*
X161579251Y-61464631D01*
X161399999Y-61444434D01*
X161220748Y-61464631D01*
X161220745Y-61464631D01*
X161220745Y-61464632D01*
X161050478Y-61524211D01*
X161050475Y-61524212D01*
X161050474Y-61524213D01*
X160890970Y-61624435D01*
X160823734Y-61643435D01*
X160759027Y-61624435D01*
X160599525Y-61524213D01*
X160599522Y-61524211D01*
X160429255Y-61464632D01*
X160429253Y-61464631D01*
X160429251Y-61464631D01*
X160250000Y-61444434D01*
X160070748Y-61464631D01*
X160070745Y-61464631D01*
X160070745Y-61464632D01*
X159900478Y-61524211D01*
X159900476Y-61524211D01*
X159900476Y-61524212D01*
X159747735Y-61620185D01*
X159620185Y-61747735D01*
X159539457Y-61876214D01*
X159524211Y-61900478D01*
X159475350Y-62040115D01*
X159464631Y-62070748D01*
X159444434Y-62250000D01*
X157300500Y-62250000D01*
X157300500Y-53255975D01*
X157300836Y-53246855D01*
X157301163Y-53242419D01*
X157304482Y-53204481D01*
X157314092Y-53106913D01*
X157314829Y-53100938D01*
X157320697Y-53061383D01*
X157323065Y-53049482D01*
X157325330Y-53040442D01*
X157337906Y-52993507D01*
X157338952Y-52989844D01*
X157360945Y-52917342D01*
X157362846Y-52911589D01*
X157362854Y-52911568D01*
X157373024Y-52883140D01*
X157377372Y-52872563D01*
X157403686Y-52816132D01*
X157406683Y-52810136D01*
X157443903Y-52740504D01*
X157446848Y-52735303D01*
X157456354Y-52719443D01*
X157461093Y-52712138D01*
X157499645Y-52657081D01*
X157505317Y-52649604D01*
X157559741Y-52583288D01*
X157563669Y-52578734D01*
X157566805Y-52575274D01*
X157570925Y-52570947D01*
X157620947Y-52520925D01*
X157625274Y-52516805D01*
X157628734Y-52513669D01*
X157633293Y-52509738D01*
X157633311Y-52509723D01*
X157699604Y-52455317D01*
X157707081Y-52449645D01*
X157762138Y-52411093D01*
X157769443Y-52406354D01*
X157785303Y-52396848D01*
X157790504Y-52393903D01*
X157860136Y-52356683D01*
X157866132Y-52353686D01*
X157922563Y-52327372D01*
X157933140Y-52323024D01*
X157961594Y-52312844D01*
X157967342Y-52310945D01*
X158039844Y-52288952D01*
X158043523Y-52287901D01*
X158090456Y-52275326D01*
X158099698Y-52273011D01*
X158111309Y-52270708D01*
X158150913Y-52264833D01*
X158156938Y-52264090D01*
X158254533Y-52254477D01*
X158292416Y-52251163D01*
X158297190Y-52250811D01*
X158305889Y-52250500D01*
X207894023Y-52250500D01*
X207903139Y-52250835D01*
G37*
%TD.AperFunction*%
%TD*%
M02*
