M48
; DRILL file {KiCad 7.0.2} date Tue Jun 20 04:45:00 2023
; FORMAT={-:-/ absolute / metric / decimal}
; #@! TF.CreationDate,2023-06-20T04:45:00+07:00
; #@! TF.GenerationSoftware,Kicad,Pcbnew,7.0.2
; #@! TF.FileFunction,Plated,1,4,PTH
FMAT,2
METRIC
; #@! TA.AperFunction,Plated,PTH,ViaDrill
T1C0.300
; #@! TA.AperFunction,Plated,PTH,ComponentDrill
T2C0.762
%
G90
G05
T1
X160.25Y-62.25
X161.4Y-62.25
X162.55Y-62.25
X163.4Y-64.35
X163.7Y-59.1
X163.7Y-67.05
X166.45Y-65.29
X166.5Y-61.8
X166.65Y-67.0
X168.1Y-58.6
X168.6Y-65.3
X169.45Y-58.9
X170.875Y-60.1
X172.5Y-58.45
X172.5Y-61.7
X172.6Y-63.5
X172.6Y-64.45
X172.6Y-65.4
X175.05Y-56.85
X178.287Y-58.1
X180.05Y-61.288
X180.3Y-60.5
X181.1Y-64.5
X181.2Y-59.9
X181.9Y-66.3
X182.95Y-57.1
X183.75Y-64.0
X183.9Y-65.45
X183.95Y-61.25
X184.056Y-62.405
X184.3Y-59.611
X185.15Y-65.5
X185.3Y-63.85
X185.35Y-61.65
X186.05Y-65.55
X186.1Y-59.8
X186.95Y-60.7
X187.45Y-63.55
X187.7Y-65.05
X187.864Y-59.814
X188.75Y-62.65
X189.35Y-64.2
X191.0Y-67.25
X191.8Y-56.85
X191.8Y-58.55
X192.338Y-62.35
X192.53Y-61.575
X193.15Y-62.875
X193.375Y-58.575
X193.703Y-63.475
X193.8Y-67.25
X194.05Y-60.15
X194.05Y-60.95
X194.85Y-64.15
X205.0Y-62.0
X205.05Y-64.6
T2
X159.0Y-54.76
X159.0Y-70.0
X161.54Y-54.76
X161.54Y-70.0
X164.08Y-54.76
X164.08Y-70.0
X166.62Y-54.76
X166.62Y-70.0
X169.16Y-54.76
X169.16Y-70.0
X171.7Y-54.76
X171.7Y-70.0
X174.24Y-54.76
X174.24Y-70.0
X176.78Y-54.76
X176.78Y-70.0
X179.32Y-54.76
X179.32Y-70.0
X181.86Y-54.76
X181.86Y-70.0
X184.4Y-54.76
X184.4Y-70.0
X186.94Y-54.76
X186.94Y-70.0
X189.48Y-54.76
X189.48Y-70.0
X192.02Y-54.76
X192.02Y-70.0
X194.56Y-54.76
X194.56Y-70.0
X197.1Y-54.76
X197.1Y-70.0
X199.64Y-54.76
X199.64Y-70.0
X202.18Y-54.76
X202.18Y-70.0
X204.72Y-54.76
X204.72Y-70.0
X207.26Y-54.76
X207.26Y-70.0
T0
M30
