%TF.GenerationSoftware,KiCad,Pcbnew,7.0.2*%
%TF.CreationDate,2023-06-20T04:44:58+07:00*%
%TF.ProjectId,STM32L431RCT6_prototype_board,53544d33-324c-4343-9331-524354365f70,rev?*%
%TF.SameCoordinates,Original*%
%TF.FileFunction,Copper,L4,Bot*%
%TF.FilePolarity,Positive*%
%FSLAX46Y46*%
G04 Gerber Fmt 4.6, Leading zero omitted, Abs format (unit mm)*
G04 Created by KiCad (PCBNEW 7.0.2) date 2023-06-20 04:44:58*
%MOMM*%
%LPD*%
G01*
G04 APERTURE LIST*
G04 Aperture macros list*
%AMRoundRect*
0 Rectangle with rounded corners*
0 $1 Rounding radius*
0 $2 $3 $4 $5 $6 $7 $8 $9 X,Y pos of 4 corners*
0 Add a 4 corners polygon primitive as box body*
4,1,4,$2,$3,$4,$5,$6,$7,$8,$9,$2,$3,0*
0 Add four circle primitives for the rounded corners*
1,1,$1+$1,$2,$3*
1,1,$1+$1,$4,$5*
1,1,$1+$1,$6,$7*
1,1,$1+$1,$8,$9*
0 Add four rect primitives between the rounded corners*
20,1,$1+$1,$2,$3,$4,$5,0*
20,1,$1+$1,$4,$5,$6,$7,0*
20,1,$1+$1,$6,$7,$8,$9,0*
20,1,$1+$1,$8,$9,$2,$3,0*%
G04 Aperture macros list end*
%TA.AperFunction,ComponentPad*%
%ADD10C,1.524000*%
%TD*%
%TA.AperFunction,SMDPad,CuDef*%
%ADD11RoundRect,0.250000X-1.450000X0.312500X-1.450000X-0.312500X1.450000X-0.312500X1.450000X0.312500X0*%
%TD*%
%TA.AperFunction,ViaPad*%
%ADD12C,0.600000*%
%TD*%
%TA.AperFunction,Conductor*%
%ADD13C,0.250000*%
%TD*%
%TA.AperFunction,Conductor*%
%ADD14C,0.200000*%
%TD*%
%TA.AperFunction,Conductor*%
%ADD15C,0.700000*%
%TD*%
G04 APERTURE END LIST*
D10*
%TO.P,J2,1,Pin_1*%
%TO.N,unconnected-(J2-Pin_1-Pad1)*%
X159000000Y-70000000D03*
%TO.P,J2,2,Pin_2*%
%TO.N,unconnected-(J2-Pin_2-Pad2)*%
X161540000Y-70000000D03*
%TO.P,J2,3,Pin_3*%
%TO.N,PA0*%
X164080000Y-70000000D03*
%TO.P,J2,4,Pin_4*%
%TO.N,PA1*%
X166620000Y-70000000D03*
%TO.P,J2,5,Pin_5*%
%TO.N,PA2*%
X169160000Y-70000000D03*
%TO.P,J2,6,Pin_6*%
%TO.N,PA3*%
X171700000Y-70000000D03*
%TO.P,J2,7,Pin_7*%
%TO.N,PA4*%
X174240000Y-70000000D03*
%TO.P,J2,8,Pin_8*%
%TO.N,PA5*%
X176780000Y-70000000D03*
%TO.P,J2,9,Pin_9*%
%TO.N,PA6*%
X179320000Y-70000000D03*
%TO.P,J2,10,Pin_10*%
%TO.N,PA7*%
X181860000Y-70000000D03*
%TO.P,J2,11,Pin_11*%
%TO.N,PB0*%
X184400000Y-70000000D03*
%TO.P,J2,12,Pin_12*%
%TO.N,PB1*%
X186940000Y-70000000D03*
%TO.P,J2,13,Pin_13*%
%TO.N,PB2*%
X189480000Y-70000000D03*
%TO.P,J2,14,Pin_14*%
%TO.N,PB10*%
X192020000Y-70000000D03*
%TO.P,J2,15,Pin_15*%
%TO.N,PB11*%
X194560000Y-70000000D03*
%TO.P,J2,16,Pin_16*%
%TO.N,PB12*%
X197100000Y-70000000D03*
%TO.P,J2,17,Pin_17*%
%TO.N,PB13*%
X199640000Y-70000000D03*
%TO.P,J2,18,Pin_18*%
%TO.N,PB14*%
X202180000Y-70000000D03*
%TO.P,J2,19,Pin_19*%
%TO.N,PB15*%
X204720000Y-70000000D03*
%TO.P,J2,20,Pin_20*%
%TO.N,GND*%
X207260000Y-70000000D03*
%TO.P,J2,21,Pin_21*%
%TO.N,unconnected-(J2-Pin_21-Pad21)*%
X207260000Y-54760000D03*
%TO.P,J2,22,Pin_22*%
%TO.N,BOOT0*%
X204720000Y-54760000D03*
%TO.P,J2,23,Pin_23*%
%TO.N,PA8*%
X202180000Y-54760000D03*
%TO.P,J2,24,Pin_24*%
%TO.N,PA9*%
X199640000Y-54760000D03*
%TO.P,J2,25,Pin_25*%
%TO.N,PA10*%
X197100000Y-54760000D03*
%TO.P,J2,26,Pin_26*%
%TO.N,PA11*%
X194560000Y-54760000D03*
%TO.P,J2,27,Pin_27*%
%TO.N,PA12*%
X192020000Y-54760000D03*
%TO.P,J2,28,Pin_28*%
%TO.N,PA15*%
X189480000Y-54760000D03*
%TO.P,J2,29,Pin_29*%
%TO.N,PB4*%
X186940000Y-54760000D03*
%TO.P,J2,30,Pin_30*%
%TO.N,PB5*%
X184400000Y-54760000D03*
%TO.P,J2,31,Pin_31*%
%TO.N,PB6*%
X181860000Y-54760000D03*
%TO.P,J2,32,Pin_32*%
%TO.N,PB7*%
X179320000Y-54760000D03*
%TO.P,J2,33,Pin_33*%
%TO.N,PB8*%
X176780000Y-54760000D03*
%TO.P,J2,34,Pin_34*%
%TO.N,PB9*%
X174240000Y-54760000D03*
%TO.P,J2,35,Pin_35*%
%TO.N,PC14*%
X171700000Y-54760000D03*
%TO.P,J2,36,Pin_36*%
%TO.N,PC15*%
X169160000Y-54760000D03*
%TO.P,J2,37,Pin_37*%
%TO.N,+3V3*%
X166620000Y-54760000D03*
%TO.P,J2,38,Pin_38*%
%TO.N,NRST*%
X164080000Y-54760000D03*
%TO.P,J2,39,Pin_39*%
%TO.N,unconnected-(J2-Pin_39-Pad39)*%
X161540000Y-54760000D03*
%TO.P,J2,40,Pin_40*%
%TO.N,+5V*%
X159000000Y-54760000D03*
%TD*%
D11*
%TO.P,F1,1*%
%TO.N,+5V*%
X161450000Y-58000000D03*
%TO.P,F1,2*%
%TO.N,/+5.0V*%
X161450000Y-62275000D03*
%TD*%
D12*
%TO.N,GND*%
X193375000Y-58575000D03*
X187700000Y-65050000D03*
X193800000Y-67250000D03*
X187450000Y-63550000D03*
X188750000Y-62650000D03*
X172500000Y-61700000D03*
X169450000Y-58900000D03*
X175050000Y-56850000D03*
X163400000Y-64350000D03*
X185300000Y-63850000D03*
X186950000Y-60700000D03*
X183900000Y-65450000D03*
X205000000Y-62000000D03*
X184300500Y-59610893D03*
%TO.N,+3V3*%
X182950000Y-57100000D03*
X205050000Y-64600000D03*
X172600000Y-65400000D03*
X172500000Y-58450000D03*
X191800000Y-58550000D03*
X172600000Y-63500000D03*
X168100000Y-58600000D03*
X172600000Y-64450000D03*
X191000000Y-67250000D03*
%TO.N,NRST*%
X184055849Y-62404523D03*
X166650000Y-67000000D03*
X163700000Y-59100000D03*
X163700000Y-67050000D03*
X194050000Y-60950000D03*
%TO.N,/+5.0V*%
X166500000Y-61800000D03*
X168600000Y-65300000D03*
X160250000Y-62250000D03*
X161400000Y-62250000D03*
X162550000Y-62250000D03*
%TO.N,Net-(U2-FB)*%
X166449500Y-65290215D03*
X170875000Y-60100000D03*
%TO.N,BOOT0*%
X191800000Y-56850000D03*
X186100000Y-59800000D03*
%TO.N,SYS_JTDO-SWO*%
X194050000Y-60150000D03*
X187864092Y-59814092D03*
%TO.N,SYS_JTCK-SWCLK*%
X194850000Y-64150000D03*
X189350000Y-64200000D03*
%TO.N,HEART_BEAT*%
X181200000Y-59900000D03*
X178287500Y-58100000D03*
%TO.N,PC15*%
X180050000Y-61288000D03*
%TO.N,PC14*%
X180300000Y-60500000D03*
%TO.N,PB8*%
X185350000Y-61650000D03*
%TO.N,PB9*%
X183950000Y-61250000D03*
%TO.N,PA0*%
X181100000Y-64500000D03*
%TO.N,PA1*%
X183750000Y-64000000D03*
%TO.N,PA2*%
X181900000Y-66300000D03*
%TO.N,PA6*%
X185150000Y-65500000D03*
%TO.N,PA7*%
X186050000Y-65550000D03*
%TO.N,PA8*%
X193703497Y-63474632D03*
%TO.N,PA9*%
X193150000Y-62875132D03*
%TO.N,PA10*%
X192337772Y-62350481D03*
%TO.N,PA11*%
X192530276Y-61574500D03*
%TD*%
D13*
%TO.N,NRST*%
X188750000Y-60950000D02*
X187200000Y-62500000D01*
D14*
X182760372Y-63700000D02*
X184055849Y-62404523D01*
X177700000Y-67000000D02*
X181000000Y-63700000D01*
X163700000Y-67050000D02*
X163750000Y-67000000D01*
D13*
X184151326Y-62500000D02*
X184055849Y-62404523D01*
D14*
X163750000Y-67000000D02*
X177700000Y-67000000D01*
D13*
X194050000Y-60950000D02*
X188750000Y-60950000D01*
D14*
X181000000Y-63700000D02*
X182760372Y-63700000D01*
D13*
X187200000Y-62500000D02*
X184151326Y-62500000D01*
D14*
%TO.N,Net-(U2-FB)*%
X170875000Y-62075000D02*
X170550000Y-62400000D01*
X167400000Y-62400000D02*
X166449500Y-63350500D01*
X170550000Y-62400000D02*
X167400000Y-62400000D01*
X170875000Y-60100000D02*
X170875000Y-62075000D01*
X166449500Y-63350500D02*
X166449500Y-65290215D01*
%TO.N,BOOT0*%
X191800000Y-56850000D02*
X191250000Y-56850000D01*
X186685908Y-59214092D02*
X186100000Y-59800000D01*
X188885908Y-59214092D02*
X186685908Y-59214092D01*
X191250000Y-56850000D02*
X188885908Y-59214092D01*
%TO.N,SYS_JTDO-SWO*%
X187864092Y-59814092D02*
X188500000Y-60450000D01*
X188500000Y-60450000D02*
X193701471Y-60450000D01*
X193701471Y-60450000D02*
X194001471Y-60150000D01*
X194001471Y-60150000D02*
X194050000Y-60150000D01*
%TO.N,SYS_JTCK-SWCLK*%
X194800000Y-64200000D02*
X194850000Y-64150000D01*
X189350000Y-64200000D02*
X194800000Y-64200000D01*
%TO.N,HEART_BEAT*%
X179300000Y-58000000D02*
X181200000Y-59900000D01*
X178287500Y-58000000D02*
X179300000Y-58000000D01*
%TO.N,PC15*%
X180050000Y-61288000D02*
X179862000Y-61100000D01*
X179862000Y-61100000D02*
X177400000Y-61100000D01*
X170950000Y-56550000D02*
X169160000Y-54760000D01*
X177400000Y-61100000D02*
X172850000Y-56550000D01*
X172850000Y-56550000D02*
X170950000Y-56550000D01*
%TO.N,PC14*%
X180300000Y-60500000D02*
X177440000Y-60500000D01*
X177440000Y-60500000D02*
X171700000Y-54760000D01*
%TO.N,PB8*%
X183415686Y-60650000D02*
X179765685Y-57000000D01*
X184350000Y-60650000D02*
X183415686Y-60650000D01*
X185350000Y-61650000D02*
X184350000Y-60650000D01*
X179765685Y-57000000D02*
X177450000Y-57000000D01*
X177450000Y-57000000D02*
X176780000Y-56330000D01*
X176780000Y-56330000D02*
X176780000Y-54760000D01*
%TO.N,PB9*%
X176880000Y-57400000D02*
X174240000Y-54760000D01*
X183450000Y-61250000D02*
X179600000Y-57400000D01*
X183950000Y-61250000D02*
X183450000Y-61250000D01*
X179600000Y-57400000D02*
X176880000Y-57400000D01*
D13*
%TO.N,PA0*%
X177949002Y-67650998D02*
X181100000Y-64500000D01*
X164080000Y-70000000D02*
X166429002Y-67650998D01*
X166429002Y-67650998D02*
X177949002Y-67650998D01*
%TO.N,PA1*%
X182300000Y-64200000D02*
X183550000Y-64200000D01*
X183550000Y-64200000D02*
X183750000Y-64000000D01*
X178399501Y-68100499D02*
X182300000Y-64200000D01*
X166620000Y-70000000D02*
X168519501Y-68100499D01*
X168519501Y-68100499D02*
X178399501Y-68100499D01*
%TO.N,PA2*%
X179000000Y-68550000D02*
X170610000Y-68550000D01*
X170610000Y-68550000D02*
X169160000Y-70000000D01*
X181250000Y-66300000D02*
X179000000Y-68550000D01*
X181900000Y-66300000D02*
X181250000Y-66300000D01*
%TO.N,PA6*%
X179320000Y-70000000D02*
X180406824Y-68913176D01*
X182310428Y-68913176D02*
X185150000Y-66073604D01*
X185150000Y-66073604D02*
X185150000Y-65500000D01*
X180406824Y-68913176D02*
X182310428Y-68913176D01*
%TO.N,PA7*%
X181860000Y-70000000D02*
X186050000Y-65810000D01*
X186050000Y-65810000D02*
X186050000Y-65550000D01*
D14*
%TO.N,PA8*%
X196550000Y-62181372D02*
X195256740Y-63474632D01*
X200490000Y-56450000D02*
X197200000Y-56450000D01*
X197200000Y-56450000D02*
X196550000Y-57100000D01*
X196550000Y-57100000D02*
X196550000Y-62181372D01*
X202180000Y-54760000D02*
X200490000Y-56450000D01*
X195256740Y-63474632D02*
X193703497Y-63474632D01*
%TO.N,PA9*%
X196850000Y-56050000D02*
X196150000Y-56750000D01*
X196150000Y-56750000D02*
X196150000Y-62015686D01*
X198350000Y-56050000D02*
X196850000Y-56050000D01*
X196150000Y-62015686D02*
X195290554Y-62875132D01*
X199640000Y-54760000D02*
X198350000Y-56050000D01*
X195290554Y-62875132D02*
X193150000Y-62875132D01*
%TO.N,PA10*%
X195750000Y-56110000D02*
X195750000Y-61850000D01*
X197100000Y-54760000D02*
X195750000Y-56110000D01*
X195750000Y-61850000D02*
X195324368Y-62275632D01*
X192412621Y-62275632D02*
X192337772Y-62350481D01*
X195324368Y-62275632D02*
X192412621Y-62275632D01*
%TO.N,PA11*%
X194560000Y-54760000D02*
X195321999Y-55521999D01*
X195321999Y-55521999D02*
X195321999Y-61528001D01*
X195321999Y-61528001D02*
X195275500Y-61574500D01*
X195275500Y-61574500D02*
X192530276Y-61574500D01*
D15*
%TO.N,+5V*%
X159000000Y-54760000D02*
X161450000Y-57210000D01*
X161450000Y-57210000D02*
X161450000Y-58000000D01*
%TD*%
%TA.AperFunction,Conductor*%
%TO.N,GND*%
G36*
X190817863Y-55213435D02*
G01*
X190862381Y-55264811D01*
X190922466Y-55393661D01*
X190922466Y-55393662D01*
X191049174Y-55574620D01*
X191205380Y-55730826D01*
X191386338Y-55857534D01*
X191464384Y-55893927D01*
X191516824Y-55940099D01*
X191535976Y-56007292D01*
X191515761Y-56074173D01*
X191462596Y-56119508D01*
X191452941Y-56123348D01*
X191450482Y-56124208D01*
X191285909Y-56227617D01*
X191283501Y-56223784D01*
X191245533Y-56244480D01*
X191235453Y-56246233D01*
X191229150Y-56247063D01*
X191210639Y-56249500D01*
X191122588Y-56261092D01*
X191093237Y-56264956D01*
X190947161Y-56325462D01*
X190918135Y-56347735D01*
X190821718Y-56421718D01*
X190821716Y-56421719D01*
X190821715Y-56421721D01*
X190802490Y-56446774D01*
X190791798Y-56458965D01*
X188673492Y-58577273D01*
X188612169Y-58610758D01*
X188585811Y-58613592D01*
X186733395Y-58613592D01*
X186717210Y-58612531D01*
X186713284Y-58612014D01*
X186685907Y-58608409D01*
X186650649Y-58613051D01*
X186646547Y-58613592D01*
X186596468Y-58620185D01*
X186529145Y-58629048D01*
X186383067Y-58689555D01*
X186257624Y-58785810D01*
X186238402Y-58810862D01*
X186227708Y-58823057D01*
X186081465Y-58969299D01*
X186020142Y-59002783D01*
X186007669Y-59004837D01*
X185920748Y-59014631D01*
X185920745Y-59014631D01*
X185920745Y-59014632D01*
X185750478Y-59074211D01*
X185750476Y-59074211D01*
X185750476Y-59074212D01*
X185597735Y-59170185D01*
X185470185Y-59297735D01*
X185374811Y-59449523D01*
X185374211Y-59450478D01*
X185321099Y-59602264D01*
X185314631Y-59620748D01*
X185294434Y-59799999D01*
X185314631Y-59979251D01*
X185314631Y-59979253D01*
X185314632Y-59979255D01*
X185374211Y-60149522D01*
X185374212Y-60149523D01*
X185470185Y-60302264D01*
X185597735Y-60429814D01*
X185597737Y-60429815D01*
X185597738Y-60429816D01*
X185750478Y-60525789D01*
X185920745Y-60585368D01*
X186100000Y-60605565D01*
X186279255Y-60585368D01*
X186449522Y-60525789D01*
X186602262Y-60429816D01*
X186729816Y-60302262D01*
X186825789Y-60149522D01*
X186862539Y-60044494D01*
X186903260Y-59987721D01*
X186968212Y-59961973D01*
X187036774Y-59975429D01*
X187087177Y-60023816D01*
X187096621Y-60044496D01*
X187138301Y-60163611D01*
X187234277Y-60316356D01*
X187361827Y-60443906D01*
X187361829Y-60443907D01*
X187361830Y-60443908D01*
X187514570Y-60539881D01*
X187684837Y-60599460D01*
X187771758Y-60609253D01*
X187836173Y-60636319D01*
X187845557Y-60644792D01*
X187920406Y-60719641D01*
X187953891Y-60780964D01*
X187948907Y-60850656D01*
X187920406Y-60895003D01*
X186977228Y-61838181D01*
X186915905Y-61871666D01*
X186889547Y-61874500D01*
X186269026Y-61874500D01*
X186201987Y-61854815D01*
X186156232Y-61802011D01*
X186145806Y-61736616D01*
X186155565Y-61649999D01*
X186139028Y-61503229D01*
X186135368Y-61470745D01*
X186075789Y-61300478D01*
X185979816Y-61147738D01*
X185979815Y-61147737D01*
X185979814Y-61147735D01*
X185852264Y-61020185D01*
X185789867Y-60980979D01*
X185699522Y-60924211D01*
X185529255Y-60864632D01*
X185529251Y-60864631D01*
X185529250Y-60864631D01*
X185442330Y-60854837D01*
X185377916Y-60827770D01*
X185368533Y-60819298D01*
X184808199Y-60258964D01*
X184797503Y-60246768D01*
X184778281Y-60221716D01*
X184652840Y-60125463D01*
X184506762Y-60064956D01*
X184444522Y-60056762D01*
X184350000Y-60044317D01*
X184322163Y-60047982D01*
X184318697Y-60048439D01*
X184302513Y-60049500D01*
X183715783Y-60049500D01*
X183648744Y-60029815D01*
X183628102Y-60013181D01*
X180714920Y-57100000D01*
X182144434Y-57100000D01*
X182164631Y-57279251D01*
X182164631Y-57279253D01*
X182164632Y-57279255D01*
X182224211Y-57449522D01*
X182224212Y-57449523D01*
X182320185Y-57602264D01*
X182447735Y-57729814D01*
X182447737Y-57729815D01*
X182447738Y-57729816D01*
X182600478Y-57825789D01*
X182770745Y-57885368D01*
X182950000Y-57905565D01*
X183129255Y-57885368D01*
X183299522Y-57825789D01*
X183452262Y-57729816D01*
X183579816Y-57602262D01*
X183675789Y-57449522D01*
X183735368Y-57279255D01*
X183755565Y-57100000D01*
X183735368Y-56920745D01*
X183675789Y-56750478D01*
X183579816Y-56597738D01*
X183579815Y-56597737D01*
X183579814Y-56597735D01*
X183452264Y-56470185D01*
X183339769Y-56399500D01*
X183299522Y-56374211D01*
X183129255Y-56314632D01*
X183129253Y-56314631D01*
X183129251Y-56314631D01*
X182950000Y-56294434D01*
X182770748Y-56314631D01*
X182770745Y-56314631D01*
X182770745Y-56314632D01*
X182600478Y-56374211D01*
X182600476Y-56374211D01*
X182600476Y-56374212D01*
X182447735Y-56470185D01*
X182320185Y-56597735D01*
X182260789Y-56692264D01*
X182224211Y-56750478D01*
X182171143Y-56902138D01*
X182164631Y-56920748D01*
X182144434Y-57100000D01*
X180714920Y-57100000D01*
X180223884Y-56608964D01*
X180213188Y-56596768D01*
X180193966Y-56571716D01*
X180068525Y-56475463D01*
X179922447Y-56414956D01*
X179805046Y-56399500D01*
X179765685Y-56394317D01*
X179737848Y-56397982D01*
X179734382Y-56398439D01*
X179718198Y-56399500D01*
X177750097Y-56399500D01*
X177683058Y-56379815D01*
X177662416Y-56363181D01*
X177416819Y-56117583D01*
X177383334Y-56056260D01*
X177380500Y-56029902D01*
X177380500Y-55945304D01*
X177400185Y-55878265D01*
X177433375Y-55843730D01*
X177594620Y-55730826D01*
X177750826Y-55574620D01*
X177877534Y-55393662D01*
X177935185Y-55270027D01*
X177937618Y-55264811D01*
X177983790Y-55212372D01*
X178050984Y-55193220D01*
X178117865Y-55213436D01*
X178162382Y-55264811D01*
X178187140Y-55317904D01*
X178222466Y-55393662D01*
X178349174Y-55574620D01*
X178505380Y-55730826D01*
X178686338Y-55857534D01*
X178886550Y-55950894D01*
X179099932Y-56008070D01*
X179320000Y-56027323D01*
X179540068Y-56008070D01*
X179753450Y-55950894D01*
X179953662Y-55857534D01*
X180134620Y-55730826D01*
X180290826Y-55574620D01*
X180417534Y-55393662D01*
X180477618Y-55264810D01*
X180523789Y-55212372D01*
X180590982Y-55193220D01*
X180657863Y-55213435D01*
X180702381Y-55264811D01*
X180762466Y-55393661D01*
X180762466Y-55393662D01*
X180889174Y-55574620D01*
X181045380Y-55730826D01*
X181226338Y-55857534D01*
X181426550Y-55950894D01*
X181639932Y-56008070D01*
X181860000Y-56027323D01*
X182080068Y-56008070D01*
X182293450Y-55950894D01*
X182493662Y-55857534D01*
X182674620Y-55730826D01*
X182830826Y-55574620D01*
X182957534Y-55393662D01*
X183015185Y-55270027D01*
X183017618Y-55264811D01*
X183063790Y-55212372D01*
X183130984Y-55193220D01*
X183197865Y-55213436D01*
X183242382Y-55264811D01*
X183267140Y-55317904D01*
X183302466Y-55393662D01*
X183429174Y-55574620D01*
X183585380Y-55730826D01*
X183766338Y-55857534D01*
X183966550Y-55950894D01*
X184179932Y-56008070D01*
X184400000Y-56027323D01*
X184620068Y-56008070D01*
X184833450Y-55950894D01*
X185033662Y-55857534D01*
X185214620Y-55730826D01*
X185370826Y-55574620D01*
X185497534Y-55393662D01*
X185555185Y-55270027D01*
X185557618Y-55264811D01*
X185603790Y-55212372D01*
X185670984Y-55193220D01*
X185737865Y-55213436D01*
X185782382Y-55264811D01*
X185807140Y-55317904D01*
X185842466Y-55393662D01*
X185969174Y-55574620D01*
X186125380Y-55730826D01*
X186306338Y-55857534D01*
X186506550Y-55950894D01*
X186719932Y-56008070D01*
X186940000Y-56027323D01*
X187160068Y-56008070D01*
X187373450Y-55950894D01*
X187573662Y-55857534D01*
X187754620Y-55730826D01*
X187910826Y-55574620D01*
X188037534Y-55393662D01*
X188095185Y-55270027D01*
X188097618Y-55264811D01*
X188143790Y-55212372D01*
X188210984Y-55193220D01*
X188277865Y-55213436D01*
X188322382Y-55264811D01*
X188347140Y-55317904D01*
X188382466Y-55393662D01*
X188509174Y-55574620D01*
X188665380Y-55730826D01*
X188846338Y-55857534D01*
X189046550Y-55950894D01*
X189259932Y-56008070D01*
X189480000Y-56027323D01*
X189700068Y-56008070D01*
X189913450Y-55950894D01*
X190113662Y-55857534D01*
X190294620Y-55730826D01*
X190450826Y-55574620D01*
X190577534Y-55393662D01*
X190637618Y-55264810D01*
X190683789Y-55212372D01*
X190750982Y-55193220D01*
X190817863Y-55213435D01*
G37*
%TD.AperFunction*%
%TA.AperFunction,Conductor*%
G36*
X174601752Y-55990482D02*
G01*
X174651679Y-56020914D01*
X176421799Y-57791034D01*
X176432494Y-57803229D01*
X176451717Y-57828282D01*
X176511574Y-57874211D01*
X176559150Y-57910717D01*
X176577159Y-57924536D01*
X176723238Y-57985044D01*
X176848698Y-58001561D01*
X176879999Y-58005682D01*
X176879999Y-58005681D01*
X176880000Y-58005682D01*
X176911302Y-58001560D01*
X176927487Y-58000500D01*
X177359911Y-58000500D01*
X177426950Y-58020185D01*
X177472705Y-58072989D01*
X177483131Y-58110617D01*
X177501173Y-58270748D01*
X177502132Y-58279255D01*
X177561711Y-58449522D01*
X177618478Y-58539867D01*
X177657685Y-58602264D01*
X177785235Y-58729814D01*
X177785237Y-58729815D01*
X177785238Y-58729816D01*
X177937978Y-58825789D01*
X178108245Y-58885368D01*
X178287500Y-58905565D01*
X178466755Y-58885368D01*
X178637022Y-58825789D01*
X178789762Y-58729816D01*
X178882760Y-58636817D01*
X178944081Y-58603334D01*
X178970440Y-58600500D01*
X178999903Y-58600500D01*
X179066942Y-58620185D01*
X179087584Y-58636819D01*
X180014278Y-59563513D01*
X180047763Y-59624836D01*
X180042779Y-59694528D01*
X180000907Y-59750461D01*
X179967556Y-59768234D01*
X179950480Y-59774209D01*
X179785908Y-59877617D01*
X179783965Y-59874524D01*
X179743417Y-59896666D01*
X179717059Y-59899500D01*
X177740097Y-59899500D01*
X177673058Y-59879815D01*
X177652416Y-59863181D01*
X174016862Y-56227627D01*
X173983377Y-56166304D01*
X173988361Y-56096612D01*
X174030233Y-56040679D01*
X174095697Y-56016262D01*
X174115350Y-56016418D01*
X174240000Y-56027323D01*
X174460068Y-56008070D01*
X174531903Y-55988821D01*
X174601752Y-55990482D01*
G37*
%TD.AperFunction*%
%TA.AperFunction,Conductor*%
G36*
X193357865Y-55213436D02*
G01*
X193402382Y-55264811D01*
X193427140Y-55317904D01*
X193462466Y-55393662D01*
X193589174Y-55574620D01*
X193745380Y-55730826D01*
X193926338Y-55857534D01*
X194126550Y-55950894D01*
X194339932Y-56008070D01*
X194449966Y-56017696D01*
X194559998Y-56027323D01*
X194559999Y-56027322D01*
X194560000Y-56027323D01*
X194577751Y-56025770D01*
X194586691Y-56024988D01*
X194655191Y-56038754D01*
X194705374Y-56087369D01*
X194721499Y-56148516D01*
X194721499Y-59402161D01*
X194701814Y-59469200D01*
X194649010Y-59514955D01*
X194579852Y-59524899D01*
X194531527Y-59507155D01*
X194470168Y-59468600D01*
X194399522Y-59424211D01*
X194229255Y-59364632D01*
X194229253Y-59364631D01*
X194229251Y-59364631D01*
X194050000Y-59344434D01*
X193870748Y-59364631D01*
X193870745Y-59364631D01*
X193870745Y-59364632D01*
X193700478Y-59424211D01*
X193700476Y-59424211D01*
X193700476Y-59424212D01*
X193547735Y-59520185D01*
X193420185Y-59647735D01*
X193329870Y-59791472D01*
X193277535Y-59837763D01*
X193224876Y-59849500D01*
X189406704Y-59849500D01*
X189339665Y-59829815D01*
X189293910Y-59777011D01*
X189283966Y-59707853D01*
X189308325Y-59650018D01*
X189314190Y-59642374D01*
X189333417Y-59617315D01*
X189344098Y-59605135D01*
X190865236Y-58083997D01*
X190926557Y-58050514D01*
X190996249Y-58055498D01*
X191052182Y-58097370D01*
X191076599Y-58162834D01*
X191069957Y-58212634D01*
X191014631Y-58370747D01*
X190994434Y-58550000D01*
X191014631Y-58729251D01*
X191014631Y-58729253D01*
X191014632Y-58729255D01*
X191074211Y-58899522D01*
X191087548Y-58920748D01*
X191170185Y-59052264D01*
X191297735Y-59179814D01*
X191297737Y-59179815D01*
X191297738Y-59179816D01*
X191450478Y-59275789D01*
X191620745Y-59335368D01*
X191800000Y-59355565D01*
X191979255Y-59335368D01*
X192149522Y-59275789D01*
X192302262Y-59179816D01*
X192429816Y-59052262D01*
X192525789Y-58899522D01*
X192585368Y-58729255D01*
X192605565Y-58550000D01*
X192585368Y-58370745D01*
X192525789Y-58200478D01*
X192429816Y-58047738D01*
X192429815Y-58047737D01*
X192429814Y-58047735D01*
X192302264Y-57920185D01*
X192149522Y-57824211D01*
X192138013Y-57820184D01*
X192129031Y-57817041D01*
X192072257Y-57776320D01*
X192046509Y-57711367D01*
X192059965Y-57642806D01*
X192108352Y-57592403D01*
X192129029Y-57582959D01*
X192149522Y-57575789D01*
X192302262Y-57479816D01*
X192429816Y-57352262D01*
X192525789Y-57199522D01*
X192585368Y-57029255D01*
X192605565Y-56850000D01*
X192603298Y-56829884D01*
X192594351Y-56750476D01*
X192585368Y-56670745D01*
X192525789Y-56500478D01*
X192429816Y-56347738D01*
X192429815Y-56347737D01*
X192429814Y-56347735D01*
X192302263Y-56220184D01*
X192287658Y-56211007D01*
X192241368Y-56158671D01*
X192230721Y-56089618D01*
X192259097Y-56025770D01*
X192317488Y-55987399D01*
X192321499Y-55986250D01*
X192453450Y-55950894D01*
X192653662Y-55857534D01*
X192834620Y-55730826D01*
X192990826Y-55574620D01*
X193117534Y-55393662D01*
X193175185Y-55270027D01*
X193177618Y-55264811D01*
X193223790Y-55212372D01*
X193290984Y-55193220D01*
X193357865Y-55213436D01*
G37*
%TD.AperFunction*%
%TA.AperFunction,Conductor*%
G36*
X207903139Y-52250835D02*
G01*
X207907548Y-52251160D01*
X207945490Y-52254479D01*
X208043081Y-52264092D01*
X208049071Y-52264831D01*
X208088605Y-52270695D01*
X208100525Y-52273067D01*
X208109181Y-52275235D01*
X208109558Y-52275330D01*
X208156514Y-52287911D01*
X208160170Y-52288957D01*
X208232640Y-52310940D01*
X208238404Y-52312844D01*
X208245204Y-52315276D01*
X208266848Y-52323020D01*
X208277440Y-52327373D01*
X208330148Y-52351951D01*
X208333856Y-52353681D01*
X208339901Y-52356704D01*
X208409466Y-52393887D01*
X208414729Y-52396868D01*
X208430514Y-52406329D01*
X208437878Y-52411106D01*
X208461017Y-52427308D01*
X208492902Y-52449634D01*
X208500426Y-52455343D01*
X208540181Y-52487968D01*
X208566688Y-52509723D01*
X208571290Y-52513693D01*
X208574682Y-52516767D01*
X208579095Y-52520968D01*
X208629021Y-52570894D01*
X208633223Y-52575307D01*
X208636316Y-52578720D01*
X208640286Y-52583323D01*
X208694647Y-52649562D01*
X208700368Y-52657103D01*
X208738890Y-52712117D01*
X208743670Y-52719486D01*
X208753128Y-52735266D01*
X208756107Y-52740524D01*
X208788014Y-52800217D01*
X208793295Y-52810097D01*
X208796317Y-52816143D01*
X208822616Y-52872539D01*
X208826984Y-52883166D01*
X208826987Y-52883174D01*
X208826988Y-52883175D01*
X208837146Y-52911568D01*
X208839054Y-52917342D01*
X208861018Y-52989747D01*
X208862132Y-52993651D01*
X208874669Y-53040442D01*
X208874896Y-53041346D01*
X208876983Y-53049680D01*
X208879293Y-53061326D01*
X208885165Y-53100909D01*
X208885910Y-53106950D01*
X208895525Y-53204568D01*
X208898836Y-53242419D01*
X208899185Y-53247146D01*
X208899500Y-53255898D01*
X208899500Y-71494014D01*
X208899163Y-71503149D01*
X208898834Y-71507603D01*
X208895522Y-71545468D01*
X208885910Y-71643053D01*
X208885166Y-71649086D01*
X208879305Y-71688593D01*
X208876932Y-71700521D01*
X208874672Y-71709545D01*
X208862125Y-71756376D01*
X208861022Y-71760239D01*
X208839059Y-71832643D01*
X208837149Y-71838424D01*
X208826984Y-71866832D01*
X208822615Y-71877462D01*
X208796321Y-71933848D01*
X208793298Y-71939894D01*
X208756118Y-72009454D01*
X208753117Y-72014752D01*
X208743673Y-72030508D01*
X208738890Y-72037882D01*
X208700370Y-72092894D01*
X208694649Y-72100434D01*
X208640273Y-72166692D01*
X208636293Y-72171305D01*
X208633232Y-72174682D01*
X208629039Y-72179086D01*
X208579086Y-72229039D01*
X208574682Y-72233232D01*
X208571305Y-72236293D01*
X208566692Y-72240273D01*
X208500434Y-72294649D01*
X208492894Y-72300370D01*
X208437882Y-72338890D01*
X208430508Y-72343673D01*
X208414752Y-72353117D01*
X208409454Y-72356118D01*
X208339894Y-72393298D01*
X208333848Y-72396321D01*
X208277462Y-72422615D01*
X208266832Y-72426984D01*
X208238424Y-72437149D01*
X208232641Y-72439059D01*
X208160257Y-72461015D01*
X208156358Y-72462129D01*
X208109559Y-72474669D01*
X208108924Y-72474828D01*
X208100319Y-72476983D01*
X208088668Y-72479294D01*
X208049088Y-72485165D01*
X208043049Y-72485910D01*
X207945431Y-72495525D01*
X207907580Y-72498836D01*
X207907204Y-72498864D01*
X207902854Y-72499185D01*
X207894101Y-72499500D01*
X158305984Y-72499500D01*
X158296849Y-72499163D01*
X158292395Y-72498834D01*
X158254580Y-72495526D01*
X158193210Y-72489482D01*
X158156946Y-72485910D01*
X158150913Y-72485166D01*
X158111400Y-72479304D01*
X158099472Y-72476931D01*
X158090452Y-72474672D01*
X158062140Y-72467086D01*
X158043613Y-72462122D01*
X158039769Y-72461024D01*
X157967343Y-72439054D01*
X157961568Y-72437146D01*
X157949147Y-72432702D01*
X157933166Y-72426984D01*
X157922539Y-72422616D01*
X157866143Y-72396317D01*
X157860097Y-72393295D01*
X157850217Y-72388014D01*
X157790524Y-72356107D01*
X157785266Y-72353128D01*
X157769486Y-72343670D01*
X157762117Y-72338890D01*
X157707103Y-72300368D01*
X157699562Y-72294647D01*
X157633323Y-72240286D01*
X157628720Y-72236316D01*
X157625307Y-72233223D01*
X157620894Y-72229021D01*
X157570968Y-72179095D01*
X157566767Y-72174682D01*
X157563693Y-72171290D01*
X157559723Y-72166688D01*
X157537968Y-72140181D01*
X157505343Y-72100426D01*
X157499628Y-72092894D01*
X157478216Y-72062315D01*
X157461106Y-72037878D01*
X157456325Y-72030507D01*
X157446868Y-72014729D01*
X157443881Y-72009455D01*
X157443880Y-72009454D01*
X157406700Y-71939894D01*
X157403681Y-71933856D01*
X157399292Y-71924445D01*
X157377373Y-71877440D01*
X157373020Y-71866848D01*
X157362844Y-71838404D01*
X157360938Y-71832634D01*
X157338962Y-71760187D01*
X157337897Y-71756459D01*
X157325322Y-71709530D01*
X157323012Y-71700304D01*
X157320706Y-71688674D01*
X157314834Y-71649091D01*
X157314089Y-71643056D01*
X157304475Y-71545438D01*
X157301163Y-71507588D01*
X157300811Y-71502813D01*
X157300500Y-71494109D01*
X157300500Y-70000000D01*
X157732676Y-70000000D01*
X157751929Y-70220065D01*
X157809106Y-70433451D01*
X157902347Y-70633406D01*
X157902466Y-70633662D01*
X158029174Y-70814620D01*
X158185380Y-70970826D01*
X158366338Y-71097534D01*
X158566550Y-71190894D01*
X158779932Y-71248070D01*
X159000000Y-71267323D01*
X159220068Y-71248070D01*
X159433450Y-71190894D01*
X159633662Y-71097534D01*
X159814620Y-70970826D01*
X159970826Y-70814620D01*
X160097534Y-70633662D01*
X160155185Y-70510027D01*
X160157618Y-70504811D01*
X160203790Y-70452372D01*
X160270984Y-70433220D01*
X160337865Y-70453436D01*
X160382382Y-70504811D01*
X160442347Y-70633406D01*
X160442466Y-70633662D01*
X160569174Y-70814620D01*
X160725380Y-70970826D01*
X160906338Y-71097534D01*
X161106550Y-71190894D01*
X161319932Y-71248070D01*
X161466644Y-71260905D01*
X161539999Y-71267323D01*
X161539999Y-71267322D01*
X161540000Y-71267323D01*
X161760068Y-71248070D01*
X161973450Y-71190894D01*
X162173662Y-71097534D01*
X162354620Y-70970826D01*
X162510826Y-70814620D01*
X162637534Y-70633662D01*
X162695185Y-70510027D01*
X162697618Y-70504811D01*
X162743790Y-70452372D01*
X162810984Y-70433220D01*
X162877865Y-70453436D01*
X162922382Y-70504811D01*
X162982347Y-70633406D01*
X162982466Y-70633662D01*
X163109174Y-70814620D01*
X163265380Y-70970826D01*
X163446338Y-71097534D01*
X163646550Y-71190894D01*
X163859932Y-71248070D01*
X164080000Y-71267323D01*
X164300068Y-71248070D01*
X164513450Y-71190894D01*
X164713662Y-71097534D01*
X164894620Y-70970826D01*
X165050826Y-70814620D01*
X165177534Y-70633662D01*
X165235185Y-70510027D01*
X165237618Y-70504811D01*
X165283790Y-70452372D01*
X165350984Y-70433220D01*
X165417865Y-70453436D01*
X165462382Y-70504811D01*
X165522347Y-70633406D01*
X165522466Y-70633662D01*
X165649174Y-70814620D01*
X165805380Y-70970826D01*
X165986338Y-71097534D01*
X166186550Y-71190894D01*
X166399932Y-71248070D01*
X166620000Y-71267323D01*
X166840068Y-71248070D01*
X167053450Y-71190894D01*
X167253662Y-71097534D01*
X167434620Y-70970826D01*
X167590826Y-70814620D01*
X167717534Y-70633662D01*
X167775185Y-70510027D01*
X167777618Y-70504811D01*
X167823790Y-70452372D01*
X167890984Y-70433220D01*
X167957865Y-70453436D01*
X168002382Y-70504811D01*
X168062347Y-70633406D01*
X168062466Y-70633662D01*
X168189174Y-70814620D01*
X168345380Y-70970826D01*
X168526338Y-71097534D01*
X168726550Y-71190894D01*
X168939932Y-71248070D01*
X169160000Y-71267323D01*
X169380068Y-71248070D01*
X169593450Y-71190894D01*
X169793662Y-71097534D01*
X169974620Y-70970826D01*
X170130826Y-70814620D01*
X170257534Y-70633662D01*
X170315185Y-70510027D01*
X170317618Y-70504811D01*
X170363790Y-70452372D01*
X170430984Y-70433220D01*
X170497865Y-70453436D01*
X170542382Y-70504811D01*
X170602347Y-70633406D01*
X170602466Y-70633662D01*
X170729174Y-70814620D01*
X170885380Y-70970826D01*
X171066338Y-71097534D01*
X171266550Y-71190894D01*
X171479932Y-71248070D01*
X171626644Y-71260905D01*
X171699999Y-71267323D01*
X171699999Y-71267322D01*
X171700000Y-71267323D01*
X171920068Y-71248070D01*
X172133450Y-71190894D01*
X172333662Y-71097534D01*
X172514620Y-70970826D01*
X172670826Y-70814620D01*
X172797534Y-70633662D01*
X172855185Y-70510027D01*
X172857618Y-70504811D01*
X172903790Y-70452372D01*
X172970984Y-70433220D01*
X173037865Y-70453436D01*
X173082382Y-70504811D01*
X173142347Y-70633406D01*
X173142466Y-70633662D01*
X173269174Y-70814620D01*
X173425380Y-70970826D01*
X173606338Y-71097534D01*
X173806550Y-71190894D01*
X174019932Y-71248070D01*
X174240000Y-71267323D01*
X174460068Y-71248070D01*
X174673450Y-71190894D01*
X174873662Y-71097534D01*
X175054620Y-70970826D01*
X175210826Y-70814620D01*
X175337534Y-70633662D01*
X175395185Y-70510027D01*
X175397618Y-70504811D01*
X175443790Y-70452372D01*
X175510984Y-70433220D01*
X175577865Y-70453436D01*
X175622382Y-70504811D01*
X175682347Y-70633406D01*
X175682466Y-70633662D01*
X175809174Y-70814620D01*
X175965380Y-70970826D01*
X176146338Y-71097534D01*
X176346550Y-71190894D01*
X176559932Y-71248070D01*
X176780000Y-71267323D01*
X177000068Y-71248070D01*
X177213450Y-71190894D01*
X177413662Y-71097534D01*
X177594620Y-70970826D01*
X177750826Y-70814620D01*
X177877534Y-70633662D01*
X177935185Y-70510027D01*
X177937618Y-70504811D01*
X177983790Y-70452372D01*
X178050984Y-70433220D01*
X178117865Y-70453436D01*
X178162382Y-70504811D01*
X178222347Y-70633406D01*
X178222466Y-70633662D01*
X178349174Y-70814620D01*
X178505380Y-70970826D01*
X178686338Y-71097534D01*
X178886550Y-71190894D01*
X179099932Y-71248070D01*
X179320000Y-71267323D01*
X179540068Y-71248070D01*
X179753450Y-71190894D01*
X179953662Y-71097534D01*
X180134620Y-70970826D01*
X180290826Y-70814620D01*
X180417534Y-70633662D01*
X180477618Y-70504810D01*
X180523789Y-70452372D01*
X180590982Y-70433220D01*
X180657863Y-70453435D01*
X180702381Y-70504811D01*
X180762347Y-70633406D01*
X180762466Y-70633662D01*
X180889174Y-70814620D01*
X181045380Y-70970826D01*
X181226338Y-71097534D01*
X181426550Y-71190894D01*
X181639932Y-71248070D01*
X181786643Y-71260905D01*
X181859999Y-71267323D01*
X181859999Y-71267322D01*
X181860000Y-71267323D01*
X182080068Y-71248070D01*
X182293450Y-71190894D01*
X182493662Y-71097534D01*
X182674620Y-70970826D01*
X182830826Y-70814620D01*
X182957534Y-70633662D01*
X183015185Y-70510027D01*
X183017618Y-70504811D01*
X183063790Y-70452372D01*
X183130984Y-70433220D01*
X183197865Y-70453436D01*
X183242382Y-70504811D01*
X183302347Y-70633406D01*
X183302466Y-70633662D01*
X183429174Y-70814620D01*
X183585380Y-70970826D01*
X183766338Y-71097534D01*
X183966550Y-71190894D01*
X184179932Y-71248070D01*
X184400000Y-71267323D01*
X184620068Y-71248070D01*
X184833450Y-71190894D01*
X185033662Y-71097534D01*
X185214620Y-70970826D01*
X185370826Y-70814620D01*
X185497534Y-70633662D01*
X185555185Y-70510027D01*
X185557618Y-70504811D01*
X185603790Y-70452372D01*
X185670984Y-70433220D01*
X185737865Y-70453436D01*
X185782382Y-70504811D01*
X185842347Y-70633406D01*
X185842466Y-70633662D01*
X185969174Y-70814620D01*
X186125380Y-70970826D01*
X186306338Y-71097534D01*
X186506550Y-71190894D01*
X186719932Y-71248070D01*
X186940000Y-71267323D01*
X187160068Y-71248070D01*
X187373450Y-71190894D01*
X187573662Y-71097534D01*
X187754620Y-70970826D01*
X187910826Y-70814620D01*
X188037534Y-70633662D01*
X188095185Y-70510027D01*
X188097618Y-70504811D01*
X188143790Y-70452372D01*
X188210984Y-70433220D01*
X188277865Y-70453436D01*
X188322382Y-70504811D01*
X188382347Y-70633406D01*
X188382466Y-70633662D01*
X188509174Y-70814620D01*
X188665380Y-70970826D01*
X188846338Y-71097534D01*
X189046550Y-71190894D01*
X189259932Y-71248070D01*
X189480000Y-71267323D01*
X189700068Y-71248070D01*
X189913450Y-71190894D01*
X190113662Y-71097534D01*
X190294620Y-70970826D01*
X190450826Y-70814620D01*
X190577534Y-70633662D01*
X190637618Y-70504810D01*
X190683789Y-70452372D01*
X190750982Y-70433220D01*
X190817863Y-70453435D01*
X190862381Y-70504811D01*
X190922347Y-70633406D01*
X190922466Y-70633662D01*
X191049174Y-70814620D01*
X191205380Y-70970826D01*
X191386338Y-71097534D01*
X191586550Y-71190894D01*
X191799932Y-71248070D01*
X191946643Y-71260905D01*
X192019999Y-71267323D01*
X192019999Y-71267322D01*
X192020000Y-71267323D01*
X192240068Y-71248070D01*
X192453450Y-71190894D01*
X192653662Y-71097534D01*
X192834620Y-70970826D01*
X192990826Y-70814620D01*
X193117534Y-70633662D01*
X193175185Y-70510027D01*
X193177618Y-70504811D01*
X193223790Y-70452372D01*
X193290984Y-70433220D01*
X193357865Y-70453436D01*
X193402382Y-70504811D01*
X193462347Y-70633406D01*
X193462466Y-70633662D01*
X193589174Y-70814620D01*
X193745380Y-70970826D01*
X193926338Y-71097534D01*
X194126550Y-71190894D01*
X194339932Y-71248070D01*
X194560000Y-71267323D01*
X194780068Y-71248070D01*
X194993450Y-71190894D01*
X195193662Y-71097534D01*
X195374620Y-70970826D01*
X195530826Y-70814620D01*
X195657534Y-70633662D01*
X195715185Y-70510027D01*
X195717618Y-70504811D01*
X195763790Y-70452372D01*
X195830984Y-70433220D01*
X195897865Y-70453436D01*
X195942382Y-70504811D01*
X196002347Y-70633406D01*
X196002466Y-70633662D01*
X196129174Y-70814620D01*
X196285380Y-70970826D01*
X196466338Y-71097534D01*
X196666550Y-71190894D01*
X196879932Y-71248070D01*
X197100000Y-71267323D01*
X197320068Y-71248070D01*
X197533450Y-71190894D01*
X197733662Y-71097534D01*
X197914620Y-70970826D01*
X198070826Y-70814620D01*
X198197534Y-70633662D01*
X198255185Y-70510027D01*
X198257618Y-70504811D01*
X198303790Y-70452372D01*
X198370984Y-70433220D01*
X198437865Y-70453436D01*
X198482382Y-70504811D01*
X198542347Y-70633406D01*
X198542466Y-70633662D01*
X198669174Y-70814620D01*
X198825380Y-70970826D01*
X199006338Y-71097534D01*
X199206550Y-71190894D01*
X199419932Y-71248070D01*
X199640000Y-71267323D01*
X199860068Y-71248070D01*
X200073450Y-71190894D01*
X200273662Y-71097534D01*
X200454620Y-70970826D01*
X200610826Y-70814620D01*
X200737534Y-70633662D01*
X200797618Y-70504810D01*
X200843789Y-70452372D01*
X200910982Y-70433220D01*
X200977863Y-70453435D01*
X201022381Y-70504811D01*
X201082347Y-70633406D01*
X201082466Y-70633662D01*
X201209174Y-70814620D01*
X201365380Y-70970826D01*
X201546338Y-71097534D01*
X201746550Y-71190894D01*
X201959932Y-71248070D01*
X202106644Y-71260905D01*
X202179999Y-71267323D01*
X202179999Y-71267322D01*
X202180000Y-71267323D01*
X202400068Y-71248070D01*
X202613450Y-71190894D01*
X202813662Y-71097534D01*
X202994620Y-70970826D01*
X203150826Y-70814620D01*
X203277534Y-70633662D01*
X203335185Y-70510027D01*
X203337618Y-70504811D01*
X203383790Y-70452372D01*
X203450984Y-70433220D01*
X203517865Y-70453436D01*
X203562382Y-70504811D01*
X203622347Y-70633406D01*
X203622466Y-70633662D01*
X203749174Y-70814620D01*
X203905380Y-70970826D01*
X204086338Y-71097534D01*
X204286550Y-71190894D01*
X204499932Y-71248070D01*
X204720000Y-71267323D01*
X204940068Y-71248070D01*
X205153450Y-71190894D01*
X205353662Y-71097534D01*
X205534620Y-70970826D01*
X205690826Y-70814620D01*
X205817534Y-70633662D01*
X205877894Y-70504218D01*
X205924066Y-70451779D01*
X205991259Y-70432627D01*
X206058141Y-70452842D01*
X206102658Y-70504219D01*
X206162898Y-70633406D01*
X206208258Y-70698187D01*
X206875096Y-70031349D01*
X206875051Y-70031898D01*
X206906266Y-70155162D01*
X206975813Y-70261612D01*
X207076157Y-70339713D01*
X207196422Y-70381000D01*
X207232553Y-70381000D01*
X206561812Y-71051740D01*
X206626593Y-71097101D01*
X206826718Y-71190420D01*
X207040021Y-71247575D01*
X207260000Y-71266821D01*
X207479978Y-71247575D01*
X207693281Y-71190420D01*
X207893408Y-71097100D01*
X207958187Y-71051740D01*
X207287448Y-70381000D01*
X207291569Y-70381000D01*
X207385421Y-70365339D01*
X207497251Y-70304820D01*
X207583371Y-70211269D01*
X207634448Y-70094823D01*
X207640105Y-70026552D01*
X208311740Y-70698186D01*
X208357100Y-70633408D01*
X208450420Y-70433281D01*
X208507575Y-70219978D01*
X208526821Y-70000000D01*
X208507575Y-69780021D01*
X208450421Y-69566720D01*
X208357098Y-69366589D01*
X208311740Y-69301811D01*
X207644903Y-69968648D01*
X207644949Y-69968102D01*
X207613734Y-69844838D01*
X207544187Y-69738388D01*
X207443843Y-69660287D01*
X207323578Y-69619000D01*
X207287447Y-69619000D01*
X207958187Y-68948258D01*
X207893406Y-68902898D01*
X207693281Y-68809579D01*
X207479978Y-68752424D01*
X207260000Y-68733178D01*
X207040021Y-68752424D01*
X206826719Y-68809578D01*
X206626589Y-68902900D01*
X206561812Y-68948258D01*
X206561811Y-68948258D01*
X207232554Y-69619000D01*
X207228431Y-69619000D01*
X207134579Y-69634661D01*
X207022749Y-69695180D01*
X206936629Y-69788731D01*
X206885552Y-69905177D01*
X206879894Y-69973447D01*
X206208258Y-69301811D01*
X206208258Y-69301812D01*
X206162900Y-69366590D01*
X206102657Y-69495781D01*
X206056484Y-69548220D01*
X205989291Y-69567372D01*
X205922409Y-69547156D01*
X205877893Y-69495780D01*
X205877617Y-69495189D01*
X205817534Y-69366339D01*
X205690826Y-69185380D01*
X205534620Y-69029174D01*
X205353662Y-68902466D01*
X205211659Y-68836249D01*
X205153451Y-68809106D01*
X204940065Y-68751929D01*
X204720000Y-68732676D01*
X204499934Y-68751929D01*
X204286548Y-68809106D01*
X204086338Y-68902466D01*
X203905379Y-69029174D01*
X203749174Y-69185379D01*
X203622467Y-69366336D01*
X203562381Y-69495190D01*
X203516208Y-69547629D01*
X203449014Y-69566780D01*
X203382133Y-69546564D01*
X203337617Y-69495188D01*
X203277534Y-69366339D01*
X203157691Y-69195185D01*
X203150826Y-69185380D01*
X202994620Y-69029174D01*
X202813662Y-68902466D01*
X202671659Y-68836249D01*
X202613451Y-68809106D01*
X202400065Y-68751929D01*
X202180000Y-68732676D01*
X201959934Y-68751929D01*
X201746548Y-68809106D01*
X201546338Y-68902466D01*
X201365379Y-69029174D01*
X201209174Y-69185379D01*
X201082466Y-69366338D01*
X201022382Y-69495189D01*
X200976209Y-69547628D01*
X200909016Y-69566780D01*
X200842135Y-69546564D01*
X200797618Y-69495189D01*
X200737651Y-69366590D01*
X200737534Y-69366339D01*
X200610826Y-69185380D01*
X200454620Y-69029174D01*
X200273662Y-68902466D01*
X200131659Y-68836249D01*
X200073451Y-68809106D01*
X199860065Y-68751929D01*
X199640000Y-68732676D01*
X199419934Y-68751929D01*
X199206548Y-68809106D01*
X199006338Y-68902466D01*
X198825379Y-69029174D01*
X198669174Y-69185379D01*
X198542466Y-69366338D01*
X198482382Y-69495189D01*
X198436209Y-69547628D01*
X198369016Y-69566780D01*
X198302135Y-69546564D01*
X198257618Y-69495189D01*
X198197651Y-69366590D01*
X198197534Y-69366339D01*
X198070826Y-69185380D01*
X197914620Y-69029174D01*
X197733662Y-68902466D01*
X197591659Y-68836249D01*
X197533451Y-68809106D01*
X197320065Y-68751929D01*
X197099999Y-68732676D01*
X196879934Y-68751929D01*
X196666548Y-68809106D01*
X196466338Y-68902466D01*
X196285379Y-69029174D01*
X196129174Y-69185379D01*
X196002466Y-69366338D01*
X195942382Y-69495189D01*
X195896209Y-69547628D01*
X195829016Y-69566780D01*
X195762135Y-69546564D01*
X195717618Y-69495189D01*
X195657651Y-69366590D01*
X195657534Y-69366339D01*
X195530826Y-69185380D01*
X195374620Y-69029174D01*
X195193662Y-68902466D01*
X195051659Y-68836249D01*
X194993451Y-68809106D01*
X194780065Y-68751929D01*
X194560000Y-68732676D01*
X194339934Y-68751929D01*
X194126548Y-68809106D01*
X193926338Y-68902466D01*
X193745379Y-69029174D01*
X193589174Y-69185379D01*
X193462466Y-69366338D01*
X193402382Y-69495189D01*
X193356209Y-69547628D01*
X193289016Y-69566780D01*
X193222135Y-69546564D01*
X193177618Y-69495189D01*
X193117651Y-69366590D01*
X193117534Y-69366339D01*
X192990826Y-69185380D01*
X192834620Y-69029174D01*
X192653662Y-68902466D01*
X192511659Y-68836249D01*
X192453451Y-68809106D01*
X192240065Y-68751929D01*
X192020000Y-68732676D01*
X191799934Y-68751929D01*
X191586548Y-68809106D01*
X191386338Y-68902466D01*
X191205379Y-69029174D01*
X191049174Y-69185379D01*
X190922466Y-69366338D01*
X190862382Y-69495189D01*
X190816209Y-69547628D01*
X190749016Y-69566780D01*
X190682135Y-69546564D01*
X190637618Y-69495189D01*
X190577651Y-69366590D01*
X190577534Y-69366339D01*
X190450826Y-69185380D01*
X190294620Y-69029174D01*
X190113662Y-68902466D01*
X189971659Y-68836249D01*
X189913451Y-68809106D01*
X189700065Y-68751929D01*
X189480000Y-68732676D01*
X189259934Y-68751929D01*
X189046548Y-68809106D01*
X188846338Y-68902466D01*
X188665379Y-69029174D01*
X188509174Y-69185379D01*
X188382466Y-69366338D01*
X188322382Y-69495189D01*
X188276209Y-69547628D01*
X188209016Y-69566780D01*
X188142135Y-69546564D01*
X188097618Y-69495189D01*
X188037651Y-69366590D01*
X188037534Y-69366339D01*
X187910826Y-69185380D01*
X187754620Y-69029174D01*
X187573662Y-68902466D01*
X187431659Y-68836249D01*
X187373451Y-68809106D01*
X187160065Y-68751929D01*
X186939999Y-68732676D01*
X186719934Y-68751929D01*
X186506548Y-68809106D01*
X186306338Y-68902466D01*
X186125379Y-69029174D01*
X185969174Y-69185379D01*
X185842466Y-69366338D01*
X185782382Y-69495189D01*
X185736209Y-69547628D01*
X185669016Y-69566780D01*
X185602135Y-69546564D01*
X185557618Y-69495189D01*
X185497651Y-69366590D01*
X185497534Y-69366339D01*
X185370826Y-69185380D01*
X185214620Y-69029174D01*
X185033662Y-68902466D01*
X184891659Y-68836249D01*
X184833451Y-68809106D01*
X184620065Y-68751929D01*
X184399998Y-68732676D01*
X184314094Y-68740191D01*
X184245594Y-68726424D01*
X184195412Y-68677808D01*
X184179479Y-68609779D01*
X184202855Y-68543936D01*
X184215601Y-68528988D01*
X185494589Y-67250000D01*
X190194434Y-67250000D01*
X190214631Y-67429251D01*
X190214631Y-67429253D01*
X190214632Y-67429255D01*
X190274211Y-67599522D01*
X190324663Y-67679816D01*
X190370185Y-67752264D01*
X190497735Y-67879814D01*
X190497737Y-67879815D01*
X190497738Y-67879816D01*
X190650478Y-67975789D01*
X190820745Y-68035368D01*
X190955186Y-68050515D01*
X190999999Y-68055565D01*
X190999999Y-68055564D01*
X191000000Y-68055565D01*
X191179255Y-68035368D01*
X191349522Y-67975789D01*
X191502262Y-67879816D01*
X191629816Y-67752262D01*
X191725789Y-67599522D01*
X191785368Y-67429255D01*
X191805565Y-67250000D01*
X191785368Y-67070745D01*
X191725789Y-66900478D01*
X191629816Y-66747738D01*
X191629815Y-66747737D01*
X191629814Y-66747735D01*
X191502264Y-66620185D01*
X191386960Y-66547735D01*
X191349522Y-66524211D01*
X191179255Y-66464632D01*
X191179253Y-66464631D01*
X191179251Y-66464631D01*
X191000000Y-66444434D01*
X190820748Y-66464631D01*
X190820745Y-66464631D01*
X190820745Y-66464632D01*
X190650478Y-66524211D01*
X190650476Y-66524211D01*
X190650476Y-66524212D01*
X190497735Y-66620185D01*
X190370185Y-66747735D01*
X190274212Y-66900476D01*
X190274211Y-66900478D01*
X190230363Y-67025789D01*
X190214631Y-67070748D01*
X190194434Y-67250000D01*
X185494589Y-67250000D01*
X186433789Y-66310800D01*
X186449885Y-66297906D01*
X186451873Y-66295787D01*
X186451877Y-66295786D01*
X186497949Y-66246723D01*
X186500534Y-66244055D01*
X186520120Y-66224471D01*
X186522585Y-66221292D01*
X186530167Y-66212416D01*
X186560062Y-66180582D01*
X186562019Y-66177020D01*
X186582997Y-66149079D01*
X186679816Y-66052262D01*
X186775789Y-65899522D01*
X186835368Y-65729255D01*
X186855565Y-65550000D01*
X186835368Y-65370745D01*
X186775789Y-65200478D01*
X186679816Y-65047738D01*
X186679815Y-65047737D01*
X186679814Y-65047735D01*
X186552264Y-64920185D01*
X186472689Y-64870185D01*
X186399522Y-64824211D01*
X186229255Y-64764632D01*
X186229253Y-64764631D01*
X186229251Y-64764631D01*
X186050000Y-64744434D01*
X185870748Y-64764631D01*
X185870745Y-64764631D01*
X185870745Y-64764632D01*
X185700478Y-64824211D01*
X185700475Y-64824212D01*
X185687291Y-64828826D01*
X185686426Y-64826356D01*
X185638509Y-64839891D01*
X185573816Y-64820892D01*
X185508439Y-64779814D01*
X185499522Y-64774211D01*
X185329255Y-64714632D01*
X185329253Y-64714631D01*
X185329251Y-64714631D01*
X185150000Y-64694434D01*
X184970748Y-64714631D01*
X184970745Y-64714631D01*
X184970745Y-64714632D01*
X184800478Y-64774211D01*
X184800476Y-64774211D01*
X184800476Y-64774212D01*
X184647735Y-64870185D01*
X184520185Y-64997735D01*
X184424212Y-65150476D01*
X184424211Y-65150478D01*
X184375315Y-65290214D01*
X184364631Y-65320748D01*
X184344434Y-65500000D01*
X184364631Y-65679251D01*
X184364631Y-65679253D01*
X184364632Y-65679255D01*
X184415399Y-65824339D01*
X184418960Y-65894116D01*
X184386038Y-65952973D01*
X182087656Y-68251357D01*
X182026333Y-68284842D01*
X181999975Y-68287676D01*
X180489564Y-68287676D01*
X180469060Y-68285412D01*
X180451829Y-68285954D01*
X180384204Y-68268384D01*
X180336814Y-68217043D01*
X180324704Y-68148231D01*
X180351718Y-68083795D01*
X180360244Y-68074344D01*
X181393549Y-67041039D01*
X181454870Y-67007556D01*
X181524562Y-67012540D01*
X181547194Y-67023725D01*
X181550478Y-67025789D01*
X181720745Y-67085368D01*
X181900000Y-67105565D01*
X182079255Y-67085368D01*
X182249522Y-67025789D01*
X182402262Y-66929816D01*
X182529816Y-66802262D01*
X182625789Y-66649522D01*
X182685368Y-66479255D01*
X182705565Y-66300000D01*
X182685368Y-66120745D01*
X182625789Y-65950478D01*
X182529816Y-65797738D01*
X182529815Y-65797737D01*
X182529814Y-65797735D01*
X182402264Y-65670185D01*
X182249519Y-65574209D01*
X182110479Y-65525557D01*
X182053703Y-65484836D01*
X182027956Y-65419883D01*
X182041412Y-65351321D01*
X182063749Y-65320839D01*
X182522770Y-64861819D01*
X182584094Y-64828334D01*
X182610452Y-64825500D01*
X183467256Y-64825500D01*
X183487762Y-64827764D01*
X183490665Y-64827672D01*
X183490667Y-64827673D01*
X183557872Y-64825561D01*
X183561768Y-64825500D01*
X183585448Y-64825500D01*
X183589350Y-64825500D01*
X183593313Y-64824999D01*
X183604962Y-64824080D01*
X183648627Y-64822709D01*
X183667861Y-64817119D01*
X183686909Y-64813174D01*
X183706792Y-64810664D01*
X183706794Y-64810663D01*
X183722339Y-64808700D01*
X183722625Y-64810970D01*
X183736340Y-64809143D01*
X183736114Y-64807130D01*
X183831315Y-64796403D01*
X183929255Y-64785368D01*
X184099522Y-64725789D01*
X184252262Y-64629816D01*
X184379816Y-64502262D01*
X184475789Y-64349522D01*
X184535368Y-64179255D01*
X184555565Y-64000000D01*
X184535368Y-63820745D01*
X184475789Y-63650478D01*
X184379816Y-63497738D01*
X184379815Y-63497737D01*
X184379814Y-63497735D01*
X184253800Y-63371721D01*
X184220315Y-63310398D01*
X184225299Y-63240706D01*
X184267171Y-63184773D01*
X184300524Y-63166999D01*
X184399238Y-63132457D01*
X184440192Y-63125500D01*
X187117256Y-63125500D01*
X187137762Y-63127764D01*
X187140665Y-63127672D01*
X187140667Y-63127673D01*
X187207872Y-63125561D01*
X187211768Y-63125500D01*
X187235448Y-63125500D01*
X187239350Y-63125500D01*
X187243313Y-63124999D01*
X187254962Y-63124080D01*
X187298627Y-63122709D01*
X187317859Y-63117120D01*
X187336918Y-63113174D01*
X187343196Y-63112381D01*
X187356792Y-63110664D01*
X187397407Y-63094582D01*
X187408444Y-63090803D01*
X187450390Y-63078618D01*
X187467629Y-63068422D01*
X187485102Y-63059862D01*
X187503732Y-63052486D01*
X187539064Y-63026814D01*
X187548830Y-63020400D01*
X187550622Y-63019340D01*
X187586420Y-62998170D01*
X187600585Y-62984004D01*
X187615373Y-62971373D01*
X187631587Y-62959594D01*
X187659438Y-62925926D01*
X187667279Y-62917309D01*
X188972771Y-61611819D01*
X189034095Y-61578334D01*
X189060453Y-61575500D01*
X191614011Y-61575500D01*
X191681050Y-61595185D01*
X191726805Y-61647989D01*
X191737230Y-61685613D01*
X191741126Y-61720185D01*
X191744046Y-61746106D01*
X191731989Y-61814928D01*
X191708510Y-61847664D01*
X191707958Y-61848215D01*
X191611984Y-62000957D01*
X191611983Y-62000959D01*
X191597029Y-62043696D01*
X191552403Y-62171229D01*
X191532206Y-62350480D01*
X191552403Y-62529732D01*
X191552403Y-62529734D01*
X191552404Y-62529736D01*
X191611983Y-62700003D01*
X191658611Y-62774211D01*
X191707957Y-62852745D01*
X191835507Y-62980295D01*
X191835509Y-62980296D01*
X191835510Y-62980297D01*
X191988250Y-63076270D01*
X192158517Y-63135849D01*
X192224887Y-63143327D01*
X192325342Y-63154646D01*
X192389756Y-63181713D01*
X192413184Y-63215083D01*
X192416778Y-63212825D01*
X192520184Y-63377395D01*
X192530608Y-63387819D01*
X192564093Y-63449142D01*
X192559109Y-63518834D01*
X192517237Y-63574767D01*
X192451773Y-63599184D01*
X192442927Y-63599500D01*
X189932941Y-63599500D01*
X189865902Y-63579815D01*
X189859925Y-63574999D01*
X189770539Y-63518834D01*
X189699522Y-63474211D01*
X189529255Y-63414632D01*
X189529253Y-63414631D01*
X189529251Y-63414631D01*
X189350000Y-63394434D01*
X189170748Y-63414631D01*
X189170745Y-63414631D01*
X189170745Y-63414632D01*
X189000478Y-63474211D01*
X189000476Y-63474211D01*
X189000476Y-63474212D01*
X188847735Y-63570185D01*
X188720185Y-63697735D01*
X188624811Y-63849523D01*
X188624211Y-63850478D01*
X188601272Y-63916034D01*
X188564631Y-64020748D01*
X188544434Y-64199999D01*
X188564631Y-64379251D01*
X188564631Y-64379253D01*
X188564632Y-64379255D01*
X188624211Y-64549522D01*
X188674308Y-64629251D01*
X188720185Y-64702264D01*
X188847735Y-64829814D01*
X188847737Y-64829815D01*
X188847738Y-64829816D01*
X189000478Y-64925789D01*
X189170745Y-64985368D01*
X189350000Y-65005565D01*
X189529255Y-64985368D01*
X189699522Y-64925789D01*
X189852262Y-64829816D01*
X189852261Y-64829816D01*
X189864092Y-64822383D01*
X189866034Y-64825475D01*
X189906583Y-64803334D01*
X189932941Y-64800500D01*
X194344932Y-64800500D01*
X194410903Y-64819505D01*
X194500478Y-64875789D01*
X194670745Y-64935368D01*
X194850000Y-64955565D01*
X195029255Y-64935368D01*
X195199522Y-64875789D01*
X195352262Y-64779816D01*
X195479816Y-64652262D01*
X195512654Y-64600000D01*
X204244434Y-64600000D01*
X204264631Y-64779251D01*
X204264631Y-64779253D01*
X204264632Y-64779255D01*
X204324211Y-64949522D01*
X204354505Y-64997735D01*
X204420185Y-65102264D01*
X204547735Y-65229814D01*
X204547737Y-65229815D01*
X204547738Y-65229816D01*
X204700478Y-65325789D01*
X204870745Y-65385368D01*
X205050000Y-65405565D01*
X205229255Y-65385368D01*
X205399522Y-65325789D01*
X205552262Y-65229816D01*
X205679816Y-65102262D01*
X205775789Y-64949522D01*
X205835368Y-64779255D01*
X205855565Y-64600000D01*
X205835368Y-64420745D01*
X205775789Y-64250478D01*
X205679816Y-64097738D01*
X205679815Y-64097737D01*
X205679814Y-64097735D01*
X205552264Y-63970185D01*
X205454928Y-63909025D01*
X205399522Y-63874211D01*
X205229255Y-63814632D01*
X205229253Y-63814631D01*
X205229251Y-63814631D01*
X205050000Y-63794434D01*
X204870748Y-63814631D01*
X204870745Y-63814631D01*
X204870745Y-63814632D01*
X204700478Y-63874211D01*
X204700476Y-63874211D01*
X204700476Y-63874212D01*
X204547735Y-63970185D01*
X204420185Y-64097735D01*
X204368963Y-64179255D01*
X204324211Y-64250478D01*
X204317118Y-64270748D01*
X204264631Y-64420748D01*
X204244434Y-64600000D01*
X195512654Y-64600000D01*
X195575789Y-64499522D01*
X195635368Y-64329255D01*
X195655565Y-64150000D01*
X195640128Y-64012993D01*
X195652182Y-63944172D01*
X195675295Y-63916034D01*
X195675081Y-63915870D01*
X195685022Y-63902914D01*
X195704249Y-63877855D01*
X195714930Y-63865675D01*
X196941043Y-62639562D01*
X196953223Y-62628881D01*
X196978282Y-62609654D01*
X197074536Y-62484213D01*
X197135044Y-62338134D01*
X197142924Y-62278282D01*
X197155682Y-62181372D01*
X197151561Y-62150068D01*
X197150500Y-62133883D01*
X197150500Y-57400096D01*
X197170185Y-57333057D01*
X197186819Y-57312415D01*
X197412416Y-57086819D01*
X197473739Y-57053334D01*
X197500097Y-57050500D01*
X200442513Y-57050500D01*
X200458697Y-57051560D01*
X200490000Y-57055682D01*
X200646762Y-57035044D01*
X200792841Y-56974536D01*
X200820609Y-56953229D01*
X200833703Y-56943182D01*
X200887192Y-56902138D01*
X200918282Y-56878282D01*
X200937509Y-56853223D01*
X200948190Y-56841043D01*
X201768321Y-56020912D01*
X201829642Y-55987429D01*
X201888095Y-55988821D01*
X201959930Y-56008070D01*
X202180000Y-56027323D01*
X202400068Y-56008070D01*
X202613450Y-55950894D01*
X202813662Y-55857534D01*
X202994620Y-55730826D01*
X203150826Y-55574620D01*
X203277534Y-55393662D01*
X203335185Y-55270027D01*
X203337618Y-55264811D01*
X203383790Y-55212372D01*
X203450984Y-55193220D01*
X203517865Y-55213436D01*
X203562382Y-55264811D01*
X203587140Y-55317904D01*
X203622466Y-55393662D01*
X203749174Y-55574620D01*
X203905380Y-55730826D01*
X204086338Y-55857534D01*
X204286550Y-55950894D01*
X204499932Y-56008070D01*
X204720000Y-56027323D01*
X204940068Y-56008070D01*
X205153450Y-55950894D01*
X205353662Y-55857534D01*
X205534620Y-55730826D01*
X205690826Y-55574620D01*
X205817534Y-55393662D01*
X205875185Y-55270027D01*
X205877618Y-55264811D01*
X205923790Y-55212372D01*
X205990984Y-55193220D01*
X206057865Y-55213436D01*
X206102382Y-55264811D01*
X206127140Y-55317904D01*
X206162466Y-55393662D01*
X206289174Y-55574620D01*
X206445380Y-55730826D01*
X206626338Y-55857534D01*
X206826550Y-55950894D01*
X207039932Y-56008070D01*
X207260000Y-56027323D01*
X207480068Y-56008070D01*
X207693450Y-55950894D01*
X207893662Y-55857534D01*
X208074620Y-55730826D01*
X208230826Y-55574620D01*
X208357534Y-55393662D01*
X208450894Y-55193450D01*
X208508070Y-54980068D01*
X208527323Y-54760000D01*
X208508070Y-54539932D01*
X208450894Y-54326550D01*
X208357534Y-54126339D01*
X208230826Y-53945380D01*
X208074620Y-53789174D01*
X207893662Y-53662466D01*
X207693451Y-53569106D01*
X207480065Y-53511929D01*
X207260000Y-53492676D01*
X207039934Y-53511929D01*
X206826548Y-53569106D01*
X206626338Y-53662466D01*
X206445379Y-53789174D01*
X206289174Y-53945379D01*
X206162466Y-54126338D01*
X206102382Y-54255189D01*
X206056209Y-54307628D01*
X205989016Y-54326780D01*
X205922135Y-54306564D01*
X205877618Y-54255189D01*
X205860744Y-54219004D01*
X205817534Y-54126339D01*
X205690826Y-53945380D01*
X205534620Y-53789174D01*
X205353662Y-53662466D01*
X205153451Y-53569106D01*
X204940065Y-53511929D01*
X204720000Y-53492676D01*
X204499934Y-53511929D01*
X204286548Y-53569106D01*
X204086338Y-53662466D01*
X203905379Y-53789174D01*
X203749174Y-53945379D01*
X203622466Y-54126338D01*
X203562382Y-54255189D01*
X203516209Y-54307628D01*
X203449016Y-54326780D01*
X203382135Y-54306564D01*
X203337618Y-54255189D01*
X203320744Y-54219004D01*
X203277534Y-54126339D01*
X203150826Y-53945380D01*
X202994620Y-53789174D01*
X202813662Y-53662466D01*
X202613451Y-53569106D01*
X202400065Y-53511929D01*
X202180000Y-53492676D01*
X201959934Y-53511929D01*
X201746548Y-53569106D01*
X201546338Y-53662466D01*
X201365379Y-53789174D01*
X201209174Y-53945379D01*
X201082466Y-54126338D01*
X201022382Y-54255189D01*
X200976209Y-54307628D01*
X200909016Y-54326780D01*
X200842135Y-54306564D01*
X200797618Y-54255189D01*
X200780744Y-54219004D01*
X200737534Y-54126339D01*
X200610826Y-53945380D01*
X200454620Y-53789174D01*
X200273662Y-53662466D01*
X200073451Y-53569106D01*
X199860065Y-53511929D01*
X199640000Y-53492676D01*
X199419934Y-53511929D01*
X199206548Y-53569106D01*
X199006338Y-53662466D01*
X198825379Y-53789174D01*
X198669174Y-53945379D01*
X198542466Y-54126338D01*
X198482382Y-54255189D01*
X198436209Y-54307628D01*
X198369016Y-54326780D01*
X198302135Y-54306564D01*
X198257618Y-54255189D01*
X198240744Y-54219004D01*
X198197534Y-54126339D01*
X198070826Y-53945380D01*
X197914620Y-53789174D01*
X197733662Y-53662466D01*
X197533451Y-53569106D01*
X197320065Y-53511929D01*
X197100000Y-53492676D01*
X196879934Y-53511929D01*
X196666548Y-53569106D01*
X196466338Y-53662466D01*
X196285379Y-53789174D01*
X196129174Y-53945379D01*
X196002466Y-54126338D01*
X195942382Y-54255189D01*
X195896209Y-54307628D01*
X195829016Y-54326780D01*
X195762135Y-54306564D01*
X195717618Y-54255189D01*
X195700744Y-54219004D01*
X195657534Y-54126339D01*
X195530826Y-53945380D01*
X195374620Y-53789174D01*
X195193662Y-53662466D01*
X194993451Y-53569106D01*
X194780065Y-53511929D01*
X194560000Y-53492676D01*
X194339934Y-53511929D01*
X194126548Y-53569106D01*
X193926338Y-53662466D01*
X193745379Y-53789174D01*
X193589174Y-53945379D01*
X193462466Y-54126338D01*
X193402382Y-54255189D01*
X193356209Y-54307628D01*
X193289016Y-54326780D01*
X193222135Y-54306564D01*
X193177618Y-54255189D01*
X193160744Y-54219004D01*
X193117534Y-54126339D01*
X192990826Y-53945380D01*
X192834620Y-53789174D01*
X192653662Y-53662466D01*
X192453451Y-53569106D01*
X192240065Y-53511929D01*
X192020000Y-53492676D01*
X191799934Y-53511929D01*
X191586548Y-53569106D01*
X191386338Y-53662466D01*
X191205379Y-53789174D01*
X191049174Y-53945379D01*
X190922466Y-54126338D01*
X190862382Y-54255189D01*
X190816209Y-54307628D01*
X190749016Y-54326780D01*
X190682135Y-54306564D01*
X190637618Y-54255189D01*
X190620744Y-54219004D01*
X190577534Y-54126339D01*
X190450826Y-53945380D01*
X190294620Y-53789174D01*
X190113662Y-53662466D01*
X189913451Y-53569106D01*
X189700065Y-53511929D01*
X189480000Y-53492676D01*
X189259934Y-53511929D01*
X189046548Y-53569106D01*
X188846338Y-53662466D01*
X188665379Y-53789174D01*
X188509174Y-53945379D01*
X188382466Y-54126338D01*
X188322382Y-54255189D01*
X188276209Y-54307628D01*
X188209016Y-54326780D01*
X188142135Y-54306564D01*
X188097618Y-54255189D01*
X188080744Y-54219004D01*
X188037534Y-54126339D01*
X187910826Y-53945380D01*
X187754620Y-53789174D01*
X187573662Y-53662466D01*
X187373451Y-53569106D01*
X187160065Y-53511929D01*
X186940000Y-53492676D01*
X186719934Y-53511929D01*
X186506548Y-53569106D01*
X186306338Y-53662466D01*
X186125379Y-53789174D01*
X185969174Y-53945379D01*
X185842466Y-54126338D01*
X185782382Y-54255189D01*
X185736209Y-54307628D01*
X185669016Y-54326780D01*
X185602135Y-54306564D01*
X185557618Y-54255189D01*
X185540744Y-54219004D01*
X185497534Y-54126339D01*
X185370826Y-53945380D01*
X185214620Y-53789174D01*
X185033662Y-53662466D01*
X184833451Y-53569106D01*
X184620065Y-53511929D01*
X184400000Y-53492676D01*
X184179934Y-53511929D01*
X183966548Y-53569106D01*
X183766338Y-53662466D01*
X183585379Y-53789174D01*
X183429174Y-53945379D01*
X183302466Y-54126338D01*
X183242382Y-54255189D01*
X183196209Y-54307628D01*
X183129016Y-54326780D01*
X183062135Y-54306564D01*
X183017618Y-54255189D01*
X183000744Y-54219004D01*
X182957534Y-54126339D01*
X182830826Y-53945380D01*
X182674620Y-53789174D01*
X182493662Y-53662466D01*
X182293451Y-53569106D01*
X182080065Y-53511929D01*
X181860000Y-53492676D01*
X181639934Y-53511929D01*
X181426548Y-53569106D01*
X181226338Y-53662466D01*
X181045379Y-53789174D01*
X180889174Y-53945379D01*
X180762466Y-54126338D01*
X180702382Y-54255189D01*
X180656209Y-54307628D01*
X180589016Y-54326780D01*
X180522135Y-54306564D01*
X180477618Y-54255189D01*
X180460744Y-54219004D01*
X180417534Y-54126339D01*
X180290826Y-53945380D01*
X180134620Y-53789174D01*
X179953662Y-53662466D01*
X179753451Y-53569106D01*
X179540065Y-53511929D01*
X179320000Y-53492676D01*
X179099934Y-53511929D01*
X178886548Y-53569106D01*
X178686338Y-53662466D01*
X178505379Y-53789174D01*
X178349174Y-53945379D01*
X178222466Y-54126338D01*
X178162382Y-54255189D01*
X178116209Y-54307628D01*
X178049016Y-54326780D01*
X177982135Y-54306564D01*
X177937618Y-54255189D01*
X177920744Y-54219004D01*
X177877534Y-54126339D01*
X177750826Y-53945380D01*
X177594620Y-53789174D01*
X177413662Y-53662466D01*
X177213451Y-53569106D01*
X177000065Y-53511929D01*
X176780000Y-53492676D01*
X176559934Y-53511929D01*
X176346548Y-53569106D01*
X176146338Y-53662466D01*
X175965379Y-53789174D01*
X175809174Y-53945379D01*
X175682466Y-54126338D01*
X175622382Y-54255189D01*
X175576209Y-54307628D01*
X175509016Y-54326780D01*
X175442135Y-54306564D01*
X175397618Y-54255189D01*
X175380744Y-54219004D01*
X175337534Y-54126339D01*
X175210826Y-53945380D01*
X175054620Y-53789174D01*
X174873662Y-53662466D01*
X174873661Y-53662466D01*
X174673451Y-53569106D01*
X174460065Y-53511929D01*
X174240000Y-53492676D01*
X174019934Y-53511929D01*
X173806548Y-53569106D01*
X173606338Y-53662466D01*
X173425379Y-53789174D01*
X173269174Y-53945379D01*
X173142466Y-54126338D01*
X173082382Y-54255189D01*
X173036209Y-54307628D01*
X172969016Y-54326780D01*
X172902135Y-54306564D01*
X172857618Y-54255189D01*
X172840744Y-54219004D01*
X172797534Y-54126339D01*
X172670826Y-53945380D01*
X172514620Y-53789174D01*
X172333662Y-53662466D01*
X172333661Y-53662466D01*
X172133451Y-53569106D01*
X171920065Y-53511929D01*
X171700000Y-53492676D01*
X171479934Y-53511929D01*
X171266548Y-53569106D01*
X171066338Y-53662466D01*
X170885379Y-53789174D01*
X170729174Y-53945379D01*
X170602466Y-54126338D01*
X170542382Y-54255189D01*
X170496209Y-54307628D01*
X170429016Y-54326780D01*
X170362135Y-54306564D01*
X170317618Y-54255189D01*
X170300744Y-54219004D01*
X170257534Y-54126339D01*
X170130826Y-53945380D01*
X169974620Y-53789174D01*
X169793662Y-53662466D01*
X169793661Y-53662466D01*
X169593451Y-53569106D01*
X169380065Y-53511929D01*
X169160000Y-53492676D01*
X168939934Y-53511929D01*
X168726548Y-53569106D01*
X168526338Y-53662466D01*
X168345379Y-53789174D01*
X168189174Y-53945379D01*
X168062466Y-54126338D01*
X168002382Y-54255189D01*
X167956209Y-54307628D01*
X167889016Y-54326780D01*
X167822135Y-54306564D01*
X167777618Y-54255189D01*
X167760744Y-54219004D01*
X167717534Y-54126339D01*
X167590826Y-53945380D01*
X167434620Y-53789174D01*
X167253662Y-53662466D01*
X167253661Y-53662466D01*
X167053451Y-53569106D01*
X166840065Y-53511929D01*
X166620000Y-53492676D01*
X166399934Y-53511929D01*
X166186548Y-53569106D01*
X165986338Y-53662466D01*
X165805379Y-53789174D01*
X165649174Y-53945379D01*
X165522466Y-54126338D01*
X165462382Y-54255189D01*
X165416209Y-54307628D01*
X165349016Y-54326780D01*
X165282135Y-54306564D01*
X165237618Y-54255189D01*
X165220744Y-54219004D01*
X165177534Y-54126339D01*
X165050826Y-53945380D01*
X164894620Y-53789174D01*
X164713662Y-53662466D01*
X164713661Y-53662466D01*
X164513451Y-53569106D01*
X164300065Y-53511929D01*
X164080000Y-53492676D01*
X163859934Y-53511929D01*
X163646548Y-53569106D01*
X163446338Y-53662466D01*
X163265379Y-53789174D01*
X163109174Y-53945379D01*
X162982466Y-54126338D01*
X162922382Y-54255189D01*
X162876209Y-54307628D01*
X162809016Y-54326780D01*
X162742135Y-54306564D01*
X162697618Y-54255189D01*
X162680744Y-54219004D01*
X162637534Y-54126339D01*
X162510826Y-53945380D01*
X162354620Y-53789174D01*
X162173662Y-53662466D01*
X162173661Y-53662466D01*
X161973451Y-53569106D01*
X161760065Y-53511929D01*
X161540000Y-53492676D01*
X161319934Y-53511929D01*
X161106548Y-53569106D01*
X160906338Y-53662466D01*
X160725379Y-53789174D01*
X160569174Y-53945379D01*
X160442466Y-54126338D01*
X160382382Y-54255189D01*
X160336209Y-54307628D01*
X160269016Y-54326780D01*
X160202135Y-54306564D01*
X160157618Y-54255189D01*
X160140744Y-54219004D01*
X160097534Y-54126339D01*
X159970826Y-53945380D01*
X159814620Y-53789174D01*
X159633662Y-53662466D01*
X159633661Y-53662466D01*
X159433451Y-53569106D01*
X159220065Y-53511929D01*
X159000000Y-53492676D01*
X158779934Y-53511929D01*
X158566548Y-53569106D01*
X158366338Y-53662466D01*
X158185379Y-53789174D01*
X158029174Y-53945379D01*
X157902466Y-54126338D01*
X157809106Y-54326548D01*
X157751929Y-54539934D01*
X157732676Y-54759999D01*
X157751929Y-54980065D01*
X157809106Y-55193451D01*
X157867140Y-55317905D01*
X157902466Y-55393662D01*
X158029174Y-55574620D01*
X158185380Y-55730826D01*
X158366338Y-55857534D01*
X158566550Y-55950894D01*
X158779932Y-56008070D01*
X158867959Y-56015771D01*
X158999997Y-56027323D01*
X158999998Y-56027322D01*
X159000000Y-56027323D01*
X159001105Y-56027226D01*
X159001739Y-56027171D01*
X159004423Y-56027710D01*
X159010807Y-56028269D01*
X159010744Y-56028980D01*
X159070239Y-56040937D01*
X159100229Y-56063018D01*
X159808334Y-56771123D01*
X159841819Y-56832446D01*
X159836835Y-56902138D01*
X159794963Y-56958071D01*
X159759658Y-56976509D01*
X159680668Y-57002684D01*
X159531342Y-57094788D01*
X159407288Y-57218842D01*
X159315186Y-57368165D01*
X159260000Y-57534702D01*
X159249819Y-57634358D01*
X159249817Y-57634378D01*
X159249500Y-57637491D01*
X159249500Y-57640638D01*
X159249500Y-57640639D01*
X159249500Y-58359358D01*
X159249500Y-58359377D01*
X159249501Y-58362508D01*
X159249820Y-58365640D01*
X159249821Y-58365641D01*
X159260000Y-58465296D01*
X159315186Y-58631834D01*
X159407288Y-58781157D01*
X159531342Y-58905211D01*
X159531344Y-58905212D01*
X159680666Y-58997314D01*
X159792017Y-59034212D01*
X159847202Y-59052499D01*
X159946858Y-59062680D01*
X159946859Y-59062680D01*
X159949991Y-59063000D01*
X162779452Y-59062999D01*
X162846491Y-59082684D01*
X162892246Y-59135487D01*
X162902672Y-59173115D01*
X162914631Y-59279250D01*
X162914631Y-59279251D01*
X162914632Y-59279255D01*
X162974211Y-59449522D01*
X163010424Y-59507155D01*
X163070185Y-59602264D01*
X163197735Y-59729814D01*
X163197737Y-59729815D01*
X163197738Y-59729816D01*
X163350478Y-59825789D01*
X163520745Y-59885368D01*
X163700000Y-59905565D01*
X163879255Y-59885368D01*
X164049522Y-59825789D01*
X164202262Y-59729816D01*
X164329816Y-59602262D01*
X164425789Y-59449522D01*
X164485368Y-59279255D01*
X164505565Y-59100000D01*
X164485368Y-58920745D01*
X164425789Y-58750478D01*
X164331237Y-58599999D01*
X167294434Y-58599999D01*
X167314631Y-58779251D01*
X167314631Y-58779253D01*
X167314632Y-58779255D01*
X167374211Y-58949522D01*
X167374212Y-58949523D01*
X167470185Y-59102264D01*
X167597735Y-59229814D01*
X167597737Y-59229815D01*
X167597738Y-59229816D01*
X167750478Y-59325789D01*
X167920745Y-59385368D01*
X168100000Y-59405565D01*
X168279255Y-59385368D01*
X168449522Y-59325789D01*
X168602262Y-59229816D01*
X168729816Y-59102262D01*
X168825789Y-58949522D01*
X168885368Y-58779255D01*
X168905565Y-58600000D01*
X168885368Y-58420745D01*
X168825789Y-58250478D01*
X168729816Y-58097738D01*
X168729815Y-58097737D01*
X168729814Y-58097735D01*
X168602264Y-57970185D01*
X168522689Y-57920185D01*
X168449522Y-57874211D01*
X168279255Y-57814632D01*
X168279253Y-57814631D01*
X168279251Y-57814631D01*
X168100000Y-57794434D01*
X167920748Y-57814631D01*
X167920745Y-57814631D01*
X167920745Y-57814632D01*
X167750478Y-57874211D01*
X167750476Y-57874211D01*
X167750476Y-57874212D01*
X167597735Y-57970185D01*
X167470185Y-58097735D01*
X167374212Y-58250476D01*
X167374211Y-58250478D01*
X167356440Y-58301264D01*
X167314631Y-58420748D01*
X167294434Y-58599999D01*
X164331237Y-58599999D01*
X164329816Y-58597738D01*
X164329815Y-58597737D01*
X164329814Y-58597735D01*
X164202264Y-58470185D01*
X164123580Y-58420745D01*
X164049522Y-58374211D01*
X163879255Y-58314632D01*
X163879253Y-58314631D01*
X163879251Y-58314631D01*
X163760615Y-58301264D01*
X163696201Y-58274197D01*
X163656646Y-58216602D01*
X163650499Y-58178044D01*
X163650499Y-57640640D01*
X163650499Y-57640639D01*
X163650499Y-57637492D01*
X163639999Y-57534703D01*
X163584814Y-57368166D01*
X163492712Y-57218844D01*
X163492711Y-57218842D01*
X163368657Y-57094788D01*
X163219334Y-57002686D01*
X163052797Y-56947500D01*
X162953141Y-56937319D01*
X162953122Y-56937318D01*
X162950009Y-56937000D01*
X162946860Y-56937000D01*
X162344564Y-56937000D01*
X162277525Y-56917315D01*
X162231770Y-56864511D01*
X162227057Y-56852600D01*
X162226444Y-56850779D01*
X162226441Y-56850774D01*
X162226403Y-56850661D01*
X162216496Y-56829985D01*
X162216432Y-56829886D01*
X162216432Y-56829884D01*
X162173715Y-56763055D01*
X162171957Y-56760221D01*
X162166094Y-56750476D01*
X162131070Y-56692264D01*
X162131067Y-56692261D01*
X162131010Y-56692166D01*
X162116882Y-56674094D01*
X162060749Y-56617961D01*
X162058407Y-56615555D01*
X162003770Y-56557876D01*
X161985877Y-56543089D01*
X161663767Y-56220979D01*
X161630282Y-56159656D01*
X161635266Y-56089964D01*
X161677138Y-56034031D01*
X161740642Y-56009770D01*
X161753248Y-56008666D01*
X161760068Y-56008070D01*
X161973450Y-55950894D01*
X162173662Y-55857534D01*
X162354620Y-55730826D01*
X162510826Y-55574620D01*
X162637534Y-55393662D01*
X162695185Y-55270027D01*
X162697618Y-55264811D01*
X162743790Y-55212372D01*
X162810984Y-55193220D01*
X162877865Y-55213436D01*
X162922382Y-55264811D01*
X162947140Y-55317904D01*
X162982466Y-55393662D01*
X163109174Y-55574620D01*
X163265380Y-55730826D01*
X163446338Y-55857534D01*
X163646550Y-55950894D01*
X163859932Y-56008070D01*
X164080000Y-56027323D01*
X164300068Y-56008070D01*
X164513450Y-55950894D01*
X164713662Y-55857534D01*
X164894620Y-55730826D01*
X165050826Y-55574620D01*
X165177534Y-55393662D01*
X165235185Y-55270027D01*
X165237618Y-55264811D01*
X165283790Y-55212372D01*
X165350984Y-55193220D01*
X165417865Y-55213436D01*
X165462382Y-55264811D01*
X165487140Y-55317904D01*
X165522466Y-55393662D01*
X165649174Y-55574620D01*
X165805380Y-55730826D01*
X165986338Y-55857534D01*
X166186550Y-55950894D01*
X166399932Y-56008070D01*
X166620000Y-56027323D01*
X166840068Y-56008070D01*
X167053450Y-55950894D01*
X167253662Y-55857534D01*
X167434620Y-55730826D01*
X167590826Y-55574620D01*
X167717534Y-55393662D01*
X167775185Y-55270027D01*
X167777618Y-55264811D01*
X167823790Y-55212372D01*
X167890984Y-55193220D01*
X167957865Y-55213436D01*
X168002382Y-55264811D01*
X168027140Y-55317904D01*
X168062466Y-55393662D01*
X168189174Y-55574620D01*
X168345380Y-55730826D01*
X168526338Y-55857534D01*
X168726550Y-55950894D01*
X168939932Y-56008070D01*
X169160000Y-56027323D01*
X169380068Y-56008070D01*
X169451903Y-55988821D01*
X169521752Y-55990482D01*
X169571679Y-56020914D01*
X170491799Y-56941034D01*
X170502494Y-56953229D01*
X170521717Y-56978282D01*
X170595692Y-57035044D01*
X170622588Y-57055682D01*
X170647159Y-57074536D01*
X170793238Y-57135044D01*
X170918698Y-57151561D01*
X170949999Y-57155682D01*
X170949999Y-57155681D01*
X170950000Y-57155682D01*
X170981302Y-57151560D01*
X170997487Y-57150500D01*
X172549903Y-57150500D01*
X172616942Y-57170185D01*
X172637584Y-57186819D01*
X172965999Y-57515234D01*
X172999484Y-57576557D01*
X172994500Y-57646249D01*
X172952628Y-57702182D01*
X172887164Y-57726599D01*
X172837365Y-57719957D01*
X172679255Y-57664632D01*
X172679253Y-57664631D01*
X172679251Y-57664631D01*
X172500000Y-57644434D01*
X172320748Y-57664631D01*
X172320745Y-57664631D01*
X172320745Y-57664632D01*
X172150478Y-57724211D01*
X172150476Y-57724211D01*
X172150476Y-57724212D01*
X171997735Y-57820185D01*
X171870185Y-57947735D01*
X171774511Y-58100000D01*
X171774211Y-58100478D01*
X171721724Y-58250478D01*
X171714631Y-58270748D01*
X171694434Y-58449999D01*
X171714631Y-58629251D01*
X171714631Y-58629253D01*
X171714632Y-58629255D01*
X171774211Y-58799522D01*
X171790716Y-58825789D01*
X171870185Y-58952264D01*
X171997735Y-59079814D01*
X171997737Y-59079815D01*
X171997738Y-59079816D01*
X172150478Y-59175789D01*
X172320745Y-59235368D01*
X172500000Y-59255565D01*
X172679255Y-59235368D01*
X172849522Y-59175789D01*
X173002262Y-59079816D01*
X173129816Y-58952262D01*
X173225789Y-58799522D01*
X173285368Y-58629255D01*
X173305565Y-58450000D01*
X173285368Y-58270745D01*
X173278276Y-58250478D01*
X173230043Y-58112636D01*
X173226481Y-58042857D01*
X173261209Y-57982230D01*
X173323203Y-57950002D01*
X173392778Y-57956407D01*
X173434765Y-57984000D01*
X176941799Y-61491034D01*
X176952494Y-61503229D01*
X176971717Y-61528282D01*
X177033254Y-61575500D01*
X177064560Y-61599522D01*
X177097159Y-61624536D01*
X177243238Y-61685044D01*
X177368698Y-61701561D01*
X177399999Y-61705682D01*
X177399999Y-61705681D01*
X177400000Y-61705682D01*
X177431302Y-61701560D01*
X177447487Y-61700500D01*
X179295250Y-61700500D01*
X179362289Y-61720185D01*
X179400244Y-61758528D01*
X179420184Y-61790263D01*
X179547735Y-61917814D01*
X179547737Y-61917815D01*
X179547738Y-61917816D01*
X179700478Y-62013789D01*
X179870745Y-62073368D01*
X180050000Y-62093565D01*
X180229255Y-62073368D01*
X180399522Y-62013789D01*
X180552262Y-61917816D01*
X180679816Y-61790262D01*
X180775789Y-61637522D01*
X180835368Y-61467255D01*
X180855565Y-61288000D01*
X180840835Y-61157267D01*
X180852889Y-61088446D01*
X180876370Y-61055707D01*
X180929816Y-61002262D01*
X181025789Y-60849522D01*
X181048198Y-60785477D01*
X181088918Y-60728704D01*
X181153870Y-60702955D01*
X181179124Y-60703213D01*
X181190920Y-60704542D01*
X181200000Y-60705565D01*
X181200000Y-60705564D01*
X181200001Y-60705565D01*
X181235851Y-60701525D01*
X181379255Y-60685368D01*
X181549522Y-60625789D01*
X181702262Y-60529816D01*
X181703738Y-60528339D01*
X181710400Y-60524701D01*
X181714092Y-60522382D01*
X181714234Y-60522608D01*
X181765058Y-60494853D01*
X181834749Y-60499834D01*
X181879102Y-60528337D01*
X182991799Y-61641034D01*
X183002494Y-61653229D01*
X183021717Y-61678282D01*
X183144061Y-61772159D01*
X183147160Y-61774537D01*
X183199844Y-61796359D01*
X183293238Y-61835044D01*
X183293240Y-61835044D01*
X183296453Y-61836375D01*
X183350857Y-61880215D01*
X183372922Y-61946509D01*
X183355643Y-62014209D01*
X183353995Y-62016907D01*
X183330062Y-62054996D01*
X183330060Y-62055000D01*
X183330060Y-62055001D01*
X183323062Y-62075000D01*
X183270480Y-62225271D01*
X183260686Y-62312192D01*
X183233619Y-62376605D01*
X183225147Y-62385988D01*
X182547956Y-63063181D01*
X182486633Y-63096666D01*
X182460275Y-63099500D01*
X181047487Y-63099500D01*
X181031302Y-63098439D01*
X181027376Y-63097922D01*
X180999999Y-63094317D01*
X180964741Y-63098959D01*
X180960639Y-63099500D01*
X180901938Y-63107228D01*
X180843237Y-63114956D01*
X180697159Y-63175463D01*
X180571716Y-63271718D01*
X180552494Y-63296770D01*
X180541800Y-63308964D01*
X177487584Y-66363181D01*
X177426261Y-66396666D01*
X177399903Y-66399500D01*
X172897112Y-66399500D01*
X172830073Y-66379815D01*
X172784318Y-66327011D01*
X172774374Y-66257853D01*
X172803399Y-66194297D01*
X172856156Y-66158458D01*
X172949522Y-66125789D01*
X173102262Y-66029816D01*
X173229816Y-65902262D01*
X173325789Y-65749522D01*
X173385368Y-65579255D01*
X173405565Y-65400000D01*
X173385368Y-65220745D01*
X173325789Y-65050478D01*
X173288398Y-64990972D01*
X173269398Y-64923736D01*
X173288399Y-64859027D01*
X173300423Y-64839891D01*
X173325789Y-64799522D01*
X173385368Y-64629255D01*
X173405565Y-64450000D01*
X173385368Y-64270745D01*
X173325789Y-64100478D01*
X173288397Y-64040970D01*
X173269398Y-63973734D01*
X173288398Y-63909028D01*
X173325789Y-63849522D01*
X173385368Y-63679255D01*
X173405565Y-63500000D01*
X173385368Y-63320745D01*
X173325789Y-63150478D01*
X173229816Y-62997738D01*
X173229815Y-62997737D01*
X173229814Y-62997735D01*
X173102264Y-62870185D01*
X172976297Y-62791035D01*
X172949522Y-62774211D01*
X172779255Y-62714632D01*
X172779253Y-62714631D01*
X172779251Y-62714631D01*
X172600000Y-62694434D01*
X172420748Y-62714631D01*
X172420745Y-62714631D01*
X172420745Y-62714632D01*
X172250478Y-62774211D01*
X172250476Y-62774211D01*
X172250476Y-62774212D01*
X172097735Y-62870185D01*
X171970185Y-62997735D01*
X171883403Y-63135849D01*
X171874211Y-63150478D01*
X171862211Y-63184773D01*
X171814631Y-63320748D01*
X171794434Y-63500000D01*
X171814631Y-63679251D01*
X171814631Y-63679253D01*
X171814632Y-63679255D01*
X171874211Y-63849522D01*
X171911601Y-63909027D01*
X171930601Y-63976263D01*
X171911601Y-64040970D01*
X171874213Y-64100473D01*
X171874212Y-64100476D01*
X171874211Y-64100478D01*
X171821724Y-64250478D01*
X171814631Y-64270748D01*
X171794434Y-64449999D01*
X171814631Y-64629251D01*
X171814631Y-64629253D01*
X171814632Y-64629255D01*
X171874211Y-64799522D01*
X171911601Y-64859028D01*
X171930601Y-64926263D01*
X171911601Y-64990970D01*
X171874213Y-65050473D01*
X171874211Y-65050477D01*
X171874211Y-65050478D01*
X171821724Y-65200478D01*
X171814631Y-65220748D01*
X171794434Y-65400000D01*
X171814631Y-65579251D01*
X171814631Y-65579253D01*
X171814632Y-65579255D01*
X171874211Y-65749522D01*
X171901203Y-65792479D01*
X171970185Y-65902264D01*
X172097735Y-66029814D01*
X172097737Y-66029815D01*
X172097738Y-66029816D01*
X172250478Y-66125789D01*
X172343843Y-66158458D01*
X172400619Y-66199180D01*
X172426366Y-66264133D01*
X172412910Y-66332694D01*
X172364523Y-66383097D01*
X172302888Y-66399500D01*
X167232941Y-66399500D01*
X167165902Y-66379815D01*
X167159925Y-66374999D01*
X166999519Y-66274209D01*
X166849832Y-66221831D01*
X166793056Y-66181109D01*
X166767309Y-66116157D01*
X166780766Y-66047595D01*
X166824814Y-65999797D01*
X166951762Y-65920031D01*
X167079316Y-65792477D01*
X167175289Y-65639737D01*
X167234868Y-65469470D01*
X167253963Y-65299999D01*
X167794434Y-65299999D01*
X167814631Y-65479251D01*
X167814631Y-65479253D01*
X167814632Y-65479255D01*
X167874211Y-65649522D01*
X167892891Y-65679251D01*
X167970185Y-65802264D01*
X168097735Y-65929814D01*
X168097737Y-65929815D01*
X168097738Y-65929816D01*
X168250478Y-66025789D01*
X168420745Y-66085368D01*
X168600000Y-66105565D01*
X168779255Y-66085368D01*
X168949522Y-66025789D01*
X169102262Y-65929816D01*
X169229816Y-65802262D01*
X169325789Y-65649522D01*
X169385368Y-65479255D01*
X169405565Y-65300000D01*
X169385368Y-65120745D01*
X169325789Y-64950478D01*
X169229816Y-64797738D01*
X169229815Y-64797737D01*
X169229814Y-64797735D01*
X169102264Y-64670185D01*
X168990565Y-64600000D01*
X168949522Y-64574211D01*
X168779255Y-64514632D01*
X168779253Y-64514631D01*
X168779251Y-64514631D01*
X168600000Y-64494434D01*
X168420748Y-64514631D01*
X168420745Y-64514631D01*
X168420745Y-64514632D01*
X168250478Y-64574211D01*
X168250476Y-64574211D01*
X168250476Y-64574212D01*
X168097735Y-64670185D01*
X167970185Y-64797735D01*
X167874811Y-64949523D01*
X167874211Y-64950478D01*
X167821099Y-65102264D01*
X167814631Y-65120748D01*
X167794434Y-65299999D01*
X167253963Y-65299999D01*
X167255065Y-65290215D01*
X167234868Y-65110960D01*
X167175289Y-64940693D01*
X167085464Y-64797738D01*
X167071883Y-64776123D01*
X167074975Y-64774180D01*
X167052834Y-64733632D01*
X167050000Y-64707274D01*
X167050000Y-63650596D01*
X167069685Y-63583557D01*
X167086319Y-63562915D01*
X167612416Y-63036819D01*
X167673739Y-63003334D01*
X167700097Y-63000500D01*
X170502513Y-63000500D01*
X170518697Y-63001560D01*
X170550000Y-63005682D01*
X170706762Y-62985044D01*
X170852841Y-62924536D01*
X170875911Y-62906834D01*
X170978282Y-62828282D01*
X170997509Y-62803223D01*
X171008190Y-62791043D01*
X171266043Y-62533190D01*
X171278223Y-62522509D01*
X171303282Y-62503282D01*
X171399536Y-62377841D01*
X171460044Y-62231762D01*
X171475500Y-62114361D01*
X171480682Y-62075000D01*
X171478049Y-62055001D01*
X171476561Y-62043696D01*
X171475500Y-62027511D01*
X171475500Y-60682940D01*
X171495185Y-60615901D01*
X171500000Y-60609926D01*
X171504816Y-60602262D01*
X171600789Y-60449522D01*
X171660368Y-60279255D01*
X171680565Y-60100000D01*
X171660368Y-59920745D01*
X171600789Y-59750478D01*
X171504816Y-59597738D01*
X171504815Y-59597737D01*
X171504814Y-59597735D01*
X171377264Y-59470185D01*
X171304096Y-59424211D01*
X171224522Y-59374211D01*
X171054255Y-59314632D01*
X171054253Y-59314631D01*
X171054251Y-59314631D01*
X170874999Y-59294434D01*
X170695748Y-59314631D01*
X170695745Y-59314631D01*
X170695745Y-59314632D01*
X170525478Y-59374211D01*
X170525476Y-59374211D01*
X170525476Y-59374212D01*
X170372735Y-59470185D01*
X170245185Y-59597735D01*
X170149212Y-59750476D01*
X170149211Y-59750478D01*
X170104723Y-59877617D01*
X170089631Y-59920748D01*
X170069434Y-60099999D01*
X170089631Y-60279251D01*
X170089631Y-60279253D01*
X170089632Y-60279255D01*
X170149211Y-60449522D01*
X170199663Y-60529816D01*
X170252617Y-60614092D01*
X170249523Y-60616035D01*
X170271662Y-60656561D01*
X170274500Y-60682940D01*
X170274500Y-61675500D01*
X170254815Y-61742539D01*
X170202011Y-61788294D01*
X170150500Y-61799500D01*
X167447487Y-61799500D01*
X167431302Y-61798439D01*
X167400000Y-61794318D01*
X167399666Y-61794274D01*
X167335770Y-61766007D01*
X167297299Y-61707683D01*
X167292632Y-61685217D01*
X167292613Y-61685044D01*
X167285368Y-61620745D01*
X167225789Y-61450478D01*
X167129816Y-61297738D01*
X167129815Y-61297737D01*
X167129814Y-61297735D01*
X167002264Y-61170185D01*
X166904482Y-61108745D01*
X166849522Y-61074211D01*
X166679255Y-61014632D01*
X166679253Y-61014631D01*
X166679251Y-61014631D01*
X166500000Y-60994434D01*
X166320748Y-61014631D01*
X166320745Y-61014631D01*
X166320745Y-61014632D01*
X166150478Y-61074211D01*
X166150476Y-61074211D01*
X166150476Y-61074212D01*
X165997735Y-61170185D01*
X165870185Y-61297735D01*
X165774212Y-61450476D01*
X165774211Y-61450478D01*
X165759037Y-61493844D01*
X165714631Y-61620748D01*
X165694434Y-61799999D01*
X165714631Y-61979251D01*
X165714631Y-61979253D01*
X165714632Y-61979255D01*
X165774211Y-62149522D01*
X165794224Y-62181372D01*
X165870185Y-62302264D01*
X165997735Y-62429814D01*
X165997737Y-62429815D01*
X165997738Y-62429816D01*
X166150478Y-62525789D01*
X166167550Y-62531762D01*
X166224326Y-62572482D01*
X166250075Y-62637434D01*
X166236620Y-62705996D01*
X166214278Y-62736485D01*
X166058465Y-62892298D01*
X166046273Y-62902991D01*
X166021217Y-62922217D01*
X165945075Y-63021450D01*
X165924963Y-63047659D01*
X165864456Y-63193737D01*
X165843817Y-63350499D01*
X165847939Y-63381801D01*
X165849000Y-63397987D01*
X165849000Y-64707274D01*
X165829315Y-64774313D01*
X165824499Y-64780289D01*
X165733077Y-64925787D01*
X165723711Y-64940693D01*
X165686254Y-65047738D01*
X165664131Y-65110963D01*
X165643934Y-65290215D01*
X165664131Y-65469466D01*
X165664131Y-65469468D01*
X165664132Y-65469470D01*
X165723711Y-65639737D01*
X165748542Y-65679255D01*
X165819685Y-65792479D01*
X165947235Y-65920029D01*
X165947237Y-65920030D01*
X165947238Y-65920031D01*
X166074183Y-65999796D01*
X166099980Y-66016005D01*
X166249667Y-66068383D01*
X166306443Y-66109104D01*
X166332190Y-66174057D01*
X166318734Y-66242619D01*
X166274684Y-66290418D01*
X166135908Y-66377617D01*
X166133965Y-66374524D01*
X166093417Y-66396666D01*
X166067059Y-66399500D01*
X164205068Y-66399500D01*
X164139096Y-66380494D01*
X164122688Y-66370184D01*
X164049522Y-66324211D01*
X163879255Y-66264632D01*
X163879253Y-66264631D01*
X163879251Y-66264631D01*
X163700000Y-66244434D01*
X163520748Y-66264631D01*
X163520745Y-66264631D01*
X163520745Y-66264632D01*
X163350478Y-66324211D01*
X163350476Y-66324211D01*
X163350476Y-66324212D01*
X163197735Y-66420185D01*
X163070185Y-66547735D01*
X162974212Y-66700476D01*
X162914631Y-66870748D01*
X162894434Y-67049999D01*
X162914631Y-67229251D01*
X162914631Y-67229253D01*
X162914632Y-67229255D01*
X162974211Y-67399522D01*
X162974212Y-67399523D01*
X163070185Y-67552264D01*
X163197735Y-67679814D01*
X163197737Y-67679815D01*
X163197738Y-67679816D01*
X163350478Y-67775789D01*
X163520745Y-67835368D01*
X163700000Y-67855565D01*
X163879255Y-67835368D01*
X164049522Y-67775789D01*
X164202262Y-67679816D01*
X164245258Y-67636819D01*
X164306581Y-67603334D01*
X164332940Y-67600500D01*
X165295547Y-67600500D01*
X165362586Y-67620185D01*
X165408341Y-67672989D01*
X165418285Y-67742147D01*
X165389260Y-67805703D01*
X165383230Y-67812178D01*
X164918910Y-68276498D01*
X164463795Y-68731613D01*
X164402472Y-68765098D01*
X164344020Y-68763707D01*
X164300068Y-68751930D01*
X164300067Y-68751929D01*
X164300064Y-68751929D01*
X164079999Y-68732676D01*
X163859934Y-68751929D01*
X163646548Y-68809106D01*
X163446338Y-68902466D01*
X163265379Y-69029174D01*
X163109174Y-69185379D01*
X162982466Y-69366338D01*
X162922382Y-69495189D01*
X162876209Y-69547628D01*
X162809016Y-69566780D01*
X162742135Y-69546564D01*
X162697618Y-69495189D01*
X162637651Y-69366590D01*
X162637534Y-69366339D01*
X162510826Y-69185380D01*
X162354620Y-69029174D01*
X162173662Y-68902466D01*
X162031659Y-68836249D01*
X161973451Y-68809106D01*
X161760065Y-68751929D01*
X161540000Y-68732676D01*
X161319934Y-68751929D01*
X161106548Y-68809106D01*
X160906338Y-68902466D01*
X160725379Y-69029174D01*
X160569174Y-69185379D01*
X160442466Y-69366338D01*
X160382382Y-69495189D01*
X160336209Y-69547628D01*
X160269016Y-69566780D01*
X160202135Y-69546564D01*
X160157618Y-69495189D01*
X160097651Y-69366590D01*
X160097534Y-69366339D01*
X159970826Y-69185380D01*
X159814620Y-69029174D01*
X159633662Y-68902466D01*
X159491659Y-68836249D01*
X159433451Y-68809106D01*
X159220065Y-68751929D01*
X159000000Y-68732676D01*
X158779934Y-68751929D01*
X158566548Y-68809106D01*
X158366338Y-68902466D01*
X158185379Y-69029174D01*
X158029174Y-69185379D01*
X157902466Y-69366338D01*
X157809106Y-69566548D01*
X157751929Y-69779934D01*
X157732676Y-70000000D01*
X157300500Y-70000000D01*
X157300500Y-62634377D01*
X159249500Y-62634377D01*
X159249501Y-62637508D01*
X159249820Y-62640640D01*
X159249821Y-62640641D01*
X159260000Y-62740296D01*
X159315186Y-62906834D01*
X159407288Y-63056157D01*
X159531342Y-63180211D01*
X159553273Y-63193738D01*
X159680666Y-63272314D01*
X159773919Y-63303215D01*
X159847202Y-63327499D01*
X159946858Y-63337680D01*
X159946859Y-63337680D01*
X159949991Y-63338000D01*
X162950008Y-63337999D01*
X163052797Y-63327499D01*
X163219334Y-63272314D01*
X163368656Y-63180212D01*
X163492712Y-63056156D01*
X163584814Y-62906834D01*
X163639999Y-62740297D01*
X163650500Y-62637509D01*
X163650499Y-61912492D01*
X163639999Y-61809703D01*
X163584814Y-61643166D01*
X163492712Y-61493844D01*
X163492711Y-61493842D01*
X163368657Y-61369788D01*
X163219334Y-61277686D01*
X163052797Y-61222500D01*
X162953141Y-61212319D01*
X162953122Y-61212318D01*
X162950009Y-61212000D01*
X162946860Y-61212000D01*
X159953140Y-61212000D01*
X159953120Y-61212000D01*
X159949992Y-61212001D01*
X159946860Y-61212320D01*
X159946858Y-61212321D01*
X159847203Y-61222500D01*
X159680665Y-61277686D01*
X159531342Y-61369788D01*
X159407288Y-61493842D01*
X159315186Y-61643165D01*
X159260000Y-61809702D01*
X159249819Y-61909358D01*
X159249817Y-61909378D01*
X159249500Y-61912491D01*
X159249500Y-61915638D01*
X159249500Y-61915639D01*
X159249500Y-62634358D01*
X159249500Y-62634377D01*
X157300500Y-62634377D01*
X157300500Y-53255975D01*
X157300836Y-53246855D01*
X157301163Y-53242419D01*
X157304482Y-53204481D01*
X157314092Y-53106913D01*
X157314829Y-53100938D01*
X157320697Y-53061383D01*
X157323065Y-53049482D01*
X157325330Y-53040442D01*
X157337906Y-52993507D01*
X157338952Y-52989844D01*
X157360945Y-52917342D01*
X157362846Y-52911589D01*
X157362854Y-52911568D01*
X157373024Y-52883140D01*
X157377372Y-52872563D01*
X157403686Y-52816132D01*
X157406683Y-52810136D01*
X157443903Y-52740504D01*
X157446848Y-52735303D01*
X157456354Y-52719443D01*
X157461093Y-52712138D01*
X157499645Y-52657081D01*
X157505317Y-52649604D01*
X157559741Y-52583288D01*
X157563669Y-52578734D01*
X157566805Y-52575274D01*
X157570925Y-52570947D01*
X157620947Y-52520925D01*
X157625274Y-52516805D01*
X157628734Y-52513669D01*
X157633293Y-52509738D01*
X157633311Y-52509723D01*
X157699604Y-52455317D01*
X157707081Y-52449645D01*
X157762138Y-52411093D01*
X157769443Y-52406354D01*
X157785303Y-52396848D01*
X157790504Y-52393903D01*
X157860136Y-52356683D01*
X157866132Y-52353686D01*
X157922563Y-52327372D01*
X157933140Y-52323024D01*
X157961594Y-52312844D01*
X157967342Y-52310945D01*
X158039844Y-52288952D01*
X158043523Y-52287901D01*
X158090456Y-52275326D01*
X158099698Y-52273011D01*
X158111309Y-52270708D01*
X158150913Y-52264833D01*
X158156938Y-52264090D01*
X158254533Y-52254477D01*
X158292416Y-52251163D01*
X158297190Y-52250811D01*
X158305889Y-52250500D01*
X207894023Y-52250500D01*
X207903139Y-52250835D01*
G37*
%TD.AperFunction*%
%TD*%
M02*
