%TF.GenerationSoftware,KiCad,Pcbnew,7.0.2*%
%TF.CreationDate,2023-06-20T04:45:02+07:00*%
%TF.ProjectId,STM32L431RCT6_prototype_board,53544d33-324c-4343-9331-524354365f70,rev?*%
%TF.SameCoordinates,Original*%
%TF.FileFunction,Drillmap*%
%TF.FilePolarity,Positive*%
%FSLAX45Y45*%
G04 Gerber Fmt 4.5, Leading zero omitted, Abs format (unit mm)*
G04 Created by KiCad (PCBNEW 7.0.2) date 2023-06-20 04:45:02*
%MOMM*%
%LPD*%
G01*
G04 APERTURE LIST*
%ADD10C,0.100000*%
%ADD11C,0.200000*%
G04 APERTURE END LIST*
D10*
X15730000Y-7150000D02*
G75*
G03*
X15830000Y-7250000I100000J0D01*
G01*
X15830000Y-5225000D02*
X20790000Y-5225000D01*
X20890000Y-5325000D02*
X20890000Y-7150000D01*
X20790000Y-7250000D02*
G75*
G03*
X20890000Y-7150000I0J100000D01*
G01*
X20890000Y-5325000D02*
G75*
G03*
X20790000Y-5225000I-100000J0D01*
G01*
X15730000Y-7150000D02*
X15730000Y-5325000D01*
X20790000Y-7250000D02*
X15830000Y-7250000D01*
X15830000Y-5225000D02*
G75*
G03*
X15730000Y-5325000I0J-100000D01*
G01*
D11*
X15972619Y-7567524D02*
X15972619Y-7367524D01*
X15972619Y-7367524D02*
X16020238Y-7367524D01*
X16020238Y-7367524D02*
X16048809Y-7377048D01*
X16048809Y-7377048D02*
X16067857Y-7396095D01*
X16067857Y-7396095D02*
X16077381Y-7415143D01*
X16077381Y-7415143D02*
X16086905Y-7453238D01*
X16086905Y-7453238D02*
X16086905Y-7481809D01*
X16086905Y-7481809D02*
X16077381Y-7519905D01*
X16077381Y-7519905D02*
X16067857Y-7538952D01*
X16067857Y-7538952D02*
X16048809Y-7558000D01*
X16048809Y-7558000D02*
X16020238Y-7567524D01*
X16020238Y-7567524D02*
X15972619Y-7567524D01*
X16172619Y-7567524D02*
X16172619Y-7434190D01*
X16172619Y-7472286D02*
X16182143Y-7453238D01*
X16182143Y-7453238D02*
X16191667Y-7443714D01*
X16191667Y-7443714D02*
X16210714Y-7434190D01*
X16210714Y-7434190D02*
X16229762Y-7434190D01*
X16296428Y-7567524D02*
X16296428Y-7434190D01*
X16296428Y-7367524D02*
X16286905Y-7377048D01*
X16286905Y-7377048D02*
X16296428Y-7386571D01*
X16296428Y-7386571D02*
X16305952Y-7377048D01*
X16305952Y-7377048D02*
X16296428Y-7367524D01*
X16296428Y-7367524D02*
X16296428Y-7386571D01*
X16420238Y-7567524D02*
X16401190Y-7558000D01*
X16401190Y-7558000D02*
X16391667Y-7538952D01*
X16391667Y-7538952D02*
X16391667Y-7367524D01*
X16525000Y-7567524D02*
X16505952Y-7558000D01*
X16505952Y-7558000D02*
X16496428Y-7538952D01*
X16496428Y-7538952D02*
X16496428Y-7367524D01*
X16753571Y-7567524D02*
X16753571Y-7367524D01*
X16753571Y-7367524D02*
X16820238Y-7510381D01*
X16820238Y-7510381D02*
X16886905Y-7367524D01*
X16886905Y-7367524D02*
X16886905Y-7567524D01*
X17067857Y-7567524D02*
X17067857Y-7462762D01*
X17067857Y-7462762D02*
X17058333Y-7443714D01*
X17058333Y-7443714D02*
X17039286Y-7434190D01*
X17039286Y-7434190D02*
X17001190Y-7434190D01*
X17001190Y-7434190D02*
X16982143Y-7443714D01*
X17067857Y-7558000D02*
X17048810Y-7567524D01*
X17048810Y-7567524D02*
X17001190Y-7567524D01*
X17001190Y-7567524D02*
X16982143Y-7558000D01*
X16982143Y-7558000D02*
X16972619Y-7538952D01*
X16972619Y-7538952D02*
X16972619Y-7519905D01*
X16972619Y-7519905D02*
X16982143Y-7500857D01*
X16982143Y-7500857D02*
X17001190Y-7491333D01*
X17001190Y-7491333D02*
X17048810Y-7491333D01*
X17048810Y-7491333D02*
X17067857Y-7481809D01*
X17163095Y-7434190D02*
X17163095Y-7634190D01*
X17163095Y-7443714D02*
X17182143Y-7434190D01*
X17182143Y-7434190D02*
X17220238Y-7434190D01*
X17220238Y-7434190D02*
X17239286Y-7443714D01*
X17239286Y-7443714D02*
X17248810Y-7453238D01*
X17248810Y-7453238D02*
X17258333Y-7472286D01*
X17258333Y-7472286D02*
X17258333Y-7529428D01*
X17258333Y-7529428D02*
X17248810Y-7548476D01*
X17248810Y-7548476D02*
X17239286Y-7558000D01*
X17239286Y-7558000D02*
X17220238Y-7567524D01*
X17220238Y-7567524D02*
X17182143Y-7567524D01*
X17182143Y-7567524D02*
X17163095Y-7558000D01*
X17344048Y-7548476D02*
X17353571Y-7558000D01*
X17353571Y-7558000D02*
X17344048Y-7567524D01*
X17344048Y-7567524D02*
X17334524Y-7558000D01*
X17334524Y-7558000D02*
X17344048Y-7548476D01*
X17344048Y-7548476D02*
X17344048Y-7567524D01*
X17344048Y-7443714D02*
X17353571Y-7453238D01*
X17353571Y-7453238D02*
X17344048Y-7462762D01*
X17344048Y-7462762D02*
X17334524Y-7453238D01*
X17334524Y-7453238D02*
X17344048Y-7443714D01*
X17344048Y-7443714D02*
X17344048Y-7462762D01*
M02*
